<svg xmlns="http://www.w3.org/2000/svg" xmlns:oryx="http://oryx-editor.org" id="_9EA3A10E-CB54-4463-88E5-23AB2D67B194" width="862" height="1339.7803955078125" xmlns:xlink="http://www.w3.org/1999/xlink" xmlns:svg="http://www.w3.org/2000/svg"><defs><marker id="_F456189A-66E7-4D15-AE0B-D4CE0E912CC7start" refX="1" refY="5" markerUnits="userSpaceOnUse" markerWidth="17" markerHeight="11" orient="auto" fill="#000000" stroke="#000000"> 	  		<path id="_F456189A-66E7-4D15-AE0B-D4CE0E912CC7conditional" d="M 0 5 L 8 0 L 16 5 L 8 10 L 0 5" fill="white" stroke="#000000" stroke-width="1" display="none"/> 			<path id="_F456189A-66E7-4D15-AE0B-D4CE0E912CC7default" d="M 5 0 L 11 10" fill="white" stroke="#000000" stroke-width="1" display="none"/> 	  	</marker><marker id="_F456189A-66E7-4D15-AE0B-D4CE0E912CC7end" refX="15" refY="6" markerUnits="userSpaceOnUse" markerWidth="15" markerHeight="12" orient="auto" fill="#000000" stroke="#000000"> 	  		<path id="_F456189A-66E7-4D15-AE0B-D4CE0E912CC7frame2" d="M 0 1 L 15 6 L 0 11z" fill="#000000" stroke="#000000" stroke-linejoin="round" stroke-width="2"/> 	  	</marker><marker id="_6444AC47-35FC-4887-A5AF-46C85343A613start" refX="1" refY="5" markerUnits="userSpaceOnUse" markerWidth="17" markerHeight="11" orient="auto" fill="#000000" stroke="#000000"> 	  		<path id="_6444AC47-35FC-4887-A5AF-46C85343A613conditional" d="M 0 5 L 8 0 L 16 5 L 8 10 L 0 5" fill="white" stroke="#000000" stroke-width="1" display="none"/> 			<path id="_6444AC47-35FC-4887-A5AF-46C85343A613default" d="M 5 0 L 11 10" fill="white" stroke="#000000" stroke-width="1" display="none"/> 	  	</marker><marker id="_6444AC47-35FC-4887-A5AF-46C85343A613end" refX="15" refY="6" markerUnits="userSpaceOnUse" markerWidth="15" markerHeight="12" orient="auto" fill="#000000" stroke="#000000"> 	  		<path id="_6444AC47-35FC-4887-A5AF-46C85343A613frame2" d="M 0 1 L 15 6 L 0 11z" fill="#000000" stroke="#000000" stroke-linejoin="round" stroke-width="2"/> 	  	</marker><marker id="_5288A07E-2966-4E5F-953D-A686ED4F6BBDstart" refX="1" refY="5" markerUnits="userSpaceOnUse" markerWidth="17" markerHeight="11" orient="auto" fill="#000000" stroke="#000000"> 	  		<path id="_5288A07E-2966-4E5F-953D-A686ED4F6BBDconditional" d="M 0 5 L 8 0 L 16 5 L 8 10 L 0 5" fill="white" stroke="#000000" stroke-width="1" display="none"/> 			<path id="_5288A07E-2966-4E5F-953D-A686ED4F6BBDdefault" d="M 5 0 L 11 10" fill="white" stroke="#000000" stroke-width="1" display="none"/> 	  	</marker><marker id="_5288A07E-2966-4E5F-953D-A686ED4F6BBDend" refX="15" refY="6" markerUnits="userSpaceOnUse" markerWidth="15" markerHeight="12" orient="auto" fill="#000000" stroke="#000000"> 	  		<path id="_5288A07E-2966-4E5F-953D-A686ED4F6BBDframe2" d="M 0 1 L 15 6 L 0 11z" fill="#000000" stroke="#000000" stroke-linejoin="round" stroke-width="2"/> 	  	</marker><marker id="_0E47B89F-4B48-409A-8B9A-903F6EE24528start" refX="1" refY="5" markerUnits="userSpaceOnUse" markerWidth="17" markerHeight="11" orient="auto" fill="#000000" stroke="#000000"> 	  		<path id="_0E47B89F-4B48-409A-8B9A-903F6EE24528conditional" d="M 0 5 L 8 0 L 16 5 L 8 10 L 0 5" fill="white" stroke="#000000" stroke-width="1" display="none"/> 			<path id="_0E47B89F-4B48-409A-8B9A-903F6EE24528default" d="M 5 0 L 11 10" fill="white" stroke="#000000" stroke-width="1" display="none"/> 	  	</marker><marker id="_0E47B89F-4B48-409A-8B9A-903F6EE24528end" refX="15" refY="6" markerUnits="userSpaceOnUse" markerWidth="15" markerHeight="12" orient="auto" fill="#000000" stroke="#000000"> 	  		<path id="_0E47B89F-4B48-409A-8B9A-903F6EE24528frame2" d="M 0 1 L 15 6 L 0 11z" fill="#000000" stroke="#000000" stroke-linejoin="round" stroke-width="2"/> 	  	</marker></defs><g stroke="none" font-family="Verdana, sans-serif" font-size-adjust="none" font-style="normal" font-variant="normal" font-weight="normal" line-heigth="normal" font-size="12"><g class="stencils" transform="translate(25.000000000000057, 412.0477600097656)"><g class="me"/><g class="children"><g id="_9974A0C2-8046-47B2-85EC-E82EB43B8320" bpmn2nodeid="_97BDC9A7-504B-4C1E-922F-4B785F18471E"><g class="stencils" transform="translate(212, 73)"><g class="me"><g pointer-events="painted" id="_9974A0C2-8046-47B2-85EC-E82EB43B8320">         <defs id="_9974A0C2-8046-47B2-85EC-E82EB43B8320__9974A0C2-8046-47B2-85EC-E82EB43B8320_3"> 		<radialGradient id="_9974A0C2-8046-47B2-85EC-E82EB43B8320background" cx="0%" cy="10%" r="100%" fx="20%" fy="10%"> 			<stop offset="0%" stop-color="#ffffff" stop-opacity="1" id="_9974A0C2-8046-47B2-85EC-E82EB43B8320__9974A0C2-8046-47B2-85EC-E82EB43B8320_4"/> 			<stop id="_9974A0C2-8046-47B2-85EC-E82EB43B8320fill_el" offset="100%" stop-color="#ffffff" stop-opacity="1"/> 		</radialGradient> 	</defs> 	   	 	<rect id="_9974A0C2-8046-47B2-85EC-E82EB43B8320border" oryx:resize="vertical horizontal" x="0" y="0" width="600" height="250" stroke="#000000" stroke-width="1" fill="url(#_9974A0C2-8046-47B2-85EC-E82EB43B8320background) white"/> 	 	 	 	<path id="_9974A0C2-8046-47B2-85EC-E82EB43B8320frame2" style="fill:none;stroke-width:1" d="M 0,0 L 0,250" oryx:anchors="left top bottom" stroke="#000000"/> 	 	undefined 	     <text x="50" y="125" oryx:rotate="270" font-size="12" id="_9974A0C2-8046-47B2-85EC-E82EB43B8320text_name" oryx:align="middle center" oryx:anchors="left" oryx:fittoelem="frame" stroke="black" stroke-width="0pt" letter-spacing="-0.01px" fill="#000000" text-anchor="middle" transform="rotate(270 50 125)" visibility="inherit" oryx:fontSize="12"><tspan x="50" y="125" dy="5">Customer</tspan></text>   </g></g><g class="children" style="overflow:hidden"><g id="_051C1F7B-001D-4DC7-AA7C-6497D8A5772F" bpmn2nodeid="processStartEvent"><g class="stencils" transform="translate(103, 110)"><g class="me"><g pointer-events="fill" id="_051C1F7B-001D-4DC7-AA7C-6497D8A5772F">        <defs id="_051C1F7B-001D-4DC7-AA7C-6497D8A5772F__051C1F7B-001D-4DC7-AA7C-6497D8A5772F_5"> 		<radialGradient id="_051C1F7B-001D-4DC7-AA7C-6497D8A5772Fbackground" cx="10%" cy="10%" r="100%" fx="10%" fy="10%"> 			<stop offset="0%" stop-color="#ffffff" stop-opacity="1" id="_051C1F7B-001D-4DC7-AA7C-6497D8A5772F__051C1F7B-001D-4DC7-AA7C-6497D8A5772F_6"/> 			<stop id="_051C1F7B-001D-4DC7-AA7C-6497D8A5772Ffill_el" offset="100%" stop-color="#9acd32" stop-opacity="1"/> 		</radialGradient> 	</defs> 	     <circle id="_051C1F7B-001D-4DC7-AA7C-6497D8A5772Fbg_frame" cx="15" cy="15" r="15" stroke="#000000" fill="url(#_051C1F7B-001D-4DC7-AA7C-6497D8A5772Fbackground) white" stroke-width="1" style="stroke-dasharray: 5.5, 3"/>      <circle id="_051C1F7B-001D-4DC7-AA7C-6497D8A5772Fframe" cx="15" cy="15" r="15" stroke="#000000" fill="none" stroke-width="1" display="inherit"/>  	<text font-size="11" id="_051C1F7B-001D-4DC7-AA7C-6497D8A5772Ftext_name" x="15" y="32" oryx:align="top center" stroke="black" stroke-width="0pt" letter-spacing="-0.01px" fill="#000000" text-anchor="middle" transform="rotate(0 15 32)" visibility="inherit" oryx:fontSize="11"><tspan x="15" y="32" dy="11">Order</tspan><tspan x="15" y="32" dy="22">screen</tspan><tspan x="15" y="32" dy="33">opened</tspan></text>   </g></g><g class="children" style="overflow:hidden"/><g class="edge"/></g><g class="controls"><g class="dockers"/><g class="magnets" transform="translate(103, 110)"><g pointer-events="all" display="none" transform="translate(7, 7)"><circle cx="8" cy="8" r="4" stroke="none" fill="red" fill-opacity="0.3"/></g></g></g></g><g id="_ACF9883D-709D-4415-AB72-A094570FE204" bpmn2nodeid="_126383C8-6C7D-48EB-A932-AFA932A07E9B"><g class="stencils" transform="translate(178, 85)"><g class="me"><g pointer-events="fill" oryx:minimumSize="80 60" id="_ACF9883D-709D-4415-AB72-A094570FE204">   	<defs id="_ACF9883D-709D-4415-AB72-A094570FE204__ACF9883D-709D-4415-AB72-A094570FE204_17"> 		<radialGradient id="_ACF9883D-709D-4415-AB72-A094570FE204background" cx="10%" cy="10%" r="100%" fx="10%" fy="10%"> 			<stop offset="0%" stop-color="#ffffff" stop-opacity="1" id="_ACF9883D-709D-4415-AB72-A094570FE204__ACF9883D-709D-4415-AB72-A094570FE204_18"/> 			<stop id="_ACF9883D-709D-4415-AB72-A094570FE204fill_el" offset="100%" stop-color="#fafad2" stop-opacity="1"/> 		</radialGradient> 	</defs> 	<rect id="_ACF9883D-709D-4415-AB72-A094570FE204text_frame" oryx:anchors="bottom top right left" x="1" y="1" width="94" height="79" rx="10" ry="10" stroke="none" stroke-width="0" fill="none"/> 	<rect id="_ACF9883D-709D-4415-AB72-A094570FE204bg_frame" oryx:anchors="bottom top right left" x="0" y="0" width="100" height="80" rx="10" ry="10" stroke="#000000" stroke-width="1" fill="url(#_ACF9883D-709D-4415-AB72-A094570FE204background) #ffffcc"/> 	<rect id="_ACF9883D-709D-4415-AB72-A094570FE204frame" oryx:resize="vertical horizontal" oryx:anchors="bottom top right left" x="0" y="0" width="100" height="80" rx="10" ry="10" stroke="#000000" stroke-width="4" fill="none"/> 	<rect id="_ACF9883D-709D-4415-AB72-A094570FE204frame2" oryx:anchors="top bottom left right" oryx:resize="vertical horizontal" x="2.5" y="2.5" width="95" height="75" rx="8" ry="8" stroke="#000000" stroke-width="1" fill="none"/>     	<text font-size="12" id="_ACF9883D-709D-4415-AB72-A094570FE204text_name" x="50" y="40" oryx:align="middle center" oryx:fittoelem="text_frame" stroke="black" stroke-width="0pt" letter-spacing="-0.01px" fill="#000000" text-anchor="middle" transform="rotate(0 50 40)" visibility="inherit" oryx:fontSize="12"><tspan x="50" y="40" dy="5" id="ext-gen666">Login</tspan></text>          <a id="_ACF9883D-709D-4415-AB72-A094570FE204pimg" onclick="parent.designeropenintab(&quot;Login.bpmn2&quot;,&quot;default://master@MySpace/WashIt/src/main/resources/com/myspace/washit/Login.bpmn2&quot;);" xlink:href="">	 	<g id="_ACF9883D-709D-4415-AB72-A094570FE204b" oryx:anchors="bottom"> 		<rect id="_ACF9883D-709D-4415-AB72-A094570FE204frame3" oryx:anchors="bottom" x="44" y="66" width="14" height="14" fill="none" stroke="#000000" stroke-width="1"/> 		<path id="_ACF9883D-709D-4415-AB72-A094570FE204frame4" oryx:anchors="bottom" fill="none" stroke="#000000" d="M51 68 v10 M 46 73 h10" stroke-width="1"/> 	</g> 	</a> 	<g id="_ACF9883D-709D-4415-AB72-A094570FE204none"/> 	undefined 	  	undefined 	undefined 	 	 	undefined 	undefined   </g></g><g class="children" style="overflow:hidden"/><g class="edge"/></g><g class="controls"><g class="dockers"/><g class="magnets" transform="translate(178, 85)"><g pointer-events="all" display="none" transform="translate(-7, 12)"><circle cx="8" cy="8" r="4" stroke="none" fill="red" fill-opacity="0.3"/></g><g pointer-events="all" display="none" transform="translate(-7, 32)"><circle cx="8" cy="8" r="4" stroke="none" fill="red" fill-opacity="0.3"/></g><g pointer-events="all" display="none" transform="translate(-7, 52)"><circle cx="8" cy="8" r="4" stroke="none" fill="red" fill-opacity="0.3"/></g><g pointer-events="all" display="none" transform="translate(17, 71)"><circle cx="8" cy="8" r="4" stroke="none" fill="red" fill-opacity="0.3"/></g><g pointer-events="all" display="none" transform="translate(42, 71)"><circle cx="8" cy="8" r="4" stroke="none" fill="red" fill-opacity="0.3"/></g><g pointer-events="all" display="none" transform="translate(67, 71)"><circle cx="8" cy="8" r="4" stroke="none" fill="red" fill-opacity="0.3"/></g><g pointer-events="all" display="none" transform="translate(91, 12)"><circle cx="8" cy="8" r="4" stroke="none" fill="red" fill-opacity="0.3"/></g><g pointer-events="all" display="none" transform="translate(91, 32)"><circle cx="8" cy="8" r="4" stroke="none" fill="red" fill-opacity="0.3"/></g><g pointer-events="all" display="none" transform="translate(91, 52)"><circle cx="8" cy="8" r="4" stroke="none" fill="red" fill-opacity="0.3"/></g><g pointer-events="all" display="none" transform="translate(17, -7)"><circle cx="8" cy="8" r="4" stroke="none" fill="red" fill-opacity="0.3"/></g><g pointer-events="all" display="none" transform="translate(42, -7)"><circle cx="8" cy="8" r="4" stroke="none" fill="red" fill-opacity="0.3"/></g><g pointer-events="all" display="none" transform="translate(67, -7)"><circle cx="8" cy="8" r="4" stroke="none" fill="red" fill-opacity="0.3"/></g><g pointer-events="all" display="none" transform="translate(42, 32)"><circle cx="8" cy="8" r="4" stroke="none" fill="red" fill-opacity="0.3"/></g></g></g></g><g id="_E4F4E432-DEB7-4125-95F9-9F2510655B34" bpmn2nodeid="_AD68BB65-077E-4E91-B56F-073EC7B1C382"><g class="stencils" transform="translate(523, 111)"><g class="me"><g pointer-events="fill" id="_E4F4E432-DEB7-4125-95F9-9F2510655B34">      <defs id="_E4F4E432-DEB7-4125-95F9-9F2510655B34__E4F4E432-DEB7-4125-95F9-9F2510655B34_5"> 		<radialGradient id="_E4F4E432-DEB7-4125-95F9-9F2510655B34background" cx="10%" cy="10%" r="100%" fx="10%" fy="10%"> 			<stop offset="0%" stop-color="#ffffff" stop-opacity="1" id="_E4F4E432-DEB7-4125-95F9-9F2510655B34__E4F4E432-DEB7-4125-95F9-9F2510655B34_6"/> 			<stop id="_E4F4E432-DEB7-4125-95F9-9F2510655B34fill_el" offset="100%" stop-color="#ff6347" stop-opacity="1"/> 		</radialGradient> 	</defs> 	     <circle id="_E4F4E432-DEB7-4125-95F9-9F2510655B34bg_frame" cx="14" cy="14" r="14" stroke="#000000" fill="url(#_E4F4E432-DEB7-4125-95F9-9F2510655B34background) white" stroke-width="3"/> 	<text font-size="11" id="_E4F4E432-DEB7-4125-95F9-9F2510655B34text_name" x="14" y="30" oryx:align="top center" stroke="black" stroke-width="0pt" letter-spacing="-0.01px" fill="#000000" text-anchor="middle" transform="rotate(0 14 30)" visibility="inherit" oryx:fontSize="11"><tspan x="14" y="30" dy="11">Order</tspan><tspan x="14" y="30" dy="22">created</tspan></text>   </g></g><g class="children" style="overflow:hidden"/><g class="edge"/></g><g class="controls"><g class="dockers"/><g class="magnets" transform="translate(523, 111)"><g pointer-events="all" display="none" transform="translate(6, 6)"><circle cx="8" cy="8" r="4" stroke="none" fill="red" fill-opacity="0.3"/></g></g></g></g><g id="_21373AD9-BE55-452D-86F1-3A5207087A05" bpmn2nodeid="_546FB0CA-6E82-4BFE-97BF-811C9E1FF34B"><g class="stencils" transform="translate(319, 85)"><g class="me"><g pointer-events="fill" oryx:minimumSize="50 40" id="_21373AD9-BE55-452D-86F1-3A5207087A05">   	<defs id="_21373AD9-BE55-452D-86F1-3A5207087A05__21373AD9-BE55-452D-86F1-3A5207087A05_17"> 		<radialGradient id="_21373AD9-BE55-452D-86F1-3A5207087A05background" cx="10%" cy="10%" r="100%" fx="10%" fy="10%"> 			<stop offset="0%" stop-color="#ffffff" stop-opacity="1" id="_21373AD9-BE55-452D-86F1-3A5207087A05__21373AD9-BE55-452D-86F1-3A5207087A05_18"/> 			<stop id="_21373AD9-BE55-452D-86F1-3A5207087A05fill_el" offset="100%" stop-color="#fafad2" stop-opacity="1"/> 		</radialGradient> 		<radialGradient id="_21373AD9-BE55-452D-86F1-3A5207087A05borderbackground" cx="10%" cy="10%" r="100%" fx="10%" fy="10%"> 			<stop offset="0%" stop-color="#ffffff" stop-opacity="1" id="_21373AD9-BE55-452D-86F1-3A5207087A05__21373AD9-BE55-452D-86F1-3A5207087A05_19"/> 			<stop id="_21373AD9-BE55-452D-86F1-3A5207087A05fill_border" offset="100%" stop-color="#000000" stop-opacity="1" stroke="#000000"/> 		</radialGradient> 	</defs> 	 	<rect id="_21373AD9-BE55-452D-86F1-3A5207087A05text_frame" oryx:anchors="bottom top right left" x="1" y="1" width="94" height="79" rx="10" ry="10" stroke="none" stroke-width="0" fill="none"/> 	<rect id="_21373AD9-BE55-452D-86F1-3A5207087A05bg_frame" oryx:resize="vertical horizontal" x="0" y="0" width="100" height="80" rx="10" ry="10" stroke="#000000" stroke-width="1" fill="url(#_21373AD9-BE55-452D-86F1-3A5207087A05background) #ffffcc"/> 		<text font-size="12" id="_21373AD9-BE55-452D-86F1-3A5207087A05text_name" x="50" y="40" oryx:align="middle center" oryx:fittoelem="text_frame" stroke="black" text-anchor="middle" stroke-width="0pt" letter-spacing="-0.01px" fill="#000000" transform="rotate(0 50 40)" visibility="inherit" oryx:fontSize="12"><tspan x="50" y="40" dy="-1">Choose </tspan><tspan x="50" y="40" dy="11" id="ext-gen674">laundry type</tspan></text>     <g id="_21373AD9-BE55-452D-86F1-3A5207087A05manualTask" transform="scale(0.7,0.7) translate(8,8)" display="none">     	<path oryx:anchors="top left" id="_21373AD9-BE55-452D-86F1-3A5207087A05frame" style="opacity:1;fill:none;fill-opacity:1;stroke-width:1" d="M0.5,3.751l4.083-3.25c0,0,11.166,0.083,12.083,0.083s-2.417,2.917-1.5,2.917     s11.667,0,12.584,0c1.166,1.708-0.168,3.167-0.834,3.667s0.875,1.917-1,4.417c-0.75,0.25,0.75,1.875-1.333,3.333     c-1.167,0.583,0.583,1.542-1.25,2.833c-1.167,0-20.833,0.083-20.833,0.083l-2-1.333V3.751z" stroke="#000000"/> 		<path id="_21373AD9-BE55-452D-86F1-3A5207087A05frame2" oryx:anchors="top left" style="opacity:1;fill:none;stroke-width:2" d="M 13.5 7 L 27 7" stroke="#000000"/> 		<path id="_21373AD9-BE55-452D-86F1-3A5207087A05frame3" oryx:anchors="top left" style="opacity:1;fill:none;stroke-width:2" d="M 13.5 11 L 26 11" stroke="#000000"/> 		<path id="_21373AD9-BE55-452D-86F1-3A5207087A05frame4" oryx:anchors="top left" style="opacity:1;fill:none;stroke-width:1.5" d="M 14 14.5 L 25 14.5" stroke="#000000"/> 		<path id="_21373AD9-BE55-452D-86F1-3A5207087A05frame5" oryx:anchors="top left" style="opacity:1;fill:none;stroke-width:1.5" d="M 8.2 3.1 L 15 3.1" stroke="#000000"/> 	</g> 	 	<g id="_21373AD9-BE55-452D-86F1-3A5207087A05businessRuleTask" transform="scale(0.7,0.7) translate(8,8)" display="none"> 		<rect id="_21373AD9-BE55-452D-86F1-3A5207087A05frame6" oryx:anchors="top left" x="0" y="0" width="22" height="4" style="opacity:1;fill:#B3B1B3;fill-opacity:1;" stroke="#000000"/> 		<rect id="_21373AD9-BE55-452D-86F1-3A5207087A05frame7" oryx:anchors="top left" x="0" y="4" style="opacity:1;fill:none;" width="22" height="12" stroke="#000000"/> 		<path id="_21373AD9-BE55-452D-86F1-3A5207087A05frame8" oryx:anchors="top left" style="opacity:1;fill:none;" d="M 0 10 L 22 10" stroke="#000000"/> 		<path id="_21373AD9-BE55-452D-86F1-3A5207087A05frame9" oryx:anchors="top left" style="opacity:1; fill:none;" d="M 7 4 L 7 16" stroke="#000000"/> 	</g> 	 	<g id="_21373AD9-BE55-452D-86F1-3A5207087A05scriptTask" transform="scale(0.7,0.7) translate(8,8)" display="none"> 		<path oryx:anchors="top left" id="_21373AD9-BE55-452D-86F1-3A5207087A05frame10" style="opacity:1;fill:none;" stroke="#000000" d="M6.402,0.5h14.5c0,0-5.833,2.833-5.833,5.583s4.417,6,4.417,9.167    s-4.167,5.083-4.167,5.083H0.235c0,0,5-2.667,5-5s-4.583-6.75-4.583-9.25S6.402,0.5,6.402,0.5z"/> 		<path oryx:anchors="top left" id="_21373AD9-BE55-452D-86F1-3A5207087A05frame11" style="opacity:1;fill:none;stroke-width:1.5" d="M 3.5 4.5 L 13.5 4.5" stroke="#000000"/> 		<path oryx:anchors="top left" id="_21373AD9-BE55-452D-86F1-3A5207087A05frame12" style="opacity:1;fill:none;stroke-width:1.5" d="M 3.8 8.5 L 13.8 8.5" stroke="#000000"/> 		<path oryx:anchors="top left" id="_21373AD9-BE55-452D-86F1-3A5207087A05frame13" style="opacity:1;fill:none;stroke-width:1.5" d="M 6.3 12.5 L 16.3 12.5" stroke="#000000"/> 		<path oryx:anchors="top left" id="_21373AD9-BE55-452D-86F1-3A5207087A05frame14" style="opacity:1;fill:none;stroke-width:1.5" d="M 6.5 16.5 L 16.5 16.5" stroke="#000000"/> 	</g> 	 	<g id="_21373AD9-BE55-452D-86F1-3A5207087A05userTask" transform="scale(0.7,0.7) translate(8,8)" display="inherit"> 		<path id="_21373AD9-BE55-452D-86F1-3A5207087A05frame15" oryx:anchors="top left" style="opacity:1;fill:#F4F6F7" stroke="#000000" d="M0.585,24.167h24.083v-7.833c0,0-2.333-3.917-7.083-5.167h-9.25    c-4.417,1.333-7.833,5.75-7.833,5.75L0.585,24.167z"/> 		<path id="_21373AD9-BE55-452D-86F1-3A5207087A05frame16" oryx:anchors="top left" style="opacity:1;fill:none" d="M 6 20 L 6 24" stroke="#000000"/> 		<path id="_21373AD9-BE55-452D-86F1-3A5207087A05frame17" oryx:anchors="top left" style="opacity:1;fill:none" d="M 20 20 L 20 24" stroke="#000000"/> 		<circle id="_21373AD9-BE55-452D-86F1-3A5207087A05frame18" oryx:anchors="top left" fill="black" cx="13.002" cy="5.916" r="5.417" stroke="#000000"/> 		<path id="_21373AD9-BE55-452D-86F1-3A5207087A05frame19" oryx:anchors="top left" style="opacity:1;fill:#F0EFF0;" stroke="#000000" d="M8.043,7.083c0,0,2.814-2.426,5.376-1.807s4.624-0.693,4.624-0.693    c0.25,1.688,0.042,3.75-1.458,5.584c0,0,1.083,0.75,1.083,1.5s0.125,1.875-1,3s-5.5,1.25-6.75,0S8.668,12.834,8.668,12    s0.583-1.25,1.25-1.917C8.835,9.5,7.419,7.708,8.043,7.083z"/> 	</g> 	 	<g id="_21373AD9-BE55-452D-86F1-3A5207087A05serviceTask" transform="scale(0.7,0.7) translate(8,8)" display="none"> 		<polygon oryx:anchors="top left" id="_21373AD9-BE55-452D-86F1-3A5207087A05frame20" style="opacity:1;fill:#ffffff" stroke="#000000" points="15.392,5.064 17.954,2.502 20.347,4.895 17.786,7.455     18.729,9.732 22.353,9.732 22.353,13.115 18.731,13.115 17.788,15.392 20.351,17.955 17.958,20.347 15.397,17.786 13.12,18.729     13.12,22.353 9.737,22.353 9.737,18.731 7.46,17.788 4.897,20.35 2.506,17.958 5.066,15.397 4.124,13.12 0.5,13.12 0.5,9.737     4.121,9.737 5.065,7.461 2.503,4.898 4.895,2.506 7.455,5.066 9.732,4.125 9.732,0.5 13.116,0.5 13.116,4.121 "/> 		<circle oryx:anchors="top left" id="_21373AD9-BE55-452D-86F1-3A5207087A05frame21" style="opacity:1;fill:none" stroke="#000000" cx="11.427" cy="11.426" r="3.714"/> 		<polygon oryx:anchors="top left" id="_21373AD9-BE55-452D-86F1-3A5207087A05frame22" style="opacity:1;fill:#ffffff" stroke="#000000" points="21.392,11.064 23.954,8.502 26.347,10.895 23.786,13.455     24.729,15.732 28.353,15.732 28.353,19.115 24.731,19.115 23.788,21.392 26.351,23.955 23.958,26.347 21.397,23.786 19.12,24.729     19.12,28.353 15.737,28.353 15.737,24.731 13.46,23.788 10.897,26.35 8.506,23.958 11.066,21.397 10.124,19.12 6.5,19.12     6.5,15.737 10.121,15.737 11.065,13.461 8.503,10.898 10.895,8.506 13.455,11.066 15.732,10.125 15.732,6.5 19.116,6.5     19.116,10.121 "/> 		<circle oryx:anchors="top left" id="_21373AD9-BE55-452D-86F1-3A5207087A05frame23" style="opacity:1;fill:none;" stroke="#000000" cx="17.427" cy="17.426" r="3.714"/> 	</g> 	 	<g id="_21373AD9-BE55-452D-86F1-3A5207087A05sendTask" display="none"> 		<path id="_21373AD9-BE55-452D-86F1-3A5207087A05stframe24" oryx:anchors="left top" stroke="#FFFFFF" fill="black" stroke-width="1" d="M8,11 L8,21 L24,21 L24,11 L16,17z"/> 		<path id="_21373AD9-BE55-452D-86F1-3A5207087A05stframe25" oryx:anchors="left top" stroke="#FFFFFF" fill="black" stroke-width="1" d="M7,10 L16,17 L25 10z"/> 	</g> 	 	<g id="_21373AD9-BE55-452D-86F1-3A5207087A05receiveTask" display="none"> 		<path id="_21373AD9-BE55-452D-86F1-3A5207087A05frame26" oryx:anchors="left top" stroke="#000000" fill="none" stroke-width="1" d="M8,11 L8,21 L24,21 L24,11z M8,11 L16,17 L24,11"/> 	</g> 	 	<g id="_21373AD9-BE55-452D-86F1-3A5207087A05none" display="inherit"/>  	<g id="_21373AD9-BE55-452D-86F1-3A5207087A05sequential" display="none">         <path oryx:anchors="bottom" fill="none" stroke="#000000" stroke-width="2" d="M46,76h10M46,72h10 M46,68h10" id="_21373AD9-BE55-452D-86F1-3A5207087A05__21373AD9-BE55-452D-86F1-3A5207087A05_20"/>     </g>   </g></g><g class="children" style="overflow:hidden"/><g class="edge"/></g><g class="controls"><g class="dockers"/><g class="magnets" transform="translate(319, 85)"><g pointer-events="all" display="none" transform="translate(-7, 12)"><circle cx="8" cy="8" r="4" stroke="none" fill="red" fill-opacity="0.3"/></g><g pointer-events="all" display="none" transform="translate(-7, 32)"><circle cx="8" cy="8" r="4" stroke="none" fill="red" fill-opacity="0.3"/></g><g pointer-events="all" display="none" transform="translate(-7, 52)"><circle cx="8" cy="8" r="4" stroke="none" fill="red" fill-opacity="0.3"/></g><g pointer-events="all" display="none" transform="translate(17, 71)"><circle cx="8" cy="8" r="4" stroke="none" fill="red" fill-opacity="0.3"/></g><g pointer-events="all" display="none" transform="translate(42, 71)"><circle cx="8" cy="8" r="4" stroke="none" fill="red" fill-opacity="0.3"/></g><g pointer-events="all" display="none" transform="translate(67, 71)"><circle cx="8" cy="8" r="4" stroke="none" fill="red" fill-opacity="0.3"/></g><g pointer-events="all" display="none" transform="translate(91, 12)"><circle cx="8" cy="8" r="4" stroke="none" fill="red" fill-opacity="0.3"/></g><g pointer-events="all" display="none" transform="translate(91, 32)"><circle cx="8" cy="8" r="4" stroke="none" fill="red" fill-opacity="0.3"/></g><g pointer-events="all" display="none" transform="translate(91, 52)"><circle cx="8" cy="8" r="4" stroke="none" fill="red" fill-opacity="0.3"/></g><g pointer-events="all" display="none" transform="translate(17, -7)"><circle cx="8" cy="8" r="4" stroke="none" fill="red" fill-opacity="0.3"/></g><g pointer-events="all" display="none" transform="translate(42, -7)"><circle cx="8" cy="8" r="4" stroke="none" fill="red" fill-opacity="0.3"/></g><g pointer-events="all" display="none" transform="translate(67, -7)"><circle cx="8" cy="8" r="4" stroke="none" fill="red" fill-opacity="0.3"/></g><g pointer-events="all" display="none" transform="translate(42, 32)"><circle cx="8" cy="8" r="4" stroke="none" fill="red" fill-opacity="0.3"/></g></g></g></g></g><g class="edge"/></g><g class="controls"><g class="dockers"/><g class="magnets" transform="translate(212, 73)"><g pointer-events="all" display="none" transform="translate(292, 117)"><circle cx="8" cy="8" r="4" stroke="none" fill="red" fill-opacity="0.3"/></g></g></g></g><g id="_4D616228-7D00-42E9-B169-7C5BEF7CC435" bpmn2nodeid="_71F31B9C-86E7-46A2-99F0-B39FCBD305DE"><g class="stencils" transform="translate(212, 360)"><g class="me"><g pointer-events="painted" id="_4D616228-7D00-42E9-B169-7C5BEF7CC435">         <defs id="_4D616228-7D00-42E9-B169-7C5BEF7CC435__4D616228-7D00-42E9-B169-7C5BEF7CC435_3"> 		<radialGradient id="_4D616228-7D00-42E9-B169-7C5BEF7CC435background" cx="0%" cy="10%" r="100%" fx="20%" fy="10%"> 			<stop offset="0%" stop-color="#ffffff" stop-opacity="1" id="_4D616228-7D00-42E9-B169-7C5BEF7CC435__4D616228-7D00-42E9-B169-7C5BEF7CC435_4"/> 			<stop id="_4D616228-7D00-42E9-B169-7C5BEF7CC435fill_el" offset="100%" stop-color="#ffffff" stop-opacity="1"/> 		</radialGradient> 	</defs> 	   	 	<rect id="_4D616228-7D00-42E9-B169-7C5BEF7CC435border" oryx:resize="vertical horizontal" x="0" y="0" width="600" height="250" stroke="#000000" stroke-width="1" fill="url(#_4D616228-7D00-42E9-B169-7C5BEF7CC435background) white"/> 	 	 	 	<path id="_4D616228-7D00-42E9-B169-7C5BEF7CC435frame2" style="fill:none;stroke-width:1" d="M 0,0 L 0,250" oryx:anchors="left top bottom" stroke="#000000"/> 	 	undefined 	     <text x="50" y="125" oryx:rotate="270" font-size="12" id="_4D616228-7D00-42E9-B169-7C5BEF7CC435text_name" oryx:align="middle center" oryx:anchors="left" oryx:fittoelem="frame" stroke="black" stroke-width="0pt" letter-spacing="-0.01px" fill="#000000" text-anchor="middle" transform="rotate(270 50 125)" visibility="inherit" oryx:fontSize="12"><tspan x="50" y="125" dy="5">Ordering system</tspan></text>   </g></g><g class="children" style="overflow:hidden"><g id="_8D1270D0-BE2B-42E2-B1ED-CC6171B74356" bpmn2nodeid="_3EF858DD-6DB8-4F4C-892E-F492C699D18C"><g class="stencils" transform="translate(413, 13)"><g class="me"><g pointer-events="fill" oryx:minimumSize="50 40" id="_8D1270D0-BE2B-42E2-B1ED-CC6171B74356">   	<defs id="_8D1270D0-BE2B-42E2-B1ED-CC6171B74356__8D1270D0-BE2B-42E2-B1ED-CC6171B74356_17"> 		<radialGradient id="_8D1270D0-BE2B-42E2-B1ED-CC6171B74356background" cx="10%" cy="10%" r="100%" fx="10%" fy="10%"> 			<stop offset="0%" stop-color="#ffffff" stop-opacity="1" id="_8D1270D0-BE2B-42E2-B1ED-CC6171B74356__8D1270D0-BE2B-42E2-B1ED-CC6171B74356_18"/> 			<stop id="_8D1270D0-BE2B-42E2-B1ED-CC6171B74356fill_el" offset="100%" stop-color="#fafad2" stop-opacity="1"/> 		</radialGradient> 		<radialGradient id="_8D1270D0-BE2B-42E2-B1ED-CC6171B74356borderbackground" cx="10%" cy="10%" r="100%" fx="10%" fy="10%"> 			<stop offset="0%" stop-color="#ffffff" stop-opacity="1" id="_8D1270D0-BE2B-42E2-B1ED-CC6171B74356__8D1270D0-BE2B-42E2-B1ED-CC6171B74356_19"/> 			<stop id="_8D1270D0-BE2B-42E2-B1ED-CC6171B74356fill_border" offset="100%" stop-color="#000000" stop-opacity="1" stroke="#000000"/> 		</radialGradient> 	</defs> 	 	<rect id="_8D1270D0-BE2B-42E2-B1ED-CC6171B74356text_frame" oryx:anchors="bottom top right left" x="1" y="1" width="94" height="79" rx="10" ry="10" stroke="none" stroke-width="0" fill="none"/> 	<rect id="_8D1270D0-BE2B-42E2-B1ED-CC6171B74356bg_frame" oryx:resize="vertical horizontal" x="0" y="0" width="100" height="80" rx="10" ry="10" stroke="#000000" stroke-width="1" fill="url(#_8D1270D0-BE2B-42E2-B1ED-CC6171B74356background) #ffffcc"/> 		<text font-size="12" id="_8D1270D0-BE2B-42E2-B1ED-CC6171B74356text_name" x="50" y="40" oryx:align="middle center" oryx:fittoelem="text_frame" stroke="black" text-anchor="middle" stroke-width="0pt" letter-spacing="-0.01px" fill="#000000" transform="rotate(0 50 40)" visibility="inherit" oryx:fontSize="12"><tspan x="50" y="40" dy="5" id="ext-gen610">aaa</tspan></text>     <g id="_8D1270D0-BE2B-42E2-B1ED-CC6171B74356manualTask" transform="scale(0.7,0.7) translate(8,8)" display="none">     	<path oryx:anchors="top left" id="_8D1270D0-BE2B-42E2-B1ED-CC6171B74356frame" style="opacity:1;fill:none;fill-opacity:1;stroke-width:1" d="M0.5,3.751l4.083-3.25c0,0,11.166,0.083,12.083,0.083s-2.417,2.917-1.5,2.917     s11.667,0,12.584,0c1.166,1.708-0.168,3.167-0.834,3.667s0.875,1.917-1,4.417c-0.75,0.25,0.75,1.875-1.333,3.333     c-1.167,0.583,0.583,1.542-1.25,2.833c-1.167,0-20.833,0.083-20.833,0.083l-2-1.333V3.751z" stroke="#000000"/> 		<path id="_8D1270D0-BE2B-42E2-B1ED-CC6171B74356frame2" oryx:anchors="top left" style="opacity:1;fill:none;stroke-width:2" d="M 13.5 7 L 27 7" stroke="#000000"/> 		<path id="_8D1270D0-BE2B-42E2-B1ED-CC6171B74356frame3" oryx:anchors="top left" style="opacity:1;fill:none;stroke-width:2" d="M 13.5 11 L 26 11" stroke="#000000"/> 		<path id="_8D1270D0-BE2B-42E2-B1ED-CC6171B74356frame4" oryx:anchors="top left" style="opacity:1;fill:none;stroke-width:1.5" d="M 14 14.5 L 25 14.5" stroke="#000000"/> 		<path id="_8D1270D0-BE2B-42E2-B1ED-CC6171B74356frame5" oryx:anchors="top left" style="opacity:1;fill:none;stroke-width:1.5" d="M 8.2 3.1 L 15 3.1" stroke="#000000"/> 	</g> 	 	<g id="_8D1270D0-BE2B-42E2-B1ED-CC6171B74356businessRuleTask" transform="scale(0.7,0.7) translate(8,8)" display="none"> 		<rect id="_8D1270D0-BE2B-42E2-B1ED-CC6171B74356frame6" oryx:anchors="top left" x="0" y="0" width="22" height="4" style="opacity:1;fill:#B3B1B3;fill-opacity:1;" stroke="#000000"/> 		<rect id="_8D1270D0-BE2B-42E2-B1ED-CC6171B74356frame7" oryx:anchors="top left" x="0" y="4" style="opacity:1;fill:none;" width="22" height="12" stroke="#000000"/> 		<path id="_8D1270D0-BE2B-42E2-B1ED-CC6171B74356frame8" oryx:anchors="top left" style="opacity:1;fill:none;" d="M 0 10 L 22 10" stroke="#000000"/> 		<path id="_8D1270D0-BE2B-42E2-B1ED-CC6171B74356frame9" oryx:anchors="top left" style="opacity:1; fill:none;" d="M 7 4 L 7 16" stroke="#000000"/> 	</g> 	 	<g id="_8D1270D0-BE2B-42E2-B1ED-CC6171B74356scriptTask" transform="scale(0.7,0.7) translate(8,8)" display="inherit"> 		<path oryx:anchors="top left" id="_8D1270D0-BE2B-42E2-B1ED-CC6171B74356frame10" style="opacity:1;fill:none;" stroke="#000000" d="M6.402,0.5h14.5c0,0-5.833,2.833-5.833,5.583s4.417,6,4.417,9.167    s-4.167,5.083-4.167,5.083H0.235c0,0,5-2.667,5-5s-4.583-6.75-4.583-9.25S6.402,0.5,6.402,0.5z"/> 		<path oryx:anchors="top left" id="_8D1270D0-BE2B-42E2-B1ED-CC6171B74356frame11" style="opacity:1;fill:none;stroke-width:1.5" d="M 3.5 4.5 L 13.5 4.5" stroke="#000000"/> 		<path oryx:anchors="top left" id="_8D1270D0-BE2B-42E2-B1ED-CC6171B74356frame12" style="opacity:1;fill:none;stroke-width:1.5" d="M 3.8 8.5 L 13.8 8.5" stroke="#000000"/> 		<path oryx:anchors="top left" id="_8D1270D0-BE2B-42E2-B1ED-CC6171B74356frame13" style="opacity:1;fill:none;stroke-width:1.5" d="M 6.3 12.5 L 16.3 12.5" stroke="#000000"/> 		<path oryx:anchors="top left" id="_8D1270D0-BE2B-42E2-B1ED-CC6171B74356frame14" style="opacity:1;fill:none;stroke-width:1.5" d="M 6.5 16.5 L 16.5 16.5" stroke="#000000"/> 	</g> 	 	<g id="_8D1270D0-BE2B-42E2-B1ED-CC6171B74356userTask" transform="scale(0.7,0.7) translate(8,8)" display="none"> 		<path id="_8D1270D0-BE2B-42E2-B1ED-CC6171B74356frame15" oryx:anchors="top left" style="opacity:1;fill:#F4F6F7" stroke="#000000" d="M0.585,24.167h24.083v-7.833c0,0-2.333-3.917-7.083-5.167h-9.25    c-4.417,1.333-7.833,5.75-7.833,5.75L0.585,24.167z"/> 		<path id="_8D1270D0-BE2B-42E2-B1ED-CC6171B74356frame16" oryx:anchors="top left" style="opacity:1;fill:none" d="M 6 20 L 6 24" stroke="#000000"/> 		<path id="_8D1270D0-BE2B-42E2-B1ED-CC6171B74356frame17" oryx:anchors="top left" style="opacity:1;fill:none" d="M 20 20 L 20 24" stroke="#000000"/> 		<circle id="_8D1270D0-BE2B-42E2-B1ED-CC6171B74356frame18" oryx:anchors="top left" fill="black" cx="13.002" cy="5.916" r="5.417" stroke="#000000"/> 		<path id="_8D1270D0-BE2B-42E2-B1ED-CC6171B74356frame19" oryx:anchors="top left" style="opacity:1;fill:#F0EFF0;" stroke="#000000" d="M8.043,7.083c0,0,2.814-2.426,5.376-1.807s4.624-0.693,4.624-0.693    c0.25,1.688,0.042,3.75-1.458,5.584c0,0,1.083,0.75,1.083,1.5s0.125,1.875-1,3s-5.5,1.25-6.75,0S8.668,12.834,8.668,12    s0.583-1.25,1.25-1.917C8.835,9.5,7.419,7.708,8.043,7.083z"/> 	</g> 	 	<g id="_8D1270D0-BE2B-42E2-B1ED-CC6171B74356serviceTask" transform="scale(0.7,0.7) translate(8,8)" display="none"> 		<polygon oryx:anchors="top left" id="_8D1270D0-BE2B-42E2-B1ED-CC6171B74356frame20" style="opacity:1;fill:#ffffff" stroke="#000000" points="15.392,5.064 17.954,2.502 20.347,4.895 17.786,7.455     18.729,9.732 22.353,9.732 22.353,13.115 18.731,13.115 17.788,15.392 20.351,17.955 17.958,20.347 15.397,17.786 13.12,18.729     13.12,22.353 9.737,22.353 9.737,18.731 7.46,17.788 4.897,20.35 2.506,17.958 5.066,15.397 4.124,13.12 0.5,13.12 0.5,9.737     4.121,9.737 5.065,7.461 2.503,4.898 4.895,2.506 7.455,5.066 9.732,4.125 9.732,0.5 13.116,0.5 13.116,4.121 "/> 		<circle oryx:anchors="top left" id="_8D1270D0-BE2B-42E2-B1ED-CC6171B74356frame21" style="opacity:1;fill:none" stroke="#000000" cx="11.427" cy="11.426" r="3.714"/> 		<polygon oryx:anchors="top left" id="_8D1270D0-BE2B-42E2-B1ED-CC6171B74356frame22" style="opacity:1;fill:#ffffff" stroke="#000000" points="21.392,11.064 23.954,8.502 26.347,10.895 23.786,13.455     24.729,15.732 28.353,15.732 28.353,19.115 24.731,19.115 23.788,21.392 26.351,23.955 23.958,26.347 21.397,23.786 19.12,24.729     19.12,28.353 15.737,28.353 15.737,24.731 13.46,23.788 10.897,26.35 8.506,23.958 11.066,21.397 10.124,19.12 6.5,19.12     6.5,15.737 10.121,15.737 11.065,13.461 8.503,10.898 10.895,8.506 13.455,11.066 15.732,10.125 15.732,6.5 19.116,6.5     19.116,10.121 "/> 		<circle oryx:anchors="top left" id="_8D1270D0-BE2B-42E2-B1ED-CC6171B74356frame23" style="opacity:1;fill:none;" stroke="#000000" cx="17.427" cy="17.426" r="3.714"/> 	</g> 	 	<g id="_8D1270D0-BE2B-42E2-B1ED-CC6171B74356sendTask" display="none"> 		<path id="_8D1270D0-BE2B-42E2-B1ED-CC6171B74356stframe24" oryx:anchors="left top" stroke="#FFFFFF" fill="black" stroke-width="1" d="M8,11 L8,21 L24,21 L24,11 L16,17z"/> 		<path id="_8D1270D0-BE2B-42E2-B1ED-CC6171B74356stframe25" oryx:anchors="left top" stroke="#FFFFFF" fill="black" stroke-width="1" d="M7,10 L16,17 L25 10z"/> 	</g> 	 	<g id="_8D1270D0-BE2B-42E2-B1ED-CC6171B74356receiveTask" display="none"> 		<path id="_8D1270D0-BE2B-42E2-B1ED-CC6171B74356frame26" oryx:anchors="left top" stroke="#000000" fill="none" stroke-width="1" d="M8,11 L8,21 L24,21 L24,11z M8,11 L16,17 L24,11"/> 	</g> 	 	<g id="_8D1270D0-BE2B-42E2-B1ED-CC6171B74356none" display="inherit"/>  	<g id="_8D1270D0-BE2B-42E2-B1ED-CC6171B74356sequential" display="none">         <path oryx:anchors="bottom" fill="none" stroke="#000000" stroke-width="2" d="M46,76h10M46,72h10 M46,68h10" id="_8D1270D0-BE2B-42E2-B1ED-CC6171B74356__8D1270D0-BE2B-42E2-B1ED-CC6171B74356_20"/>     </g>   </g></g><g class="children" style="overflow:hidden"/><g class="edge"/></g><g class="controls"><g class="dockers"/><g class="magnets" transform="translate(413, 13)"><g pointer-events="all" display="none" transform="translate(-7, 12)"><circle cx="8" cy="8" r="4" stroke="none" fill="red" fill-opacity="0.3"/></g><g pointer-events="all" display="none" transform="translate(-7, 32)"><circle cx="8" cy="8" r="4" stroke="none" fill="red" fill-opacity="0.3"/></g><g pointer-events="all" display="none" transform="translate(-7, 52)"><circle cx="8" cy="8" r="4" stroke="none" fill="red" fill-opacity="0.3"/></g><g pointer-events="all" display="none" transform="translate(17, 71)"><circle cx="8" cy="8" r="4" stroke="none" fill="red" fill-opacity="0.3"/></g><g pointer-events="all" display="none" transform="translate(42, 71)"><circle cx="8" cy="8" r="4" stroke="none" fill="red" fill-opacity="0.3"/></g><g pointer-events="all" display="none" transform="translate(67, 71)"><circle cx="8" cy="8" r="4" stroke="none" fill="red" fill-opacity="0.3"/></g><g pointer-events="all" display="none" transform="translate(91, 12)"><circle cx="8" cy="8" r="4" stroke="none" fill="red" fill-opacity="0.3"/></g><g pointer-events="all" display="none" transform="translate(91, 32)"><circle cx="8" cy="8" r="4" stroke="none" fill="red" fill-opacity="0.3"/></g><g pointer-events="all" display="none" transform="translate(91, 52)"><circle cx="8" cy="8" r="4" stroke="none" fill="red" fill-opacity="0.3"/></g><g pointer-events="all" display="none" transform="translate(17, -7)"><circle cx="8" cy="8" r="4" stroke="none" fill="red" fill-opacity="0.3"/></g><g pointer-events="all" display="none" transform="translate(42, -7)"><circle cx="8" cy="8" r="4" stroke="none" fill="red" fill-opacity="0.3"/></g><g pointer-events="all" display="none" transform="translate(67, -7)"><circle cx="8" cy="8" r="4" stroke="none" fill="red" fill-opacity="0.3"/></g><g pointer-events="all" display="none" transform="translate(42, 32)"><circle cx="8" cy="8" r="4" stroke="none" fill="red" fill-opacity="0.3"/></g></g></g></g></g><g class="edge"/></g><g class="controls"><g class="dockers"/><g class="magnets" transform="translate(212, 360)"><g pointer-events="all" display="none" transform="translate(292, 117)"><circle cx="8" cy="8" r="4" stroke="none" fill="red" fill-opacity="0.3"/></g></g></g></g></g><g class="edge"><g id="_F456189A-66E7-4D15-AE0B-D4CE0E912CC7" bpmn2nodeid="_C25DB61C-CA53-4CC6-86D5-109E79DBB676"><g class="stencils"><g class="me"><g pointer-events="painted" bpmn2nodeid="_41C35F94-3AE5-4FA6-8380-D2128A56354E"><path id="_F456189A-66E7-4D15-AE0B-D4CE0E912CC7_1" d="M345.609375 198L389.15625 198 " stroke="#000000" fill="none" stroke-width="2" stroke-linecap="round" stroke-linejoin="round" marker-start="url(#_F456189A-66E7-4D15-AE0B-D4CE0E912CC7start)" marker-end="url(#_F456189A-66E7-4D15-AE0B-D4CE0E912CC7end)"/></g><text id="_F456189A-66E7-4D15-AE0B-D4CE0E912CC7text_name" font-size="12" x="359.609375" y="184" oryx:edgePosition="startTop" stroke-width="0pt" letter-spacing="-0.01px" fill="#000000" text-anchor="start" transform="rotate(360 345.609375 198)" visibility="inherit" oryx:fontSize="12"/></g><g class="children" style="overflow:hidden"/><g class="edge"/></g><g class="controls"><g class="dockers"/><g class="magnets"/></g></g><g id="_6444AC47-35FC-4887-A5AF-46C85343A613" bpmn2nodeid="_87DC94E1-188D-4E94-B6AD-18CD16BB23C8"><g class="stencils"><g class="me"><g pointer-events="painted" bpmn2nodeid="_E4CED70B-09F5-4624-9AE4-E3BDC620689A"><path id="_6444AC47-35FC-4887-A5AF-46C85343A613_1" d="M490.5703125 198L530.4296875 198 " stroke="#000000" fill="none" stroke-width="2" stroke-linecap="round" stroke-linejoin="round" marker-start="url(#_6444AC47-35FC-4887-A5AF-46C85343A613start)" marker-end="url(#_6444AC47-35FC-4887-A5AF-46C85343A613end)"/></g><text id="_6444AC47-35FC-4887-A5AF-46C85343A613text_name" font-size="12" x="504.5703125" y="184" oryx:edgePosition="startTop" stroke-width="0pt" letter-spacing="-0.01px" fill="#000000" text-anchor="start" transform="rotate(360 490.5703125 198)" visibility="inherit" oryx:fontSize="12"/></g><g class="children" style="overflow:hidden"/><g class="edge"/></g><g class="controls"><g class="dockers"/><g class="magnets"/></g></g><g id="_5288A07E-2966-4E5F-953D-A686ED4F6BBD" bpmn2nodeid="_C06A6456-D2E5-410C-B707-55F1603E7BD5"><g class="stencils"><g class="me"><g pointer-events="painted" bpmn2nodeid="_04605A92-9F47-43D2-8716-B76CF935BE07"><path id="_5288A07E-2966-4E5F-953D-A686ED4F6BBD_1" d="M581.8382959086745 238.56957531836923L653.2320165913255 372.24292468163077 " stroke="#000000" fill="none" stroke-width="2" stroke-linecap="round" stroke-linejoin="round" marker-start="url(#_5288A07E-2966-4E5F-953D-A686ED4F6BBDstart)" marker-end="url(#_5288A07E-2966-4E5F-953D-A686ED4F6BBDend)"/></g><text id="_5288A07E-2966-4E5F-953D-A686ED4F6BBDtext_name" font-size="12" x="595.8382959086745" y="224.56957531836923" oryx:edgePosition="startTop" stroke-width="0pt" letter-spacing="-0.01px" fill="#000000" text-anchor="start" transform="rotate(61.893730179198144 581.8382959086745 238.56957531836923)" visibility="inherit" oryx:fontSize="12"/></g><g class="children" style="overflow:hidden"/><g class="edge"/></g><g class="controls"><g class="dockers"/><g class="magnets"/></g></g><g id="_0E47B89F-4B48-409A-8B9A-903F6EE24528" bpmn2nodeid="_3CF0986B-E644-4916-8F75-4073853AF26F"><g class="stencils"><g class="me"><g pointer-events="painted" bpmn2nodeid="_A0C23E10-FF3E-40F1-99A0-3C39ABDEAB9B"><path id="_0E47B89F-4B48-409A-8B9A-903F6EE24528_1" d="M688.9113859804232 372.58178397579735L744.3386140195768 211.54321602420268 " stroke="#000000" fill="none" stroke-width="2" stroke-linecap="round" stroke-linejoin="round" marker-start="url(#_0E47B89F-4B48-409A-8B9A-903F6EE24528start)" marker-end="url(#_0E47B89F-4B48-409A-8B9A-903F6EE24528end)"/></g><text id="_0E47B89F-4B48-409A-8B9A-903F6EE24528text_name" font-size="12" x="702.9113859804232" y="358.58178397579735" oryx:edgePosition="startTop" stroke-width="0pt" letter-spacing="-0.01px" fill="#000000" text-anchor="start" transform="rotate(288.9927482464679 688.9113859804232 372.58178397579735)" visibility="inherit" oryx:fontSize="12"/></g><g class="children" style="overflow:hidden"/><g class="edge"/></g><g class="controls"><g class="dockers"/><g class="magnets"/></g></g></g><text id="_32E6FB0B-8D74-4D65-A44A-63D8625B0BDB" style="stroke-width:1;fill:rgb(177,194,214);font-family:arial;font-weight:bold" font-size="12" onclick="ORYX.Plugins.CanvasTitle.openTextualAnalysis()" onmouseover="ORYX.Plugins.CanvasTitle.addToolTip('_32E6FB0B-8D74-4D65-A44A-63D8625B0BDB')" transform="translate(10, 20)">OrderCreation v.1.0 (src.OrderCreation)</text></g></g></svg>