<svg xmlns="http://www.w3.org/2000/svg" xmlns:oryx="http://oryx-editor.org" id="_CA226A6C-6E1F-4852-BA18-B5F51308B6E2" width="1480.3087158203125" height="659" xmlns:xlink="http://www.w3.org/1999/xlink" xmlns:svg="http://www.w3.org/2000/svg"><defs><marker id="_BCF45180-07BB-4138-B08F-C3872D85DF75start" refX="1" refY="5" markerUnits="userSpaceOnUse" markerWidth="17" markerHeight="11" orient="auto" fill="#000000" stroke="#000000"> 	  		<path id="_BCF45180-07BB-4138-B08F-C3872D85DF75conditional" d="M 0 5 L 8 0 L 16 5 L 8 10 L 0 5" fill="white" stroke="#000000" stroke-width="1" display="none"/> 			<path id="_BCF45180-07BB-4138-B08F-C3872D85DF75default" d="M 5 0 L 11 10" fill="white" stroke="#000000" stroke-width="1" display="none"/> 	  	</marker><marker id="_BCF45180-07BB-4138-B08F-C3872D85DF75end" refX="15" refY="6" markerUnits="userSpaceOnUse" markerWidth="15" markerHeight="12" orient="auto" fill="#000000" stroke="#000000"> 	  		<path id="_BCF45180-07BB-4138-B08F-C3872D85DF75frame2" d="M 0 1 L 15 6 L 0 11z" fill="#000000" stroke="#000000" stroke-linejoin="round" stroke-width="2"/> 	  	</marker><marker id="_4DAF33DE-87C7-4BEB-925C-950B42A928D6start" refX="1" refY="5" markerUnits="userSpaceOnUse" markerWidth="17" markerHeight="11" orient="auto" fill="#000000" stroke="#000000"> 	  		<path id="_4DAF33DE-87C7-4BEB-925C-950B42A928D6conditional" d="M 0 5 L 8 0 L 16 5 L 8 10 L 0 5" fill="white" stroke="#000000" stroke-width="1" display="none"/> 			<path id="_4DAF33DE-87C7-4BEB-925C-950B42A928D6default" d="M 5 0 L 11 10" fill="white" stroke="#000000" stroke-width="1" display="none"/> 	  	</marker><marker id="_4DAF33DE-87C7-4BEB-925C-950B42A928D6end" refX="15" refY="6" markerUnits="userSpaceOnUse" markerWidth="15" markerHeight="12" orient="auto" fill="#000000" stroke="#000000"> 	  		<path id="_4DAF33DE-87C7-4BEB-925C-950B42A928D6frame2" d="M 0 1 L 15 6 L 0 11z" fill="#000000" stroke="#000000" stroke-linejoin="round" stroke-width="2"/> 	  	</marker><marker id="_66B2E50F-5841-4359-932B-D552F698B0F9start" refX="1" refY="5" markerUnits="userSpaceOnUse" markerWidth="17" markerHeight="11" orient="auto" fill="#000000" stroke="#000000"> 	  		<path id="_66B2E50F-5841-4359-932B-D552F698B0F9conditional" d="M 0 5 L 8 0 L 16 5 L 8 10 L 0 5" fill="white" stroke="#000000" stroke-width="1" display="none"/> 			<path id="_66B2E50F-5841-4359-932B-D552F698B0F9default" d="M 5 0 L 11 10" fill="white" stroke="#000000" stroke-width="1" display="none"/> 	  	</marker><marker id="_66B2E50F-5841-4359-932B-D552F698B0F9end" refX="15" refY="6" markerUnits="userSpaceOnUse" markerWidth="15" markerHeight="12" orient="auto" fill="#000000" stroke="#000000"> 	  		<path id="_66B2E50F-5841-4359-932B-D552F698B0F9frame2" d="M 0 1 L 15 6 L 0 11z" fill="#000000" stroke="#000000" stroke-linejoin="round" stroke-width="2"/> 	  	</marker><marker id="_0E5BE06F-EFA1-4867-93C6-0BE2A904A4CCstart" refX="1" refY="5" markerUnits="userSpaceOnUse" markerWidth="17" markerHeight="11" orient="auto" fill="#000000" stroke="#000000"> 	  		<path id="_0E5BE06F-EFA1-4867-93C6-0BE2A904A4CCconditional" d="M 0 5 L 8 0 L 16 5 L 8 10 L 0 5" fill="white" stroke="#000000" stroke-width="1" display="none"/> 			<path id="_0E5BE06F-EFA1-4867-93C6-0BE2A904A4CCdefault" d="M 5 0 L 11 10" fill="white" stroke="#000000" stroke-width="1" display="none"/> 	  	</marker><marker id="_0E5BE06F-EFA1-4867-93C6-0BE2A904A4CCend" refX="15" refY="6" markerUnits="userSpaceOnUse" markerWidth="15" markerHeight="12" orient="auto" fill="#000000" stroke="#000000"> 	  		<path id="_0E5BE06F-EFA1-4867-93C6-0BE2A904A4CCframe2" d="M 0 1 L 15 6 L 0 11z" fill="#000000" stroke="#000000" stroke-linejoin="round" stroke-width="2"/> 	  	</marker></defs><g stroke="none" font-family="Verdana, sans-serif" font-size-adjust="none" font-style="normal" font-variant="normal" font-weight="normal" line-heigth="normal" font-size="12"><g class="stencils" transform="translate(25.308751672506332, 24.999999999999915)"><g class="me"/><g class="children"><g id="_E406F4CF-DEC6-4235-AA7D-3746C1CA371A" bpmn2nodeid="_97BDC9A7-504B-4C1E-922F-4B785F18471E"><g class="stencils" transform="translate(212, 73)"><g class="me"><g pointer-events="painted" id="_E406F4CF-DEC6-4235-AA7D-3746C1CA371A">         <defs id="_E406F4CF-DEC6-4235-AA7D-3746C1CA371A__E406F4CF-DEC6-4235-AA7D-3746C1CA371A_3"> 		<radialGradient id="_E406F4CF-DEC6-4235-AA7D-3746C1CA371Abackground" cx="0%" cy="10%" r="100%" fx="20%" fy="10%"> 			<stop offset="0%" stop-color="#ffffff" stop-opacity="1" id="_E406F4CF-DEC6-4235-AA7D-3746C1CA371A__E406F4CF-DEC6-4235-AA7D-3746C1CA371A_4"/> 			<stop id="_E406F4CF-DEC6-4235-AA7D-3746C1CA371Afill_el" offset="100%" stop-color="#ffffff" stop-opacity="1"/> 		</radialGradient> 	</defs> 	   	 	<rect id="_E406F4CF-DEC6-4235-AA7D-3746C1CA371Aborder" oryx:resize="vertical horizontal" x="0" y="0" width="1217" height="249" stroke="#000000" stroke-width="1" fill="url(#_E406F4CF-DEC6-4235-AA7D-3746C1CA371Abackground) white"/> 	 	 	 	<path id="_E406F4CF-DEC6-4235-AA7D-3746C1CA371Aframe2" style="fill:none;stroke-width:1" d=" M0 0  L0 249 " oryx:anchors="left top bottom" stroke="#000000"/> 	 	undefined 	     <text x="50" y="124.5" oryx:rotate="270" font-size="12" id="_E406F4CF-DEC6-4235-AA7D-3746C1CA371Atext_name" oryx:align="middle center" oryx:anchors="left" oryx:fittoelem="frame" stroke="black" stroke-width="0pt" letter-spacing="-0.01px" fill="#000000" text-anchor="middle" transform="rotate(270 50 124.5)" visibility="inherit" oryx:fontSize="12"><tspan x="50" y="124.5" dy="5">Customer</tspan></text>   </g></g><g class="children" style="overflow:hidden"><g id="_336B4456-2653-4A7B-A994-6D42F9B92B17" bpmn2nodeid="processStartEvent"><g class="stencils" transform="translate(103, 110)"><g class="me"><g pointer-events="fill" id="_336B4456-2653-4A7B-A994-6D42F9B92B17">        <defs id="_336B4456-2653-4A7B-A994-6D42F9B92B17__336B4456-2653-4A7B-A994-6D42F9B92B17_5"> 		<radialGradient id="_336B4456-2653-4A7B-A994-6D42F9B92B17background" cx="10%" cy="10%" r="100%" fx="10%" fy="10%"> 			<stop offset="0%" stop-color="#ffffff" stop-opacity="1" id="_336B4456-2653-4A7B-A994-6D42F9B92B17__336B4456-2653-4A7B-A994-6D42F9B92B17_6"/> 			<stop id="_336B4456-2653-4A7B-A994-6D42F9B92B17fill_el" offset="100%" stop-color="#9acd32" stop-opacity="1"/> 		</radialGradient> 	</defs> 	     <circle id="_336B4456-2653-4A7B-A994-6D42F9B92B17bg_frame" cx="15" cy="15" r="15" stroke="#000000" fill="url(#_336B4456-2653-4A7B-A994-6D42F9B92B17background) white" stroke-width="1" style="stroke-dasharray: 5.5, 3"/>      <circle id="_336B4456-2653-4A7B-A994-6D42F9B92B17frame" cx="15" cy="15" r="15" stroke="#000000" fill="none" stroke-width="1" display="inherit"/>  	<text font-size="11" id="_336B4456-2653-4A7B-A994-6D42F9B92B17text_name" x="15" y="32" oryx:align="top center" stroke="black" stroke-width="0pt" letter-spacing="-0.01px" fill="#000000" text-anchor="middle" transform="rotate(0 15 32)" visibility="inherit" oryx:fontSize="11"><tspan x="15" y="32" dy="11">Order</tspan><tspan x="15" y="32" dy="22">screen</tspan><tspan x="15" y="32" dy="33">opened</tspan></text>   </g></g><g class="children" style="overflow:hidden"/><g class="edge"/></g><g class="controls"><g class="dockers"/><g class="magnets" transform="translate(103, 110)"><g pointer-events="all" display="none" transform="translate(7, 7)"><circle cx="8" cy="8" r="4" stroke="none" fill="red" fill-opacity="0.3"/></g></g></g></g><g id="_7903A4F1-B758-4323-85CE-836EE6E5C1FF" bpmn2nodeid="_AD68BB65-077E-4E91-B56F-073EC7B1C382"><g class="stencils" transform="translate(1153, 110)"><g class="me"><g pointer-events="fill" id="_7903A4F1-B758-4323-85CE-836EE6E5C1FF">      <defs id="_7903A4F1-B758-4323-85CE-836EE6E5C1FF__7903A4F1-B758-4323-85CE-836EE6E5C1FF_5"> 		<radialGradient id="_7903A4F1-B758-4323-85CE-836EE6E5C1FFbackground" cx="10%" cy="10%" r="100%" fx="10%" fy="10%"> 			<stop offset="0%" stop-color="#ffffff" stop-opacity="1" id="_7903A4F1-B758-4323-85CE-836EE6E5C1FF__7903A4F1-B758-4323-85CE-836EE6E5C1FF_6"/> 			<stop id="_7903A4F1-B758-4323-85CE-836EE6E5C1FFfill_el" offset="100%" stop-color="#ff6347" stop-opacity="1"/> 		</radialGradient> 	</defs> 	     <circle id="_7903A4F1-B758-4323-85CE-836EE6E5C1FFbg_frame" cx="14" cy="14" r="14" stroke="#000000" fill="url(#_7903A4F1-B758-4323-85CE-836EE6E5C1FFbackground) white" stroke-width="3"/> 	<text font-size="11" id="_7903A4F1-B758-4323-85CE-836EE6E5C1FFtext_name" x="14" y="30" oryx:align="top center" stroke="black" stroke-width="0pt" letter-spacing="-0.01px" fill="#000000" text-anchor="middle" transform="rotate(0 14 30)" visibility="inherit" oryx:fontSize="11"><tspan x="14" y="30" dy="11">Order</tspan><tspan x="14" y="30" dy="22">created</tspan></text>   </g></g><g class="children" style="overflow:hidden"/><g class="edge"/></g><g class="controls"><g class="dockers"/><g class="magnets" transform="translate(1153, 110)"><g pointer-events="all" display="none" transform="translate(6, 6)"><circle cx="8" cy="8" r="4" stroke="none" fill="red" fill-opacity="0.3"/></g></g></g></g><g id="_A86B8ABF-0A2D-4D5E-B679-C820A8952A71" bpmn2nodeid="_546FB0CA-6E82-4BFE-97BF-811C9E1FF34B"><g class="stencils" transform="translate(328, 85)"><g class="me"><g pointer-events="fill" oryx:minimumSize="50 40" id="_A86B8ABF-0A2D-4D5E-B679-C820A8952A71">   	<defs id="_A86B8ABF-0A2D-4D5E-B679-C820A8952A71__A86B8ABF-0A2D-4D5E-B679-C820A8952A71_17"> 		<radialGradient id="_A86B8ABF-0A2D-4D5E-B679-C820A8952A71background" cx="10%" cy="10%" r="100%" fx="10%" fy="10%"> 			<stop offset="0%" stop-color="#ffffff" stop-opacity="1" id="_A86B8ABF-0A2D-4D5E-B679-C820A8952A71__A86B8ABF-0A2D-4D5E-B679-C820A8952A71_18"/> 			<stop id="_A86B8ABF-0A2D-4D5E-B679-C820A8952A71fill_el" offset="100%" stop-color="#fafad2" stop-opacity="1"/> 		</radialGradient> 		<radialGradient id="_A86B8ABF-0A2D-4D5E-B679-C820A8952A71borderbackground" cx="10%" cy="10%" r="100%" fx="10%" fy="10%"> 			<stop offset="0%" stop-color="#ffffff" stop-opacity="1" id="_A86B8ABF-0A2D-4D5E-B679-C820A8952A71__A86B8ABF-0A2D-4D5E-B679-C820A8952A71_19"/> 			<stop id="_A86B8ABF-0A2D-4D5E-B679-C820A8952A71fill_border" offset="100%" stop-color="#000000" stop-opacity="1" stroke="#000000"/> 		</radialGradient> 	</defs> 	 	<rect id="_A86B8ABF-0A2D-4D5E-B679-C820A8952A71text_frame" oryx:anchors="bottom top right left" x="1" y="1" width="94" height="79" rx="10" ry="10" stroke="none" stroke-width="0" fill="none"/> 	<rect id="_A86B8ABF-0A2D-4D5E-B679-C820A8952A71bg_frame" oryx:resize="vertical horizontal" x="0" y="0" width="100" height="80" rx="10" ry="10" stroke="#000000" stroke-width="1" fill="url(#_A86B8ABF-0A2D-4D5E-B679-C820A8952A71background) #ffffcc"/> 		<text font-size="12" id="_A86B8ABF-0A2D-4D5E-B679-C820A8952A71text_name" x="50" y="40" oryx:align="middle center" oryx:fittoelem="text_frame" stroke="black" text-anchor="middle" stroke-width="0pt" letter-spacing="-0.01px" fill="#000000" transform="rotate(0 50 40)" visibility="inherit" oryx:fontSize="12"><tspan x="50" y="40" dy="-1">Choose </tspan><tspan x="50" y="40" dy="11">laundry type</tspan></text>     <g id="_A86B8ABF-0A2D-4D5E-B679-C820A8952A71manualTask" transform="scale(0.7,0.7) translate(8,8)" display="none">     	<path oryx:anchors="top left" id="_A86B8ABF-0A2D-4D5E-B679-C820A8952A71frame" style="opacity:1;fill:none;fill-opacity:1;stroke-width:1" d="M0.5,3.751l4.083-3.25c0,0,11.166,0.083,12.083,0.083s-2.417,2.917-1.5,2.917     s11.667,0,12.584,0c1.166,1.708-0.168,3.167-0.834,3.667s0.875,1.917-1,4.417c-0.75,0.25,0.75,1.875-1.333,3.333     c-1.167,0.583,0.583,1.542-1.25,2.833c-1.167,0-20.833,0.083-20.833,0.083l-2-1.333V3.751z" stroke="#000000"/> 		<path id="_A86B8ABF-0A2D-4D5E-B679-C820A8952A71frame2" oryx:anchors="top left" style="opacity:1;fill:none;stroke-width:2" d="M 13.5 7 L 27 7" stroke="#000000"/> 		<path id="_A86B8ABF-0A2D-4D5E-B679-C820A8952A71frame3" oryx:anchors="top left" style="opacity:1;fill:none;stroke-width:2" d="M 13.5 11 L 26 11" stroke="#000000"/> 		<path id="_A86B8ABF-0A2D-4D5E-B679-C820A8952A71frame4" oryx:anchors="top left" style="opacity:1;fill:none;stroke-width:1.5" d="M 14 14.5 L 25 14.5" stroke="#000000"/> 		<path id="_A86B8ABF-0A2D-4D5E-B679-C820A8952A71frame5" oryx:anchors="top left" style="opacity:1;fill:none;stroke-width:1.5" d="M 8.2 3.1 L 15 3.1" stroke="#000000"/> 	</g> 	 	<g id="_A86B8ABF-0A2D-4D5E-B679-C820A8952A71businessRuleTask" transform="scale(0.7,0.7) translate(8,8)" display="none"> 		<rect id="_A86B8ABF-0A2D-4D5E-B679-C820A8952A71frame6" oryx:anchors="top left" x="0" y="0" width="22" height="4" style="opacity:1;fill:#B3B1B3;fill-opacity:1;" stroke="#000000"/> 		<rect id="_A86B8ABF-0A2D-4D5E-B679-C820A8952A71frame7" oryx:anchors="top left" x="0" y="4" style="opacity:1;fill:none;" width="22" height="12" stroke="#000000"/> 		<path id="_A86B8ABF-0A2D-4D5E-B679-C820A8952A71frame8" oryx:anchors="top left" style="opacity:1;fill:none;" d="M 0 10 L 22 10" stroke="#000000"/> 		<path id="_A86B8ABF-0A2D-4D5E-B679-C820A8952A71frame9" oryx:anchors="top left" style="opacity:1; fill:none;" d="M 7 4 L 7 16" stroke="#000000"/> 	</g> 	 	<g id="_A86B8ABF-0A2D-4D5E-B679-C820A8952A71scriptTask" transform="scale(0.7,0.7) translate(8,8)" display="none"> 		<path oryx:anchors="top left" id="_A86B8ABF-0A2D-4D5E-B679-C820A8952A71frame10" style="opacity:1;fill:none;" stroke="#000000" d="M6.402,0.5h14.5c0,0-5.833,2.833-5.833,5.583s4.417,6,4.417,9.167    s-4.167,5.083-4.167,5.083H0.235c0,0,5-2.667,5-5s-4.583-6.75-4.583-9.25S6.402,0.5,6.402,0.5z"/> 		<path oryx:anchors="top left" id="_A86B8ABF-0A2D-4D5E-B679-C820A8952A71frame11" style="opacity:1;fill:none;stroke-width:1.5" d="M 3.5 4.5 L 13.5 4.5" stroke="#000000"/> 		<path oryx:anchors="top left" id="_A86B8ABF-0A2D-4D5E-B679-C820A8952A71frame12" style="opacity:1;fill:none;stroke-width:1.5" d="M 3.8 8.5 L 13.8 8.5" stroke="#000000"/> 		<path oryx:anchors="top left" id="_A86B8ABF-0A2D-4D5E-B679-C820A8952A71frame13" style="opacity:1;fill:none;stroke-width:1.5" d="M 6.3 12.5 L 16.3 12.5" stroke="#000000"/> 		<path oryx:anchors="top left" id="_A86B8ABF-0A2D-4D5E-B679-C820A8952A71frame14" style="opacity:1;fill:none;stroke-width:1.5" d="M 6.5 16.5 L 16.5 16.5" stroke="#000000"/> 	</g> 	 	<g id="_A86B8ABF-0A2D-4D5E-B679-C820A8952A71userTask" transform="scale(0.7,0.7) translate(8,8)" display="inherit"> 		<path id="_A86B8ABF-0A2D-4D5E-B679-C820A8952A71frame15" oryx:anchors="top left" style="opacity:1;fill:#F4F6F7" stroke="#000000" d="M0.585,24.167h24.083v-7.833c0,0-2.333-3.917-7.083-5.167h-9.25    c-4.417,1.333-7.833,5.75-7.833,5.75L0.585,24.167z"/> 		<path id="_A86B8ABF-0A2D-4D5E-B679-C820A8952A71frame16" oryx:anchors="top left" style="opacity:1;fill:none" d="M 6 20 L 6 24" stroke="#000000"/> 		<path id="_A86B8ABF-0A2D-4D5E-B679-C820A8952A71frame17" oryx:anchors="top left" style="opacity:1;fill:none" d="M 20 20 L 20 24" stroke="#000000"/> 		<circle id="_A86B8ABF-0A2D-4D5E-B679-C820A8952A71frame18" oryx:anchors="top left" fill="black" cx="13.002" cy="5.916" r="5.417" stroke="#000000"/> 		<path id="_A86B8ABF-0A2D-4D5E-B679-C820A8952A71frame19" oryx:anchors="top left" style="opacity:1;fill:#F0EFF0;" stroke="#000000" d="M8.043,7.083c0,0,2.814-2.426,5.376-1.807s4.624-0.693,4.624-0.693    c0.25,1.688,0.042,3.75-1.458,5.584c0,0,1.083,0.75,1.083,1.5s0.125,1.875-1,3s-5.5,1.25-6.75,0S8.668,12.834,8.668,12    s0.583-1.25,1.25-1.917C8.835,9.5,7.419,7.708,8.043,7.083z"/> 	</g> 	 	<g id="_A86B8ABF-0A2D-4D5E-B679-C820A8952A71serviceTask" transform="scale(0.7,0.7) translate(8,8)" display="none"> 		<polygon oryx:anchors="top left" id="_A86B8ABF-0A2D-4D5E-B679-C820A8952A71frame20" style="opacity:1;fill:#ffffff" stroke="#000000" points="15.392,5.064 17.954,2.502 20.347,4.895 17.786,7.455     18.729,9.732 22.353,9.732 22.353,13.115 18.731,13.115 17.788,15.392 20.351,17.955 17.958,20.347 15.397,17.786 13.12,18.729     13.12,22.353 9.737,22.353 9.737,18.731 7.46,17.788 4.897,20.35 2.506,17.958 5.066,15.397 4.124,13.12 0.5,13.12 0.5,9.737     4.121,9.737 5.065,7.461 2.503,4.898 4.895,2.506 7.455,5.066 9.732,4.125 9.732,0.5 13.116,0.5 13.116,4.121 "/> 		<circle oryx:anchors="top left" id="_A86B8ABF-0A2D-4D5E-B679-C820A8952A71frame21" style="opacity:1;fill:none" stroke="#000000" cx="11.427" cy="11.426" r="3.714"/> 		<polygon oryx:anchors="top left" id="_A86B8ABF-0A2D-4D5E-B679-C820A8952A71frame22" style="opacity:1;fill:#ffffff" stroke="#000000" points="21.392,11.064 23.954,8.502 26.347,10.895 23.786,13.455     24.729,15.732 28.353,15.732 28.353,19.115 24.731,19.115 23.788,21.392 26.351,23.955 23.958,26.347 21.397,23.786 19.12,24.729     19.12,28.353 15.737,28.353 15.737,24.731 13.46,23.788 10.897,26.35 8.506,23.958 11.066,21.397 10.124,19.12 6.5,19.12     6.5,15.737 10.121,15.737 11.065,13.461 8.503,10.898 10.895,8.506 13.455,11.066 15.732,10.125 15.732,6.5 19.116,6.5     19.116,10.121 "/> 		<circle oryx:anchors="top left" id="_A86B8ABF-0A2D-4D5E-B679-C820A8952A71frame23" style="opacity:1;fill:none;" stroke="#000000" cx="17.427" cy="17.426" r="3.714"/> 	</g> 	 	<g id="_A86B8ABF-0A2D-4D5E-B679-C820A8952A71sendTask" display="none"> 		<path id="_A86B8ABF-0A2D-4D5E-B679-C820A8952A71stframe24" oryx:anchors="left top" stroke="#FFFFFF" fill="black" stroke-width="1" d="M8,11 L8,21 L24,21 L24,11 L16,17z"/> 		<path id="_A86B8ABF-0A2D-4D5E-B679-C820A8952A71stframe25" oryx:anchors="left top" stroke="#FFFFFF" fill="black" stroke-width="1" d="M7,10 L16,17 L25 10z"/> 	</g> 	 	<g id="_A86B8ABF-0A2D-4D5E-B679-C820A8952A71receiveTask" display="none"> 		<path id="_A86B8ABF-0A2D-4D5E-B679-C820A8952A71frame26" oryx:anchors="left top" stroke="#000000" fill="none" stroke-width="1" d="M8,11 L8,21 L24,21 L24,11z M8,11 L16,17 L24,11"/> 	</g> 	 	<g id="_A86B8ABF-0A2D-4D5E-B679-C820A8952A71none" display="inherit"/>  	<g id="_A86B8ABF-0A2D-4D5E-B679-C820A8952A71sequential" display="none">         <path oryx:anchors="bottom" fill="none" stroke="#000000" stroke-width="2" d="M46,76h10M46,72h10 M46,68h10" id="_A86B8ABF-0A2D-4D5E-B679-C820A8952A71__A86B8ABF-0A2D-4D5E-B679-C820A8952A71_20"/>     </g>   </g></g><g class="children" style="overflow:hidden"/><g class="edge"/></g><g class="controls"><g class="dockers"/><g class="magnets" transform="translate(328, 85)"><g pointer-events="all" display="none" transform="translate(-7, 12)"><circle cx="8" cy="8" r="4" stroke="none" fill="red" fill-opacity="0.3"/></g><g pointer-events="all" display="none" transform="translate(-7, 32)"><circle cx="8" cy="8" r="4" stroke="none" fill="red" fill-opacity="0.3"/></g><g pointer-events="all" display="none" transform="translate(-7, 52)"><circle cx="8" cy="8" r="4" stroke="none" fill="red" fill-opacity="0.3"/></g><g pointer-events="all" display="none" transform="translate(17, 71)"><circle cx="8" cy="8" r="4" stroke="none" fill="red" fill-opacity="0.3"/></g><g pointer-events="all" display="none" transform="translate(42, 71)"><circle cx="8" cy="8" r="4" stroke="none" fill="red" fill-opacity="0.3"/></g><g pointer-events="all" display="none" transform="translate(67, 71)"><circle cx="8" cy="8" r="4" stroke="none" fill="red" fill-opacity="0.3"/></g><g pointer-events="all" display="none" transform="translate(91, 12)"><circle cx="8" cy="8" r="4" stroke="none" fill="red" fill-opacity="0.3"/></g><g pointer-events="all" display="none" transform="translate(91, 32)"><circle cx="8" cy="8" r="4" stroke="none" fill="red" fill-opacity="0.3"/></g><g pointer-events="all" display="none" transform="translate(91, 52)"><circle cx="8" cy="8" r="4" stroke="none" fill="red" fill-opacity="0.3"/></g><g pointer-events="all" display="none" transform="translate(17, -7)"><circle cx="8" cy="8" r="4" stroke="none" fill="red" fill-opacity="0.3"/></g><g pointer-events="all" display="none" transform="translate(42, -7)"><circle cx="8" cy="8" r="4" stroke="none" fill="red" fill-opacity="0.3"/></g><g pointer-events="all" display="none" transform="translate(67, -7)"><circle cx="8" cy="8" r="4" stroke="none" fill="red" fill-opacity="0.3"/></g><g pointer-events="all" display="none" transform="translate(42, 32)"><circle cx="8" cy="8" r="4" stroke="none" fill="red" fill-opacity="0.3"/></g></g></g></g><g id="_EE70AFB8-DA81-4722-8B8B-ECE6569FE22B" bpmn2nodeid="_AD93EF46-C820-4308-9B57-FE30B8E3DE11"><g class="stencils" transform="translate(178, 85)"><g class="me"><g pointer-events="fill" oryx:minimumSize="80 60" id="_EE70AFB8-DA81-4722-8B8B-ECE6569FE22B">   	<defs id="_EE70AFB8-DA81-4722-8B8B-ECE6569FE22B__EE70AFB8-DA81-4722-8B8B-ECE6569FE22B_17"> 		<radialGradient id="_EE70AFB8-DA81-4722-8B8B-ECE6569FE22Bbackground" cx="10%" cy="10%" r="100%" fx="10%" fy="10%"> 			<stop offset="0%" stop-color="#ffffff" stop-opacity="1" id="_EE70AFB8-DA81-4722-8B8B-ECE6569FE22B__EE70AFB8-DA81-4722-8B8B-ECE6569FE22B_18"/> 			<stop id="_EE70AFB8-DA81-4722-8B8B-ECE6569FE22Bfill_el" offset="100%" stop-color="#fafad2" stop-opacity="1"/> 		</radialGradient> 	</defs> 	<rect id="_EE70AFB8-DA81-4722-8B8B-ECE6569FE22Btext_frame" oryx:anchors="bottom top right left" x="1" y="1" width="94" height="79" rx="10" ry="10" stroke="none" stroke-width="0" fill="none"/> 	<rect id="_EE70AFB8-DA81-4722-8B8B-ECE6569FE22Bbg_frame" oryx:anchors="bottom top right left" x="0" y="0" width="100" height="80" rx="10" ry="10" stroke="#000000" stroke-width="1" fill="url(#_EE70AFB8-DA81-4722-8B8B-ECE6569FE22Bbackground) #ffffcc"/> 	<rect id="_EE70AFB8-DA81-4722-8B8B-ECE6569FE22Bframe" oryx:resize="vertical horizontal" oryx:anchors="bottom top right left" x="0" y="0" width="100" height="80" rx="10" ry="10" stroke="#000000" stroke-width="4" fill="none"/> 	<rect id="_EE70AFB8-DA81-4722-8B8B-ECE6569FE22Bframe2" oryx:anchors="top bottom left right" oryx:resize="vertical horizontal" x="2.5" y="2.5" width="95" height="75" rx="8" ry="8" stroke="#000000" stroke-width="1" fill="none"/>     	<text font-size="12" id="_EE70AFB8-DA81-4722-8B8B-ECE6569FE22Btext_name" x="50" y="40" oryx:align="middle center" oryx:fittoelem="text_frame" stroke="black" stroke-width="0pt" letter-spacing="-0.01px" fill="#000000" text-anchor="middle" transform="rotate(0 50 40)" visibility="inherit" oryx:fontSize="12"><tspan x="50" y="40" dy="5">Login</tspan></text>          <a id="_EE70AFB8-DA81-4722-8B8B-ECE6569FE22Bpimg" onclick="parent.designeropenintab(&quot;Login.bpmn2&quot;,&quot;default://master@MySpace/WashIt/src/main/resources/com/myspace/washit/Login.bpmn2&quot;);" xlink:href="">	 	<g id="_EE70AFB8-DA81-4722-8B8B-ECE6569FE22Bb" oryx:anchors="bottom"> 		<rect id="_EE70AFB8-DA81-4722-8B8B-ECE6569FE22Bframe3" oryx:anchors="bottom" x="44" y="66" width="14" height="14" fill="none" stroke="#000000" stroke-width="1"/> 		<path id="_EE70AFB8-DA81-4722-8B8B-ECE6569FE22Bframe4" oryx:anchors="bottom" fill="none" stroke="#000000" d="M51 68 v10 M 46 73 h10" stroke-width="1"/> 	</g> 	</a> 	<g id="_EE70AFB8-DA81-4722-8B8B-ECE6569FE22Bnone"/> 	undefined 	  	undefined 	undefined 	 	 	undefined 	undefined   </g></g><g class="children" style="overflow:hidden"/><g class="edge"/></g><g class="controls"><g class="dockers"/><g class="magnets" transform="translate(178, 85)"><g pointer-events="all" display="none" transform="translate(-7, 12)"><circle cx="8" cy="8" r="4" stroke="none" fill="red" fill-opacity="0.3"/></g><g pointer-events="all" display="none" transform="translate(-7, 32)"><circle cx="8" cy="8" r="4" stroke="none" fill="red" fill-opacity="0.3"/></g><g pointer-events="all" display="none" transform="translate(-7, 52)"><circle cx="8" cy="8" r="4" stroke="none" fill="red" fill-opacity="0.3"/></g><g pointer-events="all" display="none" transform="translate(17, 71)"><circle cx="8" cy="8" r="4" stroke="none" fill="red" fill-opacity="0.3"/></g><g pointer-events="all" display="none" transform="translate(42, 71)"><circle cx="8" cy="8" r="4" stroke="none" fill="red" fill-opacity="0.3"/></g><g pointer-events="all" display="none" transform="translate(67, 71)"><circle cx="8" cy="8" r="4" stroke="none" fill="red" fill-opacity="0.3"/></g><g pointer-events="all" display="none" transform="translate(91, 12)"><circle cx="8" cy="8" r="4" stroke="none" fill="red" fill-opacity="0.3"/></g><g pointer-events="all" display="none" transform="translate(91, 32)"><circle cx="8" cy="8" r="4" stroke="none" fill="red" fill-opacity="0.3"/></g><g pointer-events="all" display="none" transform="translate(91, 52)"><circle cx="8" cy="8" r="4" stroke="none" fill="red" fill-opacity="0.3"/></g><g pointer-events="all" display="none" transform="translate(17, -7)"><circle cx="8" cy="8" r="4" stroke="none" fill="red" fill-opacity="0.3"/></g><g pointer-events="all" display="none" transform="translate(42, -7)"><circle cx="8" cy="8" r="4" stroke="none" fill="red" fill-opacity="0.3"/></g><g pointer-events="all" display="none" transform="translate(67, -7)"><circle cx="8" cy="8" r="4" stroke="none" fill="red" fill-opacity="0.3"/></g><g pointer-events="all" display="none" transform="translate(42, 32)"><circle cx="8" cy="8" r="4" stroke="none" fill="red" fill-opacity="0.3"/></g></g></g></g><g id="_24258173-6A98-4AF8-8ACD-0F662B7C2598" bpmn2nodeid="_044DF0A7-E086-448B-A843-06AB3F5CC6AB"><g class="stencils" transform="translate(478, 85)"><g class="me"><g pointer-events="fill" oryx:minimumSize="50 40" id="_24258173-6A98-4AF8-8ACD-0F662B7C2598">   	<defs id="_24258173-6A98-4AF8-8ACD-0F662B7C2598__24258173-6A98-4AF8-8ACD-0F662B7C2598_17"> 		<radialGradient id="_24258173-6A98-4AF8-8ACD-0F662B7C2598background" cx="10%" cy="10%" r="100%" fx="10%" fy="10%"> 			<stop offset="0%" stop-color="#ffffff" stop-opacity="1" id="_24258173-6A98-4AF8-8ACD-0F662B7C2598__24258173-6A98-4AF8-8ACD-0F662B7C2598_18"/> 			<stop id="_24258173-6A98-4AF8-8ACD-0F662B7C2598fill_el" offset="100%" stop-color="#fafad2" stop-opacity="1"/> 		</radialGradient> 		<radialGradient id="_24258173-6A98-4AF8-8ACD-0F662B7C2598borderbackground" cx="10%" cy="10%" r="100%" fx="10%" fy="10%"> 			<stop offset="0%" stop-color="#ffffff" stop-opacity="1" id="_24258173-6A98-4AF8-8ACD-0F662B7C2598__24258173-6A98-4AF8-8ACD-0F662B7C2598_19"/> 			<stop id="_24258173-6A98-4AF8-8ACD-0F662B7C2598fill_border" offset="100%" stop-color="#000000" stop-opacity="1" stroke="#000000"/> 		</radialGradient> 	</defs> 	 	<rect id="_24258173-6A98-4AF8-8ACD-0F662B7C2598text_frame" oryx:anchors="bottom top right left" x="1" y="1" width="94" height="79" rx="10" ry="10" stroke="none" stroke-width="0" fill="none"/> 	<rect id="_24258173-6A98-4AF8-8ACD-0F662B7C2598bg_frame" oryx:resize="vertical horizontal" x="0" y="0" width="100" height="80" rx="10" ry="10" stroke="#000000" stroke-width="1" fill="url(#_24258173-6A98-4AF8-8ACD-0F662B7C2598background) #ffffcc"/> 		<text font-size="12" id="_24258173-6A98-4AF8-8ACD-0F662B7C2598text_name" x="50" y="40" oryx:align="middle center" oryx:fittoelem="text_frame" stroke="black" text-anchor="middle" stroke-width="0pt" letter-spacing="-0.01px" fill="#000000" transform="rotate(0 50 40)" visibility="inherit" oryx:fontSize="12"><tspan x="50" y="40" dy="-1" id="ext-gen676">Select laundry </tspan><tspan x="50" y="40" dy="11" id="ext-gen675">weight</tspan></text>     <g id="_24258173-6A98-4AF8-8ACD-0F662B7C2598manualTask" transform="scale(0.7,0.7) translate(8,8)" display="none">     	<path oryx:anchors="top left" id="_24258173-6A98-4AF8-8ACD-0F662B7C2598frame" style="opacity:1;fill:none;fill-opacity:1;stroke-width:1" d="M0.5,3.751l4.083-3.25c0,0,11.166,0.083,12.083,0.083s-2.417,2.917-1.5,2.917     s11.667,0,12.584,0c1.166,1.708-0.168,3.167-0.834,3.667s0.875,1.917-1,4.417c-0.75,0.25,0.75,1.875-1.333,3.333     c-1.167,0.583,0.583,1.542-1.25,2.833c-1.167,0-20.833,0.083-20.833,0.083l-2-1.333V3.751z" stroke="#000000"/> 		<path id="_24258173-6A98-4AF8-8ACD-0F662B7C2598frame2" oryx:anchors="top left" style="opacity:1;fill:none;stroke-width:2" d="M 13.5 7 L 27 7" stroke="#000000"/> 		<path id="_24258173-6A98-4AF8-8ACD-0F662B7C2598frame3" oryx:anchors="top left" style="opacity:1;fill:none;stroke-width:2" d="M 13.5 11 L 26 11" stroke="#000000"/> 		<path id="_24258173-6A98-4AF8-8ACD-0F662B7C2598frame4" oryx:anchors="top left" style="opacity:1;fill:none;stroke-width:1.5" d="M 14 14.5 L 25 14.5" stroke="#000000"/> 		<path id="_24258173-6A98-4AF8-8ACD-0F662B7C2598frame5" oryx:anchors="top left" style="opacity:1;fill:none;stroke-width:1.5" d="M 8.2 3.1 L 15 3.1" stroke="#000000"/> 	</g> 	 	<g id="_24258173-6A98-4AF8-8ACD-0F662B7C2598businessRuleTask" transform="scale(0.7,0.7) translate(8,8)" display="none"> 		<rect id="_24258173-6A98-4AF8-8ACD-0F662B7C2598frame6" oryx:anchors="top left" x="0" y="0" width="22" height="4" style="opacity:1;fill:#B3B1B3;fill-opacity:1;" stroke="#000000"/> 		<rect id="_24258173-6A98-4AF8-8ACD-0F662B7C2598frame7" oryx:anchors="top left" x="0" y="4" style="opacity:1;fill:none;" width="22" height="12" stroke="#000000"/> 		<path id="_24258173-6A98-4AF8-8ACD-0F662B7C2598frame8" oryx:anchors="top left" style="opacity:1;fill:none;" d="M 0 10 L 22 10" stroke="#000000"/> 		<path id="_24258173-6A98-4AF8-8ACD-0F662B7C2598frame9" oryx:anchors="top left" style="opacity:1; fill:none;" d="M 7 4 L 7 16" stroke="#000000"/> 	</g> 	 	<g id="_24258173-6A98-4AF8-8ACD-0F662B7C2598scriptTask" transform="scale(0.7,0.7) translate(8,8)" display="none"> 		<path oryx:anchors="top left" id="_24258173-6A98-4AF8-8ACD-0F662B7C2598frame10" style="opacity:1;fill:none;" stroke="#000000" d="M6.402,0.5h14.5c0,0-5.833,2.833-5.833,5.583s4.417,6,4.417,9.167    s-4.167,5.083-4.167,5.083H0.235c0,0,5-2.667,5-5s-4.583-6.75-4.583-9.25S6.402,0.5,6.402,0.5z"/> 		<path oryx:anchors="top left" id="_24258173-6A98-4AF8-8ACD-0F662B7C2598frame11" style="opacity:1;fill:none;stroke-width:1.5" d="M 3.5 4.5 L 13.5 4.5" stroke="#000000"/> 		<path oryx:anchors="top left" id="_24258173-6A98-4AF8-8ACD-0F662B7C2598frame12" style="opacity:1;fill:none;stroke-width:1.5" d="M 3.8 8.5 L 13.8 8.5" stroke="#000000"/> 		<path oryx:anchors="top left" id="_24258173-6A98-4AF8-8ACD-0F662B7C2598frame13" style="opacity:1;fill:none;stroke-width:1.5" d="M 6.3 12.5 L 16.3 12.5" stroke="#000000"/> 		<path oryx:anchors="top left" id="_24258173-6A98-4AF8-8ACD-0F662B7C2598frame14" style="opacity:1;fill:none;stroke-width:1.5" d="M 6.5 16.5 L 16.5 16.5" stroke="#000000"/> 	</g> 	 	<g id="_24258173-6A98-4AF8-8ACD-0F662B7C2598userTask" transform="scale(0.7,0.7) translate(8,8)" display="inherit"> 		<path id="_24258173-6A98-4AF8-8ACD-0F662B7C2598frame15" oryx:anchors="top left" style="opacity:1;fill:#F4F6F7" stroke="#000000" d="M0.585,24.167h24.083v-7.833c0,0-2.333-3.917-7.083-5.167h-9.25    c-4.417,1.333-7.833,5.75-7.833,5.75L0.585,24.167z"/> 		<path id="_24258173-6A98-4AF8-8ACD-0F662B7C2598frame16" oryx:anchors="top left" style="opacity:1;fill:none" d="M 6 20 L 6 24" stroke="#000000"/> 		<path id="_24258173-6A98-4AF8-8ACD-0F662B7C2598frame17" oryx:anchors="top left" style="opacity:1;fill:none" d="M 20 20 L 20 24" stroke="#000000"/> 		<circle id="_24258173-6A98-4AF8-8ACD-0F662B7C2598frame18" oryx:anchors="top left" fill="black" cx="13.002" cy="5.916" r="5.417" stroke="#000000"/> 		<path id="_24258173-6A98-4AF8-8ACD-0F662B7C2598frame19" oryx:anchors="top left" style="opacity:1;fill:#F0EFF0;" stroke="#000000" d="M8.043,7.083c0,0,2.814-2.426,5.376-1.807s4.624-0.693,4.624-0.693    c0.25,1.688,0.042,3.75-1.458,5.584c0,0,1.083,0.75,1.083,1.5s0.125,1.875-1,3s-5.5,1.25-6.75,0S8.668,12.834,8.668,12    s0.583-1.25,1.25-1.917C8.835,9.5,7.419,7.708,8.043,7.083z"/> 	</g> 	 	<g id="_24258173-6A98-4AF8-8ACD-0F662B7C2598serviceTask" transform="scale(0.7,0.7) translate(8,8)" display="none"> 		<polygon oryx:anchors="top left" id="_24258173-6A98-4AF8-8ACD-0F662B7C2598frame20" style="opacity:1;fill:#ffffff" stroke="#000000" points="15.392,5.064 17.954,2.502 20.347,4.895 17.786,7.455     18.729,9.732 22.353,9.732 22.353,13.115 18.731,13.115 17.788,15.392 20.351,17.955 17.958,20.347 15.397,17.786 13.12,18.729     13.12,22.353 9.737,22.353 9.737,18.731 7.46,17.788 4.897,20.35 2.506,17.958 5.066,15.397 4.124,13.12 0.5,13.12 0.5,9.737     4.121,9.737 5.065,7.461 2.503,4.898 4.895,2.506 7.455,5.066 9.732,4.125 9.732,0.5 13.116,0.5 13.116,4.121 "/> 		<circle oryx:anchors="top left" id="_24258173-6A98-4AF8-8ACD-0F662B7C2598frame21" style="opacity:1;fill:none" stroke="#000000" cx="11.427" cy="11.426" r="3.714"/> 		<polygon oryx:anchors="top left" id="_24258173-6A98-4AF8-8ACD-0F662B7C2598frame22" style="opacity:1;fill:#ffffff" stroke="#000000" points="21.392,11.064 23.954,8.502 26.347,10.895 23.786,13.455     24.729,15.732 28.353,15.732 28.353,19.115 24.731,19.115 23.788,21.392 26.351,23.955 23.958,26.347 21.397,23.786 19.12,24.729     19.12,28.353 15.737,28.353 15.737,24.731 13.46,23.788 10.897,26.35 8.506,23.958 11.066,21.397 10.124,19.12 6.5,19.12     6.5,15.737 10.121,15.737 11.065,13.461 8.503,10.898 10.895,8.506 13.455,11.066 15.732,10.125 15.732,6.5 19.116,6.5     19.116,10.121 "/> 		<circle oryx:anchors="top left" id="_24258173-6A98-4AF8-8ACD-0F662B7C2598frame23" style="opacity:1;fill:none;" stroke="#000000" cx="17.427" cy="17.426" r="3.714"/> 	</g> 	 	<g id="_24258173-6A98-4AF8-8ACD-0F662B7C2598sendTask" display="none"> 		<path id="_24258173-6A98-4AF8-8ACD-0F662B7C2598stframe24" oryx:anchors="left top" stroke="#FFFFFF" fill="black" stroke-width="1" d="M8,11 L8,21 L24,21 L24,11 L16,17z"/> 		<path id="_24258173-6A98-4AF8-8ACD-0F662B7C2598stframe25" oryx:anchors="left top" stroke="#FFFFFF" fill="black" stroke-width="1" d="M7,10 L16,17 L25 10z"/> 	</g> 	 	<g id="_24258173-6A98-4AF8-8ACD-0F662B7C2598receiveTask" display="none"> 		<path id="_24258173-6A98-4AF8-8ACD-0F662B7C2598frame26" oryx:anchors="left top" stroke="#000000" fill="none" stroke-width="1" d="M8,11 L8,21 L24,21 L24,11z M8,11 L16,17 L24,11"/> 	</g> 	 	<g id="_24258173-6A98-4AF8-8ACD-0F662B7C2598none" display="inherit"/>  	<g id="_24258173-6A98-4AF8-8ACD-0F662B7C2598sequential" display="none">         <path oryx:anchors="bottom" fill="none" stroke="#000000" stroke-width="2" d="M46,76h10M46,72h10 M46,68h10" id="_24258173-6A98-4AF8-8ACD-0F662B7C2598__24258173-6A98-4AF8-8ACD-0F662B7C2598_20"/>     </g>   </g></g><g class="children" style="overflow:hidden"/><g class="edge"/></g><g class="controls"><g class="dockers"/><g class="magnets" transform="translate(478, 85)"><g pointer-events="all" display="none" transform="translate(-7, 12)"><circle cx="8" cy="8" r="4" stroke="none" fill="red" fill-opacity="0.3"/></g><g pointer-events="all" display="none" transform="translate(-7, 32)"><circle cx="8" cy="8" r="4" stroke="none" fill="red" fill-opacity="0.3"/></g><g pointer-events="all" display="none" transform="translate(-7, 52)"><circle cx="8" cy="8" r="4" stroke="none" fill="red" fill-opacity="0.3"/></g><g pointer-events="all" display="none" transform="translate(17, 71)"><circle cx="8" cy="8" r="4" stroke="none" fill="red" fill-opacity="0.3"/></g><g pointer-events="all" display="none" transform="translate(42, 71)"><circle cx="8" cy="8" r="4" stroke="none" fill="red" fill-opacity="0.3"/></g><g pointer-events="all" display="none" transform="translate(67, 71)"><circle cx="8" cy="8" r="4" stroke="none" fill="red" fill-opacity="0.3"/></g><g pointer-events="all" display="none" transform="translate(91, 12)"><circle cx="8" cy="8" r="4" stroke="none" fill="red" fill-opacity="0.3"/></g><g pointer-events="all" display="none" transform="translate(91, 32)"><circle cx="8" cy="8" r="4" stroke="none" fill="red" fill-opacity="0.3"/></g><g pointer-events="all" display="none" transform="translate(91, 52)"><circle cx="8" cy="8" r="4" stroke="none" fill="red" fill-opacity="0.3"/></g><g pointer-events="all" display="none" transform="translate(17, -7)"><circle cx="8" cy="8" r="4" stroke="none" fill="red" fill-opacity="0.3"/></g><g pointer-events="all" display="none" transform="translate(42, -7)"><circle cx="8" cy="8" r="4" stroke="none" fill="red" fill-opacity="0.3"/></g><g pointer-events="all" display="none" transform="translate(67, -7)"><circle cx="8" cy="8" r="4" stroke="none" fill="red" fill-opacity="0.3"/></g><g pointer-events="all" display="none" transform="translate(42, 32)"><circle cx="8" cy="8" r="4" stroke="none" fill="red" fill-opacity="0.3"/></g></g></g></g></g><g class="edge"/></g><g class="controls"><g class="dockers"/><g class="magnets" transform="translate(212, 73)"><g pointer-events="all" display="none" transform="translate(600.5, 116.5)"><circle cx="8" cy="8" r="4" stroke="none" fill="red" fill-opacity="0.3"/></g></g></g></g><g id="_0A969554-1312-4D04-BF2A-39B2F9B5AB3B" bpmn2nodeid="_71F31B9C-86E7-46A2-99F0-B39FCBD305DE"><g class="stencils" transform="translate(212, 360)"><g class="me"><g pointer-events="painted" id="_0A969554-1312-4D04-BF2A-39B2F9B5AB3B">         <defs id="_0A969554-1312-4D04-BF2A-39B2F9B5AB3B__0A969554-1312-4D04-BF2A-39B2F9B5AB3B_3"> 		<radialGradient id="_0A969554-1312-4D04-BF2A-39B2F9B5AB3Bbackground" cx="0%" cy="10%" r="100%" fx="20%" fy="10%"> 			<stop offset="0%" stop-color="#ffffff" stop-opacity="1" id="_0A969554-1312-4D04-BF2A-39B2F9B5AB3B__0A969554-1312-4D04-BF2A-39B2F9B5AB3B_4"/> 			<stop id="_0A969554-1312-4D04-BF2A-39B2F9B5AB3Bfill_el" offset="100%" stop-color="#ffffff" stop-opacity="1"/> 		</radialGradient> 	</defs> 	   	 	<rect id="_0A969554-1312-4D04-BF2A-39B2F9B5AB3Bborder" oryx:resize="vertical horizontal" x="0" y="0" width="1217.9999999999998" height="249" stroke="#000000" stroke-width="1" fill="url(#_0A969554-1312-4D04-BF2A-39B2F9B5AB3Bbackground) white"/> 	 	 	 	<path id="_0A969554-1312-4D04-BF2A-39B2F9B5AB3Bframe2" style="fill:none;stroke-width:1" d=" M0 0  L0 249 " oryx:anchors="left top bottom" stroke="#000000"/> 	 	undefined 	     <text x="50" y="124.5" oryx:rotate="270" font-size="12" id="_0A969554-1312-4D04-BF2A-39B2F9B5AB3Btext_name" oryx:align="middle center" oryx:anchors="left" oryx:fittoelem="frame" stroke="black" stroke-width="0pt" letter-spacing="-0.01px" fill="#000000" text-anchor="middle" transform="rotate(270 50 124.5)" visibility="inherit" oryx:fontSize="12"><tspan x="50" y="124.5" dy="5">Ordering system</tspan></text>   </g></g><g class="children" style="overflow:hidden"/><g class="edge"/></g><g class="controls"><g class="dockers"/><g class="magnets" transform="translate(212, 360)"><g pointer-events="all" display="none" transform="translate(600.9999999999999, 116.5)"><circle cx="8" cy="8" r="4" stroke="none" fill="red" fill-opacity="0.3"/></g></g></g></g></g><g class="edge"><g id="_BCF45180-07BB-4138-B08F-C3872D85DF75" bpmn2nodeid="_7898E8E0-2307-4B2A-A4A4-6D04B8F55F58"><g class="stencils"><g class="me"><g pointer-events="painted" bpmn2nodeid="_3C0D8D5A-9285-4AD6-BF35-B0A0A6C38F09"><path id="_BCF45180-07BB-4138-B08F-C3872D85DF75_1" d="M345.609375 198L389.15625 198 " stroke="#000000" fill="none" stroke-width="2" stroke-linecap="round" stroke-linejoin="round" marker-start="url(#_BCF45180-07BB-4138-B08F-C3872D85DF75start)" marker-end="url(#_BCF45180-07BB-4138-B08F-C3872D85DF75end)"/></g><text id="_BCF45180-07BB-4138-B08F-C3872D85DF75text_name" font-size="12" x="359.609375" y="184" oryx:edgePosition="startTop" stroke-width="0pt" letter-spacing="-0.01px" fill="#000000" text-anchor="start" transform="rotate(360 345.609375 198)" visibility="inherit" oryx:fontSize="12"/></g><g class="children" style="overflow:hidden"/><g class="edge"/></g><g class="controls"><g class="dockers"/><g class="magnets"/></g></g><g id="_4DAF33DE-87C7-4BEB-925C-950B42A928D6" bpmn2nodeid="_AE2135B8-CD4B-4B40-889A-2AC7E0BDE612"><g class="stencils"><g class="me"><g pointer-events="painted" bpmn2nodeid="_1F1CF0D6-70E9-45E5-8F05-3EFA901A0676"><path id="_4DAF33DE-87C7-4BEB-925C-950B42A928D6_1" d="M490.21875 198L539.78125 198 " stroke="#000000" fill="none" stroke-width="2" stroke-linecap="round" stroke-linejoin="round" marker-start="url(#_4DAF33DE-87C7-4BEB-925C-950B42A928D6start)" marker-end="url(#_4DAF33DE-87C7-4BEB-925C-950B42A928D6end)"/></g><text id="_4DAF33DE-87C7-4BEB-925C-950B42A928D6text_name" font-size="12" x="504.21875" y="184" oryx:edgePosition="startTop" stroke-width="0pt" letter-spacing="-0.01px" fill="#000000" text-anchor="start" transform="rotate(360 490.21875 198)" visibility="inherit" oryx:fontSize="12"/></g><g class="children" style="overflow:hidden"/><g class="edge"/></g><g class="controls"><g class="dockers"/><g class="magnets"/></g></g><g id="_66B2E50F-5841-4359-932B-D552F698B0F9" bpmn2nodeid="_9E0AEF84-EB70-4D3B-AF58-33B43057B5D4"><g class="stencils"><g class="me"><g pointer-events="painted" bpmn2nodeid="_3F7C0A22-D71A-4609-B830-0621C7353936"><path id="_66B2E50F-5841-4359-932B-D552F698B0F9_1" d="M640.21875 198L689.78125 198 " stroke="#000000" fill="none" stroke-width="2" stroke-linecap="round" stroke-linejoin="round" marker-start="url(#_66B2E50F-5841-4359-932B-D552F698B0F9start)" marker-end="url(#_66B2E50F-5841-4359-932B-D552F698B0F9end)"/></g><text id="_66B2E50F-5841-4359-932B-D552F698B0F9text_name" font-size="12" x="654.21875" y="184" oryx:edgePosition="startTop" stroke-width="0pt" letter-spacing="-0.01px" fill="#000000" text-anchor="start" transform="rotate(360 640.21875 198)" visibility="inherit" oryx:fontSize="12"/></g><g class="children" style="overflow:hidden"/><g class="edge"/></g><g class="controls"><g class="dockers"/><g class="magnets"/></g></g><g id="_0E5BE06F-EFA1-4867-93C6-0BE2A904A4CC" bpmn2nodeid="_3AEAD0AE-0241-431B-9397-D36A194367A0"><g class="stencils"><g class="me"><g pointer-events="painted" bpmn2nodeid="_018406F0-23FA-42A8-AAA4-526FEC1B516D"><path id="_0E5BE06F-EFA1-4867-93C6-0BE2A904A4CC_1" d="M790.9218737754754 197.9203100566894L1364.2714855995246 197.0230493183106 " stroke="#000000" fill="none" stroke-width="2" stroke-linecap="round" stroke-linejoin="round" marker-start="url(#_0E5BE06F-EFA1-4867-93C6-0BE2A904A4CCstart)" marker-end="url(#_0E5BE06F-EFA1-4867-93C6-0BE2A904A4CCend)"/></g><text id="_0E5BE06F-EFA1-4867-93C6-0BE2A904A4CCtext_name" font-size="12" x="804.9218737754754" y="183.9203100566894" oryx:edgePosition="startTop" stroke-width="0pt" letter-spacing="-0.01px" fill="#000000" text-anchor="start" transform="rotate(359.91033531652636 790.9218737754754 197.9203100566894)" visibility="inherit" oryx:fontSize="12"/></g><g class="children" style="overflow:hidden"/><g class="edge"/></g><g class="controls"><g class="dockers"/><g class="magnets"/></g></g></g><text id="_1A99AE53-44AF-4E85-A1FA-023C08C9E954" style="stroke-width:1;fill:rgb(177,194,214);font-family:arial;font-weight:bold" font-size="12" onclick="ORYX.Plugins.CanvasTitle.openTextualAnalysis()" onmouseover="ORYX.Plugins.CanvasTitle.addToolTip('_1A99AE53-44AF-4E85-A1FA-023C08C9E954')" transform="translate(10, 20)">OrderCreation v.1.0 (src.OrderCreation)</text></g></g></svg>