<svg xmlns="http://www.w3.org/2000/svg" xmlns:oryx="http://oryx-editor.org" id="_BF3F5A2C-BC2E-4C56-A062-880A2AE89617" width="1480.1546630859375" height="659" xmlns:xlink="http://www.w3.org/1999/xlink" xmlns:svg="http://www.w3.org/2000/svg"><defs><marker id="_9CE5FC9B-1676-49D3-B13A-DBAFF6C2F063start" refX="1" refY="5" markerUnits="userSpaceOnUse" markerWidth="17" markerHeight="11" orient="auto" fill="#000000" stroke="#000000"> 	  		<path id="_9CE5FC9B-1676-49D3-B13A-DBAFF6C2F063conditional" d="M 0 5 L 8 0 L 16 5 L 8 10 L 0 5" fill="white" stroke="#000000" stroke-width="1" display="none"/> 			<path id="_9CE5FC9B-1676-49D3-B13A-DBAFF6C2F063default" d="M 5 0 L 11 10" fill="white" stroke="#000000" stroke-width="1" display="none"/> 	  	</marker><marker id="_9CE5FC9B-1676-49D3-B13A-DBAFF6C2F063end" refX="15" refY="6" markerUnits="userSpaceOnUse" markerWidth="15" markerHeight="12" orient="auto" fill="#000000" stroke="#000000"> 	  		<path id="_9CE5FC9B-1676-49D3-B13A-DBAFF6C2F063frame2" d="M 0 1 L 15 6 L 0 11z" fill="#000000" stroke="#000000" stroke-linejoin="round" stroke-width="2"/> 	  	</marker><marker id="_A2505812-4FC1-4962-8B89-6D1E8BA8F1CBstart" refX="1" refY="5" markerUnits="userSpaceOnUse" markerWidth="17" markerHeight="11" orient="auto" fill="#000000" stroke="#000000"> 	  		<path id="_A2505812-4FC1-4962-8B89-6D1E8BA8F1CBconditional" d="M 0 5 L 8 0 L 16 5 L 8 10 L 0 5" fill="white" stroke="#000000" stroke-width="1" display="none"/> 			<path id="_A2505812-4FC1-4962-8B89-6D1E8BA8F1CBdefault" d="M 5 0 L 11 10" fill="white" stroke="#000000" stroke-width="1" display="none"/> 	  	</marker><marker id="_A2505812-4FC1-4962-8B89-6D1E8BA8F1CBend" refX="15" refY="6" markerUnits="userSpaceOnUse" markerWidth="15" markerHeight="12" orient="auto" fill="#000000" stroke="#000000"> 	  		<path id="_A2505812-4FC1-4962-8B89-6D1E8BA8F1CBframe2" d="M 0 1 L 15 6 L 0 11z" fill="#000000" stroke="#000000" stroke-linejoin="round" stroke-width="2"/> 	  	</marker><marker id="_8DB701A7-F09C-436D-9BFB-B9199DB84D4Dstart" refX="1" refY="5" markerUnits="userSpaceOnUse" markerWidth="17" markerHeight="11" orient="auto" fill="#000000" stroke="#000000"> 	  		<path id="_8DB701A7-F09C-436D-9BFB-B9199DB84D4Dconditional" d="M 0 5 L 8 0 L 16 5 L 8 10 L 0 5" fill="white" stroke="#000000" stroke-width="1" display="none"/> 			<path id="_8DB701A7-F09C-436D-9BFB-B9199DB84D4Ddefault" d="M 5 0 L 11 10" fill="white" stroke="#000000" stroke-width="1" display="none"/> 	  	</marker><marker id="_8DB701A7-F09C-436D-9BFB-B9199DB84D4Dend" refX="15" refY="6" markerUnits="userSpaceOnUse" markerWidth="15" markerHeight="12" orient="auto" fill="#000000" stroke="#000000"> 	  		<path id="_8DB701A7-F09C-436D-9BFB-B9199DB84D4Dframe2" d="M 0 1 L 15 6 L 0 11z" fill="#000000" stroke="#000000" stroke-linejoin="round" stroke-width="2"/> 	  	</marker><marker id="_46CF6E16-315A-452A-9469-6501EA0AF156start" refX="1" refY="5" markerUnits="userSpaceOnUse" markerWidth="17" markerHeight="11" orient="auto" fill="#000000" stroke="#000000"> 	  		<path id="_46CF6E16-315A-452A-9469-6501EA0AF156conditional" d="M 0 5 L 8 0 L 16 5 L 8 10 L 0 5" fill="white" stroke="#000000" stroke-width="1" display="none"/> 			<path id="_46CF6E16-315A-452A-9469-6501EA0AF156default" d="M 5 0 L 11 10" fill="white" stroke="#000000" stroke-width="1" display="none"/> 	  	</marker><marker id="_46CF6E16-315A-452A-9469-6501EA0AF156end" refX="15" refY="6" markerUnits="userSpaceOnUse" markerWidth="15" markerHeight="12" orient="auto" fill="#000000" stroke="#000000"> 	  		<path id="_46CF6E16-315A-452A-9469-6501EA0AF156frame2" d="M 0 1 L 15 6 L 0 11z" fill="#000000" stroke="#000000" stroke-linejoin="round" stroke-width="2"/> 	  	</marker></defs><g stroke="none" font-family="Verdana, sans-serif" font-size-adjust="none" font-style="normal" font-variant="normal" font-weight="normal" line-heigth="normal" font-size="12"><g class="stencils" transform="translate(25.154649183154106, 24.999999999999915)"><g class="me"/><g class="children"><g id="_53D635C1-AD63-412C-8B2F-FD69210EA184" bpmn2nodeid="_97BDC9A7-504B-4C1E-922F-4B785F18471E"><g class="stencils" transform="translate(212, 73)" id="ext-gen630"><g class="me"><g pointer-events="painted" id="_53D635C1-AD63-412C-8B2F-FD69210EA184">         <defs id="_53D635C1-AD63-412C-8B2F-FD69210EA184__53D635C1-AD63-412C-8B2F-FD69210EA184_3"> 		<radialGradient id="_53D635C1-AD63-412C-8B2F-FD69210EA184background" cx="0%" cy="10%" r="100%" fx="20%" fy="10%"> 			<stop offset="0%" stop-color="#ffffff" stop-opacity="1" id="_53D635C1-AD63-412C-8B2F-FD69210EA184__53D635C1-AD63-412C-8B2F-FD69210EA184_4"/> 			<stop id="_53D635C1-AD63-412C-8B2F-FD69210EA184fill_el" offset="100%" stop-color="#ffffff" stop-opacity="1"/> 		</radialGradient> 	</defs> 	   	 	<rect id="_53D635C1-AD63-412C-8B2F-FD69210EA184border" oryx:resize="vertical horizontal" x="0" y="0" width="1217" height="249" stroke="#000000" stroke-width="1" fill="url(#_53D635C1-AD63-412C-8B2F-FD69210EA184background) white"/> 	 	 	 	<path id="_53D635C1-AD63-412C-8B2F-FD69210EA184frame2" style="fill:none;stroke-width:1" d=" M0 0  L0 249 " oryx:anchors="left top bottom" stroke="#000000"/> 	 	undefined 	     <text x="50" y="124.5" oryx:rotate="270" font-size="12" id="_53D635C1-AD63-412C-8B2F-FD69210EA184text_name" oryx:align="middle center" oryx:anchors="left" oryx:fittoelem="frame" stroke="black" stroke-width="0pt" letter-spacing="-0.01px" fill="#000000" text-anchor="middle" transform="rotate(270 50 124.5)" visibility="inherit" oryx:fontSize="12"><tspan x="50" y="124.5" dy="5" id="ext-gen610">Customer</tspan></text>   </g></g><g class="children" style="overflow:hidden"><g id="_04869A9A-70ED-489C-BAAA-57DDD9F3B9DA" bpmn2nodeid="processStartEvent"><g class="stencils" transform="translate(103, 110)"><g class="me"><g pointer-events="fill" id="_04869A9A-70ED-489C-BAAA-57DDD9F3B9DA">        <defs id="_04869A9A-70ED-489C-BAAA-57DDD9F3B9DA__04869A9A-70ED-489C-BAAA-57DDD9F3B9DA_5"> 		<radialGradient id="_04869A9A-70ED-489C-BAAA-57DDD9F3B9DAbackground" cx="10%" cy="10%" r="100%" fx="10%" fy="10%"> 			<stop offset="0%" stop-color="#ffffff" stop-opacity="1" id="_04869A9A-70ED-489C-BAAA-57DDD9F3B9DA__04869A9A-70ED-489C-BAAA-57DDD9F3B9DA_6"/> 			<stop id="_04869A9A-70ED-489C-BAAA-57DDD9F3B9DAfill_el" offset="100%" stop-color="#9acd32" stop-opacity="1"/> 		</radialGradient> 	</defs> 	     <circle id="_04869A9A-70ED-489C-BAAA-57DDD9F3B9DAbg_frame" cx="15" cy="15" r="15" stroke="#000000" fill="url(#_04869A9A-70ED-489C-BAAA-57DDD9F3B9DAbackground) white" stroke-width="1" style="stroke-dasharray: 5.5, 3"/>      <circle id="_04869A9A-70ED-489C-BAAA-57DDD9F3B9DAframe" cx="15" cy="15" r="15" stroke="#000000" fill="none" stroke-width="1" display="inherit"/>  	<text font-size="11" id="_04869A9A-70ED-489C-BAAA-57DDD9F3B9DAtext_name" x="15" y="32" oryx:align="top center" stroke="black" stroke-width="0pt" letter-spacing="-0.01px" fill="#000000" text-anchor="middle" transform="rotate(0 15 32)" visibility="inherit" oryx:fontSize="11"><tspan x="15" y="32" dy="11">Order</tspan><tspan x="15" y="32" dy="22">screen</tspan><tspan x="15" y="32" dy="33">opened</tspan></text>   </g></g><g class="children" style="overflow:hidden"/><g class="edge"/></g><g class="controls"><g class="dockers"/><g class="magnets" transform="translate(103, 110)"><g pointer-events="all" display="none" transform="translate(7, 7)"><circle cx="8" cy="8" r="4" stroke="none" fill="red" fill-opacity="0.3"/></g></g></g></g><g id="_2D44F061-1A0B-4FF2-B9BB-A115B91526F2" bpmn2nodeid="_AD68BB65-077E-4E91-B56F-073EC7B1C382"><g class="stencils" transform="translate(1153, 110.5)"><g class="me"><g pointer-events="fill" id="_2D44F061-1A0B-4FF2-B9BB-A115B91526F2">      <defs id="_2D44F061-1A0B-4FF2-B9BB-A115B91526F2__2D44F061-1A0B-4FF2-B9BB-A115B91526F2_5"> 		<radialGradient id="_2D44F061-1A0B-4FF2-B9BB-A115B91526F2background" cx="10%" cy="10%" r="100%" fx="10%" fy="10%"> 			<stop offset="0%" stop-color="#ffffff" stop-opacity="1" id="_2D44F061-1A0B-4FF2-B9BB-A115B91526F2__2D44F061-1A0B-4FF2-B9BB-A115B91526F2_6"/> 			<stop id="_2D44F061-1A0B-4FF2-B9BB-A115B91526F2fill_el" offset="100%" stop-color="#ff6347" stop-opacity="1"/> 		</radialGradient> 	</defs> 	     <circle id="_2D44F061-1A0B-4FF2-B9BB-A115B91526F2bg_frame" cx="14" cy="14" r="14" stroke="#000000" fill="url(#_2D44F061-1A0B-4FF2-B9BB-A115B91526F2background) white" stroke-width="3"/> 	<text font-size="11" id="_2D44F061-1A0B-4FF2-B9BB-A115B91526F2text_name" x="14" y="30" oryx:align="top center" stroke="black" stroke-width="0pt" letter-spacing="-0.01px" fill="#000000" text-anchor="middle" transform="rotate(0 14 30)" visibility="inherit" oryx:fontSize="11"><tspan x="14" y="30" dy="11" id="ext-gen917">Order</tspan><tspan x="14" y="30" dy="22">created</tspan></text>   </g></g><g class="children" style="overflow:hidden"/><g class="edge"/></g><g class="controls"><g class="dockers"/><g class="magnets" transform="translate(1153, 110.5)"><g pointer-events="all" display="none" transform="translate(6, 6)"><circle cx="8" cy="8" r="4" stroke="none" fill="red" fill-opacity="0.3"/></g></g></g></g><g id="_314F7E17-E26F-4CEC-822A-6AB030CAFFC5" bpmn2nodeid="_546FB0CA-6E82-4BFE-97BF-811C9E1FF34B"><g class="stencils" transform="translate(328, 85)"><g class="me"><g pointer-events="fill" oryx:minimumSize="50 40" id="_314F7E17-E26F-4CEC-822A-6AB030CAFFC5">   	<defs id="_314F7E17-E26F-4CEC-822A-6AB030CAFFC5__314F7E17-E26F-4CEC-822A-6AB030CAFFC5_17"> 		<radialGradient id="_314F7E17-E26F-4CEC-822A-6AB030CAFFC5background" cx="10%" cy="10%" r="100%" fx="10%" fy="10%"> 			<stop offset="0%" stop-color="#ffffff" stop-opacity="1" id="_314F7E17-E26F-4CEC-822A-6AB030CAFFC5__314F7E17-E26F-4CEC-822A-6AB030CAFFC5_18"/> 			<stop id="_314F7E17-E26F-4CEC-822A-6AB030CAFFC5fill_el" offset="100%" stop-color="#fafad2" stop-opacity="1"/> 		</radialGradient> 		<radialGradient id="_314F7E17-E26F-4CEC-822A-6AB030CAFFC5borderbackground" cx="10%" cy="10%" r="100%" fx="10%" fy="10%"> 			<stop offset="0%" stop-color="#ffffff" stop-opacity="1" id="_314F7E17-E26F-4CEC-822A-6AB030CAFFC5__314F7E17-E26F-4CEC-822A-6AB030CAFFC5_19"/> 			<stop id="_314F7E17-E26F-4CEC-822A-6AB030CAFFC5fill_border" offset="100%" stop-color="#000000" stop-opacity="1" stroke="#000000"/> 		</radialGradient> 	</defs> 	 	<rect id="_314F7E17-E26F-4CEC-822A-6AB030CAFFC5text_frame" oryx:anchors="bottom top right left" x="1" y="1" width="94" height="79" rx="10" ry="10" stroke="none" stroke-width="0" fill="none"/> 	<rect id="_314F7E17-E26F-4CEC-822A-6AB030CAFFC5bg_frame" oryx:resize="vertical horizontal" x="0" y="0" width="100" height="80" rx="10" ry="10" stroke="#000000" stroke-width="1" fill="url(#_314F7E17-E26F-4CEC-822A-6AB030CAFFC5background) #ffffcc"/> 		<text font-size="12" id="_314F7E17-E26F-4CEC-822A-6AB030CAFFC5text_name" x="50" y="40" oryx:align="middle center" oryx:fittoelem="text_frame" stroke="black" text-anchor="middle" stroke-width="0pt" letter-spacing="-0.01px" fill="#000000" transform="rotate(0 50 40)" visibility="inherit" oryx:fontSize="12"><tspan x="50" y="40" dy="-1" id="ext-gen776">Choose </tspan><tspan x="50" y="40" dy="11" id="ext-gen775">laundry type</tspan></text>     <g id="_314F7E17-E26F-4CEC-822A-6AB030CAFFC5manualTask" transform="scale(0.7,0.7) translate(8,8)" display="none">     	<path oryx:anchors="top left" id="_314F7E17-E26F-4CEC-822A-6AB030CAFFC5frame" style="opacity:1;fill:none;fill-opacity:1;stroke-width:1" d="M0.5,3.751l4.083-3.25c0,0,11.166,0.083,12.083,0.083s-2.417,2.917-1.5,2.917     s11.667,0,12.584,0c1.166,1.708-0.168,3.167-0.834,3.667s0.875,1.917-1,4.417c-0.75,0.25,0.75,1.875-1.333,3.333     c-1.167,0.583,0.583,1.542-1.25,2.833c-1.167,0-20.833,0.083-20.833,0.083l-2-1.333V3.751z" stroke="#000000"/> 		<path id="_314F7E17-E26F-4CEC-822A-6AB030CAFFC5frame2" oryx:anchors="top left" style="opacity:1;fill:none;stroke-width:2" d="M 13.5 7 L 27 7" stroke="#000000"/> 		<path id="_314F7E17-E26F-4CEC-822A-6AB030CAFFC5frame3" oryx:anchors="top left" style="opacity:1;fill:none;stroke-width:2" d="M 13.5 11 L 26 11" stroke="#000000"/> 		<path id="_314F7E17-E26F-4CEC-822A-6AB030CAFFC5frame4" oryx:anchors="top left" style="opacity:1;fill:none;stroke-width:1.5" d="M 14 14.5 L 25 14.5" stroke="#000000"/> 		<path id="_314F7E17-E26F-4CEC-822A-6AB030CAFFC5frame5" oryx:anchors="top left" style="opacity:1;fill:none;stroke-width:1.5" d="M 8.2 3.1 L 15 3.1" stroke="#000000"/> 	</g> 	 	<g id="_314F7E17-E26F-4CEC-822A-6AB030CAFFC5businessRuleTask" transform="scale(0.7,0.7) translate(8,8)" display="none"> 		<rect id="_314F7E17-E26F-4CEC-822A-6AB030CAFFC5frame6" oryx:anchors="top left" x="0" y="0" width="22" height="4" style="opacity:1;fill:#B3B1B3;fill-opacity:1;" stroke="#000000"/> 		<rect id="_314F7E17-E26F-4CEC-822A-6AB030CAFFC5frame7" oryx:anchors="top left" x="0" y="4" style="opacity:1;fill:none;" width="22" height="12" stroke="#000000"/> 		<path id="_314F7E17-E26F-4CEC-822A-6AB030CAFFC5frame8" oryx:anchors="top left" style="opacity:1;fill:none;" d="M 0 10 L 22 10" stroke="#000000"/> 		<path id="_314F7E17-E26F-4CEC-822A-6AB030CAFFC5frame9" oryx:anchors="top left" style="opacity:1; fill:none;" d="M 7 4 L 7 16" stroke="#000000"/> 	</g> 	 	<g id="_314F7E17-E26F-4CEC-822A-6AB030CAFFC5scriptTask" transform="scale(0.7,0.7) translate(8,8)" display="none"> 		<path oryx:anchors="top left" id="_314F7E17-E26F-4CEC-822A-6AB030CAFFC5frame10" style="opacity:1;fill:none;" stroke="#000000" d="M6.402,0.5h14.5c0,0-5.833,2.833-5.833,5.583s4.417,6,4.417,9.167    s-4.167,5.083-4.167,5.083H0.235c0,0,5-2.667,5-5s-4.583-6.75-4.583-9.25S6.402,0.5,6.402,0.5z"/> 		<path oryx:anchors="top left" id="_314F7E17-E26F-4CEC-822A-6AB030CAFFC5frame11" style="opacity:1;fill:none;stroke-width:1.5" d="M 3.5 4.5 L 13.5 4.5" stroke="#000000"/> 		<path oryx:anchors="top left" id="_314F7E17-E26F-4CEC-822A-6AB030CAFFC5frame12" style="opacity:1;fill:none;stroke-width:1.5" d="M 3.8 8.5 L 13.8 8.5" stroke="#000000"/> 		<path oryx:anchors="top left" id="_314F7E17-E26F-4CEC-822A-6AB030CAFFC5frame13" style="opacity:1;fill:none;stroke-width:1.5" d="M 6.3 12.5 L 16.3 12.5" stroke="#000000"/> 		<path oryx:anchors="top left" id="_314F7E17-E26F-4CEC-822A-6AB030CAFFC5frame14" style="opacity:1;fill:none;stroke-width:1.5" d="M 6.5 16.5 L 16.5 16.5" stroke="#000000"/> 	</g> 	 	<g id="_314F7E17-E26F-4CEC-822A-6AB030CAFFC5userTask" transform="scale(0.7,0.7) translate(8,8)" display="inherit"> 		<path id="_314F7E17-E26F-4CEC-822A-6AB030CAFFC5frame15" oryx:anchors="top left" style="opacity:1;fill:#F4F6F7" stroke="#000000" d="M0.585,24.167h24.083v-7.833c0,0-2.333-3.917-7.083-5.167h-9.25    c-4.417,1.333-7.833,5.75-7.833,5.75L0.585,24.167z"/> 		<path id="_314F7E17-E26F-4CEC-822A-6AB030CAFFC5frame16" oryx:anchors="top left" style="opacity:1;fill:none" d="M 6 20 L 6 24" stroke="#000000"/> 		<path id="_314F7E17-E26F-4CEC-822A-6AB030CAFFC5frame17" oryx:anchors="top left" style="opacity:1;fill:none" d="M 20 20 L 20 24" stroke="#000000"/> 		<circle id="_314F7E17-E26F-4CEC-822A-6AB030CAFFC5frame18" oryx:anchors="top left" fill="black" cx="13.002" cy="5.916" r="5.417" stroke="#000000"/> 		<path id="_314F7E17-E26F-4CEC-822A-6AB030CAFFC5frame19" oryx:anchors="top left" style="opacity:1;fill:#F0EFF0;" stroke="#000000" d="M8.043,7.083c0,0,2.814-2.426,5.376-1.807s4.624-0.693,4.624-0.693    c0.25,1.688,0.042,3.75-1.458,5.584c0,0,1.083,0.75,1.083,1.5s0.125,1.875-1,3s-5.5,1.25-6.75,0S8.668,12.834,8.668,12    s0.583-1.25,1.25-1.917C8.835,9.5,7.419,7.708,8.043,7.083z"/> 	</g> 	 	<g id="_314F7E17-E26F-4CEC-822A-6AB030CAFFC5serviceTask" transform="scale(0.7,0.7) translate(8,8)" display="none"> 		<polygon oryx:anchors="top left" id="_314F7E17-E26F-4CEC-822A-6AB030CAFFC5frame20" style="opacity:1;fill:#ffffff" stroke="#000000" points="15.392,5.064 17.954,2.502 20.347,4.895 17.786,7.455     18.729,9.732 22.353,9.732 22.353,13.115 18.731,13.115 17.788,15.392 20.351,17.955 17.958,20.347 15.397,17.786 13.12,18.729     13.12,22.353 9.737,22.353 9.737,18.731 7.46,17.788 4.897,20.35 2.506,17.958 5.066,15.397 4.124,13.12 0.5,13.12 0.5,9.737     4.121,9.737 5.065,7.461 2.503,4.898 4.895,2.506 7.455,5.066 9.732,4.125 9.732,0.5 13.116,0.5 13.116,4.121 "/> 		<circle oryx:anchors="top left" id="_314F7E17-E26F-4CEC-822A-6AB030CAFFC5frame21" style="opacity:1;fill:none" stroke="#000000" cx="11.427" cy="11.426" r="3.714"/> 		<polygon oryx:anchors="top left" id="_314F7E17-E26F-4CEC-822A-6AB030CAFFC5frame22" style="opacity:1;fill:#ffffff" stroke="#000000" points="21.392,11.064 23.954,8.502 26.347,10.895 23.786,13.455     24.729,15.732 28.353,15.732 28.353,19.115 24.731,19.115 23.788,21.392 26.351,23.955 23.958,26.347 21.397,23.786 19.12,24.729     19.12,28.353 15.737,28.353 15.737,24.731 13.46,23.788 10.897,26.35 8.506,23.958 11.066,21.397 10.124,19.12 6.5,19.12     6.5,15.737 10.121,15.737 11.065,13.461 8.503,10.898 10.895,8.506 13.455,11.066 15.732,10.125 15.732,6.5 19.116,6.5     19.116,10.121 "/> 		<circle oryx:anchors="top left" id="_314F7E17-E26F-4CEC-822A-6AB030CAFFC5frame23" style="opacity:1;fill:none;" stroke="#000000" cx="17.427" cy="17.426" r="3.714"/> 	</g> 	 	<g id="_314F7E17-E26F-4CEC-822A-6AB030CAFFC5sendTask" display="none"> 		<path id="_314F7E17-E26F-4CEC-822A-6AB030CAFFC5stframe24" oryx:anchors="left top" stroke="#FFFFFF" fill="black" stroke-width="1" d="M8,11 L8,21 L24,21 L24,11 L16,17z"/> 		<path id="_314F7E17-E26F-4CEC-822A-6AB030CAFFC5stframe25" oryx:anchors="left top" stroke="#FFFFFF" fill="black" stroke-width="1" d="M7,10 L16,17 L25 10z"/> 	</g> 	 	<g id="_314F7E17-E26F-4CEC-822A-6AB030CAFFC5receiveTask" display="none"> 		<path id="_314F7E17-E26F-4CEC-822A-6AB030CAFFC5frame26" oryx:anchors="left top" stroke="#000000" fill="none" stroke-width="1" d="M8,11 L8,21 L24,21 L24,11z M8,11 L16,17 L24,11"/> 	</g> 	 	<g id="_314F7E17-E26F-4CEC-822A-6AB030CAFFC5none" display="inherit"/>  	<g id="_314F7E17-E26F-4CEC-822A-6AB030CAFFC5sequential" display="none">         <path oryx:anchors="bottom" fill="none" stroke="#000000" stroke-width="2" d="M46,76h10M46,72h10 M46,68h10" id="_314F7E17-E26F-4CEC-822A-6AB030CAFFC5__314F7E17-E26F-4CEC-822A-6AB030CAFFC5_20"/>     </g>   </g></g><g class="children" style="overflow:hidden"/><g class="edge"/></g><g class="controls"><g class="dockers"/><g class="magnets" transform="translate(328, 85)"><g pointer-events="all" display="none" transform="translate(-7, 12)"><circle cx="8" cy="8" r="4" stroke="none" fill="red" fill-opacity="0.3"/></g><g pointer-events="all" display="none" transform="translate(-7, 32)"><circle cx="8" cy="8" r="4" stroke="none" fill="red" fill-opacity="0.3"/></g><g pointer-events="all" display="none" transform="translate(-7, 52)"><circle cx="8" cy="8" r="4" stroke="none" fill="red" fill-opacity="0.3"/></g><g pointer-events="all" display="none" transform="translate(17, 71)"><circle cx="8" cy="8" r="4" stroke="none" fill="red" fill-opacity="0.3"/></g><g pointer-events="all" display="none" transform="translate(42, 71)"><circle cx="8" cy="8" r="4" stroke="none" fill="red" fill-opacity="0.3"/></g><g pointer-events="all" display="none" transform="translate(67, 71)"><circle cx="8" cy="8" r="4" stroke="none" fill="red" fill-opacity="0.3"/></g><g pointer-events="all" display="none" transform="translate(91, 12)"><circle cx="8" cy="8" r="4" stroke="none" fill="red" fill-opacity="0.3"/></g><g pointer-events="all" display="none" transform="translate(91, 32)"><circle cx="8" cy="8" r="4" stroke="none" fill="red" fill-opacity="0.3"/></g><g pointer-events="all" display="none" transform="translate(91, 52)"><circle cx="8" cy="8" r="4" stroke="none" fill="red" fill-opacity="0.3"/></g><g pointer-events="all" display="none" transform="translate(17, -7)"><circle cx="8" cy="8" r="4" stroke="none" fill="red" fill-opacity="0.3"/></g><g pointer-events="all" display="none" transform="translate(42, -7)"><circle cx="8" cy="8" r="4" stroke="none" fill="red" fill-opacity="0.3"/></g><g pointer-events="all" display="none" transform="translate(67, -7)"><circle cx="8" cy="8" r="4" stroke="none" fill="red" fill-opacity="0.3"/></g><g pointer-events="all" display="none" transform="translate(42, 32)"><circle cx="8" cy="8" r="4" stroke="none" fill="red" fill-opacity="0.3"/></g></g></g></g><g id="_E78E33FD-52D0-40E3-9372-854D7287D038" bpmn2nodeid="_AD93EF46-C820-4308-9B57-FE30B8E3DE11"><g class="stencils" transform="translate(178, 85)"><g class="me"><g pointer-events="fill" oryx:minimumSize="80 60" id="_E78E33FD-52D0-40E3-9372-854D7287D038">   	<defs id="_E78E33FD-52D0-40E3-9372-854D7287D038__E78E33FD-52D0-40E3-9372-854D7287D038_17"> 		<radialGradient id="_E78E33FD-52D0-40E3-9372-854D7287D038background" cx="10%" cy="10%" r="100%" fx="10%" fy="10%"> 			<stop offset="0%" stop-color="#ffffff" stop-opacity="1" id="_E78E33FD-52D0-40E3-9372-854D7287D038__E78E33FD-52D0-40E3-9372-854D7287D038_18"/> 			<stop id="_E78E33FD-52D0-40E3-9372-854D7287D038fill_el" offset="100%" stop-color="#fafad2" stop-opacity="1"/> 		</radialGradient> 	</defs> 	<rect id="_E78E33FD-52D0-40E3-9372-854D7287D038text_frame" oryx:anchors="bottom top right left" x="1" y="1" width="94" height="79" rx="10" ry="10" stroke="none" stroke-width="0" fill="none"/> 	<rect id="_E78E33FD-52D0-40E3-9372-854D7287D038bg_frame" oryx:anchors="bottom top right left" x="0" y="0" width="100" height="80" rx="10" ry="10" stroke="#000000" stroke-width="1" fill="url(#_E78E33FD-52D0-40E3-9372-854D7287D038background) #ffffcc"/> 	<rect id="_E78E33FD-52D0-40E3-9372-854D7287D038frame" oryx:resize="vertical horizontal" oryx:anchors="bottom top right left" x="0" y="0" width="100" height="80" rx="10" ry="10" stroke="#000000" stroke-width="4" fill="none"/> 	<rect id="_E78E33FD-52D0-40E3-9372-854D7287D038frame2" oryx:anchors="top bottom left right" oryx:resize="vertical horizontal" x="2.5" y="2.5" width="95" height="75" rx="8" ry="8" stroke="#000000" stroke-width="1" fill="none"/>     	<text font-size="12" id="_E78E33FD-52D0-40E3-9372-854D7287D038text_name" x="50" y="40" oryx:align="middle center" oryx:fittoelem="text_frame" stroke="black" stroke-width="0pt" letter-spacing="-0.01px" fill="#000000" text-anchor="middle" transform="rotate(0 50 40)" visibility="inherit" oryx:fontSize="12"><tspan x="50" y="40" dy="5">Login</tspan></text>          <a id="_E78E33FD-52D0-40E3-9372-854D7287D038pimg" onclick="parent.designeropenintab(&quot;Login.bpmn2&quot;,&quot;default://master@MySpace/WashIt/src/main/resources/com/myspace/washit/Login.bpmn2&quot;);" xlink:href="">	 	<g id="_E78E33FD-52D0-40E3-9372-854D7287D038b" oryx:anchors="bottom"> 		<rect id="_E78E33FD-52D0-40E3-9372-854D7287D038frame3" oryx:anchors="bottom" x="44" y="66" width="14" height="14" fill="none" stroke="#000000" stroke-width="1"/> 		<path id="_E78E33FD-52D0-40E3-9372-854D7287D038frame4" oryx:anchors="bottom" fill="none" stroke="#000000" d="M51 68 v10 M 46 73 h10" stroke-width="1"/> 	</g> 	</a> 	<g id="_E78E33FD-52D0-40E3-9372-854D7287D038none"/> 	undefined 	  	undefined 	undefined 	 	 	undefined 	undefined   </g></g><g class="children" style="overflow:hidden"/><g class="edge"/></g><g class="controls"><g class="dockers"/><g class="magnets" transform="translate(178, 85)"><g pointer-events="all" display="none" transform="translate(-7, 12)"><circle cx="8" cy="8" r="4" stroke="none" fill="red" fill-opacity="0.3"/></g><g pointer-events="all" display="none" transform="translate(-7, 32)"><circle cx="8" cy="8" r="4" stroke="none" fill="red" fill-opacity="0.3"/></g><g pointer-events="all" display="none" transform="translate(-7, 52)"><circle cx="8" cy="8" r="4" stroke="none" fill="red" fill-opacity="0.3"/></g><g pointer-events="all" display="none" transform="translate(17, 71)"><circle cx="8" cy="8" r="4" stroke="none" fill="red" fill-opacity="0.3"/></g><g pointer-events="all" display="none" transform="translate(42, 71)"><circle cx="8" cy="8" r="4" stroke="none" fill="red" fill-opacity="0.3"/></g><g pointer-events="all" display="none" transform="translate(67, 71)"><circle cx="8" cy="8" r="4" stroke="none" fill="red" fill-opacity="0.3"/></g><g pointer-events="all" display="none" transform="translate(91, 12)"><circle cx="8" cy="8" r="4" stroke="none" fill="red" fill-opacity="0.3"/></g><g pointer-events="all" display="none" transform="translate(91, 32)"><circle cx="8" cy="8" r="4" stroke="none" fill="red" fill-opacity="0.3"/></g><g pointer-events="all" display="none" transform="translate(91, 52)"><circle cx="8" cy="8" r="4" stroke="none" fill="red" fill-opacity="0.3"/></g><g pointer-events="all" display="none" transform="translate(17, -7)"><circle cx="8" cy="8" r="4" stroke="none" fill="red" fill-opacity="0.3"/></g><g pointer-events="all" display="none" transform="translate(42, -7)"><circle cx="8" cy="8" r="4" stroke="none" fill="red" fill-opacity="0.3"/></g><g pointer-events="all" display="none" transform="translate(67, -7)"><circle cx="8" cy="8" r="4" stroke="none" fill="red" fill-opacity="0.3"/></g><g pointer-events="all" display="none" transform="translate(42, 32)"><circle cx="8" cy="8" r="4" stroke="none" fill="red" fill-opacity="0.3"/></g></g></g></g><g id="_35A7B9C3-91DA-46CA-AAFF-66D411416F86" bpmn2nodeid="_044DF0A7-E086-448B-A843-06AB3F5CC6AB"><g class="stencils" transform="translate(478, 85)"><g class="me"><g pointer-events="fill" oryx:minimumSize="50 40" id="_35A7B9C3-91DA-46CA-AAFF-66D411416F86">   	<defs id="_35A7B9C3-91DA-46CA-AAFF-66D411416F86__35A7B9C3-91DA-46CA-AAFF-66D411416F86_17"> 		<radialGradient id="_35A7B9C3-91DA-46CA-AAFF-66D411416F86background" cx="10%" cy="10%" r="100%" fx="10%" fy="10%"> 			<stop offset="0%" stop-color="#ffffff" stop-opacity="1" id="_35A7B9C3-91DA-46CA-AAFF-66D411416F86__35A7B9C3-91DA-46CA-AAFF-66D411416F86_18"/> 			<stop id="_35A7B9C3-91DA-46CA-AAFF-66D411416F86fill_el" offset="100%" stop-color="#fafad2" stop-opacity="1"/> 		</radialGradient> 		<radialGradient id="_35A7B9C3-91DA-46CA-AAFF-66D411416F86borderbackground" cx="10%" cy="10%" r="100%" fx="10%" fy="10%"> 			<stop offset="0%" stop-color="#ffffff" stop-opacity="1" id="_35A7B9C3-91DA-46CA-AAFF-66D411416F86__35A7B9C3-91DA-46CA-AAFF-66D411416F86_19"/> 			<stop id="_35A7B9C3-91DA-46CA-AAFF-66D411416F86fill_border" offset="100%" stop-color="#000000" stop-opacity="1" stroke="#000000"/> 		</radialGradient> 	</defs> 	 	<rect id="_35A7B9C3-91DA-46CA-AAFF-66D411416F86text_frame" oryx:anchors="bottom top right left" x="1" y="1" width="94" height="79" rx="10" ry="10" stroke="none" stroke-width="0" fill="none"/> 	<rect id="_35A7B9C3-91DA-46CA-AAFF-66D411416F86bg_frame" oryx:resize="vertical horizontal" x="0" y="0" width="100" height="80" rx="10" ry="10" stroke="#000000" stroke-width="1" fill="url(#_35A7B9C3-91DA-46CA-AAFF-66D411416F86background) #ffffcc"/> 		<text font-size="12" id="_35A7B9C3-91DA-46CA-AAFF-66D411416F86text_name" x="50" y="40" oryx:align="middle center" oryx:fittoelem="text_frame" stroke="black" text-anchor="middle" stroke-width="0pt" letter-spacing="-0.01px" fill="#000000" transform="rotate(0 50 40)" visibility="inherit" oryx:fontSize="12"><tspan x="50" y="40" dy="-1" id="ext-gen743">Select laundry </tspan><tspan x="50" y="40" dy="11" id="ext-gen742">weight</tspan></text>     <g id="_35A7B9C3-91DA-46CA-AAFF-66D411416F86manualTask" transform="scale(0.7,0.7) translate(8,8)" display="none">     	<path oryx:anchors="top left" id="_35A7B9C3-91DA-46CA-AAFF-66D411416F86frame" style="opacity:1;fill:none;fill-opacity:1;stroke-width:1" d="M0.5,3.751l4.083-3.25c0,0,11.166,0.083,12.083,0.083s-2.417,2.917-1.5,2.917     s11.667,0,12.584,0c1.166,1.708-0.168,3.167-0.834,3.667s0.875,1.917-1,4.417c-0.75,0.25,0.75,1.875-1.333,3.333     c-1.167,0.583,0.583,1.542-1.25,2.833c-1.167,0-20.833,0.083-20.833,0.083l-2-1.333V3.751z" stroke="#000000"/> 		<path id="_35A7B9C3-91DA-46CA-AAFF-66D411416F86frame2" oryx:anchors="top left" style="opacity:1;fill:none;stroke-width:2" d="M 13.5 7 L 27 7" stroke="#000000"/> 		<path id="_35A7B9C3-91DA-46CA-AAFF-66D411416F86frame3" oryx:anchors="top left" style="opacity:1;fill:none;stroke-width:2" d="M 13.5 11 L 26 11" stroke="#000000"/> 		<path id="_35A7B9C3-91DA-46CA-AAFF-66D411416F86frame4" oryx:anchors="top left" style="opacity:1;fill:none;stroke-width:1.5" d="M 14 14.5 L 25 14.5" stroke="#000000"/> 		<path id="_35A7B9C3-91DA-46CA-AAFF-66D411416F86frame5" oryx:anchors="top left" style="opacity:1;fill:none;stroke-width:1.5" d="M 8.2 3.1 L 15 3.1" stroke="#000000"/> 	</g> 	 	<g id="_35A7B9C3-91DA-46CA-AAFF-66D411416F86businessRuleTask" transform="scale(0.7,0.7) translate(8,8)" display="none"> 		<rect id="_35A7B9C3-91DA-46CA-AAFF-66D411416F86frame6" oryx:anchors="top left" x="0" y="0" width="22" height="4" style="opacity:1;fill:#B3B1B3;fill-opacity:1;" stroke="#000000"/> 		<rect id="_35A7B9C3-91DA-46CA-AAFF-66D411416F86frame7" oryx:anchors="top left" x="0" y="4" style="opacity:1;fill:none;" width="22" height="12" stroke="#000000"/> 		<path id="_35A7B9C3-91DA-46CA-AAFF-66D411416F86frame8" oryx:anchors="top left" style="opacity:1;fill:none;" d="M 0 10 L 22 10" stroke="#000000"/> 		<path id="_35A7B9C3-91DA-46CA-AAFF-66D411416F86frame9" oryx:anchors="top left" style="opacity:1; fill:none;" d="M 7 4 L 7 16" stroke="#000000"/> 	</g> 	 	<g id="_35A7B9C3-91DA-46CA-AAFF-66D411416F86scriptTask" transform="scale(0.7,0.7) translate(8,8)" display="none"> 		<path oryx:anchors="top left" id="_35A7B9C3-91DA-46CA-AAFF-66D411416F86frame10" style="opacity:1;fill:none;" stroke="#000000" d="M6.402,0.5h14.5c0,0-5.833,2.833-5.833,5.583s4.417,6,4.417,9.167    s-4.167,5.083-4.167,5.083H0.235c0,0,5-2.667,5-5s-4.583-6.75-4.583-9.25S6.402,0.5,6.402,0.5z"/> 		<path oryx:anchors="top left" id="_35A7B9C3-91DA-46CA-AAFF-66D411416F86frame11" style="opacity:1;fill:none;stroke-width:1.5" d="M 3.5 4.5 L 13.5 4.5" stroke="#000000"/> 		<path oryx:anchors="top left" id="_35A7B9C3-91DA-46CA-AAFF-66D411416F86frame12" style="opacity:1;fill:none;stroke-width:1.5" d="M 3.8 8.5 L 13.8 8.5" stroke="#000000"/> 		<path oryx:anchors="top left" id="_35A7B9C3-91DA-46CA-AAFF-66D411416F86frame13" style="opacity:1;fill:none;stroke-width:1.5" d="M 6.3 12.5 L 16.3 12.5" stroke="#000000"/> 		<path oryx:anchors="top left" id="_35A7B9C3-91DA-46CA-AAFF-66D411416F86frame14" style="opacity:1;fill:none;stroke-width:1.5" d="M 6.5 16.5 L 16.5 16.5" stroke="#000000"/> 	</g> 	 	<g id="_35A7B9C3-91DA-46CA-AAFF-66D411416F86userTask" transform="scale(0.7,0.7) translate(8,8)" display="inherit"> 		<path id="_35A7B9C3-91DA-46CA-AAFF-66D411416F86frame15" oryx:anchors="top left" style="opacity:1;fill:#F4F6F7" stroke="#000000" d="M0.585,24.167h24.083v-7.833c0,0-2.333-3.917-7.083-5.167h-9.25    c-4.417,1.333-7.833,5.75-7.833,5.75L0.585,24.167z"/> 		<path id="_35A7B9C3-91DA-46CA-AAFF-66D411416F86frame16" oryx:anchors="top left" style="opacity:1;fill:none" d="M 6 20 L 6 24" stroke="#000000"/> 		<path id="_35A7B9C3-91DA-46CA-AAFF-66D411416F86frame17" oryx:anchors="top left" style="opacity:1;fill:none" d="M 20 20 L 20 24" stroke="#000000"/> 		<circle id="_35A7B9C3-91DA-46CA-AAFF-66D411416F86frame18" oryx:anchors="top left" fill="black" cx="13.002" cy="5.916" r="5.417" stroke="#000000"/> 		<path id="_35A7B9C3-91DA-46CA-AAFF-66D411416F86frame19" oryx:anchors="top left" style="opacity:1;fill:#F0EFF0;" stroke="#000000" d="M8.043,7.083c0,0,2.814-2.426,5.376-1.807s4.624-0.693,4.624-0.693    c0.25,1.688,0.042,3.75-1.458,5.584c0,0,1.083,0.75,1.083,1.5s0.125,1.875-1,3s-5.5,1.25-6.75,0S8.668,12.834,8.668,12    s0.583-1.25,1.25-1.917C8.835,9.5,7.419,7.708,8.043,7.083z"/> 	</g> 	 	<g id="_35A7B9C3-91DA-46CA-AAFF-66D411416F86serviceTask" transform="scale(0.7,0.7) translate(8,8)" display="none"> 		<polygon oryx:anchors="top left" id="_35A7B9C3-91DA-46CA-AAFF-66D411416F86frame20" style="opacity:1;fill:#ffffff" stroke="#000000" points="15.392,5.064 17.954,2.502 20.347,4.895 17.786,7.455     18.729,9.732 22.353,9.732 22.353,13.115 18.731,13.115 17.788,15.392 20.351,17.955 17.958,20.347 15.397,17.786 13.12,18.729     13.12,22.353 9.737,22.353 9.737,18.731 7.46,17.788 4.897,20.35 2.506,17.958 5.066,15.397 4.124,13.12 0.5,13.12 0.5,9.737     4.121,9.737 5.065,7.461 2.503,4.898 4.895,2.506 7.455,5.066 9.732,4.125 9.732,0.5 13.116,0.5 13.116,4.121 "/> 		<circle oryx:anchors="top left" id="_35A7B9C3-91DA-46CA-AAFF-66D411416F86frame21" style="opacity:1;fill:none" stroke="#000000" cx="11.427" cy="11.426" r="3.714"/> 		<polygon oryx:anchors="top left" id="_35A7B9C3-91DA-46CA-AAFF-66D411416F86frame22" style="opacity:1;fill:#ffffff" stroke="#000000" points="21.392,11.064 23.954,8.502 26.347,10.895 23.786,13.455     24.729,15.732 28.353,15.732 28.353,19.115 24.731,19.115 23.788,21.392 26.351,23.955 23.958,26.347 21.397,23.786 19.12,24.729     19.12,28.353 15.737,28.353 15.737,24.731 13.46,23.788 10.897,26.35 8.506,23.958 11.066,21.397 10.124,19.12 6.5,19.12     6.5,15.737 10.121,15.737 11.065,13.461 8.503,10.898 10.895,8.506 13.455,11.066 15.732,10.125 15.732,6.5 19.116,6.5     19.116,10.121 "/> 		<circle oryx:anchors="top left" id="_35A7B9C3-91DA-46CA-AAFF-66D411416F86frame23" style="opacity:1;fill:none;" stroke="#000000" cx="17.427" cy="17.426" r="3.714"/> 	</g> 	 	<g id="_35A7B9C3-91DA-46CA-AAFF-66D411416F86sendTask" display="none"> 		<path id="_35A7B9C3-91DA-46CA-AAFF-66D411416F86stframe24" oryx:anchors="left top" stroke="#FFFFFF" fill="black" stroke-width="1" d="M8,11 L8,21 L24,21 L24,11 L16,17z"/> 		<path id="_35A7B9C3-91DA-46CA-AAFF-66D411416F86stframe25" oryx:anchors="left top" stroke="#FFFFFF" fill="black" stroke-width="1" d="M7,10 L16,17 L25 10z"/> 	</g> 	 	<g id="_35A7B9C3-91DA-46CA-AAFF-66D411416F86receiveTask" display="none"> 		<path id="_35A7B9C3-91DA-46CA-AAFF-66D411416F86frame26" oryx:anchors="left top" stroke="#000000" fill="none" stroke-width="1" d="M8,11 L8,21 L24,21 L24,11z M8,11 L16,17 L24,11"/> 	</g> 	 	<g id="_35A7B9C3-91DA-46CA-AAFF-66D411416F86none" display="none"/>  	<g id="_35A7B9C3-91DA-46CA-AAFF-66D411416F86sequential" display="none">         <path oryx:anchors="bottom" fill="none" stroke="#000000" stroke-width="2" d="M46,76h10M46,72h10 M46,68h10" id="_35A7B9C3-91DA-46CA-AAFF-66D411416F86__35A7B9C3-91DA-46CA-AAFF-66D411416F86_20"/>     </g>   </g></g><g class="children" style="overflow:hidden"/><g class="edge"/></g><g class="controls"><g class="dockers"/><g class="magnets" transform="translate(478, 85)"><g pointer-events="all" display="none" transform="translate(-7, 12)"><circle cx="8" cy="8" r="4" stroke="none" fill="red" fill-opacity="0.3"/></g><g pointer-events="all" display="none" transform="translate(-7, 32)"><circle cx="8" cy="8" r="4" stroke="none" fill="red" fill-opacity="0.3"/></g><g pointer-events="all" display="none" transform="translate(-7, 52)"><circle cx="8" cy="8" r="4" stroke="none" fill="red" fill-opacity="0.3"/></g><g pointer-events="all" display="none" transform="translate(17, 71)"><circle cx="8" cy="8" r="4" stroke="none" fill="red" fill-opacity="0.3"/></g><g pointer-events="all" display="none" transform="translate(42, 71)"><circle cx="8" cy="8" r="4" stroke="none" fill="red" fill-opacity="0.3"/></g><g pointer-events="all" display="none" transform="translate(67, 71)"><circle cx="8" cy="8" r="4" stroke="none" fill="red" fill-opacity="0.3"/></g><g pointer-events="all" display="none" transform="translate(91, 12)"><circle cx="8" cy="8" r="4" stroke="none" fill="red" fill-opacity="0.3"/></g><g pointer-events="all" display="none" transform="translate(91, 32)"><circle cx="8" cy="8" r="4" stroke="none" fill="red" fill-opacity="0.3"/></g><g pointer-events="all" display="none" transform="translate(91, 52)"><circle cx="8" cy="8" r="4" stroke="none" fill="red" fill-opacity="0.3"/></g><g pointer-events="all" display="none" transform="translate(17, -7)"><circle cx="8" cy="8" r="4" stroke="none" fill="red" fill-opacity="0.3"/></g><g pointer-events="all" display="none" transform="translate(42, -7)"><circle cx="8" cy="8" r="4" stroke="none" fill="red" fill-opacity="0.3"/></g><g pointer-events="all" display="none" transform="translate(67, -7)"><circle cx="8" cy="8" r="4" stroke="none" fill="red" fill-opacity="0.3"/></g><g pointer-events="all" display="none" transform="translate(42, 32)"><circle cx="8" cy="8" r="4" stroke="none" fill="red" fill-opacity="0.3"/></g></g></g></g></g><g class="edge"/></g><g class="controls"><g class="dockers"/><g class="magnets" transform="translate(212, 73)"><g pointer-events="all" display="none" transform="translate(600.5, 116.5)"><circle cx="8" cy="8" r="4" stroke="none" fill="red" fill-opacity="0.3"/></g></g></g></g><g id="_D9994165-869F-4AFA-B63E-9CB650F2B453" bpmn2nodeid="_71F31B9C-86E7-46A2-99F0-B39FCBD305DE"><g class="stencils" transform="translate(212, 360)"><g class="me"><g pointer-events="painted" id="_D9994165-869F-4AFA-B63E-9CB650F2B453">         <defs id="_D9994165-869F-4AFA-B63E-9CB650F2B453__D9994165-869F-4AFA-B63E-9CB650F2B453_3"> 		<radialGradient id="_D9994165-869F-4AFA-B63E-9CB650F2B453background" cx="0%" cy="10%" r="100%" fx="20%" fy="10%"> 			<stop offset="0%" stop-color="#ffffff" stop-opacity="1" id="_D9994165-869F-4AFA-B63E-9CB650F2B453__D9994165-869F-4AFA-B63E-9CB650F2B453_4"/> 			<stop id="_D9994165-869F-4AFA-B63E-9CB650F2B453fill_el" offset="100%" stop-color="#ffffff" stop-opacity="1"/> 		</radialGradient> 	</defs> 	   	 	<rect id="_D9994165-869F-4AFA-B63E-9CB650F2B453border" oryx:resize="vertical horizontal" x="0" y="0" width="1217.9999999999998" height="249" stroke="#000000" stroke-width="1" fill="url(#_D9994165-869F-4AFA-B63E-9CB650F2B453background) white"/> 	 	 	 	<path id="_D9994165-869F-4AFA-B63E-9CB650F2B453frame2" style="fill:none;stroke-width:1" d=" M0 0  L0 249 " oryx:anchors="left top bottom" stroke="#000000"/> 	 	undefined 	     <text x="50" y="124.5" oryx:rotate="270" font-size="12" id="_D9994165-869F-4AFA-B63E-9CB650F2B453text_name" oryx:align="middle center" oryx:anchors="left" oryx:fittoelem="frame" stroke="black" stroke-width="0pt" letter-spacing="-0.01px" fill="#000000" text-anchor="middle" transform="rotate(270 50 124.5)" visibility="inherit" oryx:fontSize="12"><tspan x="50" y="124.5" dy="5">Ordering system</tspan></text>   </g></g><g class="children" style="overflow:hidden"/><g class="edge"/></g><g class="controls"><g class="dockers"/><g class="magnets" transform="translate(212, 360)"><g pointer-events="all" display="none" transform="translate(600.9999999999999, 116.5)"><circle cx="8" cy="8" r="4" stroke="none" fill="red" fill-opacity="0.3"/></g></g></g></g></g><g class="edge"><g id="_9CE5FC9B-1676-49D3-B13A-DBAFF6C2F063" bpmn2nodeid="_7898E8E0-2307-4B2A-A4A4-6D04B8F55F58"><g class="stencils"><g class="me"><g pointer-events="painted" bpmn2nodeid="_32C1387B-090D-4F7E-8009-25C20E3F58E2"><path id="_9CE5FC9B-1676-49D3-B13A-DBAFF6C2F063_1" d="M345.609375 198L389.15625 198 " stroke="#000000" fill="none" stroke-width="2" stroke-linecap="round" stroke-linejoin="round" marker-start="url(#_9CE5FC9B-1676-49D3-B13A-DBAFF6C2F063start)" marker-end="url(#_9CE5FC9B-1676-49D3-B13A-DBAFF6C2F063end)"/></g><text id="_9CE5FC9B-1676-49D3-B13A-DBAFF6C2F063text_name" font-size="12" x="359.609375" y="184" oryx:edgePosition="startTop" stroke-width="0pt" letter-spacing="-0.01px" fill="#000000" text-anchor="start" transform="rotate(360 345.609375 198)" visibility="inherit" oryx:fontSize="12"/></g><g class="children" style="overflow:hidden"/><g class="edge"/></g><g class="controls"><g class="dockers"/><g class="magnets"/></g></g><g id="_A2505812-4FC1-4962-8B89-6D1E8BA8F1CB" bpmn2nodeid="_AE2135B8-CD4B-4B40-889A-2AC7E0BDE612"><g class="stencils"><g class="me"><g pointer-events="painted" bpmn2nodeid="_5A5C30D1-1461-4C15-814D-58C86C355A48"><path id="_A2505812-4FC1-4962-8B89-6D1E8BA8F1CB_1" d="M490.21875 198L539.78125 198 " stroke="#000000" fill="none" stroke-width="2" stroke-linecap="round" stroke-linejoin="round" marker-start="url(#_A2505812-4FC1-4962-8B89-6D1E8BA8F1CBstart)" marker-end="url(#_A2505812-4FC1-4962-8B89-6D1E8BA8F1CBend)"/></g><text id="_A2505812-4FC1-4962-8B89-6D1E8BA8F1CBtext_name" font-size="12" x="504.21875" y="184" oryx:edgePosition="startTop" stroke-width="0pt" letter-spacing="-0.01px" fill="#000000" text-anchor="start" transform="rotate(360 490.21875 198)" visibility="inherit" oryx:fontSize="12"/></g><g class="children" style="overflow:hidden"/><g class="edge"/></g><g class="controls"><g class="dockers"/><g class="magnets"/></g></g><g id="_8DB701A7-F09C-436D-9BFB-B9199DB84D4D" bpmn2nodeid="_9E0AEF84-EB70-4D3B-AF58-33B43057B5D4"><g class="stencils"><g class="me"><g pointer-events="painted" bpmn2nodeid="_9E0AEF84-EB70-4D3B-AF58-33B43057B5D4"><path id="_8DB701A7-F09C-436D-9BFB-B9199DB84D4D_1" d="M640.21875 198L689.78125 198 " stroke="#000000" fill="none" stroke-width="2" stroke-linecap="round" stroke-linejoin="round" marker-start="url(#_8DB701A7-F09C-436D-9BFB-B9199DB84D4Dstart)" marker-end="url(#_8DB701A7-F09C-436D-9BFB-B9199DB84D4Dend)"/></g><text id="_8DB701A7-F09C-436D-9BFB-B9199DB84D4Dtext_name" font-size="12" x="654.21875" y="184" oryx:edgePosition="startTop" stroke-width="0pt" letter-spacing="-0.01px" fill="#000000" text-anchor="start" transform="rotate(360 640.21875 198)" visibility="inherit" oryx:fontSize="12"/></g><g class="children" style="overflow:hidden"/><g class="edge"/></g><g class="controls"><g class="dockers"/><g class="magnets"/></g></g><g id="_46CF6E16-315A-452A-9469-6501EA0AF156" bpmn2nodeid="_3AEAD0AE-0241-431B-9397-D36A194367A0"><g class="stencils"><g class="me"><g pointer-events="painted" bpmn2nodeid="_3AEAD0AE-0241-431B-9397-D36A194367A0"><path id="_46CF6E16-315A-452A-9469-6501EA0AF156_1" d="M790.9218746938684 197.9601550276261L1364.2714846811316 197.5115246598739 " stroke="#000000" fill="none" stroke-width="2" stroke-linecap="round" stroke-linejoin="round" marker-start="url(#_46CF6E16-315A-452A-9469-6501EA0AF156start)" marker-end="url(#_46CF6E16-315A-452A-9469-6501EA0AF156end)"/></g><text id="_46CF6E16-315A-452A-9469-6501EA0AF156text_name" font-size="12" x="804.9218746938684" y="183.9601550276261" oryx:edgePosition="startTop" stroke-width="0pt" letter-spacing="-0.01px" fill="#000000" text-anchor="start" transform="rotate(359.955167630814 790.9218746938684 197.9601550276261)" visibility="inherit" oryx:fontSize="12"/></g><g class="children" style="overflow:hidden"/><g class="edge"/></g><g class="controls"><g class="dockers"/><g class="magnets"/></g></g></g><text id="_C056C784-D804-4510-8E37-12945A76F3A6" style="stroke-width:1;fill:rgb(177,194,214);font-family:arial;font-weight:bold" font-size="12" onclick="ORYX.Plugins.CanvasTitle.openTextualAnalysis()" onmouseover="ORYX.Plugins.CanvasTitle.addToolTip('_C056C784-D804-4510-8E37-12945A76F3A6')" transform="translate(10, 20)">OrderCreation v.1.0 (src.OrderCreation)</text></g></g></svg>