<svg xmlns="http://www.w3.org/2000/svg" xmlns:oryx="http://oryx-editor.org" id="_8758727F-09EA-4A8A-B479-CDCFEA5A4FCC" width="890" height="413" xmlns:xlink="http://www.w3.org/1999/xlink" xmlns:svg="http://www.w3.org/2000/svg"><defs><marker id="_A9FC7F4C-13DD-4F89-9B22-975C70CF8840start" refX="1" refY="5" markerUnits="userSpaceOnUse" markerWidth="17" markerHeight="11" orient="auto" fill="#000000" stroke="#000000"> 	  		<path id="_A9FC7F4C-13DD-4F89-9B22-975C70CF8840conditional" d="M 0 5 L 8 0 L 16 5 L 8 10 L 0 5" fill="white" stroke="#000000" stroke-width="1" display="none"/> 			<path id="_A9FC7F4C-13DD-4F89-9B22-975C70CF8840default" d="M 5 0 L 11 10" fill="white" stroke="#000000" stroke-width="1" display="none"/> 	  	</marker><marker id="_A9FC7F4C-13DD-4F89-9B22-975C70CF8840end" refX="15" refY="6" markerUnits="userSpaceOnUse" markerWidth="15" markerHeight="12" orient="auto" fill="#000000" stroke="#000000"> 	  		<path id="_A9FC7F4C-13DD-4F89-9B22-975C70CF8840frame2" d="M 0 1 L 15 6 L 0 11z" fill="#000000" stroke="#000000" stroke-linejoin="round" stroke-width="2"/> 	  	</marker><marker id="_2CB07D60-D981-40CD-90A8-5A9D34C4613Fstart" refX="1" refY="5" markerUnits="userSpaceOnUse" markerWidth="17" markerHeight="11" orient="auto" fill="#000000" stroke="#000000"> 	  		<path id="_2CB07D60-D981-40CD-90A8-5A9D34C4613Fconditional" d="M 0 5 L 8 0 L 16 5 L 8 10 L 0 5" fill="white" stroke="#000000" stroke-width="1" display="none"/> 			<path id="_2CB07D60-D981-40CD-90A8-5A9D34C4613Fdefault" d="M 5 0 L 11 10" fill="white" stroke="#000000" stroke-width="1" display="none"/> 	  	</marker><marker id="_2CB07D60-D981-40CD-90A8-5A9D34C4613Fend" refX="15" refY="6" markerUnits="userSpaceOnUse" markerWidth="15" markerHeight="12" orient="auto" fill="#000000" stroke="#000000"> 	  		<path id="_2CB07D60-D981-40CD-90A8-5A9D34C4613Fframe2" d="M 0 1 L 15 6 L 0 11z" fill="#000000" stroke="#000000" stroke-linejoin="round" stroke-width="2"/> 	  	</marker></defs><g stroke="none" font-family="Verdana, sans-serif" font-size-adjust="none" font-style="normal" font-variant="normal" font-weight="normal" line-heigth="normal" font-size="12"><g class="stencils" transform="translate(25.000000000000114, 24.999999999999915)"><g class="me"/><g class="children"><g id="_978E2295-CB78-4202-8DB3-89CABD83875B" bpmn2nodeid="_0077085F-F64B-4EAB-844B-0410363C7273"><g class="stencils" transform="translate(240, 113)"><g class="me"><g pointer-events="painted" id="_978E2295-CB78-4202-8DB3-89CABD83875B">         <defs id="_978E2295-CB78-4202-8DB3-89CABD83875B__978E2295-CB78-4202-8DB3-89CABD83875B_3"> 		<radialGradient id="_978E2295-CB78-4202-8DB3-89CABD83875Bbackground" cx="0%" cy="10%" r="100%" fx="20%" fy="10%"> 			<stop offset="0%" stop-color="#ffffff" stop-opacity="1" id="_978E2295-CB78-4202-8DB3-89CABD83875B__978E2295-CB78-4202-8DB3-89CABD83875B_4"/> 			<stop id="_978E2295-CB78-4202-8DB3-89CABD83875Bfill_el" offset="100%" stop-color="#ffffff" stop-opacity="1"/> 		</radialGradient> 	</defs> 	   	 	<rect id="_978E2295-CB78-4202-8DB3-89CABD83875Bborder" oryx:resize="vertical horizontal" x="0" y="0" width="600" height="250" stroke="#000000" stroke-width="1" fill="url(#_978E2295-CB78-4202-8DB3-89CABD83875Bbackground) white"/> 	 	 	 	<path id="_978E2295-CB78-4202-8DB3-89CABD83875Bframe2" style="fill:none;stroke-width:1" d="M 0,0 L 0,250" oryx:anchors="left top bottom" stroke="#000000"/> 	 	undefined 	     <text x="50" y="125" oryx:rotate="270" font-size="12" id="_978E2295-CB78-4202-8DB3-89CABD83875Btext_name" oryx:align="middle center" oryx:anchors="left" oryx:fittoelem="frame" stroke="black" stroke-width="0pt" letter-spacing="-0.01px" fill="#000000" text-anchor="middle" transform="rotate(270 50 125)" visibility="inherit" oryx:fontSize="12"><tspan x="50" y="125" dy="5">Payment system</tspan></text>   </g></g><g class="children" style="overflow:hidden"><g id="_66771E28-65C9-467A-B624-1646729A6781" bpmn2nodeid="processStartEvent"><g class="stencils" transform="translate(90, 110)"><g class="me"><g pointer-events="fill" id="_66771E28-65C9-467A-B624-1646729A6781">        <defs id="_66771E28-65C9-467A-B624-1646729A6781__66771E28-65C9-467A-B624-1646729A6781_5"> 		<radialGradient id="_66771E28-65C9-467A-B624-1646729A6781background" cx="10%" cy="10%" r="100%" fx="10%" fy="10%"> 			<stop offset="0%" stop-color="#ffffff" stop-opacity="1" id="_66771E28-65C9-467A-B624-1646729A6781__66771E28-65C9-467A-B624-1646729A6781_6"/> 			<stop id="_66771E28-65C9-467A-B624-1646729A6781fill_el" offset="100%" stop-color="#9acd32" stop-opacity="1"/> 		</radialGradient> 	</defs> 	     <circle id="_66771E28-65C9-467A-B624-1646729A6781bg_frame" cx="15" cy="15" r="15" stroke="#000000" fill="url(#_66771E28-65C9-467A-B624-1646729A6781background) white" stroke-width="1" style="stroke-dasharray: 5.5, 3"/>      <circle id="_66771E28-65C9-467A-B624-1646729A6781frame" cx="15" cy="15" r="15" stroke="#000000" fill="none" stroke-width="1" display="inherit"/>  	<text font-size="11" id="_66771E28-65C9-467A-B624-1646729A6781text_name" x="15" y="32" oryx:align="top center" stroke="black" stroke-width="0pt" letter-spacing="-0.01px" fill="#000000" text-anchor="middle" transform="rotate(0 15 32)" visibility="inherit" oryx:fontSize="11"><tspan x="15" y="32" dy="11">Payment</tspan><tspan x="15" y="32" dy="22">request</tspan><tspan x="15" y="32" dy="33">received</tspan></text>   </g></g><g class="children" style="overflow:hidden"/><g class="edge"/></g><g class="controls"><g class="dockers"/><g class="magnets" transform="translate(90, 110)"><g pointer-events="all" display="none" transform="translate(7, 7)"><circle cx="8" cy="8" r="4" stroke="none" fill="red" fill-opacity="0.3"/></g></g></g></g><g id="_D7883AFF-D670-4BEA-BC71-9FDC18C54B0A" bpmn2nodeid="_0B928113-32AA-4B7D-8BE0-693A37CA1660"><g class="stencils" transform="translate(179, 85)"><g class="me"><g pointer-events="fill" oryx:minimumSize="50 40" id="_D7883AFF-D670-4BEA-BC71-9FDC18C54B0A">   	<defs id="_D7883AFF-D670-4BEA-BC71-9FDC18C54B0A__D7883AFF-D670-4BEA-BC71-9FDC18C54B0A_17"> 		<radialGradient id="_D7883AFF-D670-4BEA-BC71-9FDC18C54B0Abackground" cx="10%" cy="10%" r="100%" fx="10%" fy="10%"> 			<stop offset="0%" stop-color="#ffffff" stop-opacity="1" id="_D7883AFF-D670-4BEA-BC71-9FDC18C54B0A__D7883AFF-D670-4BEA-BC71-9FDC18C54B0A_18"/> 			<stop id="_D7883AFF-D670-4BEA-BC71-9FDC18C54B0Afill_el" offset="100%" stop-color="#fafad2" stop-opacity="1"/> 		</radialGradient> 		<radialGradient id="_D7883AFF-D670-4BEA-BC71-9FDC18C54B0Aborderbackground" cx="10%" cy="10%" r="100%" fx="10%" fy="10%"> 			<stop offset="0%" stop-color="#ffffff" stop-opacity="1" id="_D7883AFF-D670-4BEA-BC71-9FDC18C54B0A__D7883AFF-D670-4BEA-BC71-9FDC18C54B0A_19"/> 			<stop id="_D7883AFF-D670-4BEA-BC71-9FDC18C54B0Afill_border" offset="100%" stop-color="#000000" stop-opacity="1" stroke="#000000"/> 		</radialGradient> 	</defs> 	 	<rect id="_D7883AFF-D670-4BEA-BC71-9FDC18C54B0Atext_frame" oryx:anchors="bottom top right left" x="1" y="1" width="94" height="79" rx="10" ry="10" stroke="none" stroke-width="0" fill="none"/> 	<rect id="_D7883AFF-D670-4BEA-BC71-9FDC18C54B0Abg_frame" oryx:resize="vertical horizontal" x="0" y="0" width="100" height="80" rx="10" ry="10" stroke="#000000" stroke-width="1" fill="url(#_D7883AFF-D670-4BEA-BC71-9FDC18C54B0Abackground) #ffffcc"/> 		<text font-size="12" id="_D7883AFF-D670-4BEA-BC71-9FDC18C54B0Atext_name" x="50" y="40" oryx:align="middle center" oryx:fittoelem="text_frame" stroke="black" text-anchor="middle" stroke-width="0pt" letter-spacing="-0.01px" fill="#000000" transform="rotate(0 50 40)" visibility="inherit" oryx:fontSize="12"><tspan x="50" y="40" dy="-1">Fill payment </tspan><tspan x="50" y="40" dy="11">info</tspan></text>     <g id="_D7883AFF-D670-4BEA-BC71-9FDC18C54B0AmanualTask" transform="scale(0.7,0.7) translate(8,8)" display="none">     	<path oryx:anchors="top left" id="_D7883AFF-D670-4BEA-BC71-9FDC18C54B0Aframe" style="opacity:1;fill:none;fill-opacity:1;stroke-width:1" d="M0.5,3.751l4.083-3.25c0,0,11.166,0.083,12.083,0.083s-2.417,2.917-1.5,2.917     s11.667,0,12.584,0c1.166,1.708-0.168,3.167-0.834,3.667s0.875,1.917-1,4.417c-0.75,0.25,0.75,1.875-1.333,3.333     c-1.167,0.583,0.583,1.542-1.25,2.833c-1.167,0-20.833,0.083-20.833,0.083l-2-1.333V3.751z" stroke="#000000"/> 		<path id="_D7883AFF-D670-4BEA-BC71-9FDC18C54B0Aframe2" oryx:anchors="top left" style="opacity:1;fill:none;stroke-width:2" d="M 13.5 7 L 27 7" stroke="#000000"/> 		<path id="_D7883AFF-D670-4BEA-BC71-9FDC18C54B0Aframe3" oryx:anchors="top left" style="opacity:1;fill:none;stroke-width:2" d="M 13.5 11 L 26 11" stroke="#000000"/> 		<path id="_D7883AFF-D670-4BEA-BC71-9FDC18C54B0Aframe4" oryx:anchors="top left" style="opacity:1;fill:none;stroke-width:1.5" d="M 14 14.5 L 25 14.5" stroke="#000000"/> 		<path id="_D7883AFF-D670-4BEA-BC71-9FDC18C54B0Aframe5" oryx:anchors="top left" style="opacity:1;fill:none;stroke-width:1.5" d="M 8.2 3.1 L 15 3.1" stroke="#000000"/> 	</g> 	 	<g id="_D7883AFF-D670-4BEA-BC71-9FDC18C54B0AbusinessRuleTask" transform="scale(0.7,0.7) translate(8,8)" display="none"> 		<rect id="_D7883AFF-D670-4BEA-BC71-9FDC18C54B0Aframe6" oryx:anchors="top left" x="0" y="0" width="22" height="4" style="opacity:1;fill:#B3B1B3;fill-opacity:1;" stroke="#000000"/> 		<rect id="_D7883AFF-D670-4BEA-BC71-9FDC18C54B0Aframe7" oryx:anchors="top left" x="0" y="4" style="opacity:1;fill:none;" width="22" height="12" stroke="#000000"/> 		<path id="_D7883AFF-D670-4BEA-BC71-9FDC18C54B0Aframe8" oryx:anchors="top left" style="opacity:1;fill:none;" d="M 0 10 L 22 10" stroke="#000000"/> 		<path id="_D7883AFF-D670-4BEA-BC71-9FDC18C54B0Aframe9" oryx:anchors="top left" style="opacity:1; fill:none;" d="M 7 4 L 7 16" stroke="#000000"/> 	</g> 	 	<g id="_D7883AFF-D670-4BEA-BC71-9FDC18C54B0AscriptTask" transform="scale(0.7,0.7) translate(8,8)" display="none"> 		<path oryx:anchors="top left" id="_D7883AFF-D670-4BEA-BC71-9FDC18C54B0Aframe10" style="opacity:1;fill:none;" stroke="#000000" d="M6.402,0.5h14.5c0,0-5.833,2.833-5.833,5.583s4.417,6,4.417,9.167    s-4.167,5.083-4.167,5.083H0.235c0,0,5-2.667,5-5s-4.583-6.75-4.583-9.25S6.402,0.5,6.402,0.5z"/> 		<path oryx:anchors="top left" id="_D7883AFF-D670-4BEA-BC71-9FDC18C54B0Aframe11" style="opacity:1;fill:none;stroke-width:1.5" d="M 3.5 4.5 L 13.5 4.5" stroke="#000000"/> 		<path oryx:anchors="top left" id="_D7883AFF-D670-4BEA-BC71-9FDC18C54B0Aframe12" style="opacity:1;fill:none;stroke-width:1.5" d="M 3.8 8.5 L 13.8 8.5" stroke="#000000"/> 		<path oryx:anchors="top left" id="_D7883AFF-D670-4BEA-BC71-9FDC18C54B0Aframe13" style="opacity:1;fill:none;stroke-width:1.5" d="M 6.3 12.5 L 16.3 12.5" stroke="#000000"/> 		<path oryx:anchors="top left" id="_D7883AFF-D670-4BEA-BC71-9FDC18C54B0Aframe14" style="opacity:1;fill:none;stroke-width:1.5" d="M 6.5 16.5 L 16.5 16.5" stroke="#000000"/> 	</g> 	 	<g id="_D7883AFF-D670-4BEA-BC71-9FDC18C54B0AuserTask" transform="scale(0.7,0.7) translate(8,8)" display="inherit"> 		<path id="_D7883AFF-D670-4BEA-BC71-9FDC18C54B0Aframe15" oryx:anchors="top left" style="opacity:1;fill:#F4F6F7" stroke="#000000" d="M0.585,24.167h24.083v-7.833c0,0-2.333-3.917-7.083-5.167h-9.25    c-4.417,1.333-7.833,5.75-7.833,5.75L0.585,24.167z"/> 		<path id="_D7883AFF-D670-4BEA-BC71-9FDC18C54B0Aframe16" oryx:anchors="top left" style="opacity:1;fill:none" d="M 6 20 L 6 24" stroke="#000000"/> 		<path id="_D7883AFF-D670-4BEA-BC71-9FDC18C54B0Aframe17" oryx:anchors="top left" style="opacity:1;fill:none" d="M 20 20 L 20 24" stroke="#000000"/> 		<circle id="_D7883AFF-D670-4BEA-BC71-9FDC18C54B0Aframe18" oryx:anchors="top left" fill="black" cx="13.002" cy="5.916" r="5.417" stroke="#000000"/> 		<path id="_D7883AFF-D670-4BEA-BC71-9FDC18C54B0Aframe19" oryx:anchors="top left" style="opacity:1;fill:#F0EFF0;" stroke="#000000" d="M8.043,7.083c0,0,2.814-2.426,5.376-1.807s4.624-0.693,4.624-0.693    c0.25,1.688,0.042,3.75-1.458,5.584c0,0,1.083,0.75,1.083,1.5s0.125,1.875-1,3s-5.5,1.25-6.75,0S8.668,12.834,8.668,12    s0.583-1.25,1.25-1.917C8.835,9.5,7.419,7.708,8.043,7.083z"/> 	</g> 	 	<g id="_D7883AFF-D670-4BEA-BC71-9FDC18C54B0AserviceTask" transform="scale(0.7,0.7) translate(8,8)" display="none"> 		<polygon oryx:anchors="top left" id="_D7883AFF-D670-4BEA-BC71-9FDC18C54B0Aframe20" style="opacity:1;fill:#ffffff" stroke="#000000" points="15.392,5.064 17.954,2.502 20.347,4.895 17.786,7.455     18.729,9.732 22.353,9.732 22.353,13.115 18.731,13.115 17.788,15.392 20.351,17.955 17.958,20.347 15.397,17.786 13.12,18.729     13.12,22.353 9.737,22.353 9.737,18.731 7.46,17.788 4.897,20.35 2.506,17.958 5.066,15.397 4.124,13.12 0.5,13.12 0.5,9.737     4.121,9.737 5.065,7.461 2.503,4.898 4.895,2.506 7.455,5.066 9.732,4.125 9.732,0.5 13.116,0.5 13.116,4.121 "/> 		<circle oryx:anchors="top left" id="_D7883AFF-D670-4BEA-BC71-9FDC18C54B0Aframe21" style="opacity:1;fill:none" stroke="#000000" cx="11.427" cy="11.426" r="3.714"/> 		<polygon oryx:anchors="top left" id="_D7883AFF-D670-4BEA-BC71-9FDC18C54B0Aframe22" style="opacity:1;fill:#ffffff" stroke="#000000" points="21.392,11.064 23.954,8.502 26.347,10.895 23.786,13.455     24.729,15.732 28.353,15.732 28.353,19.115 24.731,19.115 23.788,21.392 26.351,23.955 23.958,26.347 21.397,23.786 19.12,24.729     19.12,28.353 15.737,28.353 15.737,24.731 13.46,23.788 10.897,26.35 8.506,23.958 11.066,21.397 10.124,19.12 6.5,19.12     6.5,15.737 10.121,15.737 11.065,13.461 8.503,10.898 10.895,8.506 13.455,11.066 15.732,10.125 15.732,6.5 19.116,6.5     19.116,10.121 "/> 		<circle oryx:anchors="top left" id="_D7883AFF-D670-4BEA-BC71-9FDC18C54B0Aframe23" style="opacity:1;fill:none;" stroke="#000000" cx="17.427" cy="17.426" r="3.714"/> 	</g> 	 	<g id="_D7883AFF-D670-4BEA-BC71-9FDC18C54B0AsendTask" display="none"> 		<path id="_D7883AFF-D670-4BEA-BC71-9FDC18C54B0Astframe24" oryx:anchors="left top" stroke="#FFFFFF" fill="black" stroke-width="1" d="M8,11 L8,21 L24,21 L24,11 L16,17z"/> 		<path id="_D7883AFF-D670-4BEA-BC71-9FDC18C54B0Astframe25" oryx:anchors="left top" stroke="#FFFFFF" fill="black" stroke-width="1" d="M7,10 L16,17 L25 10z"/> 	</g> 	 	<g id="_D7883AFF-D670-4BEA-BC71-9FDC18C54B0AreceiveTask" display="none"> 		<path id="_D7883AFF-D670-4BEA-BC71-9FDC18C54B0Aframe26" oryx:anchors="left top" stroke="#000000" fill="none" stroke-width="1" d="M8,11 L8,21 L24,21 L24,11z M8,11 L16,17 L24,11"/> 	</g> 	 	<g id="_D7883AFF-D670-4BEA-BC71-9FDC18C54B0Anone" display="inherit"/>  	<g id="_D7883AFF-D670-4BEA-BC71-9FDC18C54B0Asequential" display="none">         <path oryx:anchors="bottom" fill="none" stroke="#000000" stroke-width="2" d="M46,76h10M46,72h10 M46,68h10" id="_D7883AFF-D670-4BEA-BC71-9FDC18C54B0A__D7883AFF-D670-4BEA-BC71-9FDC18C54B0A_20"/>     </g>   </g></g><g class="children" style="overflow:hidden"/><g class="edge"/></g><g class="controls"><g class="dockers"/><g class="magnets" transform="translate(179, 85)"><g pointer-events="all" display="none" transform="translate(-7, 12)"><circle cx="8" cy="8" r="4" stroke="none" fill="red" fill-opacity="0.3"/></g><g pointer-events="all" display="none" transform="translate(-7, 32)"><circle cx="8" cy="8" r="4" stroke="none" fill="red" fill-opacity="0.3"/></g><g pointer-events="all" display="none" transform="translate(-7, 52)"><circle cx="8" cy="8" r="4" stroke="none" fill="red" fill-opacity="0.3"/></g><g pointer-events="all" display="none" transform="translate(17, 71)"><circle cx="8" cy="8" r="4" stroke="none" fill="red" fill-opacity="0.3"/></g><g pointer-events="all" display="none" transform="translate(42, 71)"><circle cx="8" cy="8" r="4" stroke="none" fill="red" fill-opacity="0.3"/></g><g pointer-events="all" display="none" transform="translate(67, 71)"><circle cx="8" cy="8" r="4" stroke="none" fill="red" fill-opacity="0.3"/></g><g pointer-events="all" display="none" transform="translate(91, 12)"><circle cx="8" cy="8" r="4" stroke="none" fill="red" fill-opacity="0.3"/></g><g pointer-events="all" display="none" transform="translate(91, 32)"><circle cx="8" cy="8" r="4" stroke="none" fill="red" fill-opacity="0.3"/></g><g pointer-events="all" display="none" transform="translate(91, 52)"><circle cx="8" cy="8" r="4" stroke="none" fill="red" fill-opacity="0.3"/></g><g pointer-events="all" display="none" transform="translate(17, -7)"><circle cx="8" cy="8" r="4" stroke="none" fill="red" fill-opacity="0.3"/></g><g pointer-events="all" display="none" transform="translate(42, -7)"><circle cx="8" cy="8" r="4" stroke="none" fill="red" fill-opacity="0.3"/></g><g pointer-events="all" display="none" transform="translate(67, -7)"><circle cx="8" cy="8" r="4" stroke="none" fill="red" fill-opacity="0.3"/></g><g pointer-events="all" display="none" transform="translate(42, 32)"><circle cx="8" cy="8" r="4" stroke="none" fill="red" fill-opacity="0.3"/></g></g></g></g><g id="_B2EBB9CA-6BFF-40AA-91CB-05D6BAFED108" bpmn2nodeid="_77D24BF5-E436-43BD-91CD-8B22977F451B"><g class="stencils" transform="translate(344, 111)"><g class="me"><g pointer-events="fill" id="_B2EBB9CA-6BFF-40AA-91CB-05D6BAFED108">      <defs id="_B2EBB9CA-6BFF-40AA-91CB-05D6BAFED108__B2EBB9CA-6BFF-40AA-91CB-05D6BAFED108_5"> 		<radialGradient id="_B2EBB9CA-6BFF-40AA-91CB-05D6BAFED108background" cx="10%" cy="10%" r="100%" fx="10%" fy="10%"> 			<stop offset="0%" stop-color="#ffffff" stop-opacity="1" id="_B2EBB9CA-6BFF-40AA-91CB-05D6BAFED108__B2EBB9CA-6BFF-40AA-91CB-05D6BAFED108_6"/> 			<stop id="_B2EBB9CA-6BFF-40AA-91CB-05D6BAFED108fill_el" offset="100%" stop-color="#ff6347" stop-opacity="1"/> 		</radialGradient> 	</defs> 	     <circle id="_B2EBB9CA-6BFF-40AA-91CB-05D6BAFED108bg_frame" cx="14" cy="14" r="14" stroke="#000000" fill="url(#_B2EBB9CA-6BFF-40AA-91CB-05D6BAFED108background) white" stroke-width="3"/> 	<text font-size="11" id="_B2EBB9CA-6BFF-40AA-91CB-05D6BAFED108text_name" x="14" y="30" oryx:align="top center" stroke="black" stroke-width="0pt" letter-spacing="-0.01px" fill="#000000" text-anchor="middle" transform="rotate(0 14 30)" visibility="inherit" oryx:fontSize="11"/>   </g></g><g class="children" style="overflow:hidden"/><g class="edge"/></g><g class="controls"><g class="dockers"/><g class="magnets" transform="translate(344, 111)"><g pointer-events="all" display="none" transform="translate(6, 6)"><circle cx="8" cy="8" r="4" stroke="none" fill="red" fill-opacity="0.3"/></g></g></g></g></g><g class="edge"/></g><g class="controls"><g class="dockers"/><g class="magnets" transform="translate(240, 113)"><g pointer-events="all" display="none" transform="translate(292, 117)"><circle cx="8" cy="8" r="4" stroke="none" fill="red" fill-opacity="0.3"/></g></g></g></g></g><g class="edge"><g id="_A9FC7F4C-13DD-4F89-9B22-975C70CF8840" bpmn2nodeid="_B96ABEDA-CD01-4C88-9DD0-1264C203826A"><g class="stencils"><g class="me"><g pointer-events="painted" bpmn2nodeid="_77051067-F863-4ECE-8E60-8F04CCF8328C"><path id="_A9FC7F4C-13DD-4F89-9B22-975C70CF8840_1" d="M360.53125 238L418.59375 238 " stroke="#000000" fill="none" stroke-width="2" stroke-linecap="round" stroke-linejoin="round" marker-start="url(#_A9FC7F4C-13DD-4F89-9B22-975C70CF8840start)" marker-end="url(#_A9FC7F4C-13DD-4F89-9B22-975C70CF8840end)"/></g><text id="_A9FC7F4C-13DD-4F89-9B22-975C70CF8840text_name" font-size="12" x="374.53125" y="224" oryx:edgePosition="startTop" stroke-width="0pt" letter-spacing="-0.01px" fill="#000000" text-anchor="start" transform="rotate(360 360.53125 238)" visibility="inherit" oryx:fontSize="12"/></g><g class="children" style="overflow:hidden"/><g class="edge"/></g><g class="controls"><g class="dockers"/><g class="magnets"/></g></g><g id="_2CB07D60-D981-40CD-90A8-5A9D34C4613F" bpmn2nodeid="_CF65ECB8-C950-4282-8505-9CE56537395F"><g class="stencils"><g class="me"><g pointer-events="painted" bpmn2nodeid="_7273AB31-0A84-4792-A841-35B00916F251"><path id="_2CB07D60-D981-40CD-90A8-5A9D34C4613F_1" d="M519.3828125 238L583.8984375 238 " stroke="#000000" fill="none" stroke-width="2" stroke-linecap="round" stroke-linejoin="round" marker-start="url(#_2CB07D60-D981-40CD-90A8-5A9D34C4613Fstart)" marker-end="url(#_2CB07D60-D981-40CD-90A8-5A9D34C4613Fend)"/></g><text id="_2CB07D60-D981-40CD-90A8-5A9D34C4613Ftext_name" font-size="12" x="533.3828125" y="224" oryx:edgePosition="startTop" stroke-width="0pt" letter-spacing="-0.01px" fill="#000000" text-anchor="start" transform="rotate(360 519.3828125 238)" visibility="inherit" oryx:fontSize="12"/></g><g class="children" style="overflow:hidden"/><g class="edge"/></g><g class="controls"><g class="dockers"/><g class="magnets"/></g></g></g><text id="_520F69C0-39A4-4DFF-9FB9-F55B2C5808B9" style="stroke-width:1;fill:rgb(177,194,214);font-family:arial;font-weight:bold" font-size="12" onclick="ORYX.Plugins.CanvasTitle.openTextualAnalysis()" onmouseover="ORYX.Plugins.CanvasTitle.addToolTip('_520F69C0-39A4-4DFF-9FB9-F55B2C5808B9')" transform="translate(10, 20)">Payment v.1.0 (src.Payment)</text></g></g></svg>