<svg xmlns="http://www.w3.org/2000/svg" xmlns:oryx="http://oryx-editor.org" id="_8576F172-00B8-4D2A-A125-EFDE664A5E7C" width="862" height="1358.364990234375" xmlns:xlink="http://www.w3.org/1999/xlink" xmlns:svg="http://www.w3.org/2000/svg"><defs><marker id="_C2C7856E-07B4-420A-BBD0-F4FEB6B87D87start" refX="1" refY="5" markerUnits="userSpaceOnUse" markerWidth="17" markerHeight="11" orient="auto" fill="#000000" stroke="#000000"> 	  		<path id="_C2C7856E-07B4-420A-BBD0-F4FEB6B87D87conditional" d="M 0 5 L 8 0 L 16 5 L 8 10 L 0 5" fill="white" stroke="#000000" stroke-width="1" display="none"/> 			<path id="_C2C7856E-07B4-420A-BBD0-F4FEB6B87D87default" d="M 5 0 L 11 10" fill="white" stroke="#000000" stroke-width="1" display="none"/> 	  	</marker><marker id="_C2C7856E-07B4-420A-BBD0-F4FEB6B87D87end" refX="15" refY="6" markerUnits="userSpaceOnUse" markerWidth="15" markerHeight="12" orient="auto" fill="#000000" stroke="#000000"> 	  		<path id="_C2C7856E-07B4-420A-BBD0-F4FEB6B87D87frame2" d="M 0 1 L 15 6 L 0 11z" fill="#000000" stroke="#000000" stroke-linejoin="round" stroke-width="2"/> 	  	</marker><marker id="_18046F64-237F-4FBF-9575-C9A0F07E64D7start" refX="1" refY="5" markerUnits="userSpaceOnUse" markerWidth="17" markerHeight="11" orient="auto" fill="#000000" stroke="#000000"> 	  		<path id="_18046F64-237F-4FBF-9575-C9A0F07E64D7conditional" d="M 0 5 L 8 0 L 16 5 L 8 10 L 0 5" fill="white" stroke="#000000" stroke-width="1" display="none"/> 			<path id="_18046F64-237F-4FBF-9575-C9A0F07E64D7default" d="M 5 0 L 11 10" fill="white" stroke="#000000" stroke-width="1" display="none"/> 	  	</marker><marker id="_18046F64-237F-4FBF-9575-C9A0F07E64D7end" refX="15" refY="6" markerUnits="userSpaceOnUse" markerWidth="15" markerHeight="12" orient="auto" fill="#000000" stroke="#000000"> 	  		<path id="_18046F64-237F-4FBF-9575-C9A0F07E64D7frame2" d="M 0 1 L 15 6 L 0 11z" fill="#000000" stroke="#000000" stroke-linejoin="round" stroke-width="2"/> 	  	</marker><marker id="_14C49A1A-7E28-400C-BA18-1AE86520FD9Bstart" refX="1" refY="5" markerUnits="userSpaceOnUse" markerWidth="17" markerHeight="11" orient="auto" fill="#000000" stroke="#000000"> 	  		<path id="_14C49A1A-7E28-400C-BA18-1AE86520FD9Bconditional" d="M 0 5 L 8 0 L 16 5 L 8 10 L 0 5" fill="white" stroke="#000000" stroke-width="1" display="none"/> 			<path id="_14C49A1A-7E28-400C-BA18-1AE86520FD9Bdefault" d="M 5 0 L 11 10" fill="white" stroke="#000000" stroke-width="1" display="none"/> 	  	</marker><marker id="_14C49A1A-7E28-400C-BA18-1AE86520FD9Bend" refX="15" refY="6" markerUnits="userSpaceOnUse" markerWidth="15" markerHeight="12" orient="auto" fill="#000000" stroke="#000000"> 	  		<path id="_14C49A1A-7E28-400C-BA18-1AE86520FD9Bframe2" d="M 0 1 L 15 6 L 0 11z" fill="#000000" stroke="#000000" stroke-linejoin="round" stroke-width="2"/> 	  	</marker><marker id="_179DD01E-5BD6-4E74-80A9-29EACE399FF6start" refX="1" refY="5" markerUnits="userSpaceOnUse" markerWidth="17" markerHeight="11" orient="auto" fill="#000000" stroke="#000000"> 	  		<path id="_179DD01E-5BD6-4E74-80A9-29EACE399FF6conditional" d="M 0 5 L 8 0 L 16 5 L 8 10 L 0 5" fill="white" stroke="#000000" stroke-width="1" display="none"/> 			<path id="_179DD01E-5BD6-4E74-80A9-29EACE399FF6default" d="M 5 0 L 11 10" fill="white" stroke="#000000" stroke-width="1" display="none"/> 	  	</marker><marker id="_179DD01E-5BD6-4E74-80A9-29EACE399FF6end" refX="15" refY="6" markerUnits="userSpaceOnUse" markerWidth="15" markerHeight="12" orient="auto" fill="#000000" stroke="#000000"> 	  		<path id="_179DD01E-5BD6-4E74-80A9-29EACE399FF6frame2" d="M 0 1 L 15 6 L 0 11z" fill="#000000" stroke="#000000" stroke-linejoin="round" stroke-width="2"/> 	  	</marker></defs><g stroke="none" font-family="Verdana, sans-serif" font-size-adjust="none" font-style="normal" font-variant="normal" font-weight="normal" line-heigth="normal" font-size="12"><g class="stencils" transform="translate(25.000000000000057, 430.6323547363281)"><g class="me"/><g class="children"><g id="_CA97DBD9-165B-4FE0-AFC8-9AD9FCAE776D" bpmn2nodeid="_97BDC9A7-504B-4C1E-922F-4B785F18471E"><g class="stencils" transform="translate(212, 73)"><g class="me"><g pointer-events="painted" id="_CA97DBD9-165B-4FE0-AFC8-9AD9FCAE776D">         <defs id="_CA97DBD9-165B-4FE0-AFC8-9AD9FCAE776D__CA97DBD9-165B-4FE0-AFC8-9AD9FCAE776D_3"> 		<radialGradient id="_CA97DBD9-165B-4FE0-AFC8-9AD9FCAE776Dbackground" cx="0%" cy="10%" r="100%" fx="20%" fy="10%"> 			<stop offset="0%" stop-color="#ffffff" stop-opacity="1" id="_CA97DBD9-165B-4FE0-AFC8-9AD9FCAE776D__CA97DBD9-165B-4FE0-AFC8-9AD9FCAE776D_4"/> 			<stop id="_CA97DBD9-165B-4FE0-AFC8-9AD9FCAE776Dfill_el" offset="100%" stop-color="#ffffff" stop-opacity="1"/> 		</radialGradient> 	</defs> 	   	 	<rect id="_CA97DBD9-165B-4FE0-AFC8-9AD9FCAE776Dborder" oryx:resize="vertical horizontal" x="0" y="0" width="600" height="250" stroke="#000000" stroke-width="1" fill="url(#_CA97DBD9-165B-4FE0-AFC8-9AD9FCAE776Dbackground) white"/> 	 	 	 	<path id="_CA97DBD9-165B-4FE0-AFC8-9AD9FCAE776Dframe2" style="fill:none;stroke-width:1" d="M 0,0 L 0,250" oryx:anchors="left top bottom" stroke="#000000"/> 	 	undefined 	     <text x="50" y="125" oryx:rotate="270" font-size="12" id="_CA97DBD9-165B-4FE0-AFC8-9AD9FCAE776Dtext_name" oryx:align="middle center" oryx:anchors="left" oryx:fittoelem="frame" stroke="black" stroke-width="0pt" letter-spacing="-0.01px" fill="#000000" text-anchor="middle" transform="rotate(270 50 125)" visibility="inherit" oryx:fontSize="12"><tspan x="50" y="125" dy="5">Customer</tspan></text>   </g></g><g class="children" style="overflow:hidden"><g id="_F7E24569-17DC-4CDF-A0C0-DDCBFBB2D8CB" bpmn2nodeid="processStartEvent"><g class="stencils" transform="translate(103, 110)"><g class="me"><g pointer-events="fill" id="_F7E24569-17DC-4CDF-A0C0-DDCBFBB2D8CB">        <defs id="_F7E24569-17DC-4CDF-A0C0-DDCBFBB2D8CB__F7E24569-17DC-4CDF-A0C0-DDCBFBB2D8CB_5"> 		<radialGradient id="_F7E24569-17DC-4CDF-A0C0-DDCBFBB2D8CBbackground" cx="10%" cy="10%" r="100%" fx="10%" fy="10%"> 			<stop offset="0%" stop-color="#ffffff" stop-opacity="1" id="_F7E24569-17DC-4CDF-A0C0-DDCBFBB2D8CB__F7E24569-17DC-4CDF-A0C0-DDCBFBB2D8CB_6"/> 			<stop id="_F7E24569-17DC-4CDF-A0C0-DDCBFBB2D8CBfill_el" offset="100%" stop-color="#9acd32" stop-opacity="1"/> 		</radialGradient> 	</defs> 	     <circle id="_F7E24569-17DC-4CDF-A0C0-DDCBFBB2D8CBbg_frame" cx="15" cy="15" r="15" stroke="#000000" fill="url(#_F7E24569-17DC-4CDF-A0C0-DDCBFBB2D8CBbackground) white" stroke-width="1" style="stroke-dasharray: 5.5, 3"/>      <circle id="_F7E24569-17DC-4CDF-A0C0-DDCBFBB2D8CBframe" cx="15" cy="15" r="15" stroke="#000000" fill="none" stroke-width="1" display="inherit"/>  	<text font-size="11" id="_F7E24569-17DC-4CDF-A0C0-DDCBFBB2D8CBtext_name" x="15" y="32" oryx:align="top center" stroke="black" stroke-width="0pt" letter-spacing="-0.01px" fill="#000000" text-anchor="middle" transform="rotate(0 15 32)" visibility="inherit" oryx:fontSize="11"><tspan x="15" y="32" dy="11">Order</tspan><tspan x="15" y="32" dy="22">screen</tspan><tspan x="15" y="32" dy="33">opened</tspan></text>   </g></g><g class="children" style="overflow:hidden"/><g class="edge"/></g><g class="controls"><g class="dockers"/><g class="magnets" transform="translate(103, 110)"><g pointer-events="all" display="none" transform="translate(7, 7)"><circle cx="8" cy="8" r="4" stroke="none" fill="red" fill-opacity="0.3"/></g></g></g></g><g id="_3394FC4D-C88A-466B-AF82-A2E8BB5A7570" bpmn2nodeid="_126383C8-6C7D-48EB-A932-AFA932A07E9B"><g class="stencils" transform="translate(178, 85)"><g class="me"><g pointer-events="fill" oryx:minimumSize="80 60" id="_3394FC4D-C88A-466B-AF82-A2E8BB5A7570">   	<defs id="_3394FC4D-C88A-466B-AF82-A2E8BB5A7570__3394FC4D-C88A-466B-AF82-A2E8BB5A7570_17"> 		<radialGradient id="_3394FC4D-C88A-466B-AF82-A2E8BB5A7570background" cx="10%" cy="10%" r="100%" fx="10%" fy="10%"> 			<stop offset="0%" stop-color="#ffffff" stop-opacity="1" id="_3394FC4D-C88A-466B-AF82-A2E8BB5A7570__3394FC4D-C88A-466B-AF82-A2E8BB5A7570_18"/> 			<stop id="_3394FC4D-C88A-466B-AF82-A2E8BB5A7570fill_el" offset="100%" stop-color="#fafad2" stop-opacity="1"/> 		</radialGradient> 	</defs> 	<rect id="_3394FC4D-C88A-466B-AF82-A2E8BB5A7570text_frame" oryx:anchors="bottom top right left" x="1" y="1" width="94" height="79" rx="10" ry="10" stroke="none" stroke-width="0" fill="none"/> 	<rect id="_3394FC4D-C88A-466B-AF82-A2E8BB5A7570bg_frame" oryx:anchors="bottom top right left" x="0" y="0" width="100" height="80" rx="10" ry="10" stroke="#000000" stroke-width="1" fill="url(#_3394FC4D-C88A-466B-AF82-A2E8BB5A7570background) #ffffcc"/> 	<rect id="_3394FC4D-C88A-466B-AF82-A2E8BB5A7570frame" oryx:resize="vertical horizontal" oryx:anchors="bottom top right left" x="0" y="0" width="100" height="80" rx="10" ry="10" stroke="#000000" stroke-width="4" fill="none"/> 	<rect id="_3394FC4D-C88A-466B-AF82-A2E8BB5A7570frame2" oryx:anchors="top bottom left right" oryx:resize="vertical horizontal" x="2.5" y="2.5" width="95" height="75" rx="8" ry="8" stroke="#000000" stroke-width="1" fill="none"/>     	<text font-size="12" id="_3394FC4D-C88A-466B-AF82-A2E8BB5A7570text_name" x="50" y="40" oryx:align="middle center" oryx:fittoelem="text_frame" stroke="black" stroke-width="0pt" letter-spacing="-0.01px" fill="#000000" text-anchor="middle" transform="rotate(0 50 40)" visibility="inherit" oryx:fontSize="12"><tspan x="50" y="40" dy="5" id="ext-gen612">Login</tspan></text>          <a id="_3394FC4D-C88A-466B-AF82-A2E8BB5A7570pimg" onclick="parent.designeropenintab(&quot;Login.bpmn2&quot;,&quot;default://master@MySpace/WashIt/src/main/resources/com/myspace/washit/Login.bpmn2&quot;);" xlink:href="">	 	<g id="_3394FC4D-C88A-466B-AF82-A2E8BB5A7570b" oryx:anchors="bottom"> 		<rect id="_3394FC4D-C88A-466B-AF82-A2E8BB5A7570frame3" oryx:anchors="bottom" x="44" y="66" width="14" height="14" fill="none" stroke="#000000" stroke-width="1"/> 		<path id="_3394FC4D-C88A-466B-AF82-A2E8BB5A7570frame4" oryx:anchors="bottom" fill="none" stroke="#000000" d="M51 68 v10 M 46 73 h10" stroke-width="1"/> 	</g> 	</a> 	<g id="_3394FC4D-C88A-466B-AF82-A2E8BB5A7570none"/> 	undefined 	  	undefined 	undefined 	 	 	undefined 	undefined   </g></g><g class="children" style="overflow:hidden"/><g class="edge"/></g><g class="controls"><g class="dockers"/><g class="magnets" transform="translate(178, 85)"><g pointer-events="all" display="none" transform="translate(-7, 12)"><circle cx="8" cy="8" r="4" stroke="none" fill="red" fill-opacity="0.3"/></g><g pointer-events="all" display="none" transform="translate(-7, 32)"><circle cx="8" cy="8" r="4" stroke="none" fill="red" fill-opacity="0.3"/></g><g pointer-events="all" display="none" transform="translate(-7, 52)"><circle cx="8" cy="8" r="4" stroke="none" fill="red" fill-opacity="0.3"/></g><g pointer-events="all" display="none" transform="translate(17, 71)"><circle cx="8" cy="8" r="4" stroke="none" fill="red" fill-opacity="0.3"/></g><g pointer-events="all" display="none" transform="translate(42, 71)"><circle cx="8" cy="8" r="4" stroke="none" fill="red" fill-opacity="0.3"/></g><g pointer-events="all" display="none" transform="translate(67, 71)"><circle cx="8" cy="8" r="4" stroke="none" fill="red" fill-opacity="0.3"/></g><g pointer-events="all" display="none" transform="translate(91, 12)"><circle cx="8" cy="8" r="4" stroke="none" fill="red" fill-opacity="0.3"/></g><g pointer-events="all" display="none" transform="translate(91, 32)"><circle cx="8" cy="8" r="4" stroke="none" fill="red" fill-opacity="0.3"/></g><g pointer-events="all" display="none" transform="translate(91, 52)"><circle cx="8" cy="8" r="4" stroke="none" fill="red" fill-opacity="0.3"/></g><g pointer-events="all" display="none" transform="translate(17, -7)"><circle cx="8" cy="8" r="4" stroke="none" fill="red" fill-opacity="0.3"/></g><g pointer-events="all" display="none" transform="translate(42, -7)"><circle cx="8" cy="8" r="4" stroke="none" fill="red" fill-opacity="0.3"/></g><g pointer-events="all" display="none" transform="translate(67, -7)"><circle cx="8" cy="8" r="4" stroke="none" fill="red" fill-opacity="0.3"/></g><g pointer-events="all" display="none" transform="translate(42, 32)"><circle cx="8" cy="8" r="4" stroke="none" fill="red" fill-opacity="0.3"/></g></g></g></g><g id="_CB7A2A6B-4A58-45C1-8DF7-DD465F3E2C87" bpmn2nodeid="_AD68BB65-077E-4E91-B56F-073EC7B1C382"><g class="stencils" transform="translate(523, 111)"><g class="me"><g pointer-events="fill" id="_CB7A2A6B-4A58-45C1-8DF7-DD465F3E2C87">      <defs id="_CB7A2A6B-4A58-45C1-8DF7-DD465F3E2C87__CB7A2A6B-4A58-45C1-8DF7-DD465F3E2C87_5"> 		<radialGradient id="_CB7A2A6B-4A58-45C1-8DF7-DD465F3E2C87background" cx="10%" cy="10%" r="100%" fx="10%" fy="10%"> 			<stop offset="0%" stop-color="#ffffff" stop-opacity="1" id="_CB7A2A6B-4A58-45C1-8DF7-DD465F3E2C87__CB7A2A6B-4A58-45C1-8DF7-DD465F3E2C87_6"/> 			<stop id="_CB7A2A6B-4A58-45C1-8DF7-DD465F3E2C87fill_el" offset="100%" stop-color="#ff6347" stop-opacity="1"/> 		</radialGradient> 	</defs> 	     <circle id="_CB7A2A6B-4A58-45C1-8DF7-DD465F3E2C87bg_frame" cx="14" cy="14" r="14" stroke="#000000" fill="url(#_CB7A2A6B-4A58-45C1-8DF7-DD465F3E2C87background) white" stroke-width="3"/> 	<text font-size="11" id="_CB7A2A6B-4A58-45C1-8DF7-DD465F3E2C87text_name" x="14" y="30" oryx:align="top center" stroke="black" stroke-width="0pt" letter-spacing="-0.01px" fill="#000000" text-anchor="middle" transform="rotate(0 14 30)" visibility="inherit" oryx:fontSize="11"><tspan x="14" y="30" dy="11" id="ext-gen1207">Order</tspan><tspan x="14" y="30" dy="22">created</tspan></text>   </g></g><g class="children" style="overflow:hidden"/><g class="edge"/></g><g class="controls"><g class="dockers"/><g class="magnets" transform="translate(523, 111)"><g pointer-events="all" display="none" transform="translate(6, 6)"><circle cx="8" cy="8" r="4" stroke="none" fill="red" fill-opacity="0.3"/></g></g></g></g><g id="_998A2C74-079C-419C-9121-9341DC8D5152" bpmn2nodeid="_546FB0CA-6E82-4BFE-97BF-811C9E1FF34B"><g class="stencils" transform="translate(319, 85)"><g class="me"><g pointer-events="fill" oryx:minimumSize="50 40" id="_998A2C74-079C-419C-9121-9341DC8D5152">   	<defs id="_998A2C74-079C-419C-9121-9341DC8D5152__998A2C74-079C-419C-9121-9341DC8D5152_17"> 		<radialGradient id="_998A2C74-079C-419C-9121-9341DC8D5152background" cx="10%" cy="10%" r="100%" fx="10%" fy="10%"> 			<stop offset="0%" stop-color="#ffffff" stop-opacity="1" id="_998A2C74-079C-419C-9121-9341DC8D5152__998A2C74-079C-419C-9121-9341DC8D5152_18"/> 			<stop id="_998A2C74-079C-419C-9121-9341DC8D5152fill_el" offset="100%" stop-color="#fafad2" stop-opacity="1"/> 		</radialGradient> 		<radialGradient id="_998A2C74-079C-419C-9121-9341DC8D5152borderbackground" cx="10%" cy="10%" r="100%" fx="10%" fy="10%"> 			<stop offset="0%" stop-color="#ffffff" stop-opacity="1" id="_998A2C74-079C-419C-9121-9341DC8D5152__998A2C74-079C-419C-9121-9341DC8D5152_19"/> 			<stop id="_998A2C74-079C-419C-9121-9341DC8D5152fill_border" offset="100%" stop-color="#000000" stop-opacity="1" stroke="#000000"/> 		</radialGradient> 	</defs> 	 	<rect id="_998A2C74-079C-419C-9121-9341DC8D5152text_frame" oryx:anchors="bottom top right left" x="1" y="1" width="94" height="79" rx="10" ry="10" stroke="none" stroke-width="0" fill="none"/> 	<rect id="_998A2C74-079C-419C-9121-9341DC8D5152bg_frame" oryx:resize="vertical horizontal" x="0" y="0" width="100" height="80" rx="10" ry="10" stroke="#000000" stroke-width="1" fill="url(#_998A2C74-079C-419C-9121-9341DC8D5152background) #ffffcc"/> 		<text font-size="12" id="_998A2C74-079C-419C-9121-9341DC8D5152text_name" x="50" y="40" oryx:align="middle center" oryx:fittoelem="text_frame" stroke="black" text-anchor="middle" stroke-width="0pt" letter-spacing="-0.01px" fill="#000000" transform="rotate(0 50 40)" visibility="inherit" oryx:fontSize="12"><tspan x="50" y="40" dy="-1">Choose </tspan><tspan x="50" y="40" dy="11">laundry type</tspan></text>     <g id="_998A2C74-079C-419C-9121-9341DC8D5152manualTask" transform="scale(0.7,0.7) translate(8,8)" display="none">     	<path oryx:anchors="top left" id="_998A2C74-079C-419C-9121-9341DC8D5152frame" style="opacity:1;fill:none;fill-opacity:1;stroke-width:1" d="M0.5,3.751l4.083-3.25c0,0,11.166,0.083,12.083,0.083s-2.417,2.917-1.5,2.917     s11.667,0,12.584,0c1.166,1.708-0.168,3.167-0.834,3.667s0.875,1.917-1,4.417c-0.75,0.25,0.75,1.875-1.333,3.333     c-1.167,0.583,0.583,1.542-1.25,2.833c-1.167,0-20.833,0.083-20.833,0.083l-2-1.333V3.751z" stroke="#000000"/> 		<path id="_998A2C74-079C-419C-9121-9341DC8D5152frame2" oryx:anchors="top left" style="opacity:1;fill:none;stroke-width:2" d="M 13.5 7 L 27 7" stroke="#000000"/> 		<path id="_998A2C74-079C-419C-9121-9341DC8D5152frame3" oryx:anchors="top left" style="opacity:1;fill:none;stroke-width:2" d="M 13.5 11 L 26 11" stroke="#000000"/> 		<path id="_998A2C74-079C-419C-9121-9341DC8D5152frame4" oryx:anchors="top left" style="opacity:1;fill:none;stroke-width:1.5" d="M 14 14.5 L 25 14.5" stroke="#000000"/> 		<path id="_998A2C74-079C-419C-9121-9341DC8D5152frame5" oryx:anchors="top left" style="opacity:1;fill:none;stroke-width:1.5" d="M 8.2 3.1 L 15 3.1" stroke="#000000"/> 	</g> 	 	<g id="_998A2C74-079C-419C-9121-9341DC8D5152businessRuleTask" transform="scale(0.7,0.7) translate(8,8)" display="none"> 		<rect id="_998A2C74-079C-419C-9121-9341DC8D5152frame6" oryx:anchors="top left" x="0" y="0" width="22" height="4" style="opacity:1;fill:#B3B1B3;fill-opacity:1;" stroke="#000000"/> 		<rect id="_998A2C74-079C-419C-9121-9341DC8D5152frame7" oryx:anchors="top left" x="0" y="4" style="opacity:1;fill:none;" width="22" height="12" stroke="#000000"/> 		<path id="_998A2C74-079C-419C-9121-9341DC8D5152frame8" oryx:anchors="top left" style="opacity:1;fill:none;" d="M 0 10 L 22 10" stroke="#000000"/> 		<path id="_998A2C74-079C-419C-9121-9341DC8D5152frame9" oryx:anchors="top left" style="opacity:1; fill:none;" d="M 7 4 L 7 16" stroke="#000000"/> 	</g> 	 	<g id="_998A2C74-079C-419C-9121-9341DC8D5152scriptTask" transform="scale(0.7,0.7) translate(8,8)" display="none"> 		<path oryx:anchors="top left" id="_998A2C74-079C-419C-9121-9341DC8D5152frame10" style="opacity:1;fill:none;" stroke="#000000" d="M6.402,0.5h14.5c0,0-5.833,2.833-5.833,5.583s4.417,6,4.417,9.167    s-4.167,5.083-4.167,5.083H0.235c0,0,5-2.667,5-5s-4.583-6.75-4.583-9.25S6.402,0.5,6.402,0.5z"/> 		<path oryx:anchors="top left" id="_998A2C74-079C-419C-9121-9341DC8D5152frame11" style="opacity:1;fill:none;stroke-width:1.5" d="M 3.5 4.5 L 13.5 4.5" stroke="#000000"/> 		<path oryx:anchors="top left" id="_998A2C74-079C-419C-9121-9341DC8D5152frame12" style="opacity:1;fill:none;stroke-width:1.5" d="M 3.8 8.5 L 13.8 8.5" stroke="#000000"/> 		<path oryx:anchors="top left" id="_998A2C74-079C-419C-9121-9341DC8D5152frame13" style="opacity:1;fill:none;stroke-width:1.5" d="M 6.3 12.5 L 16.3 12.5" stroke="#000000"/> 		<path oryx:anchors="top left" id="_998A2C74-079C-419C-9121-9341DC8D5152frame14" style="opacity:1;fill:none;stroke-width:1.5" d="M 6.5 16.5 L 16.5 16.5" stroke="#000000"/> 	</g> 	 	<g id="_998A2C74-079C-419C-9121-9341DC8D5152userTask" transform="scale(0.7,0.7) translate(8,8)" display="inherit"> 		<path id="_998A2C74-079C-419C-9121-9341DC8D5152frame15" oryx:anchors="top left" style="opacity:1;fill:#F4F6F7" stroke="#000000" d="M0.585,24.167h24.083v-7.833c0,0-2.333-3.917-7.083-5.167h-9.25    c-4.417,1.333-7.833,5.75-7.833,5.75L0.585,24.167z"/> 		<path id="_998A2C74-079C-419C-9121-9341DC8D5152frame16" oryx:anchors="top left" style="opacity:1;fill:none" d="M 6 20 L 6 24" stroke="#000000"/> 		<path id="_998A2C74-079C-419C-9121-9341DC8D5152frame17" oryx:anchors="top left" style="opacity:1;fill:none" d="M 20 20 L 20 24" stroke="#000000"/> 		<circle id="_998A2C74-079C-419C-9121-9341DC8D5152frame18" oryx:anchors="top left" fill="black" cx="13.002" cy="5.916" r="5.417" stroke="#000000"/> 		<path id="_998A2C74-079C-419C-9121-9341DC8D5152frame19" oryx:anchors="top left" style="opacity:1;fill:#F0EFF0;" stroke="#000000" d="M8.043,7.083c0,0,2.814-2.426,5.376-1.807s4.624-0.693,4.624-0.693    c0.25,1.688,0.042,3.75-1.458,5.584c0,0,1.083,0.75,1.083,1.5s0.125,1.875-1,3s-5.5,1.25-6.75,0S8.668,12.834,8.668,12    s0.583-1.25,1.25-1.917C8.835,9.5,7.419,7.708,8.043,7.083z"/> 	</g> 	 	<g id="_998A2C74-079C-419C-9121-9341DC8D5152serviceTask" transform="scale(0.7,0.7) translate(8,8)" display="none"> 		<polygon oryx:anchors="top left" id="_998A2C74-079C-419C-9121-9341DC8D5152frame20" style="opacity:1;fill:#ffffff" stroke="#000000" points="15.392,5.064 17.954,2.502 20.347,4.895 17.786,7.455     18.729,9.732 22.353,9.732 22.353,13.115 18.731,13.115 17.788,15.392 20.351,17.955 17.958,20.347 15.397,17.786 13.12,18.729     13.12,22.353 9.737,22.353 9.737,18.731 7.46,17.788 4.897,20.35 2.506,17.958 5.066,15.397 4.124,13.12 0.5,13.12 0.5,9.737     4.121,9.737 5.065,7.461 2.503,4.898 4.895,2.506 7.455,5.066 9.732,4.125 9.732,0.5 13.116,0.5 13.116,4.121 "/> 		<circle oryx:anchors="top left" id="_998A2C74-079C-419C-9121-9341DC8D5152frame21" style="opacity:1;fill:none" stroke="#000000" cx="11.427" cy="11.426" r="3.714"/> 		<polygon oryx:anchors="top left" id="_998A2C74-079C-419C-9121-9341DC8D5152frame22" style="opacity:1;fill:#ffffff" stroke="#000000" points="21.392,11.064 23.954,8.502 26.347,10.895 23.786,13.455     24.729,15.732 28.353,15.732 28.353,19.115 24.731,19.115 23.788,21.392 26.351,23.955 23.958,26.347 21.397,23.786 19.12,24.729     19.12,28.353 15.737,28.353 15.737,24.731 13.46,23.788 10.897,26.35 8.506,23.958 11.066,21.397 10.124,19.12 6.5,19.12     6.5,15.737 10.121,15.737 11.065,13.461 8.503,10.898 10.895,8.506 13.455,11.066 15.732,10.125 15.732,6.5 19.116,6.5     19.116,10.121 "/> 		<circle oryx:anchors="top left" id="_998A2C74-079C-419C-9121-9341DC8D5152frame23" style="opacity:1;fill:none;" stroke="#000000" cx="17.427" cy="17.426" r="3.714"/> 	</g> 	 	<g id="_998A2C74-079C-419C-9121-9341DC8D5152sendTask" display="none"> 		<path id="_998A2C74-079C-419C-9121-9341DC8D5152stframe24" oryx:anchors="left top" stroke="#FFFFFF" fill="black" stroke-width="1" d="M8,11 L8,21 L24,21 L24,11 L16,17z"/> 		<path id="_998A2C74-079C-419C-9121-9341DC8D5152stframe25" oryx:anchors="left top" stroke="#FFFFFF" fill="black" stroke-width="1" d="M7,10 L16,17 L25 10z"/> 	</g> 	 	<g id="_998A2C74-079C-419C-9121-9341DC8D5152receiveTask" display="none"> 		<path id="_998A2C74-079C-419C-9121-9341DC8D5152frame26" oryx:anchors="left top" stroke="#000000" fill="none" stroke-width="1" d="M8,11 L8,21 L24,21 L24,11z M8,11 L16,17 L24,11"/> 	</g> 	 	<g id="_998A2C74-079C-419C-9121-9341DC8D5152none" display="inherit"/>  	<g id="_998A2C74-079C-419C-9121-9341DC8D5152sequential" display="none">         <path oryx:anchors="bottom" fill="none" stroke="#000000" stroke-width="2" d="M46,76h10M46,72h10 M46,68h10" id="_998A2C74-079C-419C-9121-9341DC8D5152__998A2C74-079C-419C-9121-9341DC8D5152_20"/>     </g>   </g></g><g class="children" style="overflow:hidden"/><g class="edge"/></g><g class="controls"><g class="dockers"/><g class="magnets" transform="translate(319, 85)"><g pointer-events="all" display="none" transform="translate(-7, 12)"><circle cx="8" cy="8" r="4" stroke="none" fill="red" fill-opacity="0.3"/></g><g pointer-events="all" display="none" transform="translate(-7, 32)"><circle cx="8" cy="8" r="4" stroke="none" fill="red" fill-opacity="0.3"/></g><g pointer-events="all" display="none" transform="translate(-7, 52)"><circle cx="8" cy="8" r="4" stroke="none" fill="red" fill-opacity="0.3"/></g><g pointer-events="all" display="none" transform="translate(17, 71)"><circle cx="8" cy="8" r="4" stroke="none" fill="red" fill-opacity="0.3"/></g><g pointer-events="all" display="none" transform="translate(42, 71)"><circle cx="8" cy="8" r="4" stroke="none" fill="red" fill-opacity="0.3"/></g><g pointer-events="all" display="none" transform="translate(67, 71)"><circle cx="8" cy="8" r="4" stroke="none" fill="red" fill-opacity="0.3"/></g><g pointer-events="all" display="none" transform="translate(91, 12)"><circle cx="8" cy="8" r="4" stroke="none" fill="red" fill-opacity="0.3"/></g><g pointer-events="all" display="none" transform="translate(91, 32)"><circle cx="8" cy="8" r="4" stroke="none" fill="red" fill-opacity="0.3"/></g><g pointer-events="all" display="none" transform="translate(91, 52)"><circle cx="8" cy="8" r="4" stroke="none" fill="red" fill-opacity="0.3"/></g><g pointer-events="all" display="none" transform="translate(17, -7)"><circle cx="8" cy="8" r="4" stroke="none" fill="red" fill-opacity="0.3"/></g><g pointer-events="all" display="none" transform="translate(42, -7)"><circle cx="8" cy="8" r="4" stroke="none" fill="red" fill-opacity="0.3"/></g><g pointer-events="all" display="none" transform="translate(67, -7)"><circle cx="8" cy="8" r="4" stroke="none" fill="red" fill-opacity="0.3"/></g><g pointer-events="all" display="none" transform="translate(42, 32)"><circle cx="8" cy="8" r="4" stroke="none" fill="red" fill-opacity="0.3"/></g></g></g></g></g><g class="edge"/></g><g class="controls"><g class="dockers"/><g class="magnets" transform="translate(212, 73)"><g pointer-events="all" display="none" transform="translate(292, 117)"><circle cx="8" cy="8" r="4" stroke="none" fill="red" fill-opacity="0.3"/></g></g></g></g><g id="_CE79A463-C1E3-4799-ABCA-64DB7CD6F58A" bpmn2nodeid="_71F31B9C-86E7-46A2-99F0-B39FCBD305DE"><g class="stencils" transform="translate(212, 360)"><g class="me"><g pointer-events="painted" id="_CE79A463-C1E3-4799-ABCA-64DB7CD6F58A">         <defs id="_CE79A463-C1E3-4799-ABCA-64DB7CD6F58A__CE79A463-C1E3-4799-ABCA-64DB7CD6F58A_3"> 		<radialGradient id="_CE79A463-C1E3-4799-ABCA-64DB7CD6F58Abackground" cx="0%" cy="10%" r="100%" fx="20%" fy="10%"> 			<stop offset="0%" stop-color="#ffffff" stop-opacity="1" id="_CE79A463-C1E3-4799-ABCA-64DB7CD6F58A__CE79A463-C1E3-4799-ABCA-64DB7CD6F58A_4"/> 			<stop id="_CE79A463-C1E3-4799-ABCA-64DB7CD6F58Afill_el" offset="100%" stop-color="#ffffff" stop-opacity="1"/> 		</radialGradient> 	</defs> 	   	 	<rect id="_CE79A463-C1E3-4799-ABCA-64DB7CD6F58Aborder" oryx:resize="vertical horizontal" x="0" y="0" width="600" height="250" stroke="#000000" stroke-width="1" fill="url(#_CE79A463-C1E3-4799-ABCA-64DB7CD6F58Abackground) white"/> 	 	 	 	<path id="_CE79A463-C1E3-4799-ABCA-64DB7CD6F58Aframe2" style="fill:none;stroke-width:1" d="M 0,0 L 0,250" oryx:anchors="left top bottom" stroke="#000000"/> 	 	undefined 	     <text x="50" y="125" oryx:rotate="270" font-size="12" id="_CE79A463-C1E3-4799-ABCA-64DB7CD6F58Atext_name" oryx:align="middle center" oryx:anchors="left" oryx:fittoelem="frame" stroke="black" stroke-width="0pt" letter-spacing="-0.01px" fill="#000000" text-anchor="middle" transform="rotate(270 50 125)" visibility="inherit" oryx:fontSize="12"><tspan x="50" y="125" dy="5">Ordering system</tspan></text>   </g></g><g class="children" style="overflow:hidden"><g id="_C1A276EA-0D94-4E2E-A9FD-E54AC2EAB5AB" bpmn2nodeid="_3EF858DD-6DB8-4F4C-892E-F492C699D18C"><g class="stencils" transform="translate(413, 13)"><g class="me"><g pointer-events="fill" oryx:minimumSize="50 40" id="_C1A276EA-0D94-4E2E-A9FD-E54AC2EAB5AB">   	<defs id="_C1A276EA-0D94-4E2E-A9FD-E54AC2EAB5AB__C1A276EA-0D94-4E2E-A9FD-E54AC2EAB5AB_17"> 		<radialGradient id="_C1A276EA-0D94-4E2E-A9FD-E54AC2EAB5ABbackground" cx="10%" cy="10%" r="100%" fx="10%" fy="10%"> 			<stop offset="0%" stop-color="#ffffff" stop-opacity="1" id="_C1A276EA-0D94-4E2E-A9FD-E54AC2EAB5AB__C1A276EA-0D94-4E2E-A9FD-E54AC2EAB5AB_18"/> 			<stop id="_C1A276EA-0D94-4E2E-A9FD-E54AC2EAB5ABfill_el" offset="100%" stop-color="#fafad2" stop-opacity="1"/> 		</radialGradient> 		<radialGradient id="_C1A276EA-0D94-4E2E-A9FD-E54AC2EAB5ABborderbackground" cx="10%" cy="10%" r="100%" fx="10%" fy="10%"> 			<stop offset="0%" stop-color="#ffffff" stop-opacity="1" id="_C1A276EA-0D94-4E2E-A9FD-E54AC2EAB5AB__C1A276EA-0D94-4E2E-A9FD-E54AC2EAB5AB_19"/> 			<stop id="_C1A276EA-0D94-4E2E-A9FD-E54AC2EAB5ABfill_border" offset="100%" stop-color="#000000" stop-opacity="1" stroke="#000000"/> 		</radialGradient> 	</defs> 	 	<rect id="_C1A276EA-0D94-4E2E-A9FD-E54AC2EAB5ABtext_frame" oryx:anchors="bottom top right left" x="1" y="1" width="94" height="79" rx="10" ry="10" stroke="none" stroke-width="0" fill="none"/> 	<rect id="_C1A276EA-0D94-4E2E-A9FD-E54AC2EAB5ABbg_frame" oryx:resize="vertical horizontal" x="0" y="0" width="100" height="80" rx="10" ry="10" stroke="#000000" stroke-width="1" fill="url(#_C1A276EA-0D94-4E2E-A9FD-E54AC2EAB5ABbackground) #ffffcc"/> 		<text font-size="12" id="_C1A276EA-0D94-4E2E-A9FD-E54AC2EAB5ABtext_name" x="50" y="40" oryx:align="middle center" oryx:fittoelem="text_frame" stroke="black" text-anchor="middle" stroke-width="0pt" letter-spacing="-0.01px" fill="#000000" transform="rotate(0 50 40)" visibility="inherit" oryx:fontSize="12"><tspan x="50" y="40" dy="5">aaa</tspan></text>     <g id="_C1A276EA-0D94-4E2E-A9FD-E54AC2EAB5ABmanualTask" transform="scale(0.7,0.7) translate(8,8)" display="none">     	<path oryx:anchors="top left" id="_C1A276EA-0D94-4E2E-A9FD-E54AC2EAB5ABframe" style="opacity:1;fill:none;fill-opacity:1;stroke-width:1" d="M0.5,3.751l4.083-3.25c0,0,11.166,0.083,12.083,0.083s-2.417,2.917-1.5,2.917     s11.667,0,12.584,0c1.166,1.708-0.168,3.167-0.834,3.667s0.875,1.917-1,4.417c-0.75,0.25,0.75,1.875-1.333,3.333     c-1.167,0.583,0.583,1.542-1.25,2.833c-1.167,0-20.833,0.083-20.833,0.083l-2-1.333V3.751z" stroke="#000000"/> 		<path id="_C1A276EA-0D94-4E2E-A9FD-E54AC2EAB5ABframe2" oryx:anchors="top left" style="opacity:1;fill:none;stroke-width:2" d="M 13.5 7 L 27 7" stroke="#000000"/> 		<path id="_C1A276EA-0D94-4E2E-A9FD-E54AC2EAB5ABframe3" oryx:anchors="top left" style="opacity:1;fill:none;stroke-width:2" d="M 13.5 11 L 26 11" stroke="#000000"/> 		<path id="_C1A276EA-0D94-4E2E-A9FD-E54AC2EAB5ABframe4" oryx:anchors="top left" style="opacity:1;fill:none;stroke-width:1.5" d="M 14 14.5 L 25 14.5" stroke="#000000"/> 		<path id="_C1A276EA-0D94-4E2E-A9FD-E54AC2EAB5ABframe5" oryx:anchors="top left" style="opacity:1;fill:none;stroke-width:1.5" d="M 8.2 3.1 L 15 3.1" stroke="#000000"/> 	</g> 	 	<g id="_C1A276EA-0D94-4E2E-A9FD-E54AC2EAB5ABbusinessRuleTask" transform="scale(0.7,0.7) translate(8,8)" display="none"> 		<rect id="_C1A276EA-0D94-4E2E-A9FD-E54AC2EAB5ABframe6" oryx:anchors="top left" x="0" y="0" width="22" height="4" style="opacity:1;fill:#B3B1B3;fill-opacity:1;" stroke="#000000"/> 		<rect id="_C1A276EA-0D94-4E2E-A9FD-E54AC2EAB5ABframe7" oryx:anchors="top left" x="0" y="4" style="opacity:1;fill:none;" width="22" height="12" stroke="#000000"/> 		<path id="_C1A276EA-0D94-4E2E-A9FD-E54AC2EAB5ABframe8" oryx:anchors="top left" style="opacity:1;fill:none;" d="M 0 10 L 22 10" stroke="#000000"/> 		<path id="_C1A276EA-0D94-4E2E-A9FD-E54AC2EAB5ABframe9" oryx:anchors="top left" style="opacity:1; fill:none;" d="M 7 4 L 7 16" stroke="#000000"/> 	</g> 	 	<g id="_C1A276EA-0D94-4E2E-A9FD-E54AC2EAB5ABscriptTask" transform="scale(0.7,0.7) translate(8,8)" display="inherit"> 		<path oryx:anchors="top left" id="_C1A276EA-0D94-4E2E-A9FD-E54AC2EAB5ABframe10" style="opacity:1;fill:none;" stroke="#000000" d="M6.402,0.5h14.5c0,0-5.833,2.833-5.833,5.583s4.417,6,4.417,9.167    s-4.167,5.083-4.167,5.083H0.235c0,0,5-2.667,5-5s-4.583-6.75-4.583-9.25S6.402,0.5,6.402,0.5z"/> 		<path oryx:anchors="top left" id="_C1A276EA-0D94-4E2E-A9FD-E54AC2EAB5ABframe11" style="opacity:1;fill:none;stroke-width:1.5" d="M 3.5 4.5 L 13.5 4.5" stroke="#000000"/> 		<path oryx:anchors="top left" id="_C1A276EA-0D94-4E2E-A9FD-E54AC2EAB5ABframe12" style="opacity:1;fill:none;stroke-width:1.5" d="M 3.8 8.5 L 13.8 8.5" stroke="#000000"/> 		<path oryx:anchors="top left" id="_C1A276EA-0D94-4E2E-A9FD-E54AC2EAB5ABframe13" style="opacity:1;fill:none;stroke-width:1.5" d="M 6.3 12.5 L 16.3 12.5" stroke="#000000"/> 		<path oryx:anchors="top left" id="_C1A276EA-0D94-4E2E-A9FD-E54AC2EAB5ABframe14" style="opacity:1;fill:none;stroke-width:1.5" d="M 6.5 16.5 L 16.5 16.5" stroke="#000000"/> 	</g> 	 	<g id="_C1A276EA-0D94-4E2E-A9FD-E54AC2EAB5ABuserTask" transform="scale(0.7,0.7) translate(8,8)" display="none"> 		<path id="_C1A276EA-0D94-4E2E-A9FD-E54AC2EAB5ABframe15" oryx:anchors="top left" style="opacity:1;fill:#F4F6F7" stroke="#000000" d="M0.585,24.167h24.083v-7.833c0,0-2.333-3.917-7.083-5.167h-9.25    c-4.417,1.333-7.833,5.75-7.833,5.75L0.585,24.167z"/> 		<path id="_C1A276EA-0D94-4E2E-A9FD-E54AC2EAB5ABframe16" oryx:anchors="top left" style="opacity:1;fill:none" d="M 6 20 L 6 24" stroke="#000000"/> 		<path id="_C1A276EA-0D94-4E2E-A9FD-E54AC2EAB5ABframe17" oryx:anchors="top left" style="opacity:1;fill:none" d="M 20 20 L 20 24" stroke="#000000"/> 		<circle id="_C1A276EA-0D94-4E2E-A9FD-E54AC2EAB5ABframe18" oryx:anchors="top left" fill="black" cx="13.002" cy="5.916" r="5.417" stroke="#000000"/> 		<path id="_C1A276EA-0D94-4E2E-A9FD-E54AC2EAB5ABframe19" oryx:anchors="top left" style="opacity:1;fill:#F0EFF0;" stroke="#000000" d="M8.043,7.083c0,0,2.814-2.426,5.376-1.807s4.624-0.693,4.624-0.693    c0.25,1.688,0.042,3.75-1.458,5.584c0,0,1.083,0.75,1.083,1.5s0.125,1.875-1,3s-5.5,1.25-6.75,0S8.668,12.834,8.668,12    s0.583-1.25,1.25-1.917C8.835,9.5,7.419,7.708,8.043,7.083z"/> 	</g> 	 	<g id="_C1A276EA-0D94-4E2E-A9FD-E54AC2EAB5ABserviceTask" transform="scale(0.7,0.7) translate(8,8)" display="none"> 		<polygon oryx:anchors="top left" id="_C1A276EA-0D94-4E2E-A9FD-E54AC2EAB5ABframe20" style="opacity:1;fill:#ffffff" stroke="#000000" points="15.392,5.064 17.954,2.502 20.347,4.895 17.786,7.455     18.729,9.732 22.353,9.732 22.353,13.115 18.731,13.115 17.788,15.392 20.351,17.955 17.958,20.347 15.397,17.786 13.12,18.729     13.12,22.353 9.737,22.353 9.737,18.731 7.46,17.788 4.897,20.35 2.506,17.958 5.066,15.397 4.124,13.12 0.5,13.12 0.5,9.737     4.121,9.737 5.065,7.461 2.503,4.898 4.895,2.506 7.455,5.066 9.732,4.125 9.732,0.5 13.116,0.5 13.116,4.121 "/> 		<circle oryx:anchors="top left" id="_C1A276EA-0D94-4E2E-A9FD-E54AC2EAB5ABframe21" style="opacity:1;fill:none" stroke="#000000" cx="11.427" cy="11.426" r="3.714"/> 		<polygon oryx:anchors="top left" id="_C1A276EA-0D94-4E2E-A9FD-E54AC2EAB5ABframe22" style="opacity:1;fill:#ffffff" stroke="#000000" points="21.392,11.064 23.954,8.502 26.347,10.895 23.786,13.455     24.729,15.732 28.353,15.732 28.353,19.115 24.731,19.115 23.788,21.392 26.351,23.955 23.958,26.347 21.397,23.786 19.12,24.729     19.12,28.353 15.737,28.353 15.737,24.731 13.46,23.788 10.897,26.35 8.506,23.958 11.066,21.397 10.124,19.12 6.5,19.12     6.5,15.737 10.121,15.737 11.065,13.461 8.503,10.898 10.895,8.506 13.455,11.066 15.732,10.125 15.732,6.5 19.116,6.5     19.116,10.121 "/> 		<circle oryx:anchors="top left" id="_C1A276EA-0D94-4E2E-A9FD-E54AC2EAB5ABframe23" style="opacity:1;fill:none;" stroke="#000000" cx="17.427" cy="17.426" r="3.714"/> 	</g> 	 	<g id="_C1A276EA-0D94-4E2E-A9FD-E54AC2EAB5ABsendTask" display="none"> 		<path id="_C1A276EA-0D94-4E2E-A9FD-E54AC2EAB5ABstframe24" oryx:anchors="left top" stroke="#FFFFFF" fill="black" stroke-width="1" d="M8,11 L8,21 L24,21 L24,11 L16,17z"/> 		<path id="_C1A276EA-0D94-4E2E-A9FD-E54AC2EAB5ABstframe25" oryx:anchors="left top" stroke="#FFFFFF" fill="black" stroke-width="1" d="M7,10 L16,17 L25 10z"/> 	</g> 	 	<g id="_C1A276EA-0D94-4E2E-A9FD-E54AC2EAB5ABreceiveTask" display="none"> 		<path id="_C1A276EA-0D94-4E2E-A9FD-E54AC2EAB5ABframe26" oryx:anchors="left top" stroke="#000000" fill="none" stroke-width="1" d="M8,11 L8,21 L24,21 L24,11z M8,11 L16,17 L24,11"/> 	</g> 	 	<g id="_C1A276EA-0D94-4E2E-A9FD-E54AC2EAB5ABnone" display="inherit"/>  	<g id="_C1A276EA-0D94-4E2E-A9FD-E54AC2EAB5ABsequential" display="none">         <path oryx:anchors="bottom" fill="none" stroke="#000000" stroke-width="2" d="M46,76h10M46,72h10 M46,68h10" id="_C1A276EA-0D94-4E2E-A9FD-E54AC2EAB5AB__C1A276EA-0D94-4E2E-A9FD-E54AC2EAB5AB_20"/>     </g>   </g></g><g class="children" style="overflow:hidden"/><g class="edge"/></g><g class="controls"><g class="dockers"/><g class="magnets" transform="translate(413, 13)"><g pointer-events="all" display="none" transform="translate(-7, 12)"><circle cx="8" cy="8" r="4" stroke="none" fill="red" fill-opacity="0.3"/></g><g pointer-events="all" display="none" transform="translate(-7, 32)"><circle cx="8" cy="8" r="4" stroke="none" fill="red" fill-opacity="0.3"/></g><g pointer-events="all" display="none" transform="translate(-7, 52)"><circle cx="8" cy="8" r="4" stroke="none" fill="red" fill-opacity="0.3"/></g><g pointer-events="all" display="none" transform="translate(17, 71)"><circle cx="8" cy="8" r="4" stroke="none" fill="red" fill-opacity="0.3"/></g><g pointer-events="all" display="none" transform="translate(42, 71)"><circle cx="8" cy="8" r="4" stroke="none" fill="red" fill-opacity="0.3"/></g><g pointer-events="all" display="none" transform="translate(67, 71)"><circle cx="8" cy="8" r="4" stroke="none" fill="red" fill-opacity="0.3"/></g><g pointer-events="all" display="none" transform="translate(91, 12)"><circle cx="8" cy="8" r="4" stroke="none" fill="red" fill-opacity="0.3"/></g><g pointer-events="all" display="none" transform="translate(91, 32)"><circle cx="8" cy="8" r="4" stroke="none" fill="red" fill-opacity="0.3"/></g><g pointer-events="all" display="none" transform="translate(91, 52)"><circle cx="8" cy="8" r="4" stroke="none" fill="red" fill-opacity="0.3"/></g><g pointer-events="all" display="none" transform="translate(17, -7)"><circle cx="8" cy="8" r="4" stroke="none" fill="red" fill-opacity="0.3"/></g><g pointer-events="all" display="none" transform="translate(42, -7)"><circle cx="8" cy="8" r="4" stroke="none" fill="red" fill-opacity="0.3"/></g><g pointer-events="all" display="none" transform="translate(67, -7)"><circle cx="8" cy="8" r="4" stroke="none" fill="red" fill-opacity="0.3"/></g><g pointer-events="all" display="none" transform="translate(42, 32)"><circle cx="8" cy="8" r="4" stroke="none" fill="red" fill-opacity="0.3"/></g></g></g></g></g><g class="edge"/></g><g class="controls"><g class="dockers"/><g class="magnets" transform="translate(212, 360)"><g pointer-events="all" display="none" transform="translate(292, 117)"><circle cx="8" cy="8" r="4" stroke="none" fill="red" fill-opacity="0.3"/></g></g></g></g></g><g class="edge"><g id="_C2C7856E-07B4-420A-BBD0-F4FEB6B87D87" bpmn2nodeid="_C25DB61C-CA53-4CC6-86D5-109E79DBB676"><g class="stencils"><g class="me"><g pointer-events="painted" bpmn2nodeid="_FCAF95FD-58A8-44A5-8D23-31DB0DC44CF2"><path id="_C2C7856E-07B4-420A-BBD0-F4FEB6B87D87_1" d="M345.609375 198L389.15625 198 " stroke="#000000" fill="none" stroke-width="2" stroke-linecap="round" stroke-linejoin="round" marker-start="url(#_C2C7856E-07B4-420A-BBD0-F4FEB6B87D87start)" marker-end="url(#_C2C7856E-07B4-420A-BBD0-F4FEB6B87D87end)"/></g><text id="_C2C7856E-07B4-420A-BBD0-F4FEB6B87D87text_name" font-size="12" x="359.609375" y="184" oryx:edgePosition="startTop" stroke-width="0pt" letter-spacing="-0.01px" fill="#000000" text-anchor="start" transform="rotate(360 345.609375 198)" visibility="inherit" oryx:fontSize="12"/></g><g class="children" style="overflow:hidden"/><g class="edge"/></g><g class="controls"><g class="dockers"/><g class="magnets"/></g></g><g id="_18046F64-237F-4FBF-9575-C9A0F07E64D7" bpmn2nodeid="_87DC94E1-188D-4E94-B6AD-18CD16BB23C8"><g class="stencils"><g class="me"><g pointer-events="painted" bpmn2nodeid="_91C03D2A-E77F-404A-BDAD-9D288D0DE4FA"><path id="_18046F64-237F-4FBF-9575-C9A0F07E64D7_1" d="M490.5703125 198L530.4296875 198 " stroke="#000000" fill="none" stroke-width="2" stroke-linecap="round" stroke-linejoin="round" marker-start="url(#_18046F64-237F-4FBF-9575-C9A0F07E64D7start)" marker-end="url(#_18046F64-237F-4FBF-9575-C9A0F07E64D7end)"/></g><text id="_18046F64-237F-4FBF-9575-C9A0F07E64D7text_name" font-size="12" x="504.5703125" y="184" oryx:edgePosition="startTop" stroke-width="0pt" letter-spacing="-0.01px" fill="#000000" text-anchor="start" transform="rotate(360 490.5703125 198)" visibility="inherit" oryx:fontSize="12"/></g><g class="children" style="overflow:hidden"/><g class="edge"/></g><g class="controls"><g class="dockers"/><g class="magnets"/></g></g><g id="_14C49A1A-7E28-400C-BA18-1AE86520FD9B" bpmn2nodeid="_C06A6456-D2E5-410C-B707-55F1603E7BD5"><g class="stencils"><g class="me"><g pointer-events="painted" bpmn2nodeid="_02F6BA0E-252F-47DF-939D-9A86275EC4B6"><path id="_14C49A1A-7E28-400C-BA18-1AE86520FD9B_1" d="M598.6584077600295 238.38891136602496L657.3415922399705 372.61108863397504 " stroke="#000000" fill="none" stroke-width="2" stroke-linecap="round" stroke-linejoin="round" marker-start="url(#_14C49A1A-7E28-400C-BA18-1AE86520FD9Bstart)" marker-end="url(#_14C49A1A-7E28-400C-BA18-1AE86520FD9Bend)"/></g><text id="_14C49A1A-7E28-400C-BA18-1AE86520FD9Btext_name" font-size="12" x="612.6584077600295" y="224.38891136602496" oryx:edgePosition="startTop" stroke-width="0pt" letter-spacing="-0.01px" fill="#000000" text-anchor="start" transform="rotate(66.38460366963011 598.6584077600295 238.38891136602496)" visibility="inherit" oryx:fontSize="12"/></g><g class="children" style="overflow:hidden"/><g class="edge"/></g><g class="controls"><g class="dockers"/><g class="magnets"/></g></g><g id="_179DD01E-5BD6-4E74-80A9-29EACE399FF6" bpmn2nodeid="_3CF0986B-E644-4916-8F75-4073853AF26F"><g class="stencils"><g class="me"><g pointer-events="painted" bpmn2nodeid="_7265F4B7-3F23-438C-9868-49031B8163E1"><path id="_179DD01E-5BD6-4E74-80A9-29EACE399FF6_1" d="M688.9113859804232 372.58178397579735L744.3386140195768 211.54321602420268 " stroke="#000000" fill="none" stroke-width="2" stroke-linecap="round" stroke-linejoin="round" marker-start="url(#_179DD01E-5BD6-4E74-80A9-29EACE399FF6start)" marker-end="url(#_179DD01E-5BD6-4E74-80A9-29EACE399FF6end)"/></g><text id="_179DD01E-5BD6-4E74-80A9-29EACE399FF6text_name" font-size="12" x="702.9113859804232" y="358.58178397579735" oryx:edgePosition="startTop" stroke-width="0pt" letter-spacing="-0.01px" fill="#000000" text-anchor="start" transform="rotate(288.9927482464679 688.9113859804232 372.58178397579735)" visibility="inherit" oryx:fontSize="12"/></g><g class="children" style="overflow:hidden"/><g class="edge"/></g><g class="controls"><g class="dockers"/><g class="magnets"/></g></g></g><text id="_505ECF7A-48AD-43A8-93F3-44175E23E1AB" style="stroke-width:1;fill:rgb(177,194,214);font-family:arial;font-weight:bold" font-size="12" onclick="ORYX.Plugins.CanvasTitle.openTextualAnalysis()" onmouseover="ORYX.Plugins.CanvasTitle.addToolTip('_505ECF7A-48AD-43A8-93F3-44175E23E1AB')" transform="translate(10, 20)">OrderCreation v.1.0 (src.OrderCreation)</text></g></g></svg>