<svg xmlns="http://www.w3.org/2000/svg" xmlns:oryx="http://oryx-editor.org" id="_AA779548-F49C-4E9F-B362-D9A17D35F0E4" width="862" height="660" xmlns:xlink="http://www.w3.org/1999/xlink" xmlns:svg="http://www.w3.org/2000/svg"><defs><marker id="_606364D7-6C46-42E3-823C-C2FE38CDD19Estart" refX="1" refY="5" markerUnits="userSpaceOnUse" markerWidth="17" markerHeight="11" orient="auto" fill="#000000" stroke="#000000"> 	  		<path id="_606364D7-6C46-42E3-823C-C2FE38CDD19Econditional" d="M 0 5 L 8 0 L 16 5 L 8 10 L 0 5" fill="white" stroke="#000000" stroke-width="1" display="none"/> 			<path id="_606364D7-6C46-42E3-823C-C2FE38CDD19Edefault" d="M 5 0 L 11 10" fill="white" stroke="#000000" stroke-width="1" display="none"/> 	  	</marker><marker id="_606364D7-6C46-42E3-823C-C2FE38CDD19Eend" refX="15" refY="6" markerUnits="userSpaceOnUse" markerWidth="15" markerHeight="12" orient="auto" fill="#000000" stroke="#000000"> 	  		<path id="_606364D7-6C46-42E3-823C-C2FE38CDD19Eframe2" d="M 0 1 L 15 6 L 0 11z" fill="#000000" stroke="#000000" stroke-linejoin="round" stroke-width="2"/> 	  	</marker><marker id="_B676083E-D5FD-4B76-9CA1-1659FFCACC11start" refX="1" refY="5" markerUnits="userSpaceOnUse" markerWidth="17" markerHeight="11" orient="auto" fill="#000000" stroke="#000000"> 	  		<path id="_B676083E-D5FD-4B76-9CA1-1659FFCACC11conditional" d="M 0 5 L 8 0 L 16 5 L 8 10 L 0 5" fill="white" stroke="#000000" stroke-width="1" display="none"/> 			<path id="_B676083E-D5FD-4B76-9CA1-1659FFCACC11default" d="M 5 0 L 11 10" fill="white" stroke="#000000" stroke-width="1" display="none"/> 	  	</marker><marker id="_B676083E-D5FD-4B76-9CA1-1659FFCACC11end" refX="15" refY="6" markerUnits="userSpaceOnUse" markerWidth="15" markerHeight="12" orient="auto" fill="#000000" stroke="#000000"> 	  		<path id="_B676083E-D5FD-4B76-9CA1-1659FFCACC11frame2" d="M 0 1 L 15 6 L 0 11z" fill="#000000" stroke="#000000" stroke-linejoin="round" stroke-width="2"/> 	  	</marker><marker id="_9A7B7A2C-EE34-4183-8165-D75EC7625D8Fstart" refX="1" refY="5" markerUnits="userSpaceOnUse" markerWidth="17" markerHeight="11" orient="auto" fill="#000000" stroke="#000000"> 	  		<path id="_9A7B7A2C-EE34-4183-8165-D75EC7625D8Fconditional" d="M 0 5 L 8 0 L 16 5 L 8 10 L 0 5" fill="white" stroke="#000000" stroke-width="1" display="none"/> 			<path id="_9A7B7A2C-EE34-4183-8165-D75EC7625D8Fdefault" d="M 5 0 L 11 10" fill="white" stroke="#000000" stroke-width="1" display="none"/> 	  	</marker><marker id="_9A7B7A2C-EE34-4183-8165-D75EC7625D8Fend" refX="15" refY="6" markerUnits="userSpaceOnUse" markerWidth="15" markerHeight="12" orient="auto" fill="#000000" stroke="#000000"> 	  		<path id="_9A7B7A2C-EE34-4183-8165-D75EC7625D8Fframe2" d="M 0 1 L 15 6 L 0 11z" fill="#000000" stroke="#000000" stroke-linejoin="round" stroke-width="2"/> 	  	</marker></defs><g stroke="none" font-family="Verdana, sans-serif" font-size-adjust="none" font-style="normal" font-variant="normal" font-weight="normal" line-heigth="normal" font-size="12"><g class="stencils" transform="translate(25.000000000000057, 24.999999999999915)"><g class="me"/><g class="children"><g id="_4E2E29D0-EE1B-4A19-BF02-4AEF9B1B5AC4" bpmn2nodeid="_97BDC9A7-504B-4C1E-922F-4B785F18471E"><g class="stencils" transform="translate(212, 73)"><g class="me"><g pointer-events="painted" id="_4E2E29D0-EE1B-4A19-BF02-4AEF9B1B5AC4">         <defs id="_4E2E29D0-EE1B-4A19-BF02-4AEF9B1B5AC4__4E2E29D0-EE1B-4A19-BF02-4AEF9B1B5AC4_3"> 		<radialGradient id="_4E2E29D0-EE1B-4A19-BF02-4AEF9B1B5AC4background" cx="0%" cy="10%" r="100%" fx="20%" fy="10%"> 			<stop offset="0%" stop-color="#ffffff" stop-opacity="1" id="_4E2E29D0-EE1B-4A19-BF02-4AEF9B1B5AC4__4E2E29D0-EE1B-4A19-BF02-4AEF9B1B5AC4_4"/> 			<stop id="_4E2E29D0-EE1B-4A19-BF02-4AEF9B1B5AC4fill_el" offset="100%" stop-color="#ffffff" stop-opacity="1"/> 		</radialGradient> 	</defs> 	   	 	<rect id="_4E2E29D0-EE1B-4A19-BF02-4AEF9B1B5AC4border" oryx:resize="vertical horizontal" x="0" y="0" width="600" height="250" stroke="#000000" stroke-width="1" fill="url(#_4E2E29D0-EE1B-4A19-BF02-4AEF9B1B5AC4background) white"/> 	 	 	 	<path id="_4E2E29D0-EE1B-4A19-BF02-4AEF9B1B5AC4frame2" style="fill:none;stroke-width:1" d="M 0,0 L 0,250" oryx:anchors="left top bottom" stroke="#000000"/> 	 	undefined 	     <text x="50" y="125" oryx:rotate="270" font-size="12" id="_4E2E29D0-EE1B-4A19-BF02-4AEF9B1B5AC4text_name" oryx:align="middle center" oryx:anchors="left" oryx:fittoelem="frame" stroke="black" stroke-width="0pt" letter-spacing="-0.01px" fill="#000000" text-anchor="middle" transform="rotate(270 50 125)" visibility="inherit" oryx:fontSize="12"><tspan x="50" y="125" dy="5">Customer</tspan></text>   </g></g><g class="children" style="overflow:hidden"><g id="_DAA637F7-C774-4ED4-A390-788BA020555D" bpmn2nodeid="processStartEvent"><g class="stencils" transform="translate(103, 110)"><g class="me"><g pointer-events="fill" id="_DAA637F7-C774-4ED4-A390-788BA020555D">        <defs id="_DAA637F7-C774-4ED4-A390-788BA020555D__DAA637F7-C774-4ED4-A390-788BA020555D_5"> 		<radialGradient id="_DAA637F7-C774-4ED4-A390-788BA020555Dbackground" cx="10%" cy="10%" r="100%" fx="10%" fy="10%"> 			<stop offset="0%" stop-color="#ffffff" stop-opacity="1" id="_DAA637F7-C774-4ED4-A390-788BA020555D__DAA637F7-C774-4ED4-A390-788BA020555D_6"/> 			<stop id="_DAA637F7-C774-4ED4-A390-788BA020555Dfill_el" offset="100%" stop-color="#9acd32" stop-opacity="1"/> 		</radialGradient> 	</defs> 	     <circle id="_DAA637F7-C774-4ED4-A390-788BA020555Dbg_frame" cx="15" cy="15" r="15" stroke="#000000" fill="url(#_DAA637F7-C774-4ED4-A390-788BA020555Dbackground) white" stroke-width="1" style="stroke-dasharray: 5.5, 3"/>      <circle id="_DAA637F7-C774-4ED4-A390-788BA020555Dframe" cx="15" cy="15" r="15" stroke="#000000" fill="none" stroke-width="1" display="inherit"/>  	<text font-size="11" id="_DAA637F7-C774-4ED4-A390-788BA020555Dtext_name" x="15" y="32" oryx:align="top center" stroke="black" stroke-width="0pt" letter-spacing="-0.01px" fill="#000000" text-anchor="middle" transform="rotate(0 15 32)" visibility="inherit" oryx:fontSize="11"><tspan x="15" y="32" dy="11">Order</tspan><tspan x="15" y="32" dy="22">screen</tspan><tspan x="15" y="32" dy="33">opened</tspan></text>   </g></g><g class="children" style="overflow:hidden"/><g class="edge"/></g><g class="controls"><g class="dockers"/><g class="magnets" transform="translate(103, 110)"><g pointer-events="all" display="none" transform="translate(7, 7)"><circle cx="8" cy="8" r="4" stroke="none" fill="red" fill-opacity="0.3"/></g></g></g></g><g id="_8AE9A3ED-8CC6-4AAA-96E1-5E9E4B78DA60" bpmn2nodeid="_126383C8-6C7D-48EB-A932-AFA932A07E9B"><g class="stencils" transform="translate(178, 85)"><g class="me"><g pointer-events="fill" oryx:minimumSize="80 60" id="_8AE9A3ED-8CC6-4AAA-96E1-5E9E4B78DA60">   	<defs id="_8AE9A3ED-8CC6-4AAA-96E1-5E9E4B78DA60__8AE9A3ED-8CC6-4AAA-96E1-5E9E4B78DA60_17"> 		<radialGradient id="_8AE9A3ED-8CC6-4AAA-96E1-5E9E4B78DA60background" cx="10%" cy="10%" r="100%" fx="10%" fy="10%"> 			<stop offset="0%" stop-color="#ffffff" stop-opacity="1" id="_8AE9A3ED-8CC6-4AAA-96E1-5E9E4B78DA60__8AE9A3ED-8CC6-4AAA-96E1-5E9E4B78DA60_18"/> 			<stop id="_8AE9A3ED-8CC6-4AAA-96E1-5E9E4B78DA60fill_el" offset="100%" stop-color="#fafad2" stop-opacity="1"/> 		</radialGradient> 	</defs> 	<rect id="_8AE9A3ED-8CC6-4AAA-96E1-5E9E4B78DA60text_frame" oryx:anchors="bottom top right left" x="1" y="1" width="94" height="79" rx="10" ry="10" stroke="none" stroke-width="0" fill="none"/> 	<rect id="_8AE9A3ED-8CC6-4AAA-96E1-5E9E4B78DA60bg_frame" oryx:anchors="bottom top right left" x="0" y="0" width="100" height="80" rx="10" ry="10" stroke="#000000" stroke-width="1" fill="url(#_8AE9A3ED-8CC6-4AAA-96E1-5E9E4B78DA60background) #ffffcc"/> 	<rect id="_8AE9A3ED-8CC6-4AAA-96E1-5E9E4B78DA60frame" oryx:resize="vertical horizontal" oryx:anchors="bottom top right left" x="0" y="0" width="100" height="80" rx="10" ry="10" stroke="#000000" stroke-width="4" fill="none"/> 	<rect id="_8AE9A3ED-8CC6-4AAA-96E1-5E9E4B78DA60frame2" oryx:anchors="top bottom left right" oryx:resize="vertical horizontal" x="2.5" y="2.5" width="95" height="75" rx="8" ry="8" stroke="#000000" stroke-width="1" fill="none"/>     	<text font-size="12" id="_8AE9A3ED-8CC6-4AAA-96E1-5E9E4B78DA60text_name" x="50" y="40" oryx:align="middle center" oryx:fittoelem="text_frame" stroke="black" stroke-width="0pt" letter-spacing="-0.01px" fill="#000000" text-anchor="middle" transform="rotate(0 50 40)" visibility="inherit" oryx:fontSize="12"><tspan x="50" y="40" dy="5">Login</tspan></text>          <a id="_8AE9A3ED-8CC6-4AAA-96E1-5E9E4B78DA60pimg" onclick="parent.designeropenintab(&quot;Login.bpmn2&quot;,&quot;default://master@MySpace/WashIt/src/main/resources/com/myspace/washit/Login.bpmn2&quot;);" xlink:href="">	 	<g id="_8AE9A3ED-8CC6-4AAA-96E1-5E9E4B78DA60b" oryx:anchors="bottom"> 		<rect id="_8AE9A3ED-8CC6-4AAA-96E1-5E9E4B78DA60frame3" oryx:anchors="bottom" x="44" y="66" width="14" height="14" fill="none" stroke="#000000" stroke-width="1"/> 		<path id="_8AE9A3ED-8CC6-4AAA-96E1-5E9E4B78DA60frame4" oryx:anchors="bottom" fill="none" stroke="#000000" d="M51 68 v10 M 46 73 h10" stroke-width="1"/> 	</g> 	</a> 	<g id="_8AE9A3ED-8CC6-4AAA-96E1-5E9E4B78DA60none"/> 	undefined 	  	undefined 	undefined 	 	 	undefined 	undefined   </g></g><g class="children" style="overflow:hidden"/><g class="edge"/></g><g class="controls"><g class="dockers"/><g class="magnets" transform="translate(178, 85)"><g pointer-events="all" display="none" transform="translate(-7, 12)"><circle cx="8" cy="8" r="4" stroke="none" fill="red" fill-opacity="0.3"/></g><g pointer-events="all" display="none" transform="translate(-7, 32)"><circle cx="8" cy="8" r="4" stroke="none" fill="red" fill-opacity="0.3"/></g><g pointer-events="all" display="none" transform="translate(-7, 52)"><circle cx="8" cy="8" r="4" stroke="none" fill="red" fill-opacity="0.3"/></g><g pointer-events="all" display="none" transform="translate(17, 71)"><circle cx="8" cy="8" r="4" stroke="none" fill="red" fill-opacity="0.3"/></g><g pointer-events="all" display="none" transform="translate(42, 71)"><circle cx="8" cy="8" r="4" stroke="none" fill="red" fill-opacity="0.3"/></g><g pointer-events="all" display="none" transform="translate(67, 71)"><circle cx="8" cy="8" r="4" stroke="none" fill="red" fill-opacity="0.3"/></g><g pointer-events="all" display="none" transform="translate(91, 12)"><circle cx="8" cy="8" r="4" stroke="none" fill="red" fill-opacity="0.3"/></g><g pointer-events="all" display="none" transform="translate(91, 32)"><circle cx="8" cy="8" r="4" stroke="none" fill="red" fill-opacity="0.3"/></g><g pointer-events="all" display="none" transform="translate(91, 52)"><circle cx="8" cy="8" r="4" stroke="none" fill="red" fill-opacity="0.3"/></g><g pointer-events="all" display="none" transform="translate(17, -7)"><circle cx="8" cy="8" r="4" stroke="none" fill="red" fill-opacity="0.3"/></g><g pointer-events="all" display="none" transform="translate(42, -7)"><circle cx="8" cy="8" r="4" stroke="none" fill="red" fill-opacity="0.3"/></g><g pointer-events="all" display="none" transform="translate(67, -7)"><circle cx="8" cy="8" r="4" stroke="none" fill="red" fill-opacity="0.3"/></g><g pointer-events="all" display="none" transform="translate(42, 32)"><circle cx="8" cy="8" r="4" stroke="none" fill="red" fill-opacity="0.3"/></g></g></g></g><g id="_E834D594-A0F6-4EE0-BFF5-3532E82EF04D" bpmn2nodeid="_AD68BB65-077E-4E91-B56F-073EC7B1C382"><g class="stencils" transform="translate(523, 111)"><g class="me"><g pointer-events="fill" id="_E834D594-A0F6-4EE0-BFF5-3532E82EF04D">      <defs id="_E834D594-A0F6-4EE0-BFF5-3532E82EF04D__E834D594-A0F6-4EE0-BFF5-3532E82EF04D_5"> 		<radialGradient id="_E834D594-A0F6-4EE0-BFF5-3532E82EF04Dbackground" cx="10%" cy="10%" r="100%" fx="10%" fy="10%"> 			<stop offset="0%" stop-color="#ffffff" stop-opacity="1" id="_E834D594-A0F6-4EE0-BFF5-3532E82EF04D__E834D594-A0F6-4EE0-BFF5-3532E82EF04D_6"/> 			<stop id="_E834D594-A0F6-4EE0-BFF5-3532E82EF04Dfill_el" offset="100%" stop-color="#ff6347" stop-opacity="1"/> 		</radialGradient> 	</defs> 	     <circle id="_E834D594-A0F6-4EE0-BFF5-3532E82EF04Dbg_frame" cx="14" cy="14" r="14" stroke="#000000" fill="url(#_E834D594-A0F6-4EE0-BFF5-3532E82EF04Dbackground) white" stroke-width="3"/> 	<text font-size="11" id="_E834D594-A0F6-4EE0-BFF5-3532E82EF04Dtext_name" x="14" y="30" oryx:align="top center" stroke="black" stroke-width="0pt" letter-spacing="-0.01px" fill="#000000" text-anchor="middle" transform="rotate(0 14 30)" visibility="inherit" oryx:fontSize="11"><tspan x="14" y="30" dy="11">Order</tspan><tspan x="14" y="30" dy="22">created</tspan></text>   </g></g><g class="children" style="overflow:hidden"/><g class="edge"/></g><g class="controls"><g class="dockers"/><g class="magnets" transform="translate(523, 111)"><g pointer-events="all" display="none" transform="translate(6, 6)"><circle cx="8" cy="8" r="4" stroke="none" fill="red" fill-opacity="0.3"/></g></g></g></g><g id="_82A4DC81-138C-4764-AA1B-8ECB140DC58F" bpmn2nodeid="_294BD87A-3144-4D9A-B1ED-682D933CC415"><g class="stencils" transform="translate(318, 85)"><g class="me"><g pointer-events="fill" oryx:minimumSize="50 40" id="_82A4DC81-138C-4764-AA1B-8ECB140DC58F">   	<defs id="_82A4DC81-138C-4764-AA1B-8ECB140DC58F__82A4DC81-138C-4764-AA1B-8ECB140DC58F_17"> 		<radialGradient id="_82A4DC81-138C-4764-AA1B-8ECB140DC58Fbackground" cx="10%" cy="10%" r="100%" fx="10%" fy="10%"> 			<stop offset="0%" stop-color="#ffffff" stop-opacity="1" id="_82A4DC81-138C-4764-AA1B-8ECB140DC58F__82A4DC81-138C-4764-AA1B-8ECB140DC58F_18"/> 			<stop id="_82A4DC81-138C-4764-AA1B-8ECB140DC58Ffill_el" offset="100%" stop-color="#fafad2" stop-opacity="1"/> 		</radialGradient> 		<radialGradient id="_82A4DC81-138C-4764-AA1B-8ECB140DC58Fborderbackground" cx="10%" cy="10%" r="100%" fx="10%" fy="10%"> 			<stop offset="0%" stop-color="#ffffff" stop-opacity="1" id="_82A4DC81-138C-4764-AA1B-8ECB140DC58F__82A4DC81-138C-4764-AA1B-8ECB140DC58F_19"/> 			<stop id="_82A4DC81-138C-4764-AA1B-8ECB140DC58Ffill_border" offset="100%" stop-color="#000000" stop-opacity="1" stroke="#000000"/> 		</radialGradient> 	</defs> 	 	<rect id="_82A4DC81-138C-4764-AA1B-8ECB140DC58Ftext_frame" oryx:anchors="bottom top right left" x="1" y="1" width="94" height="79" rx="10" ry="10" stroke="none" stroke-width="0" fill="none"/> 	<rect id="_82A4DC81-138C-4764-AA1B-8ECB140DC58Fbg_frame" oryx:resize="vertical horizontal" x="0" y="0" width="100" height="80" rx="10" ry="10" stroke="#000000" stroke-width="1" fill="url(#_82A4DC81-138C-4764-AA1B-8ECB140DC58Fbackground) #ffffcc"/> 		<text font-size="12" id="_82A4DC81-138C-4764-AA1B-8ECB140DC58Ftext_name" x="50" y="40" oryx:align="middle center" oryx:fittoelem="text_frame" stroke="black" text-anchor="middle" stroke-width="0pt" letter-spacing="-0.01px" fill="#000000" transform="rotate(0 50 40)" visibility="inherit" oryx:fontSize="12"><tspan x="50" y="40" dy="5">aaa</tspan></text>     <g id="_82A4DC81-138C-4764-AA1B-8ECB140DC58FmanualTask" transform="scale(0.7,0.7) translate(8,8)" display="none">     	<path oryx:anchors="top left" id="_82A4DC81-138C-4764-AA1B-8ECB140DC58Fframe" style="opacity:1;fill:none;fill-opacity:1;stroke-width:1" d="M0.5,3.751l4.083-3.25c0,0,11.166,0.083,12.083,0.083s-2.417,2.917-1.5,2.917     s11.667,0,12.584,0c1.166,1.708-0.168,3.167-0.834,3.667s0.875,1.917-1,4.417c-0.75,0.25,0.75,1.875-1.333,3.333     c-1.167,0.583,0.583,1.542-1.25,2.833c-1.167,0-20.833,0.083-20.833,0.083l-2-1.333V3.751z" stroke="#000000"/> 		<path id="_82A4DC81-138C-4764-AA1B-8ECB140DC58Fframe2" oryx:anchors="top left" style="opacity:1;fill:none;stroke-width:2" d="M 13.5 7 L 27 7" stroke="#000000"/> 		<path id="_82A4DC81-138C-4764-AA1B-8ECB140DC58Fframe3" oryx:anchors="top left" style="opacity:1;fill:none;stroke-width:2" d="M 13.5 11 L 26 11" stroke="#000000"/> 		<path id="_82A4DC81-138C-4764-AA1B-8ECB140DC58Fframe4" oryx:anchors="top left" style="opacity:1;fill:none;stroke-width:1.5" d="M 14 14.5 L 25 14.5" stroke="#000000"/> 		<path id="_82A4DC81-138C-4764-AA1B-8ECB140DC58Fframe5" oryx:anchors="top left" style="opacity:1;fill:none;stroke-width:1.5" d="M 8.2 3.1 L 15 3.1" stroke="#000000"/> 	</g> 	 	<g id="_82A4DC81-138C-4764-AA1B-8ECB140DC58FbusinessRuleTask" transform="scale(0.7,0.7) translate(8,8)" display="none"> 		<rect id="_82A4DC81-138C-4764-AA1B-8ECB140DC58Fframe6" oryx:anchors="top left" x="0" y="0" width="22" height="4" style="opacity:1;fill:#B3B1B3;fill-opacity:1;" stroke="#000000"/> 		<rect id="_82A4DC81-138C-4764-AA1B-8ECB140DC58Fframe7" oryx:anchors="top left" x="0" y="4" style="opacity:1;fill:none;" width="22" height="12" stroke="#000000"/> 		<path id="_82A4DC81-138C-4764-AA1B-8ECB140DC58Fframe8" oryx:anchors="top left" style="opacity:1;fill:none;" d="M 0 10 L 22 10" stroke="#000000"/> 		<path id="_82A4DC81-138C-4764-AA1B-8ECB140DC58Fframe9" oryx:anchors="top left" style="opacity:1; fill:none;" d="M 7 4 L 7 16" stroke="#000000"/> 	</g> 	 	<g id="_82A4DC81-138C-4764-AA1B-8ECB140DC58FscriptTask" transform="scale(0.7,0.7) translate(8,8)" display="inherit"> 		<path oryx:anchors="top left" id="_82A4DC81-138C-4764-AA1B-8ECB140DC58Fframe10" style="opacity:1;fill:none;" stroke="#000000" d="M6.402,0.5h14.5c0,0-5.833,2.833-5.833,5.583s4.417,6,4.417,9.167    s-4.167,5.083-4.167,5.083H0.235c0,0,5-2.667,5-5s-4.583-6.75-4.583-9.25S6.402,0.5,6.402,0.5z"/> 		<path oryx:anchors="top left" id="_82A4DC81-138C-4764-AA1B-8ECB140DC58Fframe11" style="opacity:1;fill:none;stroke-width:1.5" d="M 3.5 4.5 L 13.5 4.5" stroke="#000000"/> 		<path oryx:anchors="top left" id="_82A4DC81-138C-4764-AA1B-8ECB140DC58Fframe12" style="opacity:1;fill:none;stroke-width:1.5" d="M 3.8 8.5 L 13.8 8.5" stroke="#000000"/> 		<path oryx:anchors="top left" id="_82A4DC81-138C-4764-AA1B-8ECB140DC58Fframe13" style="opacity:1;fill:none;stroke-width:1.5" d="M 6.3 12.5 L 16.3 12.5" stroke="#000000"/> 		<path oryx:anchors="top left" id="_82A4DC81-138C-4764-AA1B-8ECB140DC58Fframe14" style="opacity:1;fill:none;stroke-width:1.5" d="M 6.5 16.5 L 16.5 16.5" stroke="#000000"/> 	</g> 	 	<g id="_82A4DC81-138C-4764-AA1B-8ECB140DC58FuserTask" transform="scale(0.7,0.7) translate(8,8)" display="none"> 		<path id="_82A4DC81-138C-4764-AA1B-8ECB140DC58Fframe15" oryx:anchors="top left" style="opacity:1;fill:#F4F6F7" stroke="#000000" d="M0.585,24.167h24.083v-7.833c0,0-2.333-3.917-7.083-5.167h-9.25    c-4.417,1.333-7.833,5.75-7.833,5.75L0.585,24.167z"/> 		<path id="_82A4DC81-138C-4764-AA1B-8ECB140DC58Fframe16" oryx:anchors="top left" style="opacity:1;fill:none" d="M 6 20 L 6 24" stroke="#000000"/> 		<path id="_82A4DC81-138C-4764-AA1B-8ECB140DC58Fframe17" oryx:anchors="top left" style="opacity:1;fill:none" d="M 20 20 L 20 24" stroke="#000000"/> 		<circle id="_82A4DC81-138C-4764-AA1B-8ECB140DC58Fframe18" oryx:anchors="top left" fill="black" cx="13.002" cy="5.916" r="5.417" stroke="#000000"/> 		<path id="_82A4DC81-138C-4764-AA1B-8ECB140DC58Fframe19" oryx:anchors="top left" style="opacity:1;fill:#F0EFF0;" stroke="#000000" d="M8.043,7.083c0,0,2.814-2.426,5.376-1.807s4.624-0.693,4.624-0.693    c0.25,1.688,0.042,3.75-1.458,5.584c0,0,1.083,0.75,1.083,1.5s0.125,1.875-1,3s-5.5,1.25-6.75,0S8.668,12.834,8.668,12    s0.583-1.25,1.25-1.917C8.835,9.5,7.419,7.708,8.043,7.083z"/> 	</g> 	 	<g id="_82A4DC81-138C-4764-AA1B-8ECB140DC58FserviceTask" transform="scale(0.7,0.7) translate(8,8)" display="none"> 		<polygon oryx:anchors="top left" id="_82A4DC81-138C-4764-AA1B-8ECB140DC58Fframe20" style="opacity:1;fill:#ffffff" stroke="#000000" points="15.392,5.064 17.954,2.502 20.347,4.895 17.786,7.455     18.729,9.732 22.353,9.732 22.353,13.115 18.731,13.115 17.788,15.392 20.351,17.955 17.958,20.347 15.397,17.786 13.12,18.729     13.12,22.353 9.737,22.353 9.737,18.731 7.46,17.788 4.897,20.35 2.506,17.958 5.066,15.397 4.124,13.12 0.5,13.12 0.5,9.737     4.121,9.737 5.065,7.461 2.503,4.898 4.895,2.506 7.455,5.066 9.732,4.125 9.732,0.5 13.116,0.5 13.116,4.121 "/> 		<circle oryx:anchors="top left" id="_82A4DC81-138C-4764-AA1B-8ECB140DC58Fframe21" style="opacity:1;fill:none" stroke="#000000" cx="11.427" cy="11.426" r="3.714"/> 		<polygon oryx:anchors="top left" id="_82A4DC81-138C-4764-AA1B-8ECB140DC58Fframe22" style="opacity:1;fill:#ffffff" stroke="#000000" points="21.392,11.064 23.954,8.502 26.347,10.895 23.786,13.455     24.729,15.732 28.353,15.732 28.353,19.115 24.731,19.115 23.788,21.392 26.351,23.955 23.958,26.347 21.397,23.786 19.12,24.729     19.12,28.353 15.737,28.353 15.737,24.731 13.46,23.788 10.897,26.35 8.506,23.958 11.066,21.397 10.124,19.12 6.5,19.12     6.5,15.737 10.121,15.737 11.065,13.461 8.503,10.898 10.895,8.506 13.455,11.066 15.732,10.125 15.732,6.5 19.116,6.5     19.116,10.121 "/> 		<circle oryx:anchors="top left" id="_82A4DC81-138C-4764-AA1B-8ECB140DC58Fframe23" style="opacity:1;fill:none;" stroke="#000000" cx="17.427" cy="17.426" r="3.714"/> 	</g> 	 	<g id="_82A4DC81-138C-4764-AA1B-8ECB140DC58FsendTask" display="none"> 		<path id="_82A4DC81-138C-4764-AA1B-8ECB140DC58Fstframe24" oryx:anchors="left top" stroke="#FFFFFF" fill="black" stroke-width="1" d="M8,11 L8,21 L24,21 L24,11 L16,17z"/> 		<path id="_82A4DC81-138C-4764-AA1B-8ECB140DC58Fstframe25" oryx:anchors="left top" stroke="#FFFFFF" fill="black" stroke-width="1" d="M7,10 L16,17 L25 10z"/> 	</g> 	 	<g id="_82A4DC81-138C-4764-AA1B-8ECB140DC58FreceiveTask" display="none"> 		<path id="_82A4DC81-138C-4764-AA1B-8ECB140DC58Fframe26" oryx:anchors="left top" stroke="#000000" fill="none" stroke-width="1" d="M8,11 L8,21 L24,21 L24,11z M8,11 L16,17 L24,11"/> 	</g> 	 	<g id="_82A4DC81-138C-4764-AA1B-8ECB140DC58Fnone" display="none"/>  	<g id="_82A4DC81-138C-4764-AA1B-8ECB140DC58Fsequential" display="none">         <path oryx:anchors="bottom" fill="none" stroke="#000000" stroke-width="2" d="M46,76h10M46,72h10 M46,68h10" id="_82A4DC81-138C-4764-AA1B-8ECB140DC58F__82A4DC81-138C-4764-AA1B-8ECB140DC58F_20"/>     </g>   </g></g><g class="children" style="overflow:hidden"/><g class="edge"/></g><g class="controls"><g class="dockers"/><g class="magnets" transform="translate(318, 85)"><g pointer-events="all" display="none" transform="translate(-7, 12)"><circle cx="8" cy="8" r="4" stroke="none" fill="red" fill-opacity="0.3"/></g><g pointer-events="all" display="none" transform="translate(-7, 32)"><circle cx="8" cy="8" r="4" stroke="none" fill="red" fill-opacity="0.3"/></g><g pointer-events="all" display="none" transform="translate(-7, 52)"><circle cx="8" cy="8" r="4" stroke="none" fill="red" fill-opacity="0.3"/></g><g pointer-events="all" display="none" transform="translate(17, 71)"><circle cx="8" cy="8" r="4" stroke="none" fill="red" fill-opacity="0.3"/></g><g pointer-events="all" display="none" transform="translate(42, 71)"><circle cx="8" cy="8" r="4" stroke="none" fill="red" fill-opacity="0.3"/></g><g pointer-events="all" display="none" transform="translate(67, 71)"><circle cx="8" cy="8" r="4" stroke="none" fill="red" fill-opacity="0.3"/></g><g pointer-events="all" display="none" transform="translate(91, 12)"><circle cx="8" cy="8" r="4" stroke="none" fill="red" fill-opacity="0.3"/></g><g pointer-events="all" display="none" transform="translate(91, 32)"><circle cx="8" cy="8" r="4" stroke="none" fill="red" fill-opacity="0.3"/></g><g pointer-events="all" display="none" transform="translate(91, 52)"><circle cx="8" cy="8" r="4" stroke="none" fill="red" fill-opacity="0.3"/></g><g pointer-events="all" display="none" transform="translate(17, -7)"><circle cx="8" cy="8" r="4" stroke="none" fill="red" fill-opacity="0.3"/></g><g pointer-events="all" display="none" transform="translate(42, -7)"><circle cx="8" cy="8" r="4" stroke="none" fill="red" fill-opacity="0.3"/></g><g pointer-events="all" display="none" transform="translate(67, -7)"><circle cx="8" cy="8" r="4" stroke="none" fill="red" fill-opacity="0.3"/></g><g pointer-events="all" display="none" transform="translate(42, 32)"><circle cx="8" cy="8" r="4" stroke="none" fill="red" fill-opacity="0.3"/></g></g></g></g></g><g class="edge"/></g><g class="controls"><g class="dockers"/><g class="magnets" transform="translate(212, 73)"><g pointer-events="all" display="none" transform="translate(292, 117)"><circle cx="8" cy="8" r="4" stroke="none" fill="red" fill-opacity="0.3"/></g></g></g></g><g id="_5D95945C-00B7-495D-9A97-40827FC812F2" bpmn2nodeid="_71F31B9C-86E7-46A2-99F0-B39FCBD305DE"><g class="stencils" transform="translate(212, 360)"><g class="me"><g pointer-events="painted" id="_5D95945C-00B7-495D-9A97-40827FC812F2">         <defs id="_5D95945C-00B7-495D-9A97-40827FC812F2__5D95945C-00B7-495D-9A97-40827FC812F2_3"> 		<radialGradient id="_5D95945C-00B7-495D-9A97-40827FC812F2background" cx="0%" cy="10%" r="100%" fx="20%" fy="10%"> 			<stop offset="0%" stop-color="#ffffff" stop-opacity="1" id="_5D95945C-00B7-495D-9A97-40827FC812F2__5D95945C-00B7-495D-9A97-40827FC812F2_4"/> 			<stop id="_5D95945C-00B7-495D-9A97-40827FC812F2fill_el" offset="100%" stop-color="#ffffff" stop-opacity="1"/> 		</radialGradient> 	</defs> 	   	 	<rect id="_5D95945C-00B7-495D-9A97-40827FC812F2border" oryx:resize="vertical horizontal" x="0" y="0" width="600" height="250" stroke="#000000" stroke-width="1" fill="url(#_5D95945C-00B7-495D-9A97-40827FC812F2background) white"/> 	 	 	 	<path id="_5D95945C-00B7-495D-9A97-40827FC812F2frame2" style="fill:none;stroke-width:1" d="M 0,0 L 0,250" oryx:anchors="left top bottom" stroke="#000000"/> 	 	undefined 	     <text x="50" y="125" oryx:rotate="270" font-size="12" id="_5D95945C-00B7-495D-9A97-40827FC812F2text_name" oryx:align="middle center" oryx:anchors="left" oryx:fittoelem="frame" stroke="black" stroke-width="0pt" letter-spacing="-0.01px" fill="#000000" text-anchor="middle" transform="rotate(270 50 125)" visibility="inherit" oryx:fontSize="12"><tspan x="50" y="125" dy="5">Ordering system</tspan></text>   </g></g><g class="children" style="overflow:hidden"/><g class="edge"/></g><g class="controls"><g class="dockers"/><g class="magnets" transform="translate(212, 360)"><g pointer-events="all" display="none" transform="translate(292, 117)"><circle cx="8" cy="8" r="4" stroke="none" fill="red" fill-opacity="0.3"/></g></g></g></g></g><g class="edge"><g id="_606364D7-6C46-42E3-823C-C2FE38CDD19E" bpmn2nodeid="_C25DB61C-CA53-4CC6-86D5-109E79DBB676"><g class="stencils"><g class="me"><g pointer-events="painted" bpmn2nodeid="_EE021C79-9C72-4643-B571-B59250AF09BB"><path id="_606364D7-6C46-42E3-823C-C2FE38CDD19E_1" d="M345.609375 198L389.15625 198 " stroke="#000000" fill="none" stroke-width="2" stroke-linecap="round" stroke-linejoin="round" marker-start="url(#_606364D7-6C46-42E3-823C-C2FE38CDD19Estart)" marker-end="url(#_606364D7-6C46-42E3-823C-C2FE38CDD19Eend)"/></g><text id="_606364D7-6C46-42E3-823C-C2FE38CDD19Etext_name" font-size="12" x="359.609375" y="184" oryx:edgePosition="startTop" stroke-width="0pt" letter-spacing="-0.01px" fill="#000000" text-anchor="start" transform="rotate(360 345.609375 198)" visibility="inherit" oryx:fontSize="12"/></g><g class="children" style="overflow:hidden"/><g class="edge"/></g><g class="controls"><g class="dockers"/><g class="magnets"/></g></g><g id="_B676083E-D5FD-4B76-9CA1-1659FFCACC11" bpmn2nodeid="_2EB91580-E742-460E-BB86-FC73B997F8D0"><g class="stencils"><g class="me"><g pointer-events="painted" bpmn2nodeid="_2EB91580-E742-460E-BB86-FC73B997F8D0"><path id="_B676083E-D5FD-4B76-9CA1-1659FFCACC11_1" d="M490.21875 198L529.78125 198 " stroke="#000000" fill="none" stroke-width="2" stroke-linecap="round" stroke-linejoin="round" marker-start="url(#_B676083E-D5FD-4B76-9CA1-1659FFCACC11start)" marker-end="url(#_B676083E-D5FD-4B76-9CA1-1659FFCACC11end)"/></g><text id="_B676083E-D5FD-4B76-9CA1-1659FFCACC11text_name" font-size="12" x="504.21875" y="184" oryx:edgePosition="startTop" stroke-width="0pt" letter-spacing="-0.01px" fill="#000000" text-anchor="start" transform="rotate(360 490.21875 198)" visibility="inherit" oryx:fontSize="12"/></g><g class="children" style="overflow:hidden"/><g class="edge"/></g><g class="controls"><g class="dockers"/><g class="magnets"/></g></g><g id="_9A7B7A2C-EE34-4183-8165-D75EC7625D8F" bpmn2nodeid="_EC42E00D-75DD-4A73-986D-75BF8D591761"><g class="stencils"><g class="me"><g pointer-events="painted" bpmn2nodeid="_EC42E00D-75DD-4A73-986D-75BF8D591761"><path id="_9A7B7A2C-EE34-4183-8165-D75EC7625D8F_1" d="M630.51171875 198L734.796875 198 " stroke="#000000" fill="none" stroke-width="2" stroke-linecap="round" stroke-linejoin="round" marker-start="url(#_9A7B7A2C-EE34-4183-8165-D75EC7625D8Fstart)" marker-end="url(#_9A7B7A2C-EE34-4183-8165-D75EC7625D8Fend)"/></g><text id="_9A7B7A2C-EE34-4183-8165-D75EC7625D8Ftext_name" font-size="12" x="644.51171875" y="184" oryx:edgePosition="startTop" stroke-width="0pt" letter-spacing="-0.01px" fill="#000000" text-anchor="start" transform="rotate(360 630.51171875 198)" visibility="inherit" oryx:fontSize="12"/></g><g class="children" style="overflow:hidden"/><g class="edge"/></g><g class="controls"><g class="dockers"/><g class="magnets"/></g></g></g><text id="_5F217959-C4FA-4850-A1D8-C4B03523C935" style="stroke-width:1;fill:rgb(177,194,214);font-family:arial;font-weight:bold" font-size="12" onclick="ORYX.Plugins.CanvasTitle.openTextualAnalysis()" onmouseover="ORYX.Plugins.CanvasTitle.addToolTip('_5F217959-C4FA-4850-A1D8-C4B03523C935')" transform="translate(10, 20)">OrderCreation v.1.0 (src.OrderCreation)</text></g></g></svg>