<svg xmlns="http://www.w3.org/2000/svg" xmlns:oryx="http://oryx-editor.org" id="_3D28FB66-66D6-47AB-B72F-31B3F52B906A" width="1480" height="659" xmlns:xlink="http://www.w3.org/1999/xlink" xmlns:svg="http://www.w3.org/2000/svg"><defs><marker id="_132107F3-07D1-4577-B025-01249901C895start" refX="1" refY="5" markerUnits="userSpaceOnUse" markerWidth="17" markerHeight="11" orient="auto" fill="#000000" stroke="#000000"> 	  		<path id="_132107F3-07D1-4577-B025-01249901C895conditional" d="M 0 5 L 8 0 L 16 5 L 8 10 L 0 5" fill="white" stroke="#000000" stroke-width="1" display="none"/> 			<path id="_132107F3-07D1-4577-B025-01249901C895default" d="M 5 0 L 11 10" fill="white" stroke="#000000" stroke-width="1" display="none"/> 	  	</marker><marker id="_132107F3-07D1-4577-B025-01249901C895end" refX="15" refY="6" markerUnits="userSpaceOnUse" markerWidth="15" markerHeight="12" orient="auto" fill="#000000" stroke="#000000"> 	  		<path id="_132107F3-07D1-4577-B025-01249901C895frame2" d="M 0 1 L 15 6 L 0 11z" fill="#000000" stroke="#000000" stroke-linejoin="round" stroke-width="2"/> 	  	</marker><marker id="_8F7BDB0D-DB44-436A-80FC-3C03C484E8DFstart" refX="1" refY="5" markerUnits="userSpaceOnUse" markerWidth="17" markerHeight="11" orient="auto" fill="#000000" stroke="#000000"> 	  		<path id="_8F7BDB0D-DB44-436A-80FC-3C03C484E8DFconditional" d="M 0 5 L 8 0 L 16 5 L 8 10 L 0 5" fill="white" stroke="#000000" stroke-width="1" display="none"/> 			<path id="_8F7BDB0D-DB44-436A-80FC-3C03C484E8DFdefault" d="M 5 0 L 11 10" fill="white" stroke="#000000" stroke-width="1" display="none"/> 	  	</marker><marker id="_8F7BDB0D-DB44-436A-80FC-3C03C484E8DFend" refX="15" refY="6" markerUnits="userSpaceOnUse" markerWidth="15" markerHeight="12" orient="auto" fill="#000000" stroke="#000000"> 	  		<path id="_8F7BDB0D-DB44-436A-80FC-3C03C484E8DFframe2" d="M 0 1 L 15 6 L 0 11z" fill="#000000" stroke="#000000" stroke-linejoin="round" stroke-width="2"/> 	  	</marker><marker id="_3AD1BAEE-A686-4C97-810A-BC26324176BAstart" refX="1" refY="5" markerUnits="userSpaceOnUse" markerWidth="17" markerHeight="11" orient="auto" fill="#000000" stroke="#000000"> 	  		<path id="_3AD1BAEE-A686-4C97-810A-BC26324176BAconditional" d="M 0 5 L 8 0 L 16 5 L 8 10 L 0 5" fill="white" stroke="#000000" stroke-width="1" display="none"/> 			<path id="_3AD1BAEE-A686-4C97-810A-BC26324176BAdefault" d="M 5 0 L 11 10" fill="white" stroke="#000000" stroke-width="1" display="none"/> 	  	</marker><marker id="_3AD1BAEE-A686-4C97-810A-BC26324176BAend" refX="15" refY="6" markerUnits="userSpaceOnUse" markerWidth="15" markerHeight="12" orient="auto" fill="#000000" stroke="#000000"> 	  		<path id="_3AD1BAEE-A686-4C97-810A-BC26324176BAframe2" d="M 0 1 L 15 6 L 0 11z" fill="#000000" stroke="#000000" stroke-linejoin="round" stroke-width="2"/> 	  	</marker></defs><g stroke="none" font-family="Verdana, sans-serif" font-size-adjust="none" font-style="normal" font-variant="normal" font-weight="normal" line-heigth="normal" font-size="12"><g class="stencils" transform="translate(25.000000000000057, 24.999999999999915)"><g class="me"/><g class="children"><g id="_2DA58E7C-5D3E-4DEE-85A6-1701B4CCFFF5" bpmn2nodeid="_97BDC9A7-504B-4C1E-922F-4B785F18471E"><g class="stencils" transform="translate(212, 73)"><g class="me"><g pointer-events="painted" id="_2DA58E7C-5D3E-4DEE-85A6-1701B4CCFFF5">         <defs id="_2DA58E7C-5D3E-4DEE-85A6-1701B4CCFFF5__2DA58E7C-5D3E-4DEE-85A6-1701B4CCFFF5_3"> 		<radialGradient id="_2DA58E7C-5D3E-4DEE-85A6-1701B4CCFFF5background" cx="0%" cy="10%" r="100%" fx="20%" fy="10%"> 			<stop offset="0%" stop-color="#ffffff" stop-opacity="1" id="_2DA58E7C-5D3E-4DEE-85A6-1701B4CCFFF5__2DA58E7C-5D3E-4DEE-85A6-1701B4CCFFF5_4"/> 			<stop id="_2DA58E7C-5D3E-4DEE-85A6-1701B4CCFFF5fill_el" offset="100%" stop-color="#ffffff" stop-opacity="1"/> 		</radialGradient> 	</defs> 	   	 	<rect id="_2DA58E7C-5D3E-4DEE-85A6-1701B4CCFFF5border" oryx:resize="vertical horizontal" x="0" y="0" width="1217" height="249" stroke="#000000" stroke-width="1" fill="url(#_2DA58E7C-5D3E-4DEE-85A6-1701B4CCFFF5background) white"/> 	 	 	 	<path id="_2DA58E7C-5D3E-4DEE-85A6-1701B4CCFFF5frame2" style="fill:none;stroke-width:1" d=" M0 0  L0 249 " oryx:anchors="left top bottom" stroke="#000000"/> 	 	undefined 	     <text x="50" y="124.5" oryx:rotate="270" font-size="12" id="_2DA58E7C-5D3E-4DEE-85A6-1701B4CCFFF5text_name" oryx:align="middle center" oryx:anchors="left" oryx:fittoelem="frame" stroke="black" stroke-width="0pt" letter-spacing="-0.01px" fill="#000000" text-anchor="middle" transform="rotate(270 50 124.5)" visibility="inherit" oryx:fontSize="12"/>   </g></g><g class="children" style="overflow:hidden"><g id="_5EE19E20-9A8F-4CA2-AD6A-0478EB9B67C0" bpmn2nodeid="processStartEvent"><g class="stencils" transform="translate(103, 110)"><g class="me"><g pointer-events="fill" id="_5EE19E20-9A8F-4CA2-AD6A-0478EB9B67C0">        <defs id="_5EE19E20-9A8F-4CA2-AD6A-0478EB9B67C0__5EE19E20-9A8F-4CA2-AD6A-0478EB9B67C0_5"> 		<radialGradient id="_5EE19E20-9A8F-4CA2-AD6A-0478EB9B67C0background" cx="10%" cy="10%" r="100%" fx="10%" fy="10%"> 			<stop offset="0%" stop-color="#ffffff" stop-opacity="1" id="_5EE19E20-9A8F-4CA2-AD6A-0478EB9B67C0__5EE19E20-9A8F-4CA2-AD6A-0478EB9B67C0_6"/> 			<stop id="_5EE19E20-9A8F-4CA2-AD6A-0478EB9B67C0fill_el" offset="100%" stop-color="#9acd32" stop-opacity="1"/> 		</radialGradient> 	</defs> 	     <circle id="_5EE19E20-9A8F-4CA2-AD6A-0478EB9B67C0bg_frame" cx="15" cy="15" r="15" stroke="#000000" fill="url(#_5EE19E20-9A8F-4CA2-AD6A-0478EB9B67C0background) white" stroke-width="1" style="stroke-dasharray: 5.5, 3"/>      <circle id="_5EE19E20-9A8F-4CA2-AD6A-0478EB9B67C0frame" cx="15" cy="15" r="15" stroke="#000000" fill="none" stroke-width="1" display="inherit"/>  	<text font-size="11" id="_5EE19E20-9A8F-4CA2-AD6A-0478EB9B67C0text_name" x="15" y="32" oryx:align="top center" stroke="black" stroke-width="0pt" letter-spacing="-0.01px" fill="#000000" text-anchor="middle" transform="rotate(0 15 32)" visibility="inherit" oryx:fontSize="11"/>   </g></g><g class="children" style="overflow:hidden"/><g class="edge"/></g><g class="controls"><g class="dockers"/><g class="magnets" transform="translate(103, 110)"><g pointer-events="all" display="none" transform="translate(7, 7)"><circle cx="8" cy="8" r="4" stroke="none" fill="red" fill-opacity="0.3"/></g></g></g></g><g id="_284589A1-EB9C-4404-8003-3DF893558E95" bpmn2nodeid="_AD68BB65-077E-4E91-B56F-073EC7B1C382"><g class="stencils" transform="translate(523, 111)"><g class="me"><g pointer-events="fill" id="_284589A1-EB9C-4404-8003-3DF893558E95">      <defs id="_284589A1-EB9C-4404-8003-3DF893558E95__284589A1-EB9C-4404-8003-3DF893558E95_5"> 		<radialGradient id="_284589A1-EB9C-4404-8003-3DF893558E95background" cx="10%" cy="10%" r="100%" fx="10%" fy="10%"> 			<stop offset="0%" stop-color="#ffffff" stop-opacity="1" id="_284589A1-EB9C-4404-8003-3DF893558E95__284589A1-EB9C-4404-8003-3DF893558E95_6"/> 			<stop id="_284589A1-EB9C-4404-8003-3DF893558E95fill_el" offset="100%" stop-color="#ff6347" stop-opacity="1"/> 		</radialGradient> 	</defs> 	     <circle id="_284589A1-EB9C-4404-8003-3DF893558E95bg_frame" cx="14" cy="14" r="14" stroke="#000000" fill="url(#_284589A1-EB9C-4404-8003-3DF893558E95background) white" stroke-width="3"/> 	<text font-size="11" id="_284589A1-EB9C-4404-8003-3DF893558E95text_name" x="14" y="30" oryx:align="top center" stroke="black" stroke-width="0pt" letter-spacing="-0.01px" fill="#000000" text-anchor="middle" transform="rotate(0 14 30)" visibility="inherit" oryx:fontSize="11"/>   </g></g><g class="children" style="overflow:hidden"/><g class="edge"/></g><g class="controls"><g class="dockers"/><g class="magnets" transform="translate(523, 111)"><g pointer-events="all" display="none" transform="translate(6, 6)"><circle cx="8" cy="8" r="4" stroke="none" fill="red" fill-opacity="0.3"/></g></g></g></g><g id="_62DA2D15-2BAC-480D-A4CA-ED98D7124066" bpmn2nodeid="_546FB0CA-6E82-4BFE-97BF-811C9E1FF34B"><g class="stencils" transform="translate(328, 85)"><g class="me"><g pointer-events="fill" oryx:minimumSize="50 40" id="_62DA2D15-2BAC-480D-A4CA-ED98D7124066">   	<defs id="_62DA2D15-2BAC-480D-A4CA-ED98D7124066__62DA2D15-2BAC-480D-A4CA-ED98D7124066_17"> 		<radialGradient id="_62DA2D15-2BAC-480D-A4CA-ED98D7124066background" cx="10%" cy="10%" r="100%" fx="10%" fy="10%"> 			<stop offset="0%" stop-color="#ffffff" stop-opacity="1" id="_62DA2D15-2BAC-480D-A4CA-ED98D7124066__62DA2D15-2BAC-480D-A4CA-ED98D7124066_18"/> 			<stop id="_62DA2D15-2BAC-480D-A4CA-ED98D7124066fill_el" offset="100%" stop-color="#fafad2" stop-opacity="1"/> 		</radialGradient> 		<radialGradient id="_62DA2D15-2BAC-480D-A4CA-ED98D7124066borderbackground" cx="10%" cy="10%" r="100%" fx="10%" fy="10%"> 			<stop offset="0%" stop-color="#ffffff" stop-opacity="1" id="_62DA2D15-2BAC-480D-A4CA-ED98D7124066__62DA2D15-2BAC-480D-A4CA-ED98D7124066_19"/> 			<stop id="_62DA2D15-2BAC-480D-A4CA-ED98D7124066fill_border" offset="100%" stop-color="#000000" stop-opacity="1" stroke="#000000"/> 		</radialGradient> 	</defs> 	 	<rect id="_62DA2D15-2BAC-480D-A4CA-ED98D7124066text_frame" oryx:anchors="bottom top right left" x="1" y="1" width="94" height="79" rx="10" ry="10" stroke="none" stroke-width="0" fill="none"/> 	<rect id="_62DA2D15-2BAC-480D-A4CA-ED98D7124066bg_frame" oryx:resize="vertical horizontal" x="0" y="0" width="100" height="80" rx="10" ry="10" stroke="#000000" stroke-width="1" fill="url(#_62DA2D15-2BAC-480D-A4CA-ED98D7124066background) #ffffcc"/> 		<text font-size="12" id="_62DA2D15-2BAC-480D-A4CA-ED98D7124066text_name" x="50" y="40" oryx:align="middle center" oryx:fittoelem="text_frame" stroke="black" text-anchor="middle" stroke-width="0pt" letter-spacing="-0.01px" fill="#000000" transform="rotate(0 50 40)" visibility="inherit" oryx:fontSize="12"/>     <g id="_62DA2D15-2BAC-480D-A4CA-ED98D7124066manualTask" transform="scale(0.7,0.7) translate(8,8)" display="none">     	<path oryx:anchors="top left" id="_62DA2D15-2BAC-480D-A4CA-ED98D7124066frame" style="opacity:1;fill:none;fill-opacity:1;stroke-width:1" d="M0.5,3.751l4.083-3.25c0,0,11.166,0.083,12.083,0.083s-2.417,2.917-1.5,2.917     s11.667,0,12.584,0c1.166,1.708-0.168,3.167-0.834,3.667s0.875,1.917-1,4.417c-0.75,0.25,0.75,1.875-1.333,3.333     c-1.167,0.583,0.583,1.542-1.25,2.833c-1.167,0-20.833,0.083-20.833,0.083l-2-1.333V3.751z" stroke="#000000"/> 		<path id="_62DA2D15-2BAC-480D-A4CA-ED98D7124066frame2" oryx:anchors="top left" style="opacity:1;fill:none;stroke-width:2" d="M 13.5 7 L 27 7" stroke="#000000"/> 		<path id="_62DA2D15-2BAC-480D-A4CA-ED98D7124066frame3" oryx:anchors="top left" style="opacity:1;fill:none;stroke-width:2" d="M 13.5 11 L 26 11" stroke="#000000"/> 		<path id="_62DA2D15-2BAC-480D-A4CA-ED98D7124066frame4" oryx:anchors="top left" style="opacity:1;fill:none;stroke-width:1.5" d="M 14 14.5 L 25 14.5" stroke="#000000"/> 		<path id="_62DA2D15-2BAC-480D-A4CA-ED98D7124066frame5" oryx:anchors="top left" style="opacity:1;fill:none;stroke-width:1.5" d="M 8.2 3.1 L 15 3.1" stroke="#000000"/> 	</g> 	 	<g id="_62DA2D15-2BAC-480D-A4CA-ED98D7124066businessRuleTask" transform="scale(0.7,0.7) translate(8,8)" display="none"> 		<rect id="_62DA2D15-2BAC-480D-A4CA-ED98D7124066frame6" oryx:anchors="top left" x="0" y="0" width="22" height="4" style="opacity:1;fill:#B3B1B3;fill-opacity:1;" stroke="#000000"/> 		<rect id="_62DA2D15-2BAC-480D-A4CA-ED98D7124066frame7" oryx:anchors="top left" x="0" y="4" style="opacity:1;fill:none;" width="22" height="12" stroke="#000000"/> 		<path id="_62DA2D15-2BAC-480D-A4CA-ED98D7124066frame8" oryx:anchors="top left" style="opacity:1;fill:none;" d="M 0 10 L 22 10" stroke="#000000"/> 		<path id="_62DA2D15-2BAC-480D-A4CA-ED98D7124066frame9" oryx:anchors="top left" style="opacity:1; fill:none;" d="M 7 4 L 7 16" stroke="#000000"/> 	</g> 	 	<g id="_62DA2D15-2BAC-480D-A4CA-ED98D7124066scriptTask" transform="scale(0.7,0.7) translate(8,8)" display="none"> 		<path oryx:anchors="top left" id="_62DA2D15-2BAC-480D-A4CA-ED98D7124066frame10" style="opacity:1;fill:none;" stroke="#000000" d="M6.402,0.5h14.5c0,0-5.833,2.833-5.833,5.583s4.417,6,4.417,9.167    s-4.167,5.083-4.167,5.083H0.235c0,0,5-2.667,5-5s-4.583-6.75-4.583-9.25S6.402,0.5,6.402,0.5z"/> 		<path oryx:anchors="top left" id="_62DA2D15-2BAC-480D-A4CA-ED98D7124066frame11" style="opacity:1;fill:none;stroke-width:1.5" d="M 3.5 4.5 L 13.5 4.5" stroke="#000000"/> 		<path oryx:anchors="top left" id="_62DA2D15-2BAC-480D-A4CA-ED98D7124066frame12" style="opacity:1;fill:none;stroke-width:1.5" d="M 3.8 8.5 L 13.8 8.5" stroke="#000000"/> 		<path oryx:anchors="top left" id="_62DA2D15-2BAC-480D-A4CA-ED98D7124066frame13" style="opacity:1;fill:none;stroke-width:1.5" d="M 6.3 12.5 L 16.3 12.5" stroke="#000000"/> 		<path oryx:anchors="top left" id="_62DA2D15-2BAC-480D-A4CA-ED98D7124066frame14" style="opacity:1;fill:none;stroke-width:1.5" d="M 6.5 16.5 L 16.5 16.5" stroke="#000000"/> 	</g> 	 	<g id="_62DA2D15-2BAC-480D-A4CA-ED98D7124066userTask" transform="scale(0.7,0.7) translate(8,8)" display="inherit"> 		<path id="_62DA2D15-2BAC-480D-A4CA-ED98D7124066frame15" oryx:anchors="top left" style="opacity:1;fill:#F4F6F7" stroke="#000000" d="M0.585,24.167h24.083v-7.833c0,0-2.333-3.917-7.083-5.167h-9.25    c-4.417,1.333-7.833,5.75-7.833,5.75L0.585,24.167z"/> 		<path id="_62DA2D15-2BAC-480D-A4CA-ED98D7124066frame16" oryx:anchors="top left" style="opacity:1;fill:none" d="M 6 20 L 6 24" stroke="#000000"/> 		<path id="_62DA2D15-2BAC-480D-A4CA-ED98D7124066frame17" oryx:anchors="top left" style="opacity:1;fill:none" d="M 20 20 L 20 24" stroke="#000000"/> 		<circle id="_62DA2D15-2BAC-480D-A4CA-ED98D7124066frame18" oryx:anchors="top left" fill="black" cx="13.002" cy="5.916" r="5.417" stroke="#000000"/> 		<path id="_62DA2D15-2BAC-480D-A4CA-ED98D7124066frame19" oryx:anchors="top left" style="opacity:1;fill:#F0EFF0;" stroke="#000000" d="M8.043,7.083c0,0,2.814-2.426,5.376-1.807s4.624-0.693,4.624-0.693    c0.25,1.688,0.042,3.75-1.458,5.584c0,0,1.083,0.75,1.083,1.5s0.125,1.875-1,3s-5.5,1.25-6.75,0S8.668,12.834,8.668,12    s0.583-1.25,1.25-1.917C8.835,9.5,7.419,7.708,8.043,7.083z"/> 	</g> 	 	<g id="_62DA2D15-2BAC-480D-A4CA-ED98D7124066serviceTask" transform="scale(0.7,0.7) translate(8,8)" display="none"> 		<polygon oryx:anchors="top left" id="_62DA2D15-2BAC-480D-A4CA-ED98D7124066frame20" style="opacity:1;fill:#ffffff" stroke="#000000" points="15.392,5.064 17.954,2.502 20.347,4.895 17.786,7.455     18.729,9.732 22.353,9.732 22.353,13.115 18.731,13.115 17.788,15.392 20.351,17.955 17.958,20.347 15.397,17.786 13.12,18.729     13.12,22.353 9.737,22.353 9.737,18.731 7.46,17.788 4.897,20.35 2.506,17.958 5.066,15.397 4.124,13.12 0.5,13.12 0.5,9.737     4.121,9.737 5.065,7.461 2.503,4.898 4.895,2.506 7.455,5.066 9.732,4.125 9.732,0.5 13.116,0.5 13.116,4.121 "/> 		<circle oryx:anchors="top left" id="_62DA2D15-2BAC-480D-A4CA-ED98D7124066frame21" style="opacity:1;fill:none" stroke="#000000" cx="11.427" cy="11.426" r="3.714"/> 		<polygon oryx:anchors="top left" id="_62DA2D15-2BAC-480D-A4CA-ED98D7124066frame22" style="opacity:1;fill:#ffffff" stroke="#000000" points="21.392,11.064 23.954,8.502 26.347,10.895 23.786,13.455     24.729,15.732 28.353,15.732 28.353,19.115 24.731,19.115 23.788,21.392 26.351,23.955 23.958,26.347 21.397,23.786 19.12,24.729     19.12,28.353 15.737,28.353 15.737,24.731 13.46,23.788 10.897,26.35 8.506,23.958 11.066,21.397 10.124,19.12 6.5,19.12     6.5,15.737 10.121,15.737 11.065,13.461 8.503,10.898 10.895,8.506 13.455,11.066 15.732,10.125 15.732,6.5 19.116,6.5     19.116,10.121 "/> 		<circle oryx:anchors="top left" id="_62DA2D15-2BAC-480D-A4CA-ED98D7124066frame23" style="opacity:1;fill:none;" stroke="#000000" cx="17.427" cy="17.426" r="3.714"/> 	</g> 	 	<g id="_62DA2D15-2BAC-480D-A4CA-ED98D7124066sendTask" display="none"> 		<path id="_62DA2D15-2BAC-480D-A4CA-ED98D7124066stframe24" oryx:anchors="left top" stroke="#FFFFFF" fill="black" stroke-width="1" d="M8,11 L8,21 L24,21 L24,11 L16,17z"/> 		<path id="_62DA2D15-2BAC-480D-A4CA-ED98D7124066stframe25" oryx:anchors="left top" stroke="#FFFFFF" fill="black" stroke-width="1" d="M7,10 L16,17 L25 10z"/> 	</g> 	 	<g id="_62DA2D15-2BAC-480D-A4CA-ED98D7124066receiveTask" display="none"> 		<path id="_62DA2D15-2BAC-480D-A4CA-ED98D7124066frame26" oryx:anchors="left top" stroke="#000000" fill="none" stroke-width="1" d="M8,11 L8,21 L24,21 L24,11z M8,11 L16,17 L24,11"/> 	</g> 	 	<g id="_62DA2D15-2BAC-480D-A4CA-ED98D7124066none" display="inherit"/>  	<g id="_62DA2D15-2BAC-480D-A4CA-ED98D7124066sequential" display="none">         <path oryx:anchors="bottom" fill="none" stroke="#000000" stroke-width="2" d="M46,76h10M46,72h10 M46,68h10" id="_62DA2D15-2BAC-480D-A4CA-ED98D7124066__62DA2D15-2BAC-480D-A4CA-ED98D7124066_20"/>     </g>   </g></g><g class="children" style="overflow:hidden"/><g class="edge"/></g><g class="controls"><g class="dockers"/><g class="magnets" transform="translate(328, 85)"><g pointer-events="all" display="none" transform="translate(-7, 12)"><circle cx="8" cy="8" r="4" stroke="none" fill="red" fill-opacity="0.3"/></g><g pointer-events="all" display="none" transform="translate(-7, 32)"><circle cx="8" cy="8" r="4" stroke="none" fill="red" fill-opacity="0.3"/></g><g pointer-events="all" display="none" transform="translate(-7, 52)"><circle cx="8" cy="8" r="4" stroke="none" fill="red" fill-opacity="0.3"/></g><g pointer-events="all" display="none" transform="translate(17, 71)"><circle cx="8" cy="8" r="4" stroke="none" fill="red" fill-opacity="0.3"/></g><g pointer-events="all" display="none" transform="translate(42, 71)"><circle cx="8" cy="8" r="4" stroke="none" fill="red" fill-opacity="0.3"/></g><g pointer-events="all" display="none" transform="translate(67, 71)"><circle cx="8" cy="8" r="4" stroke="none" fill="red" fill-opacity="0.3"/></g><g pointer-events="all" display="none" transform="translate(91, 12)"><circle cx="8" cy="8" r="4" stroke="none" fill="red" fill-opacity="0.3"/></g><g pointer-events="all" display="none" transform="translate(91, 32)"><circle cx="8" cy="8" r="4" stroke="none" fill="red" fill-opacity="0.3"/></g><g pointer-events="all" display="none" transform="translate(91, 52)"><circle cx="8" cy="8" r="4" stroke="none" fill="red" fill-opacity="0.3"/></g><g pointer-events="all" display="none" transform="translate(17, -7)"><circle cx="8" cy="8" r="4" stroke="none" fill="red" fill-opacity="0.3"/></g><g pointer-events="all" display="none" transform="translate(42, -7)"><circle cx="8" cy="8" r="4" stroke="none" fill="red" fill-opacity="0.3"/></g><g pointer-events="all" display="none" transform="translate(67, -7)"><circle cx="8" cy="8" r="4" stroke="none" fill="red" fill-opacity="0.3"/></g><g pointer-events="all" display="none" transform="translate(42, 32)"><circle cx="8" cy="8" r="4" stroke="none" fill="red" fill-opacity="0.3"/></g></g></g></g><g id="_400F8D79-E945-4321-BF32-B54D4E351E8C" bpmn2nodeid="_AD93EF46-C820-4308-9B57-FE30B8E3DE11"><g class="stencils" transform="translate(178, 85)"><g class="me"><g pointer-events="fill" oryx:minimumSize="80 60" id="_400F8D79-E945-4321-BF32-B54D4E351E8C">   	<defs id="_400F8D79-E945-4321-BF32-B54D4E351E8C__400F8D79-E945-4321-BF32-B54D4E351E8C_17"> 		<radialGradient id="_400F8D79-E945-4321-BF32-B54D4E351E8Cbackground" cx="10%" cy="10%" r="100%" fx="10%" fy="10%"> 			<stop offset="0%" stop-color="#ffffff" stop-opacity="1" id="_400F8D79-E945-4321-BF32-B54D4E351E8C__400F8D79-E945-4321-BF32-B54D4E351E8C_18"/> 			<stop id="_400F8D79-E945-4321-BF32-B54D4E351E8Cfill_el" offset="100%" stop-color="#fafad2" stop-opacity="1"/> 		</radialGradient> 	</defs> 	<rect id="_400F8D79-E945-4321-BF32-B54D4E351E8Ctext_frame" oryx:anchors="bottom top right left" x="1" y="1" width="94" height="79" rx="10" ry="10" stroke="none" stroke-width="0" fill="none"/> 	<rect id="_400F8D79-E945-4321-BF32-B54D4E351E8Cbg_frame" oryx:anchors="bottom top right left" x="0" y="0" width="100" height="80" rx="10" ry="10" stroke="#000000" stroke-width="1" fill="url(#_400F8D79-E945-4321-BF32-B54D4E351E8Cbackground) #ffffcc"/> 	<rect id="_400F8D79-E945-4321-BF32-B54D4E351E8Cframe" oryx:resize="vertical horizontal" oryx:anchors="bottom top right left" x="0" y="0" width="100" height="80" rx="10" ry="10" stroke="#000000" stroke-width="4" fill="none"/> 	<rect id="_400F8D79-E945-4321-BF32-B54D4E351E8Cframe2" oryx:anchors="top bottom left right" oryx:resize="vertical horizontal" x="2.5" y="2.5" width="95" height="75" rx="8" ry="8" stroke="#000000" stroke-width="1" fill="none"/>     	<text font-size="12" id="_400F8D79-E945-4321-BF32-B54D4E351E8Ctext_name" x="50" y="40" oryx:align="middle center" oryx:fittoelem="text_frame" stroke="black" stroke-width="0pt" letter-spacing="-0.01px" fill="#000000" text-anchor="middle" transform="rotate(0 50 40)" visibility="inherit" oryx:fontSize="12"/>          <a id="_400F8D79-E945-4321-BF32-B54D4E351E8Cpimg" onclick="parent.designeropenintab(&quot;Login.bpmn2&quot;,&quot;default://master@MySpace/WashIt/src/main/resources/com/myspace/washit/Login.bpmn2&quot;);" xlink:href="">	 	<g id="_400F8D79-E945-4321-BF32-B54D4E351E8Cb" oryx:anchors="bottom"> 		<rect id="_400F8D79-E945-4321-BF32-B54D4E351E8Cframe3" oryx:anchors="bottom" x="44" y="66" width="14" height="14" fill="none" stroke="#000000" stroke-width="1"/> 		<path id="_400F8D79-E945-4321-BF32-B54D4E351E8Cframe4" oryx:anchors="bottom" fill="none" stroke="#000000" d="M51 68 v10 M 46 73 h10" stroke-width="1"/> 	</g> 	</a> 	<g id="_400F8D79-E945-4321-BF32-B54D4E351E8Cnone"/> 	undefined 	  	undefined 	undefined 	 	 	undefined 	undefined   </g></g><g class="children" style="overflow:hidden"/><g class="edge"/></g><g class="controls"><g class="dockers"/><g class="magnets" transform="translate(178, 85)"><g pointer-events="all" display="none" transform="translate(-7, 12)"><circle cx="8" cy="8" r="4" stroke="none" fill="red" fill-opacity="0.3"/></g><g pointer-events="all" display="none" transform="translate(-7, 32)"><circle cx="8" cy="8" r="4" stroke="none" fill="red" fill-opacity="0.3"/></g><g pointer-events="all" display="none" transform="translate(-7, 52)"><circle cx="8" cy="8" r="4" stroke="none" fill="red" fill-opacity="0.3"/></g><g pointer-events="all" display="none" transform="translate(17, 71)"><circle cx="8" cy="8" r="4" stroke="none" fill="red" fill-opacity="0.3"/></g><g pointer-events="all" display="none" transform="translate(42, 71)"><circle cx="8" cy="8" r="4" stroke="none" fill="red" fill-opacity="0.3"/></g><g pointer-events="all" display="none" transform="translate(67, 71)"><circle cx="8" cy="8" r="4" stroke="none" fill="red" fill-opacity="0.3"/></g><g pointer-events="all" display="none" transform="translate(91, 12)"><circle cx="8" cy="8" r="4" stroke="none" fill="red" fill-opacity="0.3"/></g><g pointer-events="all" display="none" transform="translate(91, 32)"><circle cx="8" cy="8" r="4" stroke="none" fill="red" fill-opacity="0.3"/></g><g pointer-events="all" display="none" transform="translate(91, 52)"><circle cx="8" cy="8" r="4" stroke="none" fill="red" fill-opacity="0.3"/></g><g pointer-events="all" display="none" transform="translate(17, -7)"><circle cx="8" cy="8" r="4" stroke="none" fill="red" fill-opacity="0.3"/></g><g pointer-events="all" display="none" transform="translate(42, -7)"><circle cx="8" cy="8" r="4" stroke="none" fill="red" fill-opacity="0.3"/></g><g pointer-events="all" display="none" transform="translate(67, -7)"><circle cx="8" cy="8" r="4" stroke="none" fill="red" fill-opacity="0.3"/></g><g pointer-events="all" display="none" transform="translate(42, 32)"><circle cx="8" cy="8" r="4" stroke="none" fill="red" fill-opacity="0.3"/></g></g></g></g></g><g class="edge"/></g><g class="controls"><g class="dockers"/><g class="magnets" transform="translate(212, 73)"><g pointer-events="all" display="none" transform="translate(600.5, 116.5)"><circle cx="8" cy="8" r="4" stroke="none" fill="red" fill-opacity="0.3"/></g></g></g></g><g id="_2CD6D836-2223-4189-A002-7CC47CAFA677" bpmn2nodeid="_71F31B9C-86E7-46A2-99F0-B39FCBD305DE"><g class="stencils" transform="translate(212, 360)"><g class="me"><g pointer-events="painted" id="_2CD6D836-2223-4189-A002-7CC47CAFA677">         <defs id="_2CD6D836-2223-4189-A002-7CC47CAFA677__2CD6D836-2223-4189-A002-7CC47CAFA677_3"> 		<radialGradient id="_2CD6D836-2223-4189-A002-7CC47CAFA677background" cx="0%" cy="10%" r="100%" fx="20%" fy="10%"> 			<stop offset="0%" stop-color="#ffffff" stop-opacity="1" id="_2CD6D836-2223-4189-A002-7CC47CAFA677__2CD6D836-2223-4189-A002-7CC47CAFA677_4"/> 			<stop id="_2CD6D836-2223-4189-A002-7CC47CAFA677fill_el" offset="100%" stop-color="#ffffff" stop-opacity="1"/> 		</radialGradient> 	</defs> 	   	 	<rect id="_2CD6D836-2223-4189-A002-7CC47CAFA677border" oryx:resize="vertical horizontal" x="0" y="0" width="1218" height="249" stroke="#000000" stroke-width="1" fill="url(#_2CD6D836-2223-4189-A002-7CC47CAFA677background) white"/> 	 	 	 	<path id="_2CD6D836-2223-4189-A002-7CC47CAFA677frame2" style="fill:none;stroke-width:1" d=" M0 0  L0 249 " oryx:anchors="left top bottom" stroke="#000000"/> 	 	undefined 	     <text x="50" y="124.5" oryx:rotate="270" font-size="12" id="_2CD6D836-2223-4189-A002-7CC47CAFA677text_name" oryx:align="middle center" oryx:anchors="left" oryx:fittoelem="frame" stroke="black" stroke-width="0pt" letter-spacing="-0.01px" fill="#000000" text-anchor="middle" transform="rotate(270 50 124.5)" visibility="inherit" oryx:fontSize="12"/>   </g></g><g class="children" style="overflow:hidden"/><g class="edge"/></g><g class="controls"><g class="dockers"/><g class="magnets" transform="translate(212, 360)"><g pointer-events="all" display="none" transform="translate(601, 116.5)"><circle cx="8" cy="8" r="4" stroke="none" fill="red" fill-opacity="0.3"/></g></g></g></g></g><g class="edge"><g id="_132107F3-07D1-4577-B025-01249901C895" bpmn2nodeid="_C06A6456-D2E5-410C-B707-55F1603E7BD5"><g class="stencils"><g class="me"><g pointer-events="painted" bpmn2nodeid="_E0E04539-4B22-4D36-BCB5-338DBA3B88E6"><path id="_132107F3-07D1-4577-B025-01249901C895_1" d="M640.6875 198L734.3359375 198 " stroke="#000000" fill="none" stroke-width="2" stroke-linecap="round" stroke-linejoin="round" marker-start="url(#_132107F3-07D1-4577-B025-01249901C895start)" marker-end="url(#_132107F3-07D1-4577-B025-01249901C895end)"/></g><text id="_132107F3-07D1-4577-B025-01249901C895text_name" font-size="12" x="654.6875" y="184" oryx:edgePosition="startTop" stroke-width="0pt" letter-spacing="-0.01px" fill="#000000" text-anchor="start" transform="rotate(360 640.6875 198)" visibility="inherit" oryx:fontSize="12"/></g><g class="children" style="overflow:hidden"/><g class="edge"/></g><g class="controls"><g class="dockers"/><g class="magnets"/></g></g><g id="_8F7BDB0D-DB44-436A-80FC-3C03C484E8DF" bpmn2nodeid="_7898E8E0-2307-4B2A-A4A4-6D04B8F55F58"><g class="stencils"><g class="me"><g pointer-events="painted" bpmn2nodeid="_14A2D12F-DAAE-46D5-B338-B9CD4B188BD7"><path id="_8F7BDB0D-DB44-436A-80FC-3C03C484E8DF_1" d="M345.609375 198L389.15625 198 " stroke="#000000" fill="none" stroke-width="2" stroke-linecap="round" stroke-linejoin="round" marker-start="url(#_8F7BDB0D-DB44-436A-80FC-3C03C484E8DFstart)" marker-end="url(#_8F7BDB0D-DB44-436A-80FC-3C03C484E8DFend)"/></g><text id="_8F7BDB0D-DB44-436A-80FC-3C03C484E8DFtext_name" font-size="12" x="359.609375" y="184" oryx:edgePosition="startTop" stroke-width="0pt" letter-spacing="-0.01px" fill="#000000" text-anchor="start" transform="rotate(360 345.609375 198)" visibility="inherit" oryx:fontSize="12"/></g><g class="children" style="overflow:hidden"/><g class="edge"/></g><g class="controls"><g class="dockers"/><g class="magnets"/></g></g><g id="_3AD1BAEE-A686-4C97-810A-BC26324176BA" bpmn2nodeid="_AE2135B8-CD4B-4B40-889A-2AC7E0BDE612"><g class="stencils"><g class="me"><g pointer-events="painted" bpmn2nodeid="_B429711C-AC51-4784-B158-BA92DCD8839D"><path id="_3AD1BAEE-A686-4C97-810A-BC26324176BA_1" d="M490.21875 198L539.78125 198 " stroke="#000000" fill="none" stroke-width="2" stroke-linecap="round" stroke-linejoin="round" marker-start="url(#_3AD1BAEE-A686-4C97-810A-BC26324176BAstart)" marker-end="url(#_3AD1BAEE-A686-4C97-810A-BC26324176BAend)"/></g><text id="_3AD1BAEE-A686-4C97-810A-BC26324176BAtext_name" font-size="12" x="504.21875" y="184" oryx:edgePosition="startTop" stroke-width="0pt" letter-spacing="-0.01px" fill="#000000" text-anchor="start" transform="rotate(360 490.21875 198)" visibility="inherit" oryx:fontSize="12"/></g><g class="children" style="overflow:hidden"/><g class="edge"/></g><g class="controls"><g class="dockers"/><g class="magnets"/></g></g></g></g></g></svg>