<svg xmlns="http://www.w3.org/2000/svg" xmlns:oryx="http://oryx-editor.org" id="_034729EE-B7DD-4FE0-83ED-E0729AEC4F6C" width="862" height="1365.5120849609375" xmlns:xlink="http://www.w3.org/1999/xlink" xmlns:svg="http://www.w3.org/2000/svg"><defs><marker id="_F6DFD39B-8445-448E-88B1-84644E517408start" refX="1" refY="5" markerUnits="userSpaceOnUse" markerWidth="17" markerHeight="11" orient="auto" fill="#000000" stroke="#000000"> 	  		<path id="_F6DFD39B-8445-448E-88B1-84644E517408conditional" d="M 0 5 L 8 0 L 16 5 L 8 10 L 0 5" fill="white" stroke="#000000" stroke-width="1" display="none"/> 			<path id="_F6DFD39B-8445-448E-88B1-84644E517408default" d="M 5 0 L 11 10" fill="white" stroke="#000000" stroke-width="1" display="none"/> 	  	</marker><marker id="_F6DFD39B-8445-448E-88B1-84644E517408end" refX="15" refY="6" markerUnits="userSpaceOnUse" markerWidth="15" markerHeight="12" orient="auto" fill="#000000" stroke="#000000"> 	  		<path id="_F6DFD39B-8445-448E-88B1-84644E517408frame2" d="M 0 1 L 15 6 L 0 11z" fill="#000000" stroke="#000000" stroke-linejoin="round" stroke-width="2"/> 	  	</marker><marker id="_613A477B-281B-4842-A861-984A5058B13Fstart" refX="1" refY="5" markerUnits="userSpaceOnUse" markerWidth="17" markerHeight="11" orient="auto" fill="#000000" stroke="#000000"> 	  		<path id="_613A477B-281B-4842-A861-984A5058B13Fconditional" d="M 0 5 L 8 0 L 16 5 L 8 10 L 0 5" fill="white" stroke="#000000" stroke-width="1" display="none"/> 			<path id="_613A477B-281B-4842-A861-984A5058B13Fdefault" d="M 5 0 L 11 10" fill="white" stroke="#000000" stroke-width="1" display="none"/> 	  	</marker><marker id="_613A477B-281B-4842-A861-984A5058B13Fend" refX="15" refY="6" markerUnits="userSpaceOnUse" markerWidth="15" markerHeight="12" orient="auto" fill="#000000" stroke="#000000"> 	  		<path id="_613A477B-281B-4842-A861-984A5058B13Fframe2" d="M 0 1 L 15 6 L 0 11z" fill="#000000" stroke="#000000" stroke-linejoin="round" stroke-width="2"/> 	  	</marker><marker id="_48F912D4-BC25-4EED-A476-DBB9A37BB878start" refX="1" refY="5" markerUnits="userSpaceOnUse" markerWidth="17" markerHeight="11" orient="auto" fill="#000000" stroke="#000000"> 	  		<path id="_48F912D4-BC25-4EED-A476-DBB9A37BB878conditional" d="M 0 5 L 8 0 L 16 5 L 8 10 L 0 5" fill="white" stroke="#000000" stroke-width="1" display="none"/> 			<path id="_48F912D4-BC25-4EED-A476-DBB9A37BB878default" d="M 5 0 L 11 10" fill="white" stroke="#000000" stroke-width="1" display="none"/> 	  	</marker><marker id="_48F912D4-BC25-4EED-A476-DBB9A37BB878end" refX="15" refY="6" markerUnits="userSpaceOnUse" markerWidth="15" markerHeight="12" orient="auto" fill="#000000" stroke="#000000"> 	  		<path id="_48F912D4-BC25-4EED-A476-DBB9A37BB878frame2" d="M 0 1 L 15 6 L 0 11z" fill="#000000" stroke="#000000" stroke-linejoin="round" stroke-width="2"/> 	  	</marker><marker id="_ADC7C366-542B-4ADF-9927-ECA129189E46start" refX="1" refY="5" markerUnits="userSpaceOnUse" markerWidth="17" markerHeight="11" orient="auto" fill="#000000" stroke="#000000"> 	  		<path id="_ADC7C366-542B-4ADF-9927-ECA129189E46conditional" d="M 0 5 L 8 0 L 16 5 L 8 10 L 0 5" fill="white" stroke="#000000" stroke-width="1" display="none"/> 			<path id="_ADC7C366-542B-4ADF-9927-ECA129189E46default" d="M 5 0 L 11 10" fill="white" stroke="#000000" stroke-width="1" display="none"/> 	  	</marker><marker id="_ADC7C366-542B-4ADF-9927-ECA129189E46end" refX="15" refY="6" markerUnits="userSpaceOnUse" markerWidth="15" markerHeight="12" orient="auto" fill="#000000" stroke="#000000"> 	  		<path id="_ADC7C366-542B-4ADF-9927-ECA129189E46frame2" d="M 0 1 L 15 6 L 0 11z" fill="#000000" stroke="#000000" stroke-linejoin="round" stroke-width="2"/> 	  	</marker></defs><g stroke="none" font-family="Verdana, sans-serif" font-size-adjust="none" font-style="normal" font-variant="normal" font-weight="normal" line-heigth="normal" font-size="12"><g class="stencils" transform="translate(25.000000000000057, 437.7794494628906)"><g class="me"/><g class="children"><g id="_FFB6D458-4D6A-4305-AD11-4A24F462349A" bpmn2nodeid="_97BDC9A7-504B-4C1E-922F-4B785F18471E"><g class="stencils" transform="translate(212, 73)"><g class="me"><g pointer-events="painted" id="_FFB6D458-4D6A-4305-AD11-4A24F462349A">         <defs id="_FFB6D458-4D6A-4305-AD11-4A24F462349A__FFB6D458-4D6A-4305-AD11-4A24F462349A_3"> 		<radialGradient id="_FFB6D458-4D6A-4305-AD11-4A24F462349Abackground" cx="0%" cy="10%" r="100%" fx="20%" fy="10%"> 			<stop offset="0%" stop-color="#ffffff" stop-opacity="1" id="_FFB6D458-4D6A-4305-AD11-4A24F462349A__FFB6D458-4D6A-4305-AD11-4A24F462349A_4"/> 			<stop id="_FFB6D458-4D6A-4305-AD11-4A24F462349Afill_el" offset="100%" stop-color="#ffffff" stop-opacity="1"/> 		</radialGradient> 	</defs> 	   	 	<rect id="_FFB6D458-4D6A-4305-AD11-4A24F462349Aborder" oryx:resize="vertical horizontal" x="0" y="0" width="600" height="250" stroke="#000000" stroke-width="1" fill="url(#_FFB6D458-4D6A-4305-AD11-4A24F462349Abackground) white"/> 	 	 	 	<path id="_FFB6D458-4D6A-4305-AD11-4A24F462349Aframe2" style="fill:none;stroke-width:1" d="M 0,0 L 0,250" oryx:anchors="left top bottom" stroke="#000000"/> 	 	undefined 	     <text x="50" y="125" oryx:rotate="270" font-size="12" id="_FFB6D458-4D6A-4305-AD11-4A24F462349Atext_name" oryx:align="middle center" oryx:anchors="left" oryx:fittoelem="frame" stroke="black" stroke-width="0pt" letter-spacing="-0.01px" fill="#000000" text-anchor="middle" transform="rotate(270 50 125)" visibility="inherit" oryx:fontSize="12"><tspan x="50" y="125" dy="5">Customer</tspan></text>   </g></g><g class="children" style="overflow:hidden"><g id="_4F1E36B0-E15E-461C-98DA-AD2FBE9932C4" bpmn2nodeid="processStartEvent"><g class="stencils" transform="translate(103, 110)"><g class="me"><g pointer-events="fill" id="_4F1E36B0-E15E-461C-98DA-AD2FBE9932C4">        <defs id="_4F1E36B0-E15E-461C-98DA-AD2FBE9932C4__4F1E36B0-E15E-461C-98DA-AD2FBE9932C4_5"> 		<radialGradient id="_4F1E36B0-E15E-461C-98DA-AD2FBE9932C4background" cx="10%" cy="10%" r="100%" fx="10%" fy="10%"> 			<stop offset="0%" stop-color="#ffffff" stop-opacity="1" id="_4F1E36B0-E15E-461C-98DA-AD2FBE9932C4__4F1E36B0-E15E-461C-98DA-AD2FBE9932C4_6"/> 			<stop id="_4F1E36B0-E15E-461C-98DA-AD2FBE9932C4fill_el" offset="100%" stop-color="#9acd32" stop-opacity="1"/> 		</radialGradient> 	</defs> 	     <circle id="_4F1E36B0-E15E-461C-98DA-AD2FBE9932C4bg_frame" cx="15" cy="15" r="15" stroke="#000000" fill="url(#_4F1E36B0-E15E-461C-98DA-AD2FBE9932C4background) white" stroke-width="1" style="stroke-dasharray: 5.5, 3"/>      <circle id="_4F1E36B0-E15E-461C-98DA-AD2FBE9932C4frame" cx="15" cy="15" r="15" stroke="#000000" fill="none" stroke-width="1" display="inherit"/>  	<text font-size="11" id="_4F1E36B0-E15E-461C-98DA-AD2FBE9932C4text_name" x="15" y="32" oryx:align="top center" stroke="black" stroke-width="0pt" letter-spacing="-0.01px" fill="#000000" text-anchor="middle" transform="rotate(0 15 32)" visibility="inherit" oryx:fontSize="11"><tspan x="15" y="32" dy="11">Order</tspan><tspan x="15" y="32" dy="22">screen</tspan><tspan x="15" y="32" dy="33">opened</tspan></text>   </g></g><g class="children" style="overflow:hidden"/><g class="edge"/></g><g class="controls"><g class="dockers"/><g class="magnets" transform="translate(103, 110)"><g pointer-events="all" display="none" transform="translate(7, 7)"><circle cx="8" cy="8" r="4" stroke="none" fill="red" fill-opacity="0.3"/></g></g></g></g><g id="_497BFC5C-CBE4-48EE-8F2A-C01B0238FEFE" bpmn2nodeid="_AD68BB65-077E-4E91-B56F-073EC7B1C382"><g class="stencils" transform="translate(523, 111)"><g class="me"><g pointer-events="fill" id="_497BFC5C-CBE4-48EE-8F2A-C01B0238FEFE">      <defs id="_497BFC5C-CBE4-48EE-8F2A-C01B0238FEFE__497BFC5C-CBE4-48EE-8F2A-C01B0238FEFE_5"> 		<radialGradient id="_497BFC5C-CBE4-48EE-8F2A-C01B0238FEFEbackground" cx="10%" cy="10%" r="100%" fx="10%" fy="10%"> 			<stop offset="0%" stop-color="#ffffff" stop-opacity="1" id="_497BFC5C-CBE4-48EE-8F2A-C01B0238FEFE__497BFC5C-CBE4-48EE-8F2A-C01B0238FEFE_6"/> 			<stop id="_497BFC5C-CBE4-48EE-8F2A-C01B0238FEFEfill_el" offset="100%" stop-color="#ff6347" stop-opacity="1"/> 		</radialGradient> 	</defs> 	     <circle id="_497BFC5C-CBE4-48EE-8F2A-C01B0238FEFEbg_frame" cx="14" cy="14" r="14" stroke="#000000" fill="url(#_497BFC5C-CBE4-48EE-8F2A-C01B0238FEFEbackground) white" stroke-width="3"/> 	<text font-size="11" id="_497BFC5C-CBE4-48EE-8F2A-C01B0238FEFEtext_name" x="14" y="30" oryx:align="top center" stroke="black" stroke-width="0pt" letter-spacing="-0.01px" fill="#000000" text-anchor="middle" transform="rotate(0 14 30)" visibility="inherit" oryx:fontSize="11"><tspan x="14" y="30" dy="11" id="ext-gen626">Order</tspan><tspan x="14" y="30" dy="22" id="ext-gen841">created</tspan></text>   </g></g><g class="children" style="overflow:hidden"/><g class="edge"/></g><g class="controls"><g class="dockers"/><g class="magnets" transform="translate(523, 111)"><g pointer-events="all" display="none" transform="translate(6, 6)"><circle cx="8" cy="8" r="4" stroke="none" fill="red" fill-opacity="0.3"/></g></g></g></g><g id="_5DCFC2DC-416F-4FD9-8B97-B8E467591A7D" bpmn2nodeid="_546FB0CA-6E82-4BFE-97BF-811C9E1FF34B"><g class="stencils" transform="translate(328, 85)"><g class="me"><g pointer-events="fill" oryx:minimumSize="50 40" id="_5DCFC2DC-416F-4FD9-8B97-B8E467591A7D">   	<defs id="_5DCFC2DC-416F-4FD9-8B97-B8E467591A7D__5DCFC2DC-416F-4FD9-8B97-B8E467591A7D_17"> 		<radialGradient id="_5DCFC2DC-416F-4FD9-8B97-B8E467591A7Dbackground" cx="10%" cy="10%" r="100%" fx="10%" fy="10%"> 			<stop offset="0%" stop-color="#ffffff" stop-opacity="1" id="_5DCFC2DC-416F-4FD9-8B97-B8E467591A7D__5DCFC2DC-416F-4FD9-8B97-B8E467591A7D_18"/> 			<stop id="_5DCFC2DC-416F-4FD9-8B97-B8E467591A7Dfill_el" offset="100%" stop-color="#fafad2" stop-opacity="1"/> 		</radialGradient> 		<radialGradient id="_5DCFC2DC-416F-4FD9-8B97-B8E467591A7Dborderbackground" cx="10%" cy="10%" r="100%" fx="10%" fy="10%"> 			<stop offset="0%" stop-color="#ffffff" stop-opacity="1" id="_5DCFC2DC-416F-4FD9-8B97-B8E467591A7D__5DCFC2DC-416F-4FD9-8B97-B8E467591A7D_19"/> 			<stop id="_5DCFC2DC-416F-4FD9-8B97-B8E467591A7Dfill_border" offset="100%" stop-color="#000000" stop-opacity="1" stroke="#000000"/> 		</radialGradient> 	</defs> 	 	<rect id="_5DCFC2DC-416F-4FD9-8B97-B8E467591A7Dtext_frame" oryx:anchors="bottom top right left" x="1" y="1" width="94" height="79" rx="10" ry="10" stroke="none" stroke-width="0" fill="none"/> 	<rect id="_5DCFC2DC-416F-4FD9-8B97-B8E467591A7Dbg_frame" oryx:resize="vertical horizontal" x="0" y="0" width="100" height="80" rx="10" ry="10" stroke="#000000" stroke-width="1" fill="url(#_5DCFC2DC-416F-4FD9-8B97-B8E467591A7Dbackground) #ffffcc"/> 		<text font-size="12" id="_5DCFC2DC-416F-4FD9-8B97-B8E467591A7Dtext_name" x="50" y="40" oryx:align="middle center" oryx:fittoelem="text_frame" stroke="black" text-anchor="middle" stroke-width="0pt" letter-spacing="-0.01px" fill="#000000" transform="rotate(0 50 40)" visibility="inherit" oryx:fontSize="12"><tspan x="50" y="40" dy="-1" id="ext-gen820">Choose </tspan><tspan x="50" y="40" dy="11" id="ext-gen609">laundry type</tspan></text>     <g id="_5DCFC2DC-416F-4FD9-8B97-B8E467591A7DmanualTask" transform="scale(0.7,0.7) translate(8,8)" display="none">     	<path oryx:anchors="top left" id="_5DCFC2DC-416F-4FD9-8B97-B8E467591A7Dframe" style="opacity:1;fill:none;fill-opacity:1;stroke-width:1" d="M0.5,3.751l4.083-3.25c0,0,11.166,0.083,12.083,0.083s-2.417,2.917-1.5,2.917     s11.667,0,12.584,0c1.166,1.708-0.168,3.167-0.834,3.667s0.875,1.917-1,4.417c-0.75,0.25,0.75,1.875-1.333,3.333     c-1.167,0.583,0.583,1.542-1.25,2.833c-1.167,0-20.833,0.083-20.833,0.083l-2-1.333V3.751z" stroke="#000000"/> 		<path id="_5DCFC2DC-416F-4FD9-8B97-B8E467591A7Dframe2" oryx:anchors="top left" style="opacity:1;fill:none;stroke-width:2" d="M 13.5 7 L 27 7" stroke="#000000"/> 		<path id="_5DCFC2DC-416F-4FD9-8B97-B8E467591A7Dframe3" oryx:anchors="top left" style="opacity:1;fill:none;stroke-width:2" d="M 13.5 11 L 26 11" stroke="#000000"/> 		<path id="_5DCFC2DC-416F-4FD9-8B97-B8E467591A7Dframe4" oryx:anchors="top left" style="opacity:1;fill:none;stroke-width:1.5" d="M 14 14.5 L 25 14.5" stroke="#000000"/> 		<path id="_5DCFC2DC-416F-4FD9-8B97-B8E467591A7Dframe5" oryx:anchors="top left" style="opacity:1;fill:none;stroke-width:1.5" d="M 8.2 3.1 L 15 3.1" stroke="#000000"/> 	</g> 	 	<g id="_5DCFC2DC-416F-4FD9-8B97-B8E467591A7DbusinessRuleTask" transform="scale(0.7,0.7) translate(8,8)" display="none"> 		<rect id="_5DCFC2DC-416F-4FD9-8B97-B8E467591A7Dframe6" oryx:anchors="top left" x="0" y="0" width="22" height="4" style="opacity:1;fill:#B3B1B3;fill-opacity:1;" stroke="#000000"/> 		<rect id="_5DCFC2DC-416F-4FD9-8B97-B8E467591A7Dframe7" oryx:anchors="top left" x="0" y="4" style="opacity:1;fill:none;" width="22" height="12" stroke="#000000"/> 		<path id="_5DCFC2DC-416F-4FD9-8B97-B8E467591A7Dframe8" oryx:anchors="top left" style="opacity:1;fill:none;" d="M 0 10 L 22 10" stroke="#000000"/> 		<path id="_5DCFC2DC-416F-4FD9-8B97-B8E467591A7Dframe9" oryx:anchors="top left" style="opacity:1; fill:none;" d="M 7 4 L 7 16" stroke="#000000"/> 	</g> 	 	<g id="_5DCFC2DC-416F-4FD9-8B97-B8E467591A7DscriptTask" transform="scale(0.7,0.7) translate(8,8)" display="none"> 		<path oryx:anchors="top left" id="_5DCFC2DC-416F-4FD9-8B97-B8E467591A7Dframe10" style="opacity:1;fill:none;" stroke="#000000" d="M6.402,0.5h14.5c0,0-5.833,2.833-5.833,5.583s4.417,6,4.417,9.167    s-4.167,5.083-4.167,5.083H0.235c0,0,5-2.667,5-5s-4.583-6.75-4.583-9.25S6.402,0.5,6.402,0.5z"/> 		<path oryx:anchors="top left" id="_5DCFC2DC-416F-4FD9-8B97-B8E467591A7Dframe11" style="opacity:1;fill:none;stroke-width:1.5" d="M 3.5 4.5 L 13.5 4.5" stroke="#000000"/> 		<path oryx:anchors="top left" id="_5DCFC2DC-416F-4FD9-8B97-B8E467591A7Dframe12" style="opacity:1;fill:none;stroke-width:1.5" d="M 3.8 8.5 L 13.8 8.5" stroke="#000000"/> 		<path oryx:anchors="top left" id="_5DCFC2DC-416F-4FD9-8B97-B8E467591A7Dframe13" style="opacity:1;fill:none;stroke-width:1.5" d="M 6.3 12.5 L 16.3 12.5" stroke="#000000"/> 		<path oryx:anchors="top left" id="_5DCFC2DC-416F-4FD9-8B97-B8E467591A7Dframe14" style="opacity:1;fill:none;stroke-width:1.5" d="M 6.5 16.5 L 16.5 16.5" stroke="#000000"/> 	</g> 	 	<g id="_5DCFC2DC-416F-4FD9-8B97-B8E467591A7DuserTask" transform="scale(0.7,0.7) translate(8,8)" display="inherit"> 		<path id="_5DCFC2DC-416F-4FD9-8B97-B8E467591A7Dframe15" oryx:anchors="top left" style="opacity:1;fill:#F4F6F7" stroke="#000000" d="M0.585,24.167h24.083v-7.833c0,0-2.333-3.917-7.083-5.167h-9.25    c-4.417,1.333-7.833,5.75-7.833,5.75L0.585,24.167z"/> 		<path id="_5DCFC2DC-416F-4FD9-8B97-B8E467591A7Dframe16" oryx:anchors="top left" style="opacity:1;fill:none" d="M 6 20 L 6 24" stroke="#000000"/> 		<path id="_5DCFC2DC-416F-4FD9-8B97-B8E467591A7Dframe17" oryx:anchors="top left" style="opacity:1;fill:none" d="M 20 20 L 20 24" stroke="#000000"/> 		<circle id="_5DCFC2DC-416F-4FD9-8B97-B8E467591A7Dframe18" oryx:anchors="top left" fill="black" cx="13.002" cy="5.916" r="5.417" stroke="#000000"/> 		<path id="_5DCFC2DC-416F-4FD9-8B97-B8E467591A7Dframe19" oryx:anchors="top left" style="opacity:1;fill:#F0EFF0;" stroke="#000000" d="M8.043,7.083c0,0,2.814-2.426,5.376-1.807s4.624-0.693,4.624-0.693    c0.25,1.688,0.042,3.75-1.458,5.584c0,0,1.083,0.75,1.083,1.5s0.125,1.875-1,3s-5.5,1.25-6.75,0S8.668,12.834,8.668,12    s0.583-1.25,1.25-1.917C8.835,9.5,7.419,7.708,8.043,7.083z"/> 	</g> 	 	<g id="_5DCFC2DC-416F-4FD9-8B97-B8E467591A7DserviceTask" transform="scale(0.7,0.7) translate(8,8)" display="none"> 		<polygon oryx:anchors="top left" id="_5DCFC2DC-416F-4FD9-8B97-B8E467591A7Dframe20" style="opacity:1;fill:#ffffff" stroke="#000000" points="15.392,5.064 17.954,2.502 20.347,4.895 17.786,7.455     18.729,9.732 22.353,9.732 22.353,13.115 18.731,13.115 17.788,15.392 20.351,17.955 17.958,20.347 15.397,17.786 13.12,18.729     13.12,22.353 9.737,22.353 9.737,18.731 7.46,17.788 4.897,20.35 2.506,17.958 5.066,15.397 4.124,13.12 0.5,13.12 0.5,9.737     4.121,9.737 5.065,7.461 2.503,4.898 4.895,2.506 7.455,5.066 9.732,4.125 9.732,0.5 13.116,0.5 13.116,4.121 "/> 		<circle oryx:anchors="top left" id="_5DCFC2DC-416F-4FD9-8B97-B8E467591A7Dframe21" style="opacity:1;fill:none" stroke="#000000" cx="11.427" cy="11.426" r="3.714"/> 		<polygon oryx:anchors="top left" id="_5DCFC2DC-416F-4FD9-8B97-B8E467591A7Dframe22" style="opacity:1;fill:#ffffff" stroke="#000000" points="21.392,11.064 23.954,8.502 26.347,10.895 23.786,13.455     24.729,15.732 28.353,15.732 28.353,19.115 24.731,19.115 23.788,21.392 26.351,23.955 23.958,26.347 21.397,23.786 19.12,24.729     19.12,28.353 15.737,28.353 15.737,24.731 13.46,23.788 10.897,26.35 8.506,23.958 11.066,21.397 10.124,19.12 6.5,19.12     6.5,15.737 10.121,15.737 11.065,13.461 8.503,10.898 10.895,8.506 13.455,11.066 15.732,10.125 15.732,6.5 19.116,6.5     19.116,10.121 "/> 		<circle oryx:anchors="top left" id="_5DCFC2DC-416F-4FD9-8B97-B8E467591A7Dframe23" style="opacity:1;fill:none;" stroke="#000000" cx="17.427" cy="17.426" r="3.714"/> 	</g> 	 	<g id="_5DCFC2DC-416F-4FD9-8B97-B8E467591A7DsendTask" display="none"> 		<path id="_5DCFC2DC-416F-4FD9-8B97-B8E467591A7Dstframe24" oryx:anchors="left top" stroke="#FFFFFF" fill="black" stroke-width="1" d="M8,11 L8,21 L24,21 L24,11 L16,17z"/> 		<path id="_5DCFC2DC-416F-4FD9-8B97-B8E467591A7Dstframe25" oryx:anchors="left top" stroke="#FFFFFF" fill="black" stroke-width="1" d="M7,10 L16,17 L25 10z"/> 	</g> 	 	<g id="_5DCFC2DC-416F-4FD9-8B97-B8E467591A7DreceiveTask" display="none"> 		<path id="_5DCFC2DC-416F-4FD9-8B97-B8E467591A7Dframe26" oryx:anchors="left top" stroke="#000000" fill="none" stroke-width="1" d="M8,11 L8,21 L24,21 L24,11z M8,11 L16,17 L24,11"/> 	</g> 	 	<g id="_5DCFC2DC-416F-4FD9-8B97-B8E467591A7Dnone" display="inherit"/>  	<g id="_5DCFC2DC-416F-4FD9-8B97-B8E467591A7Dsequential" display="none">         <path oryx:anchors="bottom" fill="none" stroke="#000000" stroke-width="2" d="M46,76h10M46,72h10 M46,68h10" id="_5DCFC2DC-416F-4FD9-8B97-B8E467591A7D__5DCFC2DC-416F-4FD9-8B97-B8E467591A7D_20"/>     </g>   </g></g><g class="children" style="overflow:hidden"/><g class="edge"/></g><g class="controls"><g class="dockers"/><g class="magnets" transform="translate(328, 85)"><g pointer-events="all" display="none" transform="translate(-7, 12)"><circle cx="8" cy="8" r="4" stroke="none" fill="red" fill-opacity="0.3"/></g><g pointer-events="all" display="none" transform="translate(-7, 32)"><circle cx="8" cy="8" r="4" stroke="none" fill="red" fill-opacity="0.3"/></g><g pointer-events="all" display="none" transform="translate(-7, 52)"><circle cx="8" cy="8" r="4" stroke="none" fill="red" fill-opacity="0.3"/></g><g pointer-events="all" display="none" transform="translate(17, 71)"><circle cx="8" cy="8" r="4" stroke="none" fill="red" fill-opacity="0.3"/></g><g pointer-events="all" display="none" transform="translate(42, 71)"><circle cx="8" cy="8" r="4" stroke="none" fill="red" fill-opacity="0.3"/></g><g pointer-events="all" display="none" transform="translate(67, 71)"><circle cx="8" cy="8" r="4" stroke="none" fill="red" fill-opacity="0.3"/></g><g pointer-events="all" display="none" transform="translate(91, 12)"><circle cx="8" cy="8" r="4" stroke="none" fill="red" fill-opacity="0.3"/></g><g pointer-events="all" display="none" transform="translate(91, 32)"><circle cx="8" cy="8" r="4" stroke="none" fill="red" fill-opacity="0.3"/></g><g pointer-events="all" display="none" transform="translate(91, 52)"><circle cx="8" cy="8" r="4" stroke="none" fill="red" fill-opacity="0.3"/></g><g pointer-events="all" display="none" transform="translate(17, -7)"><circle cx="8" cy="8" r="4" stroke="none" fill="red" fill-opacity="0.3"/></g><g pointer-events="all" display="none" transform="translate(42, -7)"><circle cx="8" cy="8" r="4" stroke="none" fill="red" fill-opacity="0.3"/></g><g pointer-events="all" display="none" transform="translate(67, -7)"><circle cx="8" cy="8" r="4" stroke="none" fill="red" fill-opacity="0.3"/></g><g pointer-events="all" display="none" transform="translate(42, 32)"><circle cx="8" cy="8" r="4" stroke="none" fill="red" fill-opacity="0.3"/></g></g></g></g><g id="_C1705238-CB35-4C38-8E76-10BA0E8294DF" bpmn2nodeid="_AD93EF46-C820-4308-9B57-FE30B8E3DE11"><g class="stencils" transform="translate(178, 85)"><g class="me"><g pointer-events="fill" oryx:minimumSize="80 60" id="_C1705238-CB35-4C38-8E76-10BA0E8294DF">   	<defs id="_C1705238-CB35-4C38-8E76-10BA0E8294DF__C1705238-CB35-4C38-8E76-10BA0E8294DF_17"> 		<radialGradient id="_C1705238-CB35-4C38-8E76-10BA0E8294DFbackground" cx="10%" cy="10%" r="100%" fx="10%" fy="10%"> 			<stop offset="0%" stop-color="#ffffff" stop-opacity="1" id="_C1705238-CB35-4C38-8E76-10BA0E8294DF__C1705238-CB35-4C38-8E76-10BA0E8294DF_18"/> 			<stop id="_C1705238-CB35-4C38-8E76-10BA0E8294DFfill_el" offset="100%" stop-color="#fafad2" stop-opacity="1"/> 		</radialGradient> 	</defs> 	<rect id="_C1705238-CB35-4C38-8E76-10BA0E8294DFtext_frame" oryx:anchors="bottom top right left" x="1" y="1" width="94" height="79" rx="10" ry="10" stroke="none" stroke-width="0" fill="none"/> 	<rect id="_C1705238-CB35-4C38-8E76-10BA0E8294DFbg_frame" oryx:anchors="bottom top right left" x="0" y="0" width="100" height="80" rx="10" ry="10" stroke="#000000" stroke-width="1" fill="url(#_C1705238-CB35-4C38-8E76-10BA0E8294DFbackground) #ffffcc"/> 	<rect id="_C1705238-CB35-4C38-8E76-10BA0E8294DFframe" oryx:resize="vertical horizontal" oryx:anchors="bottom top right left" x="0" y="0" width="100" height="80" rx="10" ry="10" stroke="#000000" stroke-width="4" fill="none"/> 	<rect id="_C1705238-CB35-4C38-8E76-10BA0E8294DFframe2" oryx:anchors="top bottom left right" oryx:resize="vertical horizontal" x="2.5" y="2.5" width="95" height="75" rx="8" ry="8" stroke="#000000" stroke-width="1" fill="none"/>     	<text font-size="12" id="_C1705238-CB35-4C38-8E76-10BA0E8294DFtext_name" x="50" y="40" oryx:align="middle center" oryx:fittoelem="text_frame" stroke="black" stroke-width="0pt" letter-spacing="-0.01px" fill="#000000" text-anchor="middle" transform="rotate(0 50 40)" visibility="inherit" oryx:fontSize="12"><tspan x="50" y="40" dy="5">Login</tspan></text>          <a id="_C1705238-CB35-4C38-8E76-10BA0E8294DFpimg" onclick="parent.designeropenintab(&quot;Login.bpmn2&quot;,&quot;default://master@MySpace/WashIt/src/main/resources/com/myspace/washit/Login.bpmn2&quot;);" xlink:href="">	 	<g id="_C1705238-CB35-4C38-8E76-10BA0E8294DFb" oryx:anchors="bottom"> 		<rect id="_C1705238-CB35-4C38-8E76-10BA0E8294DFframe3" oryx:anchors="bottom" x="44" y="66" width="14" height="14" fill="none" stroke="#000000" stroke-width="1"/> 		<path id="_C1705238-CB35-4C38-8E76-10BA0E8294DFframe4" oryx:anchors="bottom" fill="none" stroke="#000000" d="M51 68 v10 M 46 73 h10" stroke-width="1"/> 	</g> 	</a> 	<g id="_C1705238-CB35-4C38-8E76-10BA0E8294DFnone"/> 	undefined 	  	undefined 	undefined 	 	 	undefined 	undefined   </g></g><g class="children" style="overflow:hidden"/><g class="edge"/></g><g class="controls"><g class="dockers"/><g class="magnets" transform="translate(178, 85)"><g pointer-events="all" display="none" transform="translate(-7, 12)"><circle cx="8" cy="8" r="4" stroke="none" fill="red" fill-opacity="0.3"/></g><g pointer-events="all" display="none" transform="translate(-7, 32)"><circle cx="8" cy="8" r="4" stroke="none" fill="red" fill-opacity="0.3"/></g><g pointer-events="all" display="none" transform="translate(-7, 52)"><circle cx="8" cy="8" r="4" stroke="none" fill="red" fill-opacity="0.3"/></g><g pointer-events="all" display="none" transform="translate(17, 71)"><circle cx="8" cy="8" r="4" stroke="none" fill="red" fill-opacity="0.3"/></g><g pointer-events="all" display="none" transform="translate(42, 71)"><circle cx="8" cy="8" r="4" stroke="none" fill="red" fill-opacity="0.3"/></g><g pointer-events="all" display="none" transform="translate(67, 71)"><circle cx="8" cy="8" r="4" stroke="none" fill="red" fill-opacity="0.3"/></g><g pointer-events="all" display="none" transform="translate(91, 12)"><circle cx="8" cy="8" r="4" stroke="none" fill="red" fill-opacity="0.3"/></g><g pointer-events="all" display="none" transform="translate(91, 32)"><circle cx="8" cy="8" r="4" stroke="none" fill="red" fill-opacity="0.3"/></g><g pointer-events="all" display="none" transform="translate(91, 52)"><circle cx="8" cy="8" r="4" stroke="none" fill="red" fill-opacity="0.3"/></g><g pointer-events="all" display="none" transform="translate(17, -7)"><circle cx="8" cy="8" r="4" stroke="none" fill="red" fill-opacity="0.3"/></g><g pointer-events="all" display="none" transform="translate(42, -7)"><circle cx="8" cy="8" r="4" stroke="none" fill="red" fill-opacity="0.3"/></g><g pointer-events="all" display="none" transform="translate(67, -7)"><circle cx="8" cy="8" r="4" stroke="none" fill="red" fill-opacity="0.3"/></g><g pointer-events="all" display="none" transform="translate(42, 32)"><circle cx="8" cy="8" r="4" stroke="none" fill="red" fill-opacity="0.3"/></g></g></g></g></g><g class="edge"/></g><g class="controls"><g class="dockers"/><g class="magnets" transform="translate(212, 73)"><g pointer-events="all" display="none" transform="translate(292, 117)"><circle cx="8" cy="8" r="4" stroke="none" fill="red" fill-opacity="0.3"/></g></g></g></g><g id="_B8BF2C1E-6A32-42C1-860B-4A883EB752B6" bpmn2nodeid="_71F31B9C-86E7-46A2-99F0-B39FCBD305DE"><g class="stencils" transform="translate(212, 360)"><g class="me"><g pointer-events="painted" id="_B8BF2C1E-6A32-42C1-860B-4A883EB752B6">         <defs id="_B8BF2C1E-6A32-42C1-860B-4A883EB752B6__B8BF2C1E-6A32-42C1-860B-4A883EB752B6_3"> 		<radialGradient id="_B8BF2C1E-6A32-42C1-860B-4A883EB752B6background" cx="0%" cy="10%" r="100%" fx="20%" fy="10%"> 			<stop offset="0%" stop-color="#ffffff" stop-opacity="1" id="_B8BF2C1E-6A32-42C1-860B-4A883EB752B6__B8BF2C1E-6A32-42C1-860B-4A883EB752B6_4"/> 			<stop id="_B8BF2C1E-6A32-42C1-860B-4A883EB752B6fill_el" offset="100%" stop-color="#ffffff" stop-opacity="1"/> 		</radialGradient> 	</defs> 	   	 	<rect id="_B8BF2C1E-6A32-42C1-860B-4A883EB752B6border" oryx:resize="vertical horizontal" x="0" y="0" width="600" height="250" stroke="#000000" stroke-width="1" fill="url(#_B8BF2C1E-6A32-42C1-860B-4A883EB752B6background) white"/> 	 	 	 	<path id="_B8BF2C1E-6A32-42C1-860B-4A883EB752B6frame2" style="fill:none;stroke-width:1" d="M 0,0 L 0,250" oryx:anchors="left top bottom" stroke="#000000"/> 	 	undefined 	     <text x="50" y="125" oryx:rotate="270" font-size="12" id="_B8BF2C1E-6A32-42C1-860B-4A883EB752B6text_name" oryx:align="middle center" oryx:anchors="left" oryx:fittoelem="frame" stroke="black" stroke-width="0pt" letter-spacing="-0.01px" fill="#000000" text-anchor="middle" transform="rotate(270 50 125)" visibility="inherit" oryx:fontSize="12"><tspan x="50" y="125" dy="5">Ordering system</tspan></text>   </g></g><g class="children" style="overflow:hidden"><g id="_BEF03A08-0D62-4C1F-A44C-D76C8F80FBE8" bpmn2nodeid="_3EF858DD-6DB8-4F4C-892E-F492C699D18C"><g class="stencils" transform="translate(413, 13)"><g class="me"><g pointer-events="fill" oryx:minimumSize="50 40" id="_BEF03A08-0D62-4C1F-A44C-D76C8F80FBE8">   	<defs id="_BEF03A08-0D62-4C1F-A44C-D76C8F80FBE8__BEF03A08-0D62-4C1F-A44C-D76C8F80FBE8_17"> 		<radialGradient id="_BEF03A08-0D62-4C1F-A44C-D76C8F80FBE8background" cx="10%" cy="10%" r="100%" fx="10%" fy="10%"> 			<stop offset="0%" stop-color="#ffffff" stop-opacity="1" id="_BEF03A08-0D62-4C1F-A44C-D76C8F80FBE8__BEF03A08-0D62-4C1F-A44C-D76C8F80FBE8_18"/> 			<stop id="_BEF03A08-0D62-4C1F-A44C-D76C8F80FBE8fill_el" offset="100%" stop-color="#fafad2" stop-opacity="1"/> 		</radialGradient> 		<radialGradient id="_BEF03A08-0D62-4C1F-A44C-D76C8F80FBE8borderbackground" cx="10%" cy="10%" r="100%" fx="10%" fy="10%"> 			<stop offset="0%" stop-color="#ffffff" stop-opacity="1" id="_BEF03A08-0D62-4C1F-A44C-D76C8F80FBE8__BEF03A08-0D62-4C1F-A44C-D76C8F80FBE8_19"/> 			<stop id="_BEF03A08-0D62-4C1F-A44C-D76C8F80FBE8fill_border" offset="100%" stop-color="#000000" stop-opacity="1" stroke="#000000"/> 		</radialGradient> 	</defs> 	 	<rect id="_BEF03A08-0D62-4C1F-A44C-D76C8F80FBE8text_frame" oryx:anchors="bottom top right left" x="1" y="1" width="94" height="79" rx="10" ry="10" stroke="none" stroke-width="0" fill="none"/> 	<rect id="_BEF03A08-0D62-4C1F-A44C-D76C8F80FBE8bg_frame" oryx:resize="vertical horizontal" x="0" y="0" width="100" height="80" rx="10" ry="10" stroke="#000000" stroke-width="1" fill="url(#_BEF03A08-0D62-4C1F-A44C-D76C8F80FBE8background) #ffffcc"/> 		<text font-size="12" id="_BEF03A08-0D62-4C1F-A44C-D76C8F80FBE8text_name" x="50" y="40" oryx:align="middle center" oryx:fittoelem="text_frame" stroke="black" text-anchor="middle" stroke-width="0pt" letter-spacing="-0.01px" fill="#000000" transform="rotate(0 50 40)" visibility="inherit" oryx:fontSize="12"><tspan x="50" y="40" dy="5" id="ext-gen612">aaa</tspan></text>     <g id="_BEF03A08-0D62-4C1F-A44C-D76C8F80FBE8manualTask" transform="scale(0.7,0.7) translate(8,8)" display="none">     	<path oryx:anchors="top left" id="_BEF03A08-0D62-4C1F-A44C-D76C8F80FBE8frame" style="opacity:1;fill:none;fill-opacity:1;stroke-width:1" d="M0.5,3.751l4.083-3.25c0,0,11.166,0.083,12.083,0.083s-2.417,2.917-1.5,2.917     s11.667,0,12.584,0c1.166,1.708-0.168,3.167-0.834,3.667s0.875,1.917-1,4.417c-0.75,0.25,0.75,1.875-1.333,3.333     c-1.167,0.583,0.583,1.542-1.25,2.833c-1.167,0-20.833,0.083-20.833,0.083l-2-1.333V3.751z" stroke="#000000"/> 		<path id="_BEF03A08-0D62-4C1F-A44C-D76C8F80FBE8frame2" oryx:anchors="top left" style="opacity:1;fill:none;stroke-width:2" d="M 13.5 7 L 27 7" stroke="#000000"/> 		<path id="_BEF03A08-0D62-4C1F-A44C-D76C8F80FBE8frame3" oryx:anchors="top left" style="opacity:1;fill:none;stroke-width:2" d="M 13.5 11 L 26 11" stroke="#000000"/> 		<path id="_BEF03A08-0D62-4C1F-A44C-D76C8F80FBE8frame4" oryx:anchors="top left" style="opacity:1;fill:none;stroke-width:1.5" d="M 14 14.5 L 25 14.5" stroke="#000000"/> 		<path id="_BEF03A08-0D62-4C1F-A44C-D76C8F80FBE8frame5" oryx:anchors="top left" style="opacity:1;fill:none;stroke-width:1.5" d="M 8.2 3.1 L 15 3.1" stroke="#000000"/> 	</g> 	 	<g id="_BEF03A08-0D62-4C1F-A44C-D76C8F80FBE8businessRuleTask" transform="scale(0.7,0.7) translate(8,8)" display="none"> 		<rect id="_BEF03A08-0D62-4C1F-A44C-D76C8F80FBE8frame6" oryx:anchors="top left" x="0" y="0" width="22" height="4" style="opacity:1;fill:#B3B1B3;fill-opacity:1;" stroke="#000000"/> 		<rect id="_BEF03A08-0D62-4C1F-A44C-D76C8F80FBE8frame7" oryx:anchors="top left" x="0" y="4" style="opacity:1;fill:none;" width="22" height="12" stroke="#000000"/> 		<path id="_BEF03A08-0D62-4C1F-A44C-D76C8F80FBE8frame8" oryx:anchors="top left" style="opacity:1;fill:none;" d="M 0 10 L 22 10" stroke="#000000"/> 		<path id="_BEF03A08-0D62-4C1F-A44C-D76C8F80FBE8frame9" oryx:anchors="top left" style="opacity:1; fill:none;" d="M 7 4 L 7 16" stroke="#000000"/> 	</g> 	 	<g id="_BEF03A08-0D62-4C1F-A44C-D76C8F80FBE8scriptTask" transform="scale(0.7,0.7) translate(8,8)" display="inherit"> 		<path oryx:anchors="top left" id="_BEF03A08-0D62-4C1F-A44C-D76C8F80FBE8frame10" style="opacity:1;fill:none;" stroke="#000000" d="M6.402,0.5h14.5c0,0-5.833,2.833-5.833,5.583s4.417,6,4.417,9.167    s-4.167,5.083-4.167,5.083H0.235c0,0,5-2.667,5-5s-4.583-6.75-4.583-9.25S6.402,0.5,6.402,0.5z"/> 		<path oryx:anchors="top left" id="_BEF03A08-0D62-4C1F-A44C-D76C8F80FBE8frame11" style="opacity:1;fill:none;stroke-width:1.5" d="M 3.5 4.5 L 13.5 4.5" stroke="#000000"/> 		<path oryx:anchors="top left" id="_BEF03A08-0D62-4C1F-A44C-D76C8F80FBE8frame12" style="opacity:1;fill:none;stroke-width:1.5" d="M 3.8 8.5 L 13.8 8.5" stroke="#000000"/> 		<path oryx:anchors="top left" id="_BEF03A08-0D62-4C1F-A44C-D76C8F80FBE8frame13" style="opacity:1;fill:none;stroke-width:1.5" d="M 6.3 12.5 L 16.3 12.5" stroke="#000000"/> 		<path oryx:anchors="top left" id="_BEF03A08-0D62-4C1F-A44C-D76C8F80FBE8frame14" style="opacity:1;fill:none;stroke-width:1.5" d="M 6.5 16.5 L 16.5 16.5" stroke="#000000"/> 	</g> 	 	<g id="_BEF03A08-0D62-4C1F-A44C-D76C8F80FBE8userTask" transform="scale(0.7,0.7) translate(8,8)" display="none"> 		<path id="_BEF03A08-0D62-4C1F-A44C-D76C8F80FBE8frame15" oryx:anchors="top left" style="opacity:1;fill:#F4F6F7" stroke="#000000" d="M0.585,24.167h24.083v-7.833c0,0-2.333-3.917-7.083-5.167h-9.25    c-4.417,1.333-7.833,5.75-7.833,5.75L0.585,24.167z"/> 		<path id="_BEF03A08-0D62-4C1F-A44C-D76C8F80FBE8frame16" oryx:anchors="top left" style="opacity:1;fill:none" d="M 6 20 L 6 24" stroke="#000000"/> 		<path id="_BEF03A08-0D62-4C1F-A44C-D76C8F80FBE8frame17" oryx:anchors="top left" style="opacity:1;fill:none" d="M 20 20 L 20 24" stroke="#000000"/> 		<circle id="_BEF03A08-0D62-4C1F-A44C-D76C8F80FBE8frame18" oryx:anchors="top left" fill="black" cx="13.002" cy="5.916" r="5.417" stroke="#000000"/> 		<path id="_BEF03A08-0D62-4C1F-A44C-D76C8F80FBE8frame19" oryx:anchors="top left" style="opacity:1;fill:#F0EFF0;" stroke="#000000" d="M8.043,7.083c0,0,2.814-2.426,5.376-1.807s4.624-0.693,4.624-0.693    c0.25,1.688,0.042,3.75-1.458,5.584c0,0,1.083,0.75,1.083,1.5s0.125,1.875-1,3s-5.5,1.25-6.75,0S8.668,12.834,8.668,12    s0.583-1.25,1.25-1.917C8.835,9.5,7.419,7.708,8.043,7.083z"/> 	</g> 	 	<g id="_BEF03A08-0D62-4C1F-A44C-D76C8F80FBE8serviceTask" transform="scale(0.7,0.7) translate(8,8)" display="none"> 		<polygon oryx:anchors="top left" id="_BEF03A08-0D62-4C1F-A44C-D76C8F80FBE8frame20" style="opacity:1;fill:#ffffff" stroke="#000000" points="15.392,5.064 17.954,2.502 20.347,4.895 17.786,7.455     18.729,9.732 22.353,9.732 22.353,13.115 18.731,13.115 17.788,15.392 20.351,17.955 17.958,20.347 15.397,17.786 13.12,18.729     13.12,22.353 9.737,22.353 9.737,18.731 7.46,17.788 4.897,20.35 2.506,17.958 5.066,15.397 4.124,13.12 0.5,13.12 0.5,9.737     4.121,9.737 5.065,7.461 2.503,4.898 4.895,2.506 7.455,5.066 9.732,4.125 9.732,0.5 13.116,0.5 13.116,4.121 "/> 		<circle oryx:anchors="top left" id="_BEF03A08-0D62-4C1F-A44C-D76C8F80FBE8frame21" style="opacity:1;fill:none" stroke="#000000" cx="11.427" cy="11.426" r="3.714"/> 		<polygon oryx:anchors="top left" id="_BEF03A08-0D62-4C1F-A44C-D76C8F80FBE8frame22" style="opacity:1;fill:#ffffff" stroke="#000000" points="21.392,11.064 23.954,8.502 26.347,10.895 23.786,13.455     24.729,15.732 28.353,15.732 28.353,19.115 24.731,19.115 23.788,21.392 26.351,23.955 23.958,26.347 21.397,23.786 19.12,24.729     19.12,28.353 15.737,28.353 15.737,24.731 13.46,23.788 10.897,26.35 8.506,23.958 11.066,21.397 10.124,19.12 6.5,19.12     6.5,15.737 10.121,15.737 11.065,13.461 8.503,10.898 10.895,8.506 13.455,11.066 15.732,10.125 15.732,6.5 19.116,6.5     19.116,10.121 "/> 		<circle oryx:anchors="top left" id="_BEF03A08-0D62-4C1F-A44C-D76C8F80FBE8frame23" style="opacity:1;fill:none;" stroke="#000000" cx="17.427" cy="17.426" r="3.714"/> 	</g> 	 	<g id="_BEF03A08-0D62-4C1F-A44C-D76C8F80FBE8sendTask" display="none"> 		<path id="_BEF03A08-0D62-4C1F-A44C-D76C8F80FBE8stframe24" oryx:anchors="left top" stroke="#FFFFFF" fill="black" stroke-width="1" d="M8,11 L8,21 L24,21 L24,11 L16,17z"/> 		<path id="_BEF03A08-0D62-4C1F-A44C-D76C8F80FBE8stframe25" oryx:anchors="left top" stroke="#FFFFFF" fill="black" stroke-width="1" d="M7,10 L16,17 L25 10z"/> 	</g> 	 	<g id="_BEF03A08-0D62-4C1F-A44C-D76C8F80FBE8receiveTask" display="none"> 		<path id="_BEF03A08-0D62-4C1F-A44C-D76C8F80FBE8frame26" oryx:anchors="left top" stroke="#000000" fill="none" stroke-width="1" d="M8,11 L8,21 L24,21 L24,11z M8,11 L16,17 L24,11"/> 	</g> 	 	<g id="_BEF03A08-0D62-4C1F-A44C-D76C8F80FBE8none" display="inherit"/>  	<g id="_BEF03A08-0D62-4C1F-A44C-D76C8F80FBE8sequential" display="none">         <path oryx:anchors="bottom" fill="none" stroke="#000000" stroke-width="2" d="M46,76h10M46,72h10 M46,68h10" id="_BEF03A08-0D62-4C1F-A44C-D76C8F80FBE8__BEF03A08-0D62-4C1F-A44C-D76C8F80FBE8_20"/>     </g>   </g></g><g class="children" style="overflow:hidden"/><g class="edge"/></g><g class="controls"><g class="dockers"/><g class="magnets" transform="translate(413, 13)"><g pointer-events="all" display="none" transform="translate(-7, 12)"><circle cx="8" cy="8" r="4" stroke="none" fill="red" fill-opacity="0.3"/></g><g pointer-events="all" display="none" transform="translate(-7, 32)"><circle cx="8" cy="8" r="4" stroke="none" fill="red" fill-opacity="0.3"/></g><g pointer-events="all" display="none" transform="translate(-7, 52)"><circle cx="8" cy="8" r="4" stroke="none" fill="red" fill-opacity="0.3"/></g><g pointer-events="all" display="none" transform="translate(17, 71)"><circle cx="8" cy="8" r="4" stroke="none" fill="red" fill-opacity="0.3"/></g><g pointer-events="all" display="none" transform="translate(42, 71)"><circle cx="8" cy="8" r="4" stroke="none" fill="red" fill-opacity="0.3"/></g><g pointer-events="all" display="none" transform="translate(67, 71)"><circle cx="8" cy="8" r="4" stroke="none" fill="red" fill-opacity="0.3"/></g><g pointer-events="all" display="none" transform="translate(91, 12)"><circle cx="8" cy="8" r="4" stroke="none" fill="red" fill-opacity="0.3"/></g><g pointer-events="all" display="none" transform="translate(91, 32)"><circle cx="8" cy="8" r="4" stroke="none" fill="red" fill-opacity="0.3"/></g><g pointer-events="all" display="none" transform="translate(91, 52)"><circle cx="8" cy="8" r="4" stroke="none" fill="red" fill-opacity="0.3"/></g><g pointer-events="all" display="none" transform="translate(17, -7)"><circle cx="8" cy="8" r="4" stroke="none" fill="red" fill-opacity="0.3"/></g><g pointer-events="all" display="none" transform="translate(42, -7)"><circle cx="8" cy="8" r="4" stroke="none" fill="red" fill-opacity="0.3"/></g><g pointer-events="all" display="none" transform="translate(67, -7)"><circle cx="8" cy="8" r="4" stroke="none" fill="red" fill-opacity="0.3"/></g><g pointer-events="all" display="none" transform="translate(42, 32)"><circle cx="8" cy="8" r="4" stroke="none" fill="red" fill-opacity="0.3"/></g></g></g></g></g><g class="edge"/></g><g class="controls"><g class="dockers"/><g class="magnets" transform="translate(212, 360)"><g pointer-events="all" display="none" transform="translate(292, 117)"><circle cx="8" cy="8" r="4" stroke="none" fill="red" fill-opacity="0.3"/></g></g></g></g></g><g class="edge"><g id="_F6DFD39B-8445-448E-88B1-84644E517408" bpmn2nodeid="_C06A6456-D2E5-410C-B707-55F1603E7BD5"><g class="stencils"><g class="me"><g pointer-events="painted" bpmn2nodeid="_BF636342-5CE4-4A18-9A40-C400CC009812"><path id="_F6DFD39B-8445-448E-88B1-84644E517408_1" d="M605.9731276393711 238.40261697017394L659.0268723606289 372.59738302982606 " stroke="#000000" fill="none" stroke-width="2" stroke-linecap="round" stroke-linejoin="round" marker-start="url(#_F6DFD39B-8445-448E-88B1-84644E517408start)" marker-end="url(#_F6DFD39B-8445-448E-88B1-84644E517408end)"/></g><text id="_F6DFD39B-8445-448E-88B1-84644E517408text_name" font-size="12" x="619.9731276393711" y="224.40261697017394" oryx:edgePosition="startTop" stroke-width="0pt" letter-spacing="-0.01px" fill="#000000" text-anchor="start" transform="rotate(68.42869280874538 605.9731276393711 238.40261697017394)" visibility="inherit" oryx:fontSize="12"/></g><g class="children" style="overflow:hidden"/><g class="edge"/></g><g class="controls"><g class="dockers"/><g class="magnets"/></g></g><g id="_613A477B-281B-4842-A861-984A5058B13F" bpmn2nodeid="_3CF0986B-E644-4916-8F75-4073853AF26F"><g class="stencils"><g class="me"><g pointer-events="painted" bpmn2nodeid="_CBFFD289-3D8B-49C3-8F03-9E685FF463A5"><path id="_613A477B-281B-4842-A861-984A5058B13F_1" d="M688.9113859804232 372.58178397579735L744.3386140195768 211.54321602420268 " stroke="#000000" fill="none" stroke-width="2" stroke-linecap="round" stroke-linejoin="round" marker-start="url(#_613A477B-281B-4842-A861-984A5058B13Fstart)" marker-end="url(#_613A477B-281B-4842-A861-984A5058B13Fend)"/></g><text id="_613A477B-281B-4842-A861-984A5058B13Ftext_name" font-size="12" x="702.9113859804232" y="358.58178397579735" oryx:edgePosition="startTop" stroke-width="0pt" letter-spacing="-0.01px" fill="#000000" text-anchor="start" transform="rotate(288.9927482464679 688.9113859804232 372.58178397579735)" visibility="inherit" oryx:fontSize="12"/></g><g class="children" style="overflow:hidden"/><g class="edge"/></g><g class="controls"><g class="dockers"/><g class="magnets"/></g></g><g id="_48F912D4-BC25-4EED-A476-DBB9A37BB878" bpmn2nodeid="_7898E8E0-2307-4B2A-A4A4-6D04B8F55F58"><g class="stencils"><g class="me"><g pointer-events="painted" bpmn2nodeid="_07E3CE7A-D2FD-4DF8-B024-A55C79A5F855"><path id="_48F912D4-BC25-4EED-A476-DBB9A37BB878_1" d="M345.609375 198L389.15625 198 " stroke="#000000" fill="none" stroke-width="2" stroke-linecap="round" stroke-linejoin="round" marker-start="url(#_48F912D4-BC25-4EED-A476-DBB9A37BB878start)" marker-end="url(#_48F912D4-BC25-4EED-A476-DBB9A37BB878end)"/></g><text id="_48F912D4-BC25-4EED-A476-DBB9A37BB878text_name" font-size="12" x="359.609375" y="184" oryx:edgePosition="startTop" stroke-width="0pt" letter-spacing="-0.01px" fill="#000000" text-anchor="start" transform="rotate(360 345.609375 198)" visibility="inherit" oryx:fontSize="12"/></g><g class="children" style="overflow:hidden"/><g class="edge"/></g><g class="controls"><g class="dockers"/><g class="magnets"/></g></g><g id="_ADC7C366-542B-4ADF-9927-ECA129189E46" bpmn2nodeid="_AE2135B8-CD4B-4B40-889A-2AC7E0BDE612"><g class="stencils"><g class="me"><g pointer-events="painted" bpmn2nodeid="_8F2044B5-FC1E-4239-A21F-BA88D00ED9DD"><path id="_ADC7C366-542B-4ADF-9927-ECA129189E46_1" d="M490.21875 198L539.78125 198 " stroke="#000000" fill="none" stroke-width="2" stroke-linecap="round" stroke-linejoin="round" marker-start="url(#_ADC7C366-542B-4ADF-9927-ECA129189E46start)" marker-end="url(#_ADC7C366-542B-4ADF-9927-ECA129189E46end)"/></g><text id="_ADC7C366-542B-4ADF-9927-ECA129189E46text_name" font-size="12" x="504.21875" y="184" oryx:edgePosition="startTop" stroke-width="0pt" letter-spacing="-0.01px" fill="#000000" text-anchor="start" transform="rotate(360 490.21875 198)" visibility="inherit" oryx:fontSize="12"/></g><g class="children" style="overflow:hidden"/><g class="edge"/></g><g class="controls"><g class="dockers"/><g class="magnets"/></g></g></g><text id="_38473DF2-CE75-488C-AD62-97596BA44DF4" style="stroke-width:1;fill:rgb(177,194,214);font-family:arial;font-weight:bold" font-size="12" onclick="ORYX.Plugins.CanvasTitle.openTextualAnalysis()" onmouseover="ORYX.Plugins.CanvasTitle.addToolTip('_38473DF2-CE75-488C-AD62-97596BA44DF4')" transform="translate(10, 20)">OrderCreation v.1.0 (src.OrderCreation)</text></g></g></svg>