<svg xmlns="http://www.w3.org/2000/svg" xmlns:oryx="http://oryx-editor.org" id="_C4336885-0DB6-4A3D-869B-659C40208B4F" width="838" height="358" xmlns:xlink="http://www.w3.org/1999/xlink" xmlns:svg="http://www.w3.org/2000/svg"><defs><marker id="_F6E4419A-E57D-4B05-A624-1A750AC8C9CAstart" refX="1" refY="5" markerUnits="userSpaceOnUse" markerWidth="17" markerHeight="11" orient="auto" fill="#000000" stroke="#000000"> 	  		<path id="_F6E4419A-E57D-4B05-A624-1A750AC8C9CAconditional" d="M 0 5 L 8 0 L 16 5 L 8 10 L 0 5" fill="white" stroke="#000000" stroke-width="1" display="none"/> 			<path id="_F6E4419A-E57D-4B05-A624-1A750AC8C9CAdefault" d="M 5 0 L 11 10" fill="white" stroke="#000000" stroke-width="1" display="none"/> 	  	</marker><marker id="_F6E4419A-E57D-4B05-A624-1A750AC8C9CAend" refX="15" refY="6" markerUnits="userSpaceOnUse" markerWidth="15" markerHeight="12" orient="auto" fill="#000000" stroke="#000000"> 	  		<path id="_F6E4419A-E57D-4B05-A624-1A750AC8C9CAframe2" d="M 0 1 L 15 6 L 0 11z" fill="#000000" stroke="#000000" stroke-linejoin="round" stroke-width="2"/> 	  	</marker><marker id="_AD09783E-0F19-4EA7-9C58-B04E85669057start" refX="1" refY="5" markerUnits="userSpaceOnUse" markerWidth="17" markerHeight="11" orient="auto" fill="#000000" stroke="#000000"> 	  		<path id="_AD09783E-0F19-4EA7-9C58-B04E85669057conditional" d="M 0 5 L 8 0 L 16 5 L 8 10 L 0 5" fill="white" stroke="#000000" stroke-width="1" display="none"/> 			<path id="_AD09783E-0F19-4EA7-9C58-B04E85669057default" d="M 5 0 L 11 10" fill="white" stroke="#000000" stroke-width="1" display="none"/> 	  	</marker><marker id="_AD09783E-0F19-4EA7-9C58-B04E85669057end" refX="15" refY="6" markerUnits="userSpaceOnUse" markerWidth="15" markerHeight="12" orient="auto" fill="#000000" stroke="#000000"> 	  		<path id="_AD09783E-0F19-4EA7-9C58-B04E85669057frame2" d="M 0 1 L 15 6 L 0 11z" fill="#000000" stroke="#000000" stroke-linejoin="round" stroke-width="2"/> 	  	</marker></defs><g stroke="none" font-family="Verdana, sans-serif" font-size-adjust="none" font-style="normal" font-variant="normal" font-weight="normal" line-heigth="normal" font-size="12"><g class="stencils" transform="translate(25.000000000000057, 24.999999999999915)"><g class="me"/><g class="children"><g id="_E93D4314-6EC3-4491-B0DE-1F85858F1E33" bpmn2nodeid="_F4575364-0EB4-45AD-AB65-863EB6E33795"><g class="stencils" transform="translate(188, 58)"><g class="me"><g pointer-events="painted" id="_E93D4314-6EC3-4491-B0DE-1F85858F1E33">         <defs id="_E93D4314-6EC3-4491-B0DE-1F85858F1E33__E93D4314-6EC3-4491-B0DE-1F85858F1E33_3"> 		<radialGradient id="_E93D4314-6EC3-4491-B0DE-1F85858F1E33background" cx="0%" cy="10%" r="100%" fx="20%" fy="10%"> 			<stop offset="0%" stop-color="#ffffff" stop-opacity="1" id="_E93D4314-6EC3-4491-B0DE-1F85858F1E33__E93D4314-6EC3-4491-B0DE-1F85858F1E33_4"/> 			<stop id="_E93D4314-6EC3-4491-B0DE-1F85858F1E33fill_el" offset="100%" stop-color="#ffffff" stop-opacity="1"/> 		</radialGradient> 	</defs> 	   	 	<rect id="_E93D4314-6EC3-4491-B0DE-1F85858F1E33border" oryx:resize="vertical horizontal" x="0" y="0" width="600" height="250" stroke="#000000" stroke-width="1" fill="url(#_E93D4314-6EC3-4491-B0DE-1F85858F1E33background) white"/> 	 	 	 	<path id="_E93D4314-6EC3-4491-B0DE-1F85858F1E33frame2" style="fill:none;stroke-width:1" d="M 0,0 L 0,250" oryx:anchors="left top bottom" stroke="#000000"/> 	 	undefined 	     <text x="50" y="125" oryx:rotate="270" font-size="12" id="_E93D4314-6EC3-4491-B0DE-1F85858F1E33text_name" oryx:align="middle center" oryx:anchors="left" oryx:fittoelem="frame" stroke="black" stroke-width="0pt" letter-spacing="-0.01px" fill="#000000" text-anchor="middle" transform="rotate(270 50 125)" visibility="inherit" oryx:fontSize="12"><tspan x="50" y="125" dy="5">Payment system</tspan></text>   </g></g><g class="children" style="overflow:hidden"><g id="_B88396D6-6A92-4E51-9D35-E8173C497DB9" bpmn2nodeid="processStartEvent"><g class="stencils" transform="translate(97, 107)"><g class="me"><g pointer-events="fill" id="_B88396D6-6A92-4E51-9D35-E8173C497DB9">        <defs id="_B88396D6-6A92-4E51-9D35-E8173C497DB9__B88396D6-6A92-4E51-9D35-E8173C497DB9_5"> 		<radialGradient id="_B88396D6-6A92-4E51-9D35-E8173C497DB9background" cx="10%" cy="10%" r="100%" fx="10%" fy="10%"> 			<stop offset="0%" stop-color="#ffffff" stop-opacity="1" id="_B88396D6-6A92-4E51-9D35-E8173C497DB9__B88396D6-6A92-4E51-9D35-E8173C497DB9_6"/> 			<stop id="_B88396D6-6A92-4E51-9D35-E8173C497DB9fill_el" offset="100%" stop-color="#9acd32" stop-opacity="1"/> 		</radialGradient> 	</defs> 	     <circle id="_B88396D6-6A92-4E51-9D35-E8173C497DB9bg_frame" cx="15" cy="15" r="15" stroke="#000000" fill="url(#_B88396D6-6A92-4E51-9D35-E8173C497DB9background) white" stroke-width="1" style="stroke-dasharray: 5.5, 3"/>      <circle id="_B88396D6-6A92-4E51-9D35-E8173C497DB9frame" cx="15" cy="15" r="15" stroke="#000000" fill="none" stroke-width="1" display="inherit"/>  	<text font-size="11" id="_B88396D6-6A92-4E51-9D35-E8173C497DB9text_name" x="15" y="32" oryx:align="top center" stroke="black" stroke-width="0pt" letter-spacing="-0.01px" fill="#000000" text-anchor="middle" transform="rotate(0 15 32)" visibility="inherit" oryx:fontSize="11"><tspan x="15" y="32" dy="11">Payment</tspan><tspan x="15" y="32" dy="22">request</tspan><tspan x="15" y="32" dy="33">received</tspan></text>   </g></g><g class="children" style="overflow:hidden"/><g class="edge"/></g><g class="controls"><g class="dockers"/><g class="magnets" transform="translate(97, 107)"><g pointer-events="all" display="none" transform="translate(7, 7)"><circle cx="8" cy="8" r="4" stroke="none" fill="red" fill-opacity="0.3"/></g></g></g></g><g id="_8E5DC914-D76D-4E56-B7FF-394CF4395BF0" bpmn2nodeid="_CAA92E59-3210-484D-89D1-28DB20F8DB9C"><g class="stencils" transform="translate(352, 108)"><g class="me"><g pointer-events="fill" id="_8E5DC914-D76D-4E56-B7FF-394CF4395BF0">      <defs id="_8E5DC914-D76D-4E56-B7FF-394CF4395BF0__8E5DC914-D76D-4E56-B7FF-394CF4395BF0_5"> 		<radialGradient id="_8E5DC914-D76D-4E56-B7FF-394CF4395BF0background" cx="10%" cy="10%" r="100%" fx="10%" fy="10%"> 			<stop offset="0%" stop-color="#ffffff" stop-opacity="1" id="_8E5DC914-D76D-4E56-B7FF-394CF4395BF0__8E5DC914-D76D-4E56-B7FF-394CF4395BF0_6"/> 			<stop id="_8E5DC914-D76D-4E56-B7FF-394CF4395BF0fill_el" offset="100%" stop-color="#ff6347" stop-opacity="1"/> 		</radialGradient> 	</defs> 	     <circle id="_8E5DC914-D76D-4E56-B7FF-394CF4395BF0bg_frame" cx="14" cy="14" r="14" stroke="#000000" fill="url(#_8E5DC914-D76D-4E56-B7FF-394CF4395BF0background) white" stroke-width="3"/> 	<text font-size="11" id="_8E5DC914-D76D-4E56-B7FF-394CF4395BF0text_name" x="14" y="30" oryx:align="top center" stroke="black" stroke-width="0pt" letter-spacing="-0.01px" fill="#000000" text-anchor="middle" transform="rotate(0 14 30)" visibility="inherit" oryx:fontSize="11"/>   </g></g><g class="children" style="overflow:hidden"/><g class="edge"/></g><g class="controls"><g class="dockers"/><g class="magnets" transform="translate(352, 108)"><g pointer-events="all" display="none" transform="translate(6, 6)"><circle cx="8" cy="8" r="4" stroke="none" fill="red" fill-opacity="0.3"/></g></g></g></g><g id="_F95B505C-29AF-469C-AD51-B2154B7F003A" bpmn2nodeid="_656D18D5-3F69-4EC3-BA11-3FFC70D5F19B"><g class="stencils" transform="translate(172, 82)"><g class="me"><g pointer-events="fill" oryx:minimumSize="50 40" id="_F95B505C-29AF-469C-AD51-B2154B7F003A">   	<defs id="_F95B505C-29AF-469C-AD51-B2154B7F003A__F95B505C-29AF-469C-AD51-B2154B7F003A_17"> 		<radialGradient id="_F95B505C-29AF-469C-AD51-B2154B7F003Abackground" cx="10%" cy="10%" r="100%" fx="10%" fy="10%"> 			<stop offset="0%" stop-color="#ffffff" stop-opacity="1" id="_F95B505C-29AF-469C-AD51-B2154B7F003A__F95B505C-29AF-469C-AD51-B2154B7F003A_18"/> 			<stop id="_F95B505C-29AF-469C-AD51-B2154B7F003Afill_el" offset="100%" stop-color="#fafad2" stop-opacity="1"/> 		</radialGradient> 		<radialGradient id="_F95B505C-29AF-469C-AD51-B2154B7F003Aborderbackground" cx="10%" cy="10%" r="100%" fx="10%" fy="10%"> 			<stop offset="0%" stop-color="#ffffff" stop-opacity="1" id="_F95B505C-29AF-469C-AD51-B2154B7F003A__F95B505C-29AF-469C-AD51-B2154B7F003A_19"/> 			<stop id="_F95B505C-29AF-469C-AD51-B2154B7F003Afill_border" offset="100%" stop-color="#000000" stop-opacity="1" stroke="#000000"/> 		</radialGradient> 	</defs> 	 	<rect id="_F95B505C-29AF-469C-AD51-B2154B7F003Atext_frame" oryx:anchors="bottom top right left" x="1" y="1" width="94" height="79" rx="10" ry="10" stroke="none" stroke-width="0" fill="none"/> 	<rect id="_F95B505C-29AF-469C-AD51-B2154B7F003Abg_frame" oryx:resize="vertical horizontal" x="0" y="0" width="100" height="80" rx="10" ry="10" stroke="#000000" stroke-width="1" fill="url(#_F95B505C-29AF-469C-AD51-B2154B7F003Abackground) #ffffcc"/> 		<text font-size="12" id="_F95B505C-29AF-469C-AD51-B2154B7F003Atext_name" x="50" y="40" oryx:align="middle center" oryx:fittoelem="text_frame" stroke="black" text-anchor="middle" stroke-width="0pt" letter-spacing="-0.01px" fill="#000000" transform="rotate(0 50 40)" visibility="inherit" oryx:fontSize="12"><tspan x="50" y="40" dy="5">aaa</tspan></text>     <g id="_F95B505C-29AF-469C-AD51-B2154B7F003AmanualTask" transform="scale(0.7,0.7) translate(8,8)" display="none">     	<path oryx:anchors="top left" id="_F95B505C-29AF-469C-AD51-B2154B7F003Aframe" style="opacity:1;fill:none;fill-opacity:1;stroke-width:1" d="M0.5,3.751l4.083-3.25c0,0,11.166,0.083,12.083,0.083s-2.417,2.917-1.5,2.917     s11.667,0,12.584,0c1.166,1.708-0.168,3.167-0.834,3.667s0.875,1.917-1,4.417c-0.75,0.25,0.75,1.875-1.333,3.333     c-1.167,0.583,0.583,1.542-1.25,2.833c-1.167,0-20.833,0.083-20.833,0.083l-2-1.333V3.751z" stroke="#000000"/> 		<path id="_F95B505C-29AF-469C-AD51-B2154B7F003Aframe2" oryx:anchors="top left" style="opacity:1;fill:none;stroke-width:2" d="M 13.5 7 L 27 7" stroke="#000000"/> 		<path id="_F95B505C-29AF-469C-AD51-B2154B7F003Aframe3" oryx:anchors="top left" style="opacity:1;fill:none;stroke-width:2" d="M 13.5 11 L 26 11" stroke="#000000"/> 		<path id="_F95B505C-29AF-469C-AD51-B2154B7F003Aframe4" oryx:anchors="top left" style="opacity:1;fill:none;stroke-width:1.5" d="M 14 14.5 L 25 14.5" stroke="#000000"/> 		<path id="_F95B505C-29AF-469C-AD51-B2154B7F003Aframe5" oryx:anchors="top left" style="opacity:1;fill:none;stroke-width:1.5" d="M 8.2 3.1 L 15 3.1" stroke="#000000"/> 	</g> 	 	<g id="_F95B505C-29AF-469C-AD51-B2154B7F003AbusinessRuleTask" transform="scale(0.7,0.7) translate(8,8)" display="none"> 		<rect id="_F95B505C-29AF-469C-AD51-B2154B7F003Aframe6" oryx:anchors="top left" x="0" y="0" width="22" height="4" style="opacity:1;fill:#B3B1B3;fill-opacity:1;" stroke="#000000"/> 		<rect id="_F95B505C-29AF-469C-AD51-B2154B7F003Aframe7" oryx:anchors="top left" x="0" y="4" style="opacity:1;fill:none;" width="22" height="12" stroke="#000000"/> 		<path id="_F95B505C-29AF-469C-AD51-B2154B7F003Aframe8" oryx:anchors="top left" style="opacity:1;fill:none;" d="M 0 10 L 22 10" stroke="#000000"/> 		<path id="_F95B505C-29AF-469C-AD51-B2154B7F003Aframe9" oryx:anchors="top left" style="opacity:1; fill:none;" d="M 7 4 L 7 16" stroke="#000000"/> 	</g> 	 	<g id="_F95B505C-29AF-469C-AD51-B2154B7F003AscriptTask" transform="scale(0.7,0.7) translate(8,8)" display="inherit"> 		<path oryx:anchors="top left" id="_F95B505C-29AF-469C-AD51-B2154B7F003Aframe10" style="opacity:1;fill:none;" stroke="#000000" d="M6.402,0.5h14.5c0,0-5.833,2.833-5.833,5.583s4.417,6,4.417,9.167    s-4.167,5.083-4.167,5.083H0.235c0,0,5-2.667,5-5s-4.583-6.75-4.583-9.25S6.402,0.5,6.402,0.5z"/> 		<path oryx:anchors="top left" id="_F95B505C-29AF-469C-AD51-B2154B7F003Aframe11" style="opacity:1;fill:none;stroke-width:1.5" d="M 3.5 4.5 L 13.5 4.5" stroke="#000000"/> 		<path oryx:anchors="top left" id="_F95B505C-29AF-469C-AD51-B2154B7F003Aframe12" style="opacity:1;fill:none;stroke-width:1.5" d="M 3.8 8.5 L 13.8 8.5" stroke="#000000"/> 		<path oryx:anchors="top left" id="_F95B505C-29AF-469C-AD51-B2154B7F003Aframe13" style="opacity:1;fill:none;stroke-width:1.5" d="M 6.3 12.5 L 16.3 12.5" stroke="#000000"/> 		<path oryx:anchors="top left" id="_F95B505C-29AF-469C-AD51-B2154B7F003Aframe14" style="opacity:1;fill:none;stroke-width:1.5" d="M 6.5 16.5 L 16.5 16.5" stroke="#000000"/> 	</g> 	 	<g id="_F95B505C-29AF-469C-AD51-B2154B7F003AuserTask" transform="scale(0.7,0.7) translate(8,8)" display="none"> 		<path id="_F95B505C-29AF-469C-AD51-B2154B7F003Aframe15" oryx:anchors="top left" style="opacity:1;fill:#F4F6F7" stroke="#000000" d="M0.585,24.167h24.083v-7.833c0,0-2.333-3.917-7.083-5.167h-9.25    c-4.417,1.333-7.833,5.75-7.833,5.75L0.585,24.167z"/> 		<path id="_F95B505C-29AF-469C-AD51-B2154B7F003Aframe16" oryx:anchors="top left" style="opacity:1;fill:none" d="M 6 20 L 6 24" stroke="#000000"/> 		<path id="_F95B505C-29AF-469C-AD51-B2154B7F003Aframe17" oryx:anchors="top left" style="opacity:1;fill:none" d="M 20 20 L 20 24" stroke="#000000"/> 		<circle id="_F95B505C-29AF-469C-AD51-B2154B7F003Aframe18" oryx:anchors="top left" fill="black" cx="13.002" cy="5.916" r="5.417" stroke="#000000"/> 		<path id="_F95B505C-29AF-469C-AD51-B2154B7F003Aframe19" oryx:anchors="top left" style="opacity:1;fill:#F0EFF0;" stroke="#000000" d="M8.043,7.083c0,0,2.814-2.426,5.376-1.807s4.624-0.693,4.624-0.693    c0.25,1.688,0.042,3.75-1.458,5.584c0,0,1.083,0.75,1.083,1.5s0.125,1.875-1,3s-5.5,1.25-6.75,0S8.668,12.834,8.668,12    s0.583-1.25,1.25-1.917C8.835,9.5,7.419,7.708,8.043,7.083z"/> 	</g> 	 	<g id="_F95B505C-29AF-469C-AD51-B2154B7F003AserviceTask" transform="scale(0.7,0.7) translate(8,8)" display="none"> 		<polygon oryx:anchors="top left" id="_F95B505C-29AF-469C-AD51-B2154B7F003Aframe20" style="opacity:1;fill:#ffffff" stroke="#000000" points="15.392,5.064 17.954,2.502 20.347,4.895 17.786,7.455     18.729,9.732 22.353,9.732 22.353,13.115 18.731,13.115 17.788,15.392 20.351,17.955 17.958,20.347 15.397,17.786 13.12,18.729     13.12,22.353 9.737,22.353 9.737,18.731 7.46,17.788 4.897,20.35 2.506,17.958 5.066,15.397 4.124,13.12 0.5,13.12 0.5,9.737     4.121,9.737 5.065,7.461 2.503,4.898 4.895,2.506 7.455,5.066 9.732,4.125 9.732,0.5 13.116,0.5 13.116,4.121 "/> 		<circle oryx:anchors="top left" id="_F95B505C-29AF-469C-AD51-B2154B7F003Aframe21" style="opacity:1;fill:none" stroke="#000000" cx="11.427" cy="11.426" r="3.714"/> 		<polygon oryx:anchors="top left" id="_F95B505C-29AF-469C-AD51-B2154B7F003Aframe22" style="opacity:1;fill:#ffffff" stroke="#000000" points="21.392,11.064 23.954,8.502 26.347,10.895 23.786,13.455     24.729,15.732 28.353,15.732 28.353,19.115 24.731,19.115 23.788,21.392 26.351,23.955 23.958,26.347 21.397,23.786 19.12,24.729     19.12,28.353 15.737,28.353 15.737,24.731 13.46,23.788 10.897,26.35 8.506,23.958 11.066,21.397 10.124,19.12 6.5,19.12     6.5,15.737 10.121,15.737 11.065,13.461 8.503,10.898 10.895,8.506 13.455,11.066 15.732,10.125 15.732,6.5 19.116,6.5     19.116,10.121 "/> 		<circle oryx:anchors="top left" id="_F95B505C-29AF-469C-AD51-B2154B7F003Aframe23" style="opacity:1;fill:none;" stroke="#000000" cx="17.427" cy="17.426" r="3.714"/> 	</g> 	 	<g id="_F95B505C-29AF-469C-AD51-B2154B7F003AsendTask" display="none"> 		<path id="_F95B505C-29AF-469C-AD51-B2154B7F003Astframe24" oryx:anchors="left top" stroke="#FFFFFF" fill="black" stroke-width="1" d="M8,11 L8,21 L24,21 L24,11 L16,17z"/> 		<path id="_F95B505C-29AF-469C-AD51-B2154B7F003Astframe25" oryx:anchors="left top" stroke="#FFFFFF" fill="black" stroke-width="1" d="M7,10 L16,17 L25 10z"/> 	</g> 	 	<g id="_F95B505C-29AF-469C-AD51-B2154B7F003AreceiveTask" display="none"> 		<path id="_F95B505C-29AF-469C-AD51-B2154B7F003Aframe26" oryx:anchors="left top" stroke="#000000" fill="none" stroke-width="1" d="M8,11 L8,21 L24,21 L24,11z M8,11 L16,17 L24,11"/> 	</g> 	 	<g id="_F95B505C-29AF-469C-AD51-B2154B7F003Anone" display="inherit"/>  	<g id="_F95B505C-29AF-469C-AD51-B2154B7F003Asequential" display="none">         <path oryx:anchors="bottom" fill="none" stroke="#000000" stroke-width="2" d="M46,76h10M46,72h10 M46,68h10" id="_F95B505C-29AF-469C-AD51-B2154B7F003A__F95B505C-29AF-469C-AD51-B2154B7F003A_20"/>     </g>   </g></g><g class="children" style="overflow:hidden"/><g class="edge"/></g><g class="controls"><g class="dockers"/><g class="magnets" transform="translate(172, 82)"><g pointer-events="all" display="none" transform="translate(-7, 12)"><circle cx="8" cy="8" r="4" stroke="none" fill="red" fill-opacity="0.3"/></g><g pointer-events="all" display="none" transform="translate(-7, 32)"><circle cx="8" cy="8" r="4" stroke="none" fill="red" fill-opacity="0.3"/></g><g pointer-events="all" display="none" transform="translate(-7, 52)"><circle cx="8" cy="8" r="4" stroke="none" fill="red" fill-opacity="0.3"/></g><g pointer-events="all" display="none" transform="translate(17, 71)"><circle cx="8" cy="8" r="4" stroke="none" fill="red" fill-opacity="0.3"/></g><g pointer-events="all" display="none" transform="translate(42, 71)"><circle cx="8" cy="8" r="4" stroke="none" fill="red" fill-opacity="0.3"/></g><g pointer-events="all" display="none" transform="translate(67, 71)"><circle cx="8" cy="8" r="4" stroke="none" fill="red" fill-opacity="0.3"/></g><g pointer-events="all" display="none" transform="translate(91, 12)"><circle cx="8" cy="8" r="4" stroke="none" fill="red" fill-opacity="0.3"/></g><g pointer-events="all" display="none" transform="translate(91, 32)"><circle cx="8" cy="8" r="4" stroke="none" fill="red" fill-opacity="0.3"/></g><g pointer-events="all" display="none" transform="translate(91, 52)"><circle cx="8" cy="8" r="4" stroke="none" fill="red" fill-opacity="0.3"/></g><g pointer-events="all" display="none" transform="translate(17, -7)"><circle cx="8" cy="8" r="4" stroke="none" fill="red" fill-opacity="0.3"/></g><g pointer-events="all" display="none" transform="translate(42, -7)"><circle cx="8" cy="8" r="4" stroke="none" fill="red" fill-opacity="0.3"/></g><g pointer-events="all" display="none" transform="translate(67, -7)"><circle cx="8" cy="8" r="4" stroke="none" fill="red" fill-opacity="0.3"/></g><g pointer-events="all" display="none" transform="translate(42, 32)"><circle cx="8" cy="8" r="4" stroke="none" fill="red" fill-opacity="0.3"/></g></g></g></g></g><g class="edge"/></g><g class="controls"><g class="dockers"/><g class="magnets" transform="translate(188, 58)"><g pointer-events="all" display="none" transform="translate(292, 117)"><circle cx="8" cy="8" r="4" stroke="none" fill="red" fill-opacity="0.3"/></g></g></g></g></g><g class="edge"><g id="_F6E4419A-E57D-4B05-A624-1A750AC8C9CA" bpmn2nodeid="_14F6B658-96C9-45B3-BF3E-BB6C289A2485"><g class="stencils"><g class="me"><g pointer-events="painted" bpmn2nodeid="_DEB674A3-A90F-40CA-A84A-9E62CB2E470C"><path id="_F6E4419A-E57D-4B05-A624-1A750AC8C9CA_1" d="M315.609375 180L359.15625 180 " stroke="#000000" fill="none" stroke-width="2" stroke-linecap="round" stroke-linejoin="round" marker-start="url(#_F6E4419A-E57D-4B05-A624-1A750AC8C9CAstart)" marker-end="url(#_F6E4419A-E57D-4B05-A624-1A750AC8C9CAend)"/></g><text id="_F6E4419A-E57D-4B05-A624-1A750AC8C9CAtext_name" font-size="12" x="329.609375" y="166" oryx:edgePosition="startTop" stroke-width="0pt" letter-spacing="-0.01px" fill="#000000" text-anchor="start" transform="rotate(360 315.609375 180)" visibility="inherit" oryx:fontSize="12"/></g><g class="children" style="overflow:hidden"/><g class="edge"/></g><g class="controls"><g class="dockers"/><g class="magnets"/></g></g><g id="_AD09783E-0F19-4EA7-9C58-B04E85669057" bpmn2nodeid="_C7F07779-69D6-4B1A-89C4-5E4D9183D581"><g class="stencils"><g class="me"><g pointer-events="painted" bpmn2nodeid="_D690CE82-0BA0-4005-9AB9-137B17BC9345"><path id="_AD09783E-0F19-4EA7-9C58-B04E85669057_1" d="M460.5 180L539.5 180 " stroke="#000000" fill="none" stroke-width="2" stroke-linecap="round" stroke-linejoin="round" marker-start="url(#_AD09783E-0F19-4EA7-9C58-B04E85669057start)" marker-end="url(#_AD09783E-0F19-4EA7-9C58-B04E85669057end)"/></g><text id="_AD09783E-0F19-4EA7-9C58-B04E85669057text_name" font-size="12" x="474.5" y="166" oryx:edgePosition="startTop" stroke-width="0pt" letter-spacing="-0.01px" fill="#000000" text-anchor="start" transform="rotate(360 460.5 180)" visibility="inherit" oryx:fontSize="12"/></g><g class="children" style="overflow:hidden"/><g class="edge"/></g><g class="controls"><g class="dockers"/><g class="magnets"/></g></g></g><text id="_961780F3-0124-44FD-ABE2-227916908943" style="stroke-width:1;fill:rgb(177,194,214);font-family:arial;font-weight:bold" font-size="12" onclick="ORYX.Plugins.CanvasTitle.openTextualAnalysis()" onmouseover="ORYX.Plugins.CanvasTitle.addToolTip('_961780F3-0124-44FD-ABE2-227916908943')" transform="translate(10, 20)">Payment v.1.0 (src.Payment)</text></g></g></svg>